%TF.GenerationSoftware,KiCad,Pcbnew,9.0.3*%
%TF.CreationDate,2026-02-02T13:01:33+02:00*%
%TF.ProjectId,Steering Wheel,53746565-7269-46e6-9720-576865656c2e,rev?*%
%TF.SameCoordinates,Original*%
%TF.FileFunction,Copper,L2,Bot*%
%TF.FilePolarity,Positive*%
%FSLAX46Y46*%
G04 Gerber Fmt 4.6, Leading zero omitted, Abs format (unit mm)*
G04 Created by KiCad (PCBNEW 9.0.3) date 2026-02-02 13:01:33*
%MOMM*%
%LPD*%
G01*
G04 APERTURE LIST*
G04 Aperture macros list*
%AMRoundRect*
0 Rectangle with rounded corners*
0 $1 Rounding radius*
0 $2 $3 $4 $5 $6 $7 $8 $9 X,Y pos of 4 corners*
0 Add a 4 corners polygon primitive as box body*
4,1,4,$2,$3,$4,$5,$6,$7,$8,$9,$2,$3,0*
0 Add four circle primitives for the rounded corners*
1,1,$1+$1,$2,$3*
1,1,$1+$1,$4,$5*
1,1,$1+$1,$6,$7*
1,1,$1+$1,$8,$9*
0 Add four rect primitives between the rounded corners*
20,1,$1+$1,$2,$3,$4,$5,0*
20,1,$1+$1,$4,$5,$6,$7,0*
20,1,$1+$1,$6,$7,$8,$9,0*
20,1,$1+$1,$8,$9,$2,$3,0*%
G04 Aperture macros list end*
%TA.AperFunction,ComponentPad*%
%ADD10R,1.700000X1.700000*%
%TD*%
%TA.AperFunction,ComponentPad*%
%ADD11C,1.700000*%
%TD*%
%TA.AperFunction,ComponentPad*%
%ADD12C,1.600000*%
%TD*%
%TA.AperFunction,ComponentPad*%
%ADD13R,1.200000X2.000000*%
%TD*%
%TA.AperFunction,ComponentPad*%
%ADD14O,1.200000X2.000000*%
%TD*%
%TA.AperFunction,ComponentPad*%
%ADD15RoundRect,0.249999X0.850001X-0.850001X0.850001X0.850001X-0.850001X0.850001X-0.850001X-0.850001X0*%
%TD*%
%TA.AperFunction,ComponentPad*%
%ADD16C,2.200000*%
%TD*%
%TA.AperFunction,ComponentPad*%
%ADD17C,3.600000*%
%TD*%
%TA.AperFunction,ConnectorPad*%
%ADD18C,5.600000*%
%TD*%
%TA.AperFunction,ComponentPad*%
%ADD19RoundRect,0.250000X-0.600000X-0.725000X0.600000X-0.725000X0.600000X0.725000X-0.600000X0.725000X0*%
%TD*%
%TA.AperFunction,ComponentPad*%
%ADD20O,1.700000X1.950000*%
%TD*%
%TA.AperFunction,ComponentPad*%
%ADD21RoundRect,0.249999X0.850001X0.850001X-0.850001X0.850001X-0.850001X-0.850001X0.850001X-0.850001X0*%
%TD*%
%TA.AperFunction,ComponentPad*%
%ADD22RoundRect,0.249999X-0.850001X-0.850001X0.850001X-0.850001X0.850001X0.850001X-0.850001X0.850001X0*%
%TD*%
%TA.AperFunction,ViaPad*%
%ADD23C,0.600000*%
%TD*%
%TA.AperFunction,Conductor*%
%ADD24C,1.500000*%
%TD*%
%TA.AperFunction,Conductor*%
%ADD25C,0.300000*%
%TD*%
%TA.AperFunction,Conductor*%
%ADD26C,0.400000*%
%TD*%
G04 APERTURE END LIST*
D10*
%TO.P,J1,1,Pin_1*%
%TO.N,+5V*%
X82460000Y-83790000D03*
D11*
%TO.P,J1,2,Pin_2*%
%TO.N,GND*%
X85000000Y-83790000D03*
%TO.P,J1,3,Pin_3*%
%TO.N,/Rx*%
X87540000Y-83790000D03*
%TO.P,J1,4,Pin_4*%
%TO.N,/Tx*%
X90080000Y-83790000D03*
%TO.P,J1,5,Pin_5*%
%TO.N,/CANH*%
X92620000Y-83790000D03*
%TO.P,J1,6,Pin_6*%
%TO.N,/CANL*%
X95160000Y-83790000D03*
%TD*%
D12*
%TO.P,R1,1*%
%TO.N,Net-(R1-Pad1)*%
X96837500Y-67280000D03*
%TO.P,R1,2*%
%TO.N,/Button1*%
X96837500Y-59660000D03*
%TD*%
D13*
%TO.P,U2,1,3V3*%
%TO.N,+3.3V*%
X110433440Y-52990000D03*
D14*
%TO.P,U2,2,CHIP_PU*%
%TO.N,unconnected-(U2-CHIP_PU-Pad2)*%
X107893440Y-52990000D03*
%TO.P,U2,3,SENSOR_VP/GPIO36/ADC1_CH0*%
%TO.N,unconnected-(U2-SENSOR_VP{slash}GPIO36{slash}ADC1_CH0-Pad3)*%
X105353440Y-52990000D03*
%TO.P,U2,4,SENSOR_VN/GPIO39/ADC1_CH3*%
%TO.N,unconnected-(U2-SENSOR_VN{slash}GPIO39{slash}ADC1_CH3-Pad4)*%
X102813440Y-52990000D03*
%TO.P,U2,5,VDET_1/GPIO34/ADC1_CH6*%
%TO.N,unconnected-(U2-VDET_1{slash}GPIO34{slash}ADC1_CH6-Pad5)*%
X100273440Y-52990000D03*
%TO.P,U2,6,VDET_2/GPIO35/ADC1_CH7*%
%TO.N,unconnected-(U2-VDET_2{slash}GPIO35{slash}ADC1_CH7-Pad6)*%
X97733440Y-52990000D03*
%TO.P,U2,7,32K_XP/GPIO32/ADC1_CH4*%
%TO.N,/Button1*%
X95193440Y-52990000D03*
%TO.P,U2,8,32K_XN/GPIO33/ADC1_CH5*%
%TO.N,/Button2*%
X92653440Y-52990000D03*
%TO.P,U2,9,DAC_1/ADC2_CH8/GPIO25*%
%TO.N,/Button3*%
X90113440Y-52990000D03*
%TO.P,U2,10,DAC_2/ADC2_CH9/GPIO26*%
%TO.N,/Button4*%
X87573440Y-52990000D03*
%TO.P,U2,11,ADC2_CH7/GPIO27*%
%TO.N,/Button5*%
X85033440Y-52990000D03*
%TO.P,U2,12,MTMS/GPIO14/ADC2_CH6*%
%TO.N,/SW5*%
X82493440Y-52990000D03*
%TO.P,U2,13,MTDI/GPIO12/ADC2_CH5*%
%TO.N,unconnected-(U2-MTDI{slash}GPIO12{slash}ADC2_CH5-Pad13)*%
X79953440Y-52990000D03*
%TO.P,U2,14,GND*%
%TO.N,GND*%
X77413440Y-52990000D03*
%TO.P,U2,15,MTCK/GPIO13/ADC2_CH4*%
%TO.N,/SW4*%
X74873440Y-52990000D03*
%TO.P,U2,16,SD_DATA2/GPIO9*%
%TO.N,unconnected-(U2-SD_DATA2{slash}GPIO9-Pad16)*%
X72333440Y-52990000D03*
%TO.P,U2,17,SD_DATA3/GPIO10*%
%TO.N,unconnected-(U2-SD_DATA3{slash}GPIO10-Pad17)*%
X69793440Y-52990000D03*
%TO.P,U2,18,CMD*%
%TO.N,unconnected-(U2-CMD-Pad18)*%
X67253440Y-52990000D03*
%TO.P,U2,19,5V*%
%TO.N,+5V*%
X64713440Y-52990000D03*
%TO.P,U2,20,SD_CLK/GPIO6*%
%TO.N,unconnected-(U2-SD_CLK{slash}GPIO6-Pad20)*%
X64716160Y-78386320D03*
%TO.P,U2,21,SD_DATA0/GPIO7*%
%TO.N,unconnected-(U2-SD_DATA0{slash}GPIO7-Pad21)*%
X67256160Y-78386320D03*
%TO.P,U2,22,SD_DATA1/GPIO8*%
%TO.N,unconnected-(U2-SD_DATA1{slash}GPIO8-Pad22)*%
X69793440Y-78390000D03*
%TO.P,U2,23,MTDO/GPIO15/ADC2_CH3*%
%TO.N,unconnected-(U2-MTDO{slash}GPIO15{slash}ADC2_CH3-Pad23)*%
X72333440Y-78390000D03*
%TO.P,U2,24,ADC2_CH2/GPIO2*%
%TO.N,unconnected-(U2-ADC2_CH2{slash}GPIO2-Pad24)*%
X74873440Y-78390000D03*
%TO.P,U2,25,GPIO0/BOOT/ADC2_CH1*%
%TO.N,unconnected-(U2-GPIO0{slash}BOOT{slash}ADC2_CH1-Pad25)*%
X77413440Y-78390000D03*
%TO.P,U2,26,ADC2_CH0/GPIO4*%
%TO.N,/SW3*%
X79953440Y-78390000D03*
%TO.P,U2,27,GPIO16*%
%TO.N,/SW2*%
X82493440Y-78390000D03*
%TO.P,U2,28,GPIO17*%
%TO.N,/SW1*%
X85033440Y-78390000D03*
%TO.P,U2,29,GPIO5*%
%TO.N,/CS*%
X87573440Y-78390000D03*
%TO.P,U2,30,GPIO18*%
%TO.N,/CLK*%
X90113440Y-78390000D03*
%TO.P,U2,31,GPIO19*%
%TO.N,/EncoderA*%
X92653440Y-78390000D03*
%TO.P,U2,32,GND*%
%TO.N,GND*%
X95193440Y-78390000D03*
%TO.P,U2,33,GPIO21*%
%TO.N,/EncoderB*%
X97733440Y-78390000D03*
%TO.P,U2,34,U0RXD/GPIO3*%
%TO.N,/Rx*%
X100273440Y-78390000D03*
%TO.P,U2,35,U0TXD/GPIO1*%
%TO.N,/Tx*%
X102813440Y-78390000D03*
%TO.P,U2,36,GPIO22*%
%TO.N,Net-(JP1-A)*%
X105353440Y-78390000D03*
%TO.P,U2,37,GPIO23*%
%TO.N,/DIN*%
X107893440Y-78390000D03*
%TO.P,U2,38,GND*%
%TO.N,GND*%
X110433440Y-78390000D03*
%TD*%
D15*
%TO.P,SW2,1,1*%
%TO.N,GND*%
X122400000Y-61460000D03*
D16*
%TO.P,SW2,2,2*%
%TO.N,Net-(R2-Pad1)*%
X122400000Y-58920000D03*
%TD*%
D17*
%TO.P,H4,1*%
%TO.N,N/C*%
X63550100Y-99399900D03*
D18*
X63550100Y-99399900D03*
%TD*%
D15*
%TO.P,SW5,1,1*%
%TO.N,GND*%
X122290000Y-81370000D03*
D16*
%TO.P,SW5,2,2*%
%TO.N,Net-(R5-Pad1)*%
X122290000Y-78830000D03*
%TD*%
D12*
%TO.P,R8,1*%
%TO.N,+3.3V*%
X117300000Y-82910000D03*
%TO.P,R8,2*%
%TO.N,/EncoderZ*%
X117300000Y-90530000D03*
%TD*%
D19*
%TO.P,J5,1,Pin_1*%
%TO.N,+5V*%
X66610000Y-84220000D03*
D20*
%TO.P,J5,2,Pin_2*%
%TO.N,GND*%
X69110000Y-84220000D03*
%TO.P,J5,3,Pin_3*%
%TO.N,/DIN*%
X71610000Y-84220000D03*
%TO.P,J5,4,Pin_4*%
%TO.N,/CS*%
X74110000Y-84220000D03*
%TO.P,J5,5,Pin_5*%
%TO.N,/CLK*%
X76610000Y-84220000D03*
%TD*%
D21*
%TO.P,J4,1,Pin_1*%
%TO.N,+5V*%
X75530000Y-46880000D03*
D16*
%TO.P,J4,2,Pin_2*%
%TO.N,GND*%
X72990000Y-46880000D03*
%TD*%
D22*
%TO.P,J2,1,Pin_1*%
%TO.N,/CANH*%
X99750000Y-99300000D03*
D16*
%TO.P,J2,2,Pin_2*%
%TO.N,/CANL*%
X102290000Y-99300000D03*
%TD*%
D22*
%TO.P,J3,1,Pin_1*%
%TO.N,+5V*%
X107800000Y-99300000D03*
D16*
%TO.P,J3,2,Pin_2*%
%TO.N,GND*%
X110340000Y-99300000D03*
%TO.P,J3,3,Pin_3*%
%TO.N,/EncoderA*%
X112880000Y-99300000D03*
%TO.P,J3,4,Pin_4*%
%TO.N,/EncoderB*%
X115420000Y-99300000D03*
%TO.P,J3,5,Pin_5*%
%TO.N,/EncoderZ*%
X117960000Y-99300000D03*
%TD*%
D12*
%TO.P,R3,1*%
%TO.N,Net-(R3-Pad1)*%
X90150000Y-67280000D03*
%TO.P,R3,2*%
%TO.N,/Button3*%
X90150000Y-59660000D03*
%TD*%
%TO.P,R6,1*%
%TO.N,+3.3V*%
X114155000Y-82870000D03*
%TO.P,R6,2*%
%TO.N,/EncoderB*%
X114155000Y-90490000D03*
%TD*%
%TO.P,R4,1*%
%TO.N,Net-(R4-Pad1)*%
X86806250Y-67280000D03*
%TO.P,R4,2*%
%TO.N,/Button4*%
X86806250Y-59660000D03*
%TD*%
D15*
%TO.P,SW4,1,1*%
%TO.N,GND*%
X122290000Y-74580000D03*
D16*
%TO.P,SW4,2,2*%
%TO.N,Net-(R4-Pad1)*%
X122290000Y-72040000D03*
%TD*%
D17*
%TO.P,H3,1*%
%TO.N,N/C*%
X123329900Y-99399900D03*
D18*
X123329900Y-99399900D03*
%TD*%
D17*
%TO.P,H1,1*%
%TO.N,N/C*%
X63550100Y-46420100D03*
D18*
X63550100Y-46420100D03*
%TD*%
D12*
%TO.P,R7,1*%
%TO.N,+3.3V*%
X110985000Y-82827143D03*
%TO.P,R7,2*%
%TO.N,/EncoderA*%
X110985000Y-90447143D03*
%TD*%
D15*
%TO.P,SW3,1,1*%
%TO.N,GND*%
X122340000Y-68010000D03*
D16*
%TO.P,SW3,2,2*%
%TO.N,Net-(R3-Pad1)*%
X122340000Y-65470000D03*
%TD*%
D15*
%TO.P,SW1,1,1*%
%TO.N,GND*%
X122420000Y-54770000D03*
D16*
%TO.P,SW1,2,2*%
%TO.N,Net-(R1-Pad1)*%
X122420000Y-52230000D03*
%TD*%
D17*
%TO.P,H2,1*%
%TO.N,N/C*%
X123329900Y-46420100D03*
D18*
X123329900Y-46420100D03*
%TD*%
D21*
%TO.P,SW6,1*%
%TO.N,/SW1*%
X110610000Y-46880000D03*
D16*
%TO.P,SW6,2*%
%TO.N,/SW2*%
X108070000Y-46880000D03*
%TO.P,SW6,3*%
%TO.N,/SW3*%
X105530000Y-46880000D03*
%TO.P,SW6,4*%
%TO.N,/SW4*%
X102990000Y-46880000D03*
%TO.P,SW6,5*%
%TO.N,/SW5*%
X100450000Y-46880000D03*
%TO.P,SW6,6*%
%TO.N,/SW6*%
X97910000Y-46880000D03*
%TO.P,SW6,7*%
%TO.N,GND*%
X95370000Y-46880000D03*
%TD*%
D12*
%TO.P,R2,1*%
%TO.N,Net-(R2-Pad1)*%
X93493750Y-67280000D03*
%TO.P,R2,2*%
%TO.N,/Button2*%
X93493750Y-59660000D03*
%TD*%
%TO.P,R5,1*%
%TO.N,Net-(R5-Pad1)*%
X83462500Y-67280000D03*
%TO.P,R5,2*%
%TO.N,/Button5*%
X83462500Y-59660000D03*
%TD*%
D23*
%TO.N,GND*%
X88870000Y-44020000D03*
X104950000Y-98020000D03*
X108650000Y-69360000D03*
X84350000Y-47780000D03*
X93260000Y-47710000D03*
X100250000Y-63410000D03*
X105030000Y-100660000D03*
X106610000Y-55200000D03*
X113250000Y-50450000D03*
X63610000Y-83980000D03*
X102920000Y-55760000D03*
X72630000Y-62630000D03*
X65580000Y-75130000D03*
X69500000Y-68480000D03*
X67790000Y-55480000D03*
X120550000Y-96490000D03*
X94140000Y-97380000D03*
X79130000Y-59260000D03*
X122550000Y-84210000D03*
X88490000Y-57180000D03*
X68640000Y-80610000D03*
X76270000Y-62580000D03*
X86480000Y-89040000D03*
X81490000Y-43960000D03*
X115520000Y-63560000D03*
X91900000Y-57280000D03*
X121530000Y-95600000D03*
X79130000Y-56860000D03*
X81320000Y-89580000D03*
X69310000Y-65120000D03*
X79320000Y-65850000D03*
X85800000Y-93130000D03*
X90870000Y-45490000D03*
X70390000Y-45020000D03*
X68290000Y-45530000D03*
X113150000Y-48310000D03*
X121620000Y-92880000D03*
X95090000Y-57090000D03*
X65780000Y-80610000D03*
X119580000Y-46180000D03*
X92120000Y-43870000D03*
X125900000Y-91210000D03*
X65250000Y-62950000D03*
X92180000Y-47710000D03*
X103110000Y-58200000D03*
X112280000Y-81180000D03*
X95140000Y-101540000D03*
X103800000Y-66820000D03*
X117640000Y-51940000D03*
X70320000Y-71720000D03*
X96920000Y-73600000D03*
X115120000Y-50860000D03*
X69090000Y-99970000D03*
X115090000Y-79850000D03*
X86480000Y-47750000D03*
X115860000Y-53370000D03*
X112340000Y-66900000D03*
X114940000Y-81100000D03*
X71570000Y-55520000D03*
X125360000Y-83970000D03*
X64600000Y-91570000D03*
X76410000Y-68070000D03*
X94310000Y-73640000D03*
X107940000Y-73170000D03*
X115390000Y-67290000D03*
X76410000Y-65850000D03*
X109960000Y-66860000D03*
X105560000Y-69320000D03*
X84010000Y-101450000D03*
X115650000Y-77090000D03*
X72950000Y-59350000D03*
X100300000Y-65160000D03*
X88280000Y-93130000D03*
X63850000Y-89290000D03*
X76040000Y-56820000D03*
X112080000Y-73690000D03*
X65110000Y-59030000D03*
X115520000Y-71860000D03*
X82220000Y-48570000D03*
X79800000Y-48450000D03*
X125870000Y-95740000D03*
X103060000Y-62260000D03*
X89740000Y-89030000D03*
X109700000Y-55110000D03*
X86840000Y-73910000D03*
X78400000Y-43900000D03*
X66020000Y-94640000D03*
X112170000Y-69410000D03*
X77970000Y-99140000D03*
X84890000Y-44120000D03*
X88620000Y-47680000D03*
X65160000Y-56720000D03*
X76230000Y-59350000D03*
X96530000Y-76380000D03*
X106700000Y-58290000D03*
X107670000Y-61610000D03*
X88880000Y-76530000D03*
X100200000Y-58710000D03*
X112100000Y-61520000D03*
X106850000Y-80590000D03*
X113280000Y-43890000D03*
X105140000Y-65120000D03*
X120090000Y-43760000D03*
X68740000Y-93930000D03*
X109560000Y-58200000D03*
X117450000Y-50800000D03*
X100250000Y-72780000D03*
X65250000Y-66180000D03*
X103700000Y-82770000D03*
X84540000Y-98010000D03*
X85310000Y-56770000D03*
X77490000Y-70680000D03*
X114020000Y-59980000D03*
X110250000Y-81220000D03*
X87790000Y-45580000D03*
X115540000Y-75390000D03*
X68740000Y-74580000D03*
X95150000Y-91440000D03*
X68510000Y-47910000D03*
X100200000Y-56950000D03*
X90130000Y-101700000D03*
X72950000Y-64840000D03*
X73780000Y-70730000D03*
X110950000Y-57180000D03*
X120530000Y-49050000D03*
X80060000Y-85100000D03*
X79800000Y-46350000D03*
X118240000Y-56550000D03*
X67340000Y-47950000D03*
X61280000Y-95470000D03*
X115600000Y-74070000D03*
X73230000Y-56630000D03*
X108060000Y-66900000D03*
X79270000Y-68850000D03*
X85280000Y-45870000D03*
X103610000Y-76140000D03*
X82090000Y-46030000D03*
X125840000Y-49750000D03*
X112720000Y-52130000D03*
X80120000Y-88420000D03*
X112130000Y-71820000D03*
X68390000Y-59310000D03*
X91340000Y-73600000D03*
X110300000Y-69450000D03*
X66920000Y-43970000D03*
X69130000Y-62630000D03*
X109100000Y-64290000D03*
X113180000Y-44970000D03*
X90980000Y-95470000D03*
X65730000Y-70280000D03*
X108690000Y-56590000D03*
X79820000Y-95130000D03*
X116560000Y-43830000D03*
X73050000Y-68250000D03*
X108800000Y-83330000D03*
X70420000Y-44030000D03*
X110680000Y-75750000D03*
X90460000Y-47650000D03*
X125780000Y-86960000D03*
X114520000Y-53730000D03*
X102150000Y-85920000D03*
X115430000Y-69020000D03*
X103250000Y-72820000D03*
X105410000Y-56770000D03*
X79180000Y-62580000D03*
%TD*%
D24*
%TO.N,+5V*%
X82460000Y-83790000D02*
X82460000Y-88110000D01*
X82460000Y-88110000D02*
X83090000Y-88740000D01*
X62060000Y-55643440D02*
X64713440Y-52990000D01*
X94670000Y-94100000D02*
X105430000Y-94100000D01*
X66222340Y-49781100D02*
X73728899Y-49781100D01*
X75530000Y-47979999D02*
X75530000Y-46880000D01*
X85650000Y-91300000D02*
X91870000Y-91300000D01*
X107800000Y-95620000D02*
X107800000Y-99300000D01*
X69290000Y-91300000D02*
X85650000Y-91300000D01*
X73728899Y-49781100D02*
X75530000Y-47979999D01*
X66610000Y-84220000D02*
X62060000Y-79670000D01*
X83090000Y-88740000D02*
X85650000Y-91300000D01*
X62060000Y-79670000D02*
X62060000Y-55643440D01*
X64713440Y-51290000D02*
X66222340Y-49781100D01*
X66610000Y-84220000D02*
X66610000Y-88620000D01*
X64713440Y-52990000D02*
X64713440Y-51290000D01*
X66610000Y-88620000D02*
X69290000Y-91300000D01*
X106280000Y-94100000D02*
X107800000Y-95620000D01*
X91870000Y-91300000D02*
X94670000Y-94100000D01*
X105430000Y-94100000D02*
X106280000Y-94100000D01*
D25*
%TO.N,/EncoderA*%
X104710583Y-90447143D02*
X92653440Y-78390000D01*
X110985000Y-90447143D02*
X104710583Y-90447143D01*
%TO.N,/EncoderB*%
X114155000Y-90490000D02*
X110955000Y-87290000D01*
X110955000Y-87290000D02*
X105760000Y-87290000D01*
X105760000Y-87290000D02*
X97733440Y-79263440D01*
X97733440Y-79263440D02*
X97733440Y-78390000D01*
D24*
%TO.N,+3.3V*%
X110830000Y-52990000D02*
X117300000Y-59460000D01*
X110433440Y-52990000D02*
X110830000Y-52990000D01*
X117300000Y-59460000D02*
X117300000Y-82910000D01*
D26*
%TO.N,/SW2*%
X82493440Y-72576560D02*
X84360000Y-70710000D01*
X96530000Y-70710000D02*
X99010000Y-68230000D01*
X84360000Y-70710000D02*
X96530000Y-70710000D01*
X82493440Y-78390000D02*
X82493440Y-72576560D01*
X100270000Y-50090000D02*
X104860000Y-50090000D01*
X99010000Y-51350000D02*
X100270000Y-50090000D01*
X99010000Y-68230000D02*
X99010000Y-51350000D01*
X104860000Y-50090000D02*
X108070000Y-46880000D01*
%TO.N,/SW1*%
X85033440Y-73546560D02*
X85033440Y-78390000D01*
X97560000Y-72480000D02*
X86100000Y-72480000D01*
X101540000Y-68500000D02*
X97560000Y-72480000D01*
X101540000Y-52270000D02*
X101540000Y-68500000D01*
X110610000Y-46880000D02*
X106210000Y-51280000D01*
X86100000Y-72480000D02*
X85033440Y-73546560D01*
X106210000Y-51280000D02*
X102530000Y-51280000D01*
X102530000Y-51280000D02*
X101540000Y-52270000D01*
%TO.N,/SW3*%
X79953440Y-78390000D02*
X79953440Y-71256560D01*
X83740000Y-48960000D02*
X103450000Y-48960000D01*
X81220000Y-69990000D02*
X81220000Y-51480000D01*
X103450000Y-48960000D02*
X105530000Y-46880000D01*
X81220000Y-51480000D02*
X83740000Y-48960000D01*
X79953440Y-71256560D02*
X81220000Y-69990000D01*
%TD*%
%TA.AperFunction,Conductor*%
%TO.N,GND*%
G36*
X96505147Y-47661594D02*
G01*
X96527950Y-47692979D01*
X96541130Y-47718846D01*
X96689201Y-47922649D01*
X96689205Y-47922654D01*
X96814370Y-48047819D01*
X96847855Y-48109142D01*
X96842871Y-48178834D01*
X96800999Y-48234767D01*
X96735535Y-48259184D01*
X96726689Y-48259500D01*
X96438131Y-48259500D01*
X96371092Y-48239815D01*
X96337527Y-48201079D01*
X95540234Y-47403787D01*
X95582292Y-47392518D01*
X95707708Y-47320110D01*
X95810110Y-47217708D01*
X95882518Y-47092292D01*
X95893787Y-47050234D01*
X96505147Y-47661594D01*
G37*
%TD.AperFunction*%
%TA.AperFunction,Conductor*%
G36*
X121536643Y-43440185D02*
G01*
X121582398Y-43492989D01*
X121592342Y-43562147D01*
X121563317Y-43625703D01*
X121538495Y-43647602D01*
X121361432Y-43765911D01*
X121361418Y-43765921D01*
X121110741Y-43971646D01*
X120881446Y-44200941D01*
X120675721Y-44451618D01*
X120675711Y-44451632D01*
X120495557Y-44721251D01*
X120495546Y-44721269D01*
X120342688Y-45007245D01*
X120342686Y-45007250D01*
X120218586Y-45306852D01*
X120124448Y-45617186D01*
X120124445Y-45617197D01*
X120061187Y-45935225D01*
X120061184Y-45935242D01*
X120029400Y-46257960D01*
X120029400Y-46582239D01*
X120061184Y-46904957D01*
X120061187Y-46904974D01*
X120124445Y-47223002D01*
X120124448Y-47223013D01*
X120206765Y-47494379D01*
X120218586Y-47533346D01*
X120332789Y-47809057D01*
X120342686Y-47832949D01*
X120342688Y-47832954D01*
X120495546Y-48118930D01*
X120495557Y-48118948D01*
X120675711Y-48388567D01*
X120675721Y-48388581D01*
X120881446Y-48639258D01*
X121110741Y-48868553D01*
X121110746Y-48868557D01*
X121110747Y-48868558D01*
X121361424Y-49074283D01*
X121631058Y-49254447D01*
X121631067Y-49254452D01*
X121631069Y-49254453D01*
X121917045Y-49407311D01*
X121917047Y-49407311D01*
X121917053Y-49407315D01*
X122216654Y-49531414D01*
X122526977Y-49625549D01*
X122526983Y-49625550D01*
X122526986Y-49625551D01*
X122526997Y-49625554D01*
X122716935Y-49663334D01*
X122845032Y-49688814D01*
X123167757Y-49720600D01*
X123167760Y-49720600D01*
X123492040Y-49720600D01*
X123492043Y-49720600D01*
X123814768Y-49688814D01*
X123972195Y-49657499D01*
X124132802Y-49625554D01*
X124132813Y-49625551D01*
X124132813Y-49625550D01*
X124132823Y-49625549D01*
X124443146Y-49531414D01*
X124742747Y-49407315D01*
X125028742Y-49254447D01*
X125298376Y-49074283D01*
X125549053Y-48868558D01*
X125778358Y-48639253D01*
X125984083Y-48388576D01*
X126102398Y-48211504D01*
X126156010Y-48166700D01*
X126225335Y-48157993D01*
X126288362Y-48188147D01*
X126325082Y-48247590D01*
X126329500Y-48280396D01*
X126329500Y-97539603D01*
X126309815Y-97606642D01*
X126257011Y-97652397D01*
X126187853Y-97662341D01*
X126124297Y-97633316D01*
X126102398Y-97608494D01*
X125984088Y-97431432D01*
X125984083Y-97431424D01*
X125778358Y-97180747D01*
X125778357Y-97180746D01*
X125778353Y-97180741D01*
X125549058Y-96951446D01*
X125298381Y-96745721D01*
X125298380Y-96745720D01*
X125298376Y-96745717D01*
X125028742Y-96565553D01*
X125028737Y-96565550D01*
X125028730Y-96565546D01*
X124742754Y-96412688D01*
X124742749Y-96412686D01*
X124443147Y-96288586D01*
X124132813Y-96194448D01*
X124132802Y-96194445D01*
X123814774Y-96131187D01*
X123814757Y-96131184D01*
X123570712Y-96107148D01*
X123492043Y-96099400D01*
X123167757Y-96099400D01*
X123094999Y-96106566D01*
X122845042Y-96131184D01*
X122845025Y-96131187D01*
X122526997Y-96194445D01*
X122526986Y-96194448D01*
X122216652Y-96288586D01*
X121917050Y-96412686D01*
X121917045Y-96412688D01*
X121631069Y-96565546D01*
X121631051Y-96565557D01*
X121361432Y-96745711D01*
X121361418Y-96745721D01*
X121110741Y-96951446D01*
X120881446Y-97180741D01*
X120675721Y-97431418D01*
X120675711Y-97431432D01*
X120495557Y-97701051D01*
X120495546Y-97701069D01*
X120342688Y-97987045D01*
X120342686Y-97987050D01*
X120218586Y-98286652D01*
X120124448Y-98596986D01*
X120124445Y-98596997D01*
X120061187Y-98915025D01*
X120061184Y-98915042D01*
X120038085Y-99149581D01*
X120029400Y-99237757D01*
X120029400Y-99562043D01*
X120038954Y-99659052D01*
X120061184Y-99884757D01*
X120061187Y-99884774D01*
X120124445Y-100202802D01*
X120124448Y-100202813D01*
X120218586Y-100513147D01*
X120342686Y-100812749D01*
X120342688Y-100812754D01*
X120495546Y-101098730D01*
X120495557Y-101098748D01*
X120675711Y-101368367D01*
X120675721Y-101368381D01*
X120881446Y-101619058D01*
X121110741Y-101848353D01*
X121110746Y-101848357D01*
X121110747Y-101848358D01*
X121361424Y-102054083D01*
X121538495Y-102172398D01*
X121583300Y-102226010D01*
X121592007Y-102295335D01*
X121561853Y-102358362D01*
X121502410Y-102395082D01*
X121469604Y-102399500D01*
X103109892Y-102399500D01*
X103042853Y-102379815D01*
X102997098Y-102327011D01*
X102987154Y-102257853D01*
X102997878Y-102225145D01*
X102997063Y-102224808D01*
X103059735Y-102073501D01*
X103059737Y-102073497D01*
X103090500Y-101918842D01*
X103090500Y-101761158D01*
X103090500Y-101761155D01*
X103090499Y-101761153D01*
X103059738Y-101606510D01*
X103059737Y-101606503D01*
X103059735Y-101606498D01*
X102999397Y-101460827D01*
X102999390Y-101460814D01*
X102911789Y-101329711D01*
X102911786Y-101329707D01*
X102800292Y-101218213D01*
X102800288Y-101218210D01*
X102669185Y-101130609D01*
X102669173Y-101130602D01*
X102603476Y-101103391D01*
X102549072Y-101059551D01*
X102527007Y-100993257D01*
X102544286Y-100925557D01*
X102595423Y-100877947D01*
X102631531Y-100866357D01*
X102664785Y-100861090D01*
X102666287Y-100860602D01*
X102904379Y-100783241D01*
X103128845Y-100668870D01*
X103332656Y-100520793D01*
X103510793Y-100342656D01*
X103658870Y-100138845D01*
X103773241Y-99914379D01*
X103851090Y-99674785D01*
X103890500Y-99425962D01*
X103890500Y-99174038D01*
X103851090Y-98925215D01*
X103773241Y-98685621D01*
X103773239Y-98685618D01*
X103773239Y-98685616D01*
X103728075Y-98596977D01*
X103658870Y-98461155D01*
X103614425Y-98399982D01*
X103510798Y-98257350D01*
X103510794Y-98257345D01*
X103332654Y-98079205D01*
X103332649Y-98079201D01*
X103128848Y-97931132D01*
X103128847Y-97931131D01*
X103128845Y-97931130D01*
X103058747Y-97895413D01*
X102904383Y-97816760D01*
X102664785Y-97738910D01*
X102415962Y-97699500D01*
X102164038Y-97699500D01*
X102097738Y-97710001D01*
X101915214Y-97738910D01*
X101675616Y-97816760D01*
X101451158Y-97931128D01*
X101451155Y-97931129D01*
X101451155Y-97931130D01*
X101358060Y-97998766D01*
X101292255Y-98022245D01*
X101224201Y-98006419D01*
X101197496Y-97986128D01*
X101068657Y-97857289D01*
X101068656Y-97857288D01*
X100919335Y-97765186D01*
X100752798Y-97710001D01*
X100752796Y-97710000D01*
X100650017Y-97699500D01*
X100650010Y-97699500D01*
X98849990Y-97699500D01*
X98849982Y-97699500D01*
X98747203Y-97710000D01*
X98747202Y-97710001D01*
X98664669Y-97737349D01*
X98580667Y-97765185D01*
X98580662Y-97765187D01*
X98431342Y-97857289D01*
X98307289Y-97981342D01*
X98215187Y-98130662D01*
X98215186Y-98130665D01*
X98160001Y-98297202D01*
X98160001Y-98297203D01*
X98160000Y-98297203D01*
X98149500Y-98399982D01*
X98149500Y-100200017D01*
X98160000Y-100302796D01*
X98174862Y-100347645D01*
X98215186Y-100469335D01*
X98307288Y-100618656D01*
X98431344Y-100742712D01*
X98580665Y-100834814D01*
X98747202Y-100889999D01*
X98849990Y-100900500D01*
X98849995Y-100900500D01*
X99306425Y-100900500D01*
X99373464Y-100920185D01*
X99419219Y-100972989D01*
X99429163Y-101042147D01*
X99400138Y-101105703D01*
X99375316Y-101127602D01*
X99239711Y-101218210D01*
X99239707Y-101218213D01*
X99128213Y-101329707D01*
X99128210Y-101329711D01*
X99040609Y-101460814D01*
X99040602Y-101460827D01*
X98980264Y-101606498D01*
X98980261Y-101606510D01*
X98949500Y-101761153D01*
X98949500Y-101918846D01*
X98980261Y-102073489D01*
X98980264Y-102073501D01*
X99042937Y-102224808D01*
X99041228Y-102225515D01*
X99053709Y-102285444D01*
X99028711Y-102350689D01*
X98972408Y-102392062D01*
X98930108Y-102399500D01*
X65410396Y-102399500D01*
X65343357Y-102379815D01*
X65297602Y-102327011D01*
X65287658Y-102257853D01*
X65316683Y-102194297D01*
X65341505Y-102172398D01*
X65518576Y-102054083D01*
X65769253Y-101848358D01*
X65998558Y-101619053D01*
X66204283Y-101368376D01*
X66384447Y-101098742D01*
X66537315Y-100812747D01*
X66661414Y-100513146D01*
X66755549Y-100202823D01*
X66755551Y-100202813D01*
X66755554Y-100202802D01*
X66812923Y-99914383D01*
X66818814Y-99884768D01*
X66850600Y-99562043D01*
X66850600Y-99237757D01*
X66818814Y-98915032D01*
X66785987Y-98750000D01*
X66755554Y-98596997D01*
X66755551Y-98596986D01*
X66755550Y-98596983D01*
X66755549Y-98596977D01*
X66661414Y-98286654D01*
X66537315Y-97987053D01*
X66534263Y-97981344D01*
X66384453Y-97701069D01*
X66384452Y-97701067D01*
X66384447Y-97701058D01*
X66204283Y-97431424D01*
X65998558Y-97180747D01*
X65998557Y-97180746D01*
X65998553Y-97180741D01*
X65769258Y-96951446D01*
X65518581Y-96745721D01*
X65518580Y-96745720D01*
X65518576Y-96745717D01*
X65248942Y-96565553D01*
X65248937Y-96565550D01*
X65248930Y-96565546D01*
X64962954Y-96412688D01*
X64962949Y-96412686D01*
X64663347Y-96288586D01*
X64353013Y-96194448D01*
X64353002Y-96194445D01*
X64034974Y-96131187D01*
X64034957Y-96131184D01*
X63790912Y-96107148D01*
X63712243Y-96099400D01*
X63387957Y-96099400D01*
X63315199Y-96106566D01*
X63065242Y-96131184D01*
X63065225Y-96131187D01*
X62747197Y-96194445D01*
X62747186Y-96194448D01*
X62436852Y-96288586D01*
X62137250Y-96412686D01*
X62137245Y-96412688D01*
X61851269Y-96565546D01*
X61851251Y-96565557D01*
X61581632Y-96745711D01*
X61581618Y-96745721D01*
X61330941Y-96951446D01*
X61101646Y-97180741D01*
X60895921Y-97431418D01*
X60895911Y-97431432D01*
X60777602Y-97608494D01*
X60723990Y-97653299D01*
X60654665Y-97662006D01*
X60591637Y-97631851D01*
X60554918Y-97572408D01*
X60550500Y-97539603D01*
X60550500Y-48280396D01*
X60570185Y-48213357D01*
X60622989Y-48167602D01*
X60692147Y-48157658D01*
X60755703Y-48186683D01*
X60777600Y-48211503D01*
X60851907Y-48322710D01*
X60895911Y-48388567D01*
X60895921Y-48388581D01*
X61101646Y-48639258D01*
X61330941Y-48868553D01*
X61330946Y-48868557D01*
X61330947Y-48868558D01*
X61581624Y-49074283D01*
X61851258Y-49254447D01*
X61851267Y-49254452D01*
X61851269Y-49254453D01*
X62137245Y-49407311D01*
X62137247Y-49407311D01*
X62137253Y-49407315D01*
X62436854Y-49531414D01*
X62747177Y-49625549D01*
X62747183Y-49625550D01*
X62747186Y-49625551D01*
X62747197Y-49625554D01*
X62937135Y-49663334D01*
X63065232Y-49688814D01*
X63387957Y-49720600D01*
X63387960Y-49720600D01*
X63712240Y-49720600D01*
X63712243Y-49720600D01*
X64034968Y-49688814D01*
X64177312Y-49660500D01*
X64272161Y-49641634D01*
X64341753Y-49647861D01*
X64396930Y-49690724D01*
X64420174Y-49756614D01*
X64404106Y-49824611D01*
X64384033Y-49850932D01*
X63759614Y-50475351D01*
X63759612Y-50475354D01*
X63736612Y-50507011D01*
X63643916Y-50634594D01*
X63554555Y-50809973D01*
X63554554Y-50809976D01*
X63524182Y-50903456D01*
X63493730Y-50997176D01*
X63462940Y-51191577D01*
X63462940Y-52420664D01*
X63443255Y-52487703D01*
X63426621Y-52508345D01*
X61106174Y-54828791D01*
X61106174Y-54828792D01*
X61106172Y-54828794D01*
X61058797Y-54894000D01*
X60990476Y-54988034D01*
X60900669Y-55164291D01*
X60899608Y-55168052D01*
X60840291Y-55350609D01*
X60840291Y-55350612D01*
X60809500Y-55545017D01*
X60809500Y-79768422D01*
X60840290Y-79962826D01*
X60901117Y-80150030D01*
X60927027Y-80200880D01*
X60990476Y-80325405D01*
X61106172Y-80484646D01*
X61106174Y-80484648D01*
X65223181Y-84601655D01*
X65256666Y-84662978D01*
X65259500Y-84689336D01*
X65259500Y-84995000D01*
X65259501Y-84995019D01*
X65270000Y-85097796D01*
X65270001Y-85097799D01*
X65311830Y-85224028D01*
X65314232Y-85293856D01*
X65278500Y-85353898D01*
X65215980Y-85385091D01*
X65169934Y-85384650D01*
X65118015Y-85374323D01*
X65093767Y-85369500D01*
X64926233Y-85369500D01*
X64926228Y-85369500D01*
X64761925Y-85402182D01*
X64761917Y-85402184D01*
X64607139Y-85466295D01*
X64467837Y-85559373D01*
X64349373Y-85677837D01*
X64256295Y-85817139D01*
X64192184Y-85971917D01*
X64192182Y-85971925D01*
X64159500Y-86136228D01*
X64159500Y-86303771D01*
X64192182Y-86468074D01*
X64192184Y-86468082D01*
X64256295Y-86622860D01*
X64349373Y-86762162D01*
X64467837Y-86880626D01*
X64560494Y-86942537D01*
X64607137Y-86973703D01*
X64761918Y-87037816D01*
X64926228Y-87070499D01*
X64926232Y-87070500D01*
X64926233Y-87070500D01*
X65093768Y-87070500D01*
X65093769Y-87070499D01*
X65136855Y-87061929D01*
X65211309Y-87047120D01*
X65280900Y-87053347D01*
X65336078Y-87096210D01*
X65359322Y-87162100D01*
X65359500Y-87168737D01*
X65359500Y-88718422D01*
X65390290Y-88912826D01*
X65451117Y-89100030D01*
X65533402Y-89261522D01*
X65540476Y-89275405D01*
X65656172Y-89434646D01*
X68475354Y-92253828D01*
X68634594Y-92369524D01*
X68723954Y-92415054D01*
X68809975Y-92458884D01*
X68936348Y-92499945D01*
X68997173Y-92519709D01*
X69070076Y-92531255D01*
X69191578Y-92550500D01*
X69191583Y-92550500D01*
X69388416Y-92550500D01*
X85551583Y-92550500D01*
X85551584Y-92550500D01*
X85748417Y-92550500D01*
X91300664Y-92550500D01*
X91367703Y-92570185D01*
X91388345Y-92586819D01*
X93855354Y-95053828D01*
X94014595Y-95169524D01*
X94097454Y-95211742D01*
X94189969Y-95258882D01*
X94189971Y-95258882D01*
X94189974Y-95258884D01*
X94290318Y-95291487D01*
X94377173Y-95319709D01*
X94571578Y-95350500D01*
X94571583Y-95350500D01*
X94768417Y-95350500D01*
X105331583Y-95350500D01*
X105710664Y-95350500D01*
X105777703Y-95370185D01*
X105798345Y-95386819D01*
X106513181Y-96101655D01*
X106546666Y-96162978D01*
X106549500Y-96189336D01*
X106549500Y-97746042D01*
X106529815Y-97813081D01*
X106490598Y-97851580D01*
X106481344Y-97857287D01*
X106357289Y-97981342D01*
X106265187Y-98130662D01*
X106265186Y-98130665D01*
X106210001Y-98297202D01*
X106210001Y-98297203D01*
X106210000Y-98297203D01*
X106199500Y-98399982D01*
X106199500Y-100200017D01*
X106210000Y-100302796D01*
X106224862Y-100347645D01*
X106265186Y-100469335D01*
X106357288Y-100618656D01*
X106481344Y-100742712D01*
X106630665Y-100834814D01*
X106797202Y-100889999D01*
X106899990Y-100900500D01*
X106899995Y-100900500D01*
X108700005Y-100900500D01*
X108700010Y-100900500D01*
X108802798Y-100889999D01*
X108969335Y-100834814D01*
X109118656Y-100742712D01*
X109242712Y-100618656D01*
X109242712Y-100618655D01*
X109247819Y-100613549D01*
X109250328Y-100616058D01*
X109293722Y-100584452D01*
X109363473Y-100580380D01*
X109408416Y-100600873D01*
X109501416Y-100668442D01*
X109725815Y-100782780D01*
X109965330Y-100860602D01*
X110214072Y-100900000D01*
X110465928Y-100900000D01*
X110714669Y-100860602D01*
X110954184Y-100782780D01*
X111178575Y-100668446D01*
X111178581Y-100668442D01*
X111280697Y-100594250D01*
X111280698Y-100594250D01*
X110510234Y-99823787D01*
X110552292Y-99812518D01*
X110677708Y-99740110D01*
X110780110Y-99637708D01*
X110852518Y-99512292D01*
X110863787Y-99470234D01*
X111475147Y-100081594D01*
X111497950Y-100112979D01*
X111511130Y-100138846D01*
X111659201Y-100342649D01*
X111659205Y-100342654D01*
X111837345Y-100520794D01*
X111837350Y-100520798D01*
X112015117Y-100649952D01*
X112041155Y-100668870D01*
X112184184Y-100741747D01*
X112265616Y-100783239D01*
X112265618Y-100783239D01*
X112265621Y-100783241D01*
X112505215Y-100861090D01*
X112754038Y-100900500D01*
X112754039Y-100900500D01*
X113005961Y-100900500D01*
X113005962Y-100900500D01*
X113254785Y-100861090D01*
X113494379Y-100783241D01*
X113718845Y-100668870D01*
X113922656Y-100520793D01*
X114062319Y-100381130D01*
X114123642Y-100347645D01*
X114193334Y-100352629D01*
X114237681Y-100381130D01*
X114377345Y-100520794D01*
X114377350Y-100520798D01*
X114555117Y-100649952D01*
X114581155Y-100668870D01*
X114724184Y-100741747D01*
X114805616Y-100783239D01*
X114805618Y-100783239D01*
X114805621Y-100783241D01*
X115045215Y-100861090D01*
X115294038Y-100900500D01*
X115294039Y-100900500D01*
X115545961Y-100900500D01*
X115545962Y-100900500D01*
X115794785Y-100861090D01*
X116034379Y-100783241D01*
X116258845Y-100668870D01*
X116462656Y-100520793D01*
X116602319Y-100381130D01*
X116663642Y-100347645D01*
X116733334Y-100352629D01*
X116777681Y-100381130D01*
X116917345Y-100520794D01*
X116917350Y-100520798D01*
X117095117Y-100649952D01*
X117121155Y-100668870D01*
X117264184Y-100741747D01*
X117345616Y-100783239D01*
X117345618Y-100783239D01*
X117345621Y-100783241D01*
X117585215Y-100861090D01*
X117834038Y-100900500D01*
X117834039Y-100900500D01*
X118085961Y-100900500D01*
X118085962Y-100900500D01*
X118334785Y-100861090D01*
X118574379Y-100783241D01*
X118798845Y-100668870D01*
X119002656Y-100520793D01*
X119180793Y-100342656D01*
X119328870Y-100138845D01*
X119443241Y-99914379D01*
X119521090Y-99674785D01*
X119560500Y-99425962D01*
X119560500Y-99174038D01*
X119521090Y-98925215D01*
X119443241Y-98685621D01*
X119443239Y-98685618D01*
X119443239Y-98685616D01*
X119398075Y-98596977D01*
X119328870Y-98461155D01*
X119284425Y-98399982D01*
X119180798Y-98257350D01*
X119180794Y-98257345D01*
X119002654Y-98079205D01*
X119002649Y-98079201D01*
X118798848Y-97931132D01*
X118798847Y-97931131D01*
X118798845Y-97931130D01*
X118728747Y-97895413D01*
X118574383Y-97816760D01*
X118334785Y-97738910D01*
X118085962Y-97699500D01*
X117834038Y-97699500D01*
X117767738Y-97710001D01*
X117585214Y-97738910D01*
X117345616Y-97816760D01*
X117121151Y-97931132D01*
X116917350Y-98079201D01*
X116917345Y-98079205D01*
X116777681Y-98218870D01*
X116716358Y-98252355D01*
X116646666Y-98247371D01*
X116602319Y-98218870D01*
X116462654Y-98079205D01*
X116462649Y-98079201D01*
X116258848Y-97931132D01*
X116258847Y-97931131D01*
X116258845Y-97931130D01*
X116188747Y-97895413D01*
X116034383Y-97816760D01*
X115794785Y-97738910D01*
X115545962Y-97699500D01*
X115294038Y-97699500D01*
X115227738Y-97710001D01*
X115045214Y-97738910D01*
X114805616Y-97816760D01*
X114581151Y-97931132D01*
X114377350Y-98079201D01*
X114377345Y-98079205D01*
X114237681Y-98218870D01*
X114176358Y-98252355D01*
X114106666Y-98247371D01*
X114062319Y-98218870D01*
X113922654Y-98079205D01*
X113922649Y-98079201D01*
X113718848Y-97931132D01*
X113718847Y-97931131D01*
X113718845Y-97931130D01*
X113648747Y-97895413D01*
X113494383Y-97816760D01*
X113254785Y-97738910D01*
X113005962Y-97699500D01*
X112754038Y-97699500D01*
X112687738Y-97710001D01*
X112505214Y-97738910D01*
X112265616Y-97816760D01*
X112041151Y-97931132D01*
X111837350Y-98079201D01*
X111837345Y-98079205D01*
X111659205Y-98257345D01*
X111659201Y-98257350D01*
X111511131Y-98461152D01*
X111497948Y-98487023D01*
X111475147Y-98518404D01*
X110863787Y-99129764D01*
X110852518Y-99087708D01*
X110780110Y-98962292D01*
X110677708Y-98859890D01*
X110552292Y-98787482D01*
X110510233Y-98776212D01*
X111280698Y-98005748D01*
X111178583Y-97931557D01*
X110954184Y-97817219D01*
X110714669Y-97739397D01*
X110465928Y-97700000D01*
X110214072Y-97700000D01*
X109965330Y-97739397D01*
X109725815Y-97817219D01*
X109501413Y-97931559D01*
X109408415Y-97999126D01*
X109342609Y-98022606D01*
X109274555Y-98006780D01*
X109250187Y-97988767D01*
X109243205Y-97982143D01*
X109242712Y-97981344D01*
X109118656Y-97857288D01*
X109098473Y-97844839D01*
X109089157Y-97836001D01*
X109077800Y-97816445D01*
X109062678Y-97799632D01*
X109059232Y-97784471D01*
X109054070Y-97775581D01*
X109054590Y-97764042D01*
X109050500Y-97746042D01*
X109050500Y-95521577D01*
X109023403Y-95350500D01*
X109019709Y-95327174D01*
X109019708Y-95327170D01*
X109019708Y-95327169D01*
X108960391Y-95144612D01*
X108959329Y-95140847D01*
X108869523Y-94964594D01*
X108753829Y-94805355D01*
X107094646Y-93146172D01*
X106935405Y-93030476D01*
X106760030Y-92941117D01*
X106572826Y-92880290D01*
X106378422Y-92849500D01*
X106378417Y-92849500D01*
X105528417Y-92849500D01*
X95239336Y-92849500D01*
X95172297Y-92829815D01*
X95151655Y-92813181D01*
X92684648Y-90346174D01*
X92684646Y-90346172D01*
X92525405Y-90230476D01*
X92484995Y-90209886D01*
X92350030Y-90141117D01*
X92162826Y-90080290D01*
X91968422Y-90049500D01*
X91968417Y-90049500D01*
X86219337Y-90049500D01*
X86152298Y-90029815D01*
X86131656Y-90013181D01*
X83904646Y-87786172D01*
X83746819Y-87628345D01*
X83713334Y-87567022D01*
X83710500Y-87540664D01*
X83710500Y-84981438D01*
X83730185Y-84914399D01*
X83735234Y-84907126D01*
X83753796Y-84882331D01*
X83760853Y-84863412D01*
X83779029Y-84814678D01*
X83781319Y-84808537D01*
X83804091Y-84747483D01*
X83810500Y-84687873D01*
X83810499Y-84677312D01*
X83830179Y-84610275D01*
X83846818Y-84589626D01*
X84517037Y-83919408D01*
X84534075Y-83982993D01*
X84599901Y-84097007D01*
X84692993Y-84190099D01*
X84807007Y-84255925D01*
X84870590Y-84272962D01*
X84238282Y-84905269D01*
X84238282Y-84905270D01*
X84292449Y-84944624D01*
X84481782Y-85041095D01*
X84683870Y-85106757D01*
X84893754Y-85140000D01*
X85106246Y-85140000D01*
X85316127Y-85106757D01*
X85316130Y-85106757D01*
X85518217Y-85041095D01*
X85707554Y-84944622D01*
X85761716Y-84905270D01*
X85761717Y-84905270D01*
X85129408Y-84272962D01*
X85192993Y-84255925D01*
X85307007Y-84190099D01*
X85400099Y-84097007D01*
X85465925Y-83982993D01*
X85482962Y-83919408D01*
X86115270Y-84551717D01*
X86115270Y-84551716D01*
X86154622Y-84497555D01*
X86159232Y-84488507D01*
X86207205Y-84437709D01*
X86275025Y-84420912D01*
X86341161Y-84443447D01*
X86380204Y-84488504D01*
X86384949Y-84497817D01*
X86509890Y-84669786D01*
X86660213Y-84820109D01*
X86832179Y-84945048D01*
X86832181Y-84945049D01*
X86832184Y-84945051D01*
X87021588Y-85041557D01*
X87223757Y-85107246D01*
X87433713Y-85140500D01*
X87433714Y-85140500D01*
X87646286Y-85140500D01*
X87646287Y-85140500D01*
X87856243Y-85107246D01*
X88058412Y-85041557D01*
X88247816Y-84945051D01*
X88302572Y-84905269D01*
X88419786Y-84820109D01*
X88419788Y-84820106D01*
X88419792Y-84820104D01*
X88570104Y-84669792D01*
X88570106Y-84669788D01*
X88570109Y-84669786D01*
X88695048Y-84497820D01*
X88695050Y-84497817D01*
X88695051Y-84497816D01*
X88699514Y-84489054D01*
X88747488Y-84438259D01*
X88815308Y-84421463D01*
X88881444Y-84443999D01*
X88920486Y-84489056D01*
X88924951Y-84497820D01*
X89049890Y-84669786D01*
X89200213Y-84820109D01*
X89372179Y-84945048D01*
X89372181Y-84945049D01*
X89372184Y-84945051D01*
X89561588Y-85041557D01*
X89763757Y-85107246D01*
X89973713Y-85140500D01*
X89973714Y-85140500D01*
X90186286Y-85140500D01*
X90186287Y-85140500D01*
X90396243Y-85107246D01*
X90598412Y-85041557D01*
X90787816Y-84945051D01*
X90842572Y-84905269D01*
X90959786Y-84820109D01*
X90959788Y-84820106D01*
X90959792Y-84820104D01*
X91110104Y-84669792D01*
X91110106Y-84669788D01*
X91110109Y-84669786D01*
X91235048Y-84497820D01*
X91235050Y-84497817D01*
X91235051Y-84497816D01*
X91239514Y-84489054D01*
X91287488Y-84438259D01*
X91355308Y-84421463D01*
X91421444Y-84443999D01*
X91460486Y-84489056D01*
X91464951Y-84497820D01*
X91589890Y-84669786D01*
X91740213Y-84820109D01*
X91912179Y-84945048D01*
X91912181Y-84945049D01*
X91912184Y-84945051D01*
X92101588Y-85041557D01*
X92303757Y-85107246D01*
X92513713Y-85140500D01*
X92513714Y-85140500D01*
X92726286Y-85140500D01*
X92726287Y-85140500D01*
X92936243Y-85107246D01*
X93138412Y-85041557D01*
X93327816Y-84945051D01*
X93382572Y-84905269D01*
X93499786Y-84820109D01*
X93499788Y-84820106D01*
X93499792Y-84820104D01*
X93650104Y-84669792D01*
X93650106Y-84669788D01*
X93650109Y-84669786D01*
X93775048Y-84497820D01*
X93775050Y-84497817D01*
X93775051Y-84497816D01*
X93779514Y-84489054D01*
X93827488Y-84438259D01*
X93895308Y-84421463D01*
X93961444Y-84443999D01*
X94000486Y-84489056D01*
X94004951Y-84497820D01*
X94129890Y-84669786D01*
X94280213Y-84820109D01*
X94452179Y-84945048D01*
X94452181Y-84945049D01*
X94452184Y-84945051D01*
X94641588Y-85041557D01*
X94843757Y-85107246D01*
X95053713Y-85140500D01*
X95053714Y-85140500D01*
X95266286Y-85140500D01*
X95266287Y-85140500D01*
X95476243Y-85107246D01*
X95678412Y-85041557D01*
X95867816Y-84945051D01*
X95922572Y-84905269D01*
X96039786Y-84820109D01*
X96039788Y-84820106D01*
X96039792Y-84820104D01*
X96190104Y-84669792D01*
X96190106Y-84669788D01*
X96190109Y-84669786D01*
X96315048Y-84497820D01*
X96315050Y-84497817D01*
X96315051Y-84497816D01*
X96411557Y-84308412D01*
X96477246Y-84106243D01*
X96510500Y-83896287D01*
X96510500Y-83683713D01*
X96477246Y-83473757D01*
X96473204Y-83461320D01*
X96471210Y-83391480D01*
X96507291Y-83331647D01*
X96569992Y-83300819D01*
X96639406Y-83308784D01*
X96678814Y-83335320D01*
X104205307Y-90861812D01*
X104289857Y-90946362D01*
X104295915Y-90952420D01*
X104402449Y-91023604D01*
X104402455Y-91023607D01*
X104402456Y-91023608D01*
X104520839Y-91072644D01*
X104520843Y-91072644D01*
X104520844Y-91072645D01*
X104646511Y-91097643D01*
X104646514Y-91097643D01*
X109786929Y-91097643D01*
X109853968Y-91117328D01*
X109887245Y-91148756D01*
X109932912Y-91211610D01*
X109993034Y-91294362D01*
X110137786Y-91439114D01*
X110292749Y-91551699D01*
X110303390Y-91559430D01*
X110419607Y-91618646D01*
X110485776Y-91652361D01*
X110485778Y-91652361D01*
X110485781Y-91652363D01*
X110590137Y-91686270D01*
X110680465Y-91715620D01*
X110781557Y-91731631D01*
X110882648Y-91747643D01*
X110882649Y-91747643D01*
X111087351Y-91747643D01*
X111087352Y-91747643D01*
X111289534Y-91715620D01*
X111484219Y-91652363D01*
X111666610Y-91559430D01*
X111773231Y-91481966D01*
X111832213Y-91439114D01*
X111832215Y-91439111D01*
X111832219Y-91439109D01*
X111976966Y-91294362D01*
X111976968Y-91294358D01*
X111976971Y-91294356D01*
X112037088Y-91211610D01*
X112097287Y-91128753D01*
X112190220Y-90946362D01*
X112253477Y-90751677D01*
X112285500Y-90549495D01*
X112285500Y-90344791D01*
X112267394Y-90230476D01*
X112253477Y-90142608D01*
X112190218Y-89947919D01*
X112139503Y-89848386D01*
X112097287Y-89765533D01*
X112082753Y-89745528D01*
X111976971Y-89599929D01*
X111832213Y-89455171D01*
X111666613Y-89334858D01*
X111666612Y-89334857D01*
X111666610Y-89334856D01*
X111609653Y-89305834D01*
X111484223Y-89241924D01*
X111289534Y-89178665D01*
X111114995Y-89151021D01*
X111087352Y-89146643D01*
X110882648Y-89146643D01*
X110858329Y-89150494D01*
X110680465Y-89178665D01*
X110485776Y-89241924D01*
X110303386Y-89334858D01*
X110137786Y-89455171D01*
X109993034Y-89599923D01*
X109961893Y-89642786D01*
X109887246Y-89745529D01*
X109831918Y-89788194D01*
X109786929Y-89796643D01*
X105031390Y-89796643D01*
X104964351Y-89776958D01*
X104943709Y-89760324D01*
X95273721Y-80090335D01*
X95240236Y-80029012D01*
X95245220Y-79959320D01*
X95287092Y-79903387D01*
X95342004Y-79880181D01*
X95451024Y-79862913D01*
X95615697Y-79809408D01*
X95769964Y-79730804D01*
X95910042Y-79629032D01*
X96032472Y-79506602D01*
X96134244Y-79366524D01*
X96212848Y-79212257D01*
X96266354Y-79047584D01*
X96293440Y-78876571D01*
X96293440Y-78640000D01*
X95509126Y-78640000D01*
X95513520Y-78635606D01*
X95566181Y-78544394D01*
X95593440Y-78442661D01*
X95593440Y-78337339D01*
X95566181Y-78235606D01*
X95513520Y-78144394D01*
X95509126Y-78140000D01*
X96293440Y-78140000D01*
X96293440Y-77903428D01*
X96293434Y-77903389D01*
X96632940Y-77903389D01*
X96632940Y-78876610D01*
X96659454Y-79044018D01*
X96660038Y-79047701D01*
X96713567Y-79212445D01*
X96792208Y-79366788D01*
X96894026Y-79506928D01*
X97016512Y-79629414D01*
X97156652Y-79731232D01*
X97310995Y-79809873D01*
X97310997Y-79809873D01*
X97311000Y-79809875D01*
X97355165Y-79824225D01*
X97404529Y-79854475D01*
X105345325Y-87795272D01*
X105345326Y-87795273D01*
X105345329Y-87795275D01*
X105345331Y-87795277D01*
X105451873Y-87866465D01*
X105570256Y-87915501D01*
X105570260Y-87915501D01*
X105570261Y-87915502D01*
X105695928Y-87940500D01*
X105695931Y-87940500D01*
X110634192Y-87940500D01*
X110701231Y-87960185D01*
X110721873Y-87976819D01*
X112847862Y-90102808D01*
X112881347Y-90164131D01*
X112882654Y-90209886D01*
X112854500Y-90387647D01*
X112854500Y-90592351D01*
X112886522Y-90794534D01*
X112949781Y-90989223D01*
X113005025Y-91097643D01*
X113031069Y-91148758D01*
X113042715Y-91171613D01*
X113163028Y-91337213D01*
X113307786Y-91481971D01*
X113462749Y-91594556D01*
X113473390Y-91602287D01*
X113571666Y-91652361D01*
X113655776Y-91695218D01*
X113655778Y-91695218D01*
X113655781Y-91695220D01*
X113718566Y-91715620D01*
X113850465Y-91758477D01*
X113951557Y-91774488D01*
X114052648Y-91790500D01*
X114052649Y-91790500D01*
X114257351Y-91790500D01*
X114257352Y-91790500D01*
X114459534Y-91758477D01*
X114654219Y-91695220D01*
X114836610Y-91602287D01*
X114929590Y-91534732D01*
X115002213Y-91481971D01*
X115002215Y-91481968D01*
X115002219Y-91481966D01*
X115146966Y-91337219D01*
X115146968Y-91337215D01*
X115146971Y-91337213D01*
X115238223Y-91211613D01*
X115267287Y-91171610D01*
X115360220Y-90989219D01*
X115423477Y-90794534D01*
X115455500Y-90592352D01*
X115455500Y-90427648D01*
X115999500Y-90427648D01*
X115999500Y-90632351D01*
X116031522Y-90834534D01*
X116094781Y-91029223D01*
X116155688Y-91148758D01*
X116167333Y-91171613D01*
X116187715Y-91211613D01*
X116308028Y-91377213D01*
X116452786Y-91521971D01*
X116563330Y-91602284D01*
X116618390Y-91642287D01*
X116722273Y-91695218D01*
X116800776Y-91735218D01*
X116800778Y-91735218D01*
X116800781Y-91735220D01*
X116872359Y-91758477D01*
X116995465Y-91798477D01*
X117096557Y-91814488D01*
X117197648Y-91830500D01*
X117197649Y-91830500D01*
X117402351Y-91830500D01*
X117402352Y-91830500D01*
X117604534Y-91798477D01*
X117799219Y-91735220D01*
X117981610Y-91642287D01*
X118095658Y-91559427D01*
X118147213Y-91521971D01*
X118147215Y-91521968D01*
X118147219Y-91521966D01*
X118291966Y-91377219D01*
X118291968Y-91377215D01*
X118291971Y-91377213D01*
X118352169Y-91294356D01*
X118412287Y-91211610D01*
X118505220Y-91029219D01*
X118568477Y-90834534D01*
X118600500Y-90632352D01*
X118600500Y-90427648D01*
X118568477Y-90225466D01*
X118505220Y-90030781D01*
X118505218Y-90030778D01*
X118505218Y-90030776D01*
X118463002Y-89947924D01*
X118412287Y-89848390D01*
X118374691Y-89796643D01*
X118291971Y-89682786D01*
X118147213Y-89538028D01*
X117981613Y-89417715D01*
X117981612Y-89417714D01*
X117981610Y-89417713D01*
X117903106Y-89377713D01*
X117799223Y-89324781D01*
X117604534Y-89261522D01*
X117420106Y-89232312D01*
X117402352Y-89229500D01*
X117197648Y-89229500D01*
X117179894Y-89232312D01*
X116995465Y-89261522D01*
X116800776Y-89324781D01*
X116618386Y-89417715D01*
X116452786Y-89538028D01*
X116308028Y-89682786D01*
X116187715Y-89848386D01*
X116094781Y-90030776D01*
X116031522Y-90225465D01*
X115999500Y-90427648D01*
X115455500Y-90427648D01*
X115455500Y-90387648D01*
X115430606Y-90230476D01*
X115423477Y-90185465D01*
X115372903Y-90029815D01*
X115360220Y-89990781D01*
X115360218Y-89990778D01*
X115360218Y-89990776D01*
X115326503Y-89924607D01*
X115267287Y-89808390D01*
X115236147Y-89765529D01*
X115146971Y-89642786D01*
X115002213Y-89498028D01*
X114836613Y-89377715D01*
X114836612Y-89377714D01*
X114836610Y-89377713D01*
X114779653Y-89348691D01*
X114654223Y-89284781D01*
X114459534Y-89221522D01*
X114284995Y-89193878D01*
X114257352Y-89189500D01*
X114052648Y-89189500D01*
X113874886Y-89217654D01*
X113805593Y-89208699D01*
X113767808Y-89182862D01*
X111369674Y-86784727D01*
X111369673Y-86784726D01*
X111369669Y-86784723D01*
X111263127Y-86713535D01*
X111144744Y-86664499D01*
X111144738Y-86664497D01*
X111019071Y-86639500D01*
X111019069Y-86639500D01*
X106080808Y-86639500D01*
X106013769Y-86619815D01*
X105993127Y-86603181D01*
X102114737Y-82724791D01*
X109684500Y-82724791D01*
X109684500Y-82929494D01*
X109716522Y-83131677D01*
X109779781Y-83326366D01*
X109872715Y-83508756D01*
X109993028Y-83674356D01*
X110137786Y-83819114D01*
X110288130Y-83928343D01*
X110303390Y-83939430D01*
X110419607Y-83998646D01*
X110485776Y-84032361D01*
X110485778Y-84032361D01*
X110485781Y-84032363D01*
X110590137Y-84066270D01*
X110680465Y-84095620D01*
X110747536Y-84106243D01*
X110882648Y-84127643D01*
X110882649Y-84127643D01*
X111087351Y-84127643D01*
X111087352Y-84127643D01*
X111289534Y-84095620D01*
X111484219Y-84032363D01*
X111666610Y-83939430D01*
X111803596Y-83839905D01*
X111832213Y-83819114D01*
X111832215Y-83819111D01*
X111832219Y-83819109D01*
X111976966Y-83674362D01*
X111976968Y-83674358D01*
X111976971Y-83674356D01*
X112048002Y-83576588D01*
X112097287Y-83508753D01*
X112190220Y-83326362D01*
X112253477Y-83131677D01*
X112285500Y-82929495D01*
X112285500Y-82767648D01*
X112854500Y-82767648D01*
X112854500Y-82972351D01*
X112886522Y-83174534D01*
X112949781Y-83369223D01*
X113042715Y-83551613D01*
X113163028Y-83717213D01*
X113307786Y-83861971D01*
X113462749Y-83974556D01*
X113473390Y-83982287D01*
X113571666Y-84032361D01*
X113655776Y-84075218D01*
X113655778Y-84075218D01*
X113655781Y-84075220D01*
X113751248Y-84106239D01*
X113850465Y-84138477D01*
X113882520Y-84143554D01*
X114052648Y-84170500D01*
X114052649Y-84170500D01*
X114257351Y-84170500D01*
X114257352Y-84170500D01*
X114459534Y-84138477D01*
X114654219Y-84075220D01*
X114836610Y-83982287D01*
X114929590Y-83914732D01*
X115002213Y-83861971D01*
X115002215Y-83861968D01*
X115002219Y-83861966D01*
X115146966Y-83717219D01*
X115146968Y-83717215D01*
X115146971Y-83717213D01*
X115238223Y-83591613D01*
X115267287Y-83551610D01*
X115360220Y-83369219D01*
X115423477Y-83174534D01*
X115455500Y-82972352D01*
X115455500Y-82767648D01*
X115440783Y-82674727D01*
X115423477Y-82565465D01*
X115388601Y-82458130D01*
X115360220Y-82370781D01*
X115360218Y-82370778D01*
X115360218Y-82370776D01*
X115326503Y-82304607D01*
X115267287Y-82188390D01*
X115231939Y-82139737D01*
X115146971Y-82022786D01*
X115002213Y-81878028D01*
X114836613Y-81757715D01*
X114836612Y-81757714D01*
X114836610Y-81757713D01*
X114760765Y-81719068D01*
X114654223Y-81664781D01*
X114459534Y-81601522D01*
X114284995Y-81573878D01*
X114257352Y-81569500D01*
X114052648Y-81569500D01*
X114028329Y-81573351D01*
X113850465Y-81601522D01*
X113655776Y-81664781D01*
X113473386Y-81757715D01*
X113307786Y-81878028D01*
X113163028Y-82022786D01*
X113042715Y-82188386D01*
X112949781Y-82370776D01*
X112886522Y-82565465D01*
X112854500Y-82767648D01*
X112285500Y-82767648D01*
X112285500Y-82724791D01*
X112277571Y-82674727D01*
X112253477Y-82522608D01*
X112204768Y-82372698D01*
X112190220Y-82327924D01*
X112190218Y-82327921D01*
X112190218Y-82327919D01*
X112156503Y-82261750D01*
X112097287Y-82145533D01*
X112049232Y-82079390D01*
X111976971Y-81979929D01*
X111832213Y-81835171D01*
X111666613Y-81714858D01*
X111666612Y-81714857D01*
X111666610Y-81714856D01*
X111609653Y-81685834D01*
X111484223Y-81621924D01*
X111289534Y-81558665D01*
X111114995Y-81531021D01*
X111087352Y-81526643D01*
X110882648Y-81526643D01*
X110858329Y-81530494D01*
X110680465Y-81558665D01*
X110485776Y-81621924D01*
X110303386Y-81714858D01*
X110137786Y-81835171D01*
X109993028Y-81979929D01*
X109872715Y-82145529D01*
X109779781Y-82327919D01*
X109716522Y-82522608D01*
X109684500Y-82724791D01*
X102114737Y-82724791D01*
X98766075Y-79376129D01*
X98732590Y-79314806D01*
X98737574Y-79245114D01*
X98743272Y-79232152D01*
X98753311Y-79212449D01*
X98753312Y-79212447D01*
X98753313Y-79212445D01*
X98806842Y-79047701D01*
X98833940Y-78876611D01*
X98833940Y-77903389D01*
X99172940Y-77903389D01*
X99172940Y-78876610D01*
X99199454Y-79044018D01*
X99200038Y-79047701D01*
X99253567Y-79212445D01*
X99332208Y-79366788D01*
X99434026Y-79506928D01*
X99556512Y-79629414D01*
X99696652Y-79731232D01*
X99850995Y-79809873D01*
X100015739Y-79863402D01*
X100186829Y-79890500D01*
X100186830Y-79890500D01*
X100360050Y-79890500D01*
X100360051Y-79890500D01*
X100531141Y-79863402D01*
X100695885Y-79809873D01*
X100850228Y-79731232D01*
X100990368Y-79629414D01*
X101112854Y-79506928D01*
X101214672Y-79366788D01*
X101293313Y-79212445D01*
X101346842Y-79047701D01*
X101373940Y-78876611D01*
X101373940Y-77903389D01*
X101712940Y-77903389D01*
X101712940Y-78876610D01*
X101739454Y-79044018D01*
X101740038Y-79047701D01*
X101793567Y-79212445D01*
X101872208Y-79366788D01*
X101974026Y-79506928D01*
X102096512Y-79629414D01*
X102236652Y-79731232D01*
X102390995Y-79809873D01*
X102555739Y-79863402D01*
X102726829Y-79890500D01*
X102726830Y-79890500D01*
X102900050Y-79890500D01*
X102900051Y-79890500D01*
X103071141Y-79863402D01*
X103235885Y-79809873D01*
X103390228Y-79731232D01*
X103530368Y-79629414D01*
X103652854Y-79506928D01*
X103754672Y-79366788D01*
X103833313Y-79212445D01*
X103886842Y-79047701D01*
X103913940Y-78876611D01*
X103913940Y-77903389D01*
X104252940Y-77903389D01*
X104252940Y-78876610D01*
X104279454Y-79044018D01*
X104280038Y-79047701D01*
X104333567Y-79212445D01*
X104412208Y-79366788D01*
X104514026Y-79506928D01*
X104636512Y-79629414D01*
X104776652Y-79731232D01*
X104930995Y-79809873D01*
X105095739Y-79863402D01*
X105266829Y-79890500D01*
X105266830Y-79890500D01*
X105440050Y-79890500D01*
X105440051Y-79890500D01*
X105611141Y-79863402D01*
X105775885Y-79809873D01*
X105930228Y-79731232D01*
X106070368Y-79629414D01*
X106192854Y-79506928D01*
X106294672Y-79366788D01*
X106373313Y-79212445D01*
X106426842Y-79047701D01*
X106453940Y-78876611D01*
X106453940Y-77903389D01*
X106792940Y-77903389D01*
X106792940Y-78876610D01*
X106819454Y-79044018D01*
X106820038Y-79047701D01*
X106873567Y-79212445D01*
X106952208Y-79366788D01*
X107054026Y-79506928D01*
X107176512Y-79629414D01*
X107316652Y-79731232D01*
X107470995Y-79809873D01*
X107635739Y-79863402D01*
X107806829Y-79890500D01*
X107806830Y-79890500D01*
X107980050Y-79890500D01*
X107980051Y-79890500D01*
X108151141Y-79863402D01*
X108315885Y-79809873D01*
X108470228Y-79731232D01*
X108610368Y-79629414D01*
X108732854Y-79506928D01*
X108834672Y-79366788D01*
X108913313Y-79212445D01*
X108966842Y-79047701D01*
X108993940Y-78876611D01*
X108993940Y-77903428D01*
X109333440Y-77903428D01*
X109333440Y-78140000D01*
X110117754Y-78140000D01*
X110113360Y-78144394D01*
X110060699Y-78235606D01*
X110033440Y-78337339D01*
X110033440Y-78442661D01*
X110060699Y-78544394D01*
X110113360Y-78635606D01*
X110117754Y-78640000D01*
X109333440Y-78640000D01*
X109333440Y-78876571D01*
X109360525Y-79047584D01*
X109414031Y-79212257D01*
X109492635Y-79366524D01*
X109594407Y-79506602D01*
X109716837Y-79629032D01*
X109856915Y-79730804D01*
X110011184Y-79809408D01*
X110175855Y-79862914D01*
X110175854Y-79862914D01*
X110183439Y-79864115D01*
X110183440Y-79864114D01*
X110183440Y-78705686D01*
X110187834Y-78710080D01*
X110279046Y-78762741D01*
X110380779Y-78790000D01*
X110486101Y-78790000D01*
X110587834Y-78762741D01*
X110679046Y-78710080D01*
X110683440Y-78705686D01*
X110683440Y-79864115D01*
X110691024Y-79862914D01*
X110855695Y-79809408D01*
X111009964Y-79730804D01*
X111150042Y-79629032D01*
X111272472Y-79506602D01*
X111374244Y-79366524D01*
X111452848Y-79212257D01*
X111506354Y-79047584D01*
X111533440Y-78876571D01*
X111533440Y-78640000D01*
X110749126Y-78640000D01*
X110753520Y-78635606D01*
X110806181Y-78544394D01*
X110833440Y-78442661D01*
X110833440Y-78337339D01*
X110806181Y-78235606D01*
X110753520Y-78144394D01*
X110749126Y-78140000D01*
X111533440Y-78140000D01*
X111533440Y-77903428D01*
X111506354Y-77732415D01*
X111452848Y-77567742D01*
X111374243Y-77413474D01*
X111272472Y-77273397D01*
X111150042Y-77150967D01*
X111009964Y-77049195D01*
X110855697Y-76970591D01*
X110691029Y-76917087D01*
X110691021Y-76917085D01*
X110683440Y-76915884D01*
X110683440Y-78074314D01*
X110679046Y-78069920D01*
X110587834Y-78017259D01*
X110486101Y-77990000D01*
X110380779Y-77990000D01*
X110279046Y-78017259D01*
X110187834Y-78069920D01*
X110183440Y-78074314D01*
X110183440Y-76915884D01*
X110183439Y-76915884D01*
X110175858Y-76917085D01*
X110175850Y-76917087D01*
X110011182Y-76970591D01*
X109856915Y-77049195D01*
X109716837Y-77150967D01*
X109594407Y-77273397D01*
X109492637Y-77413474D01*
X109414031Y-77567742D01*
X109360525Y-77732415D01*
X109333440Y-77903428D01*
X108993940Y-77903428D01*
X108993940Y-77903389D01*
X108966842Y-77732299D01*
X108913313Y-77567555D01*
X108834672Y-77413212D01*
X108732854Y-77273072D01*
X108610368Y-77150586D01*
X108470228Y-77048768D01*
X108315885Y-76970127D01*
X108151141Y-76916598D01*
X108151139Y-76916597D01*
X108151138Y-76916597D01*
X108019711Y-76895781D01*
X107980051Y-76889500D01*
X107806829Y-76889500D01*
X107767168Y-76895781D01*
X107635742Y-76916597D01*
X107470992Y-76970128D01*
X107316651Y-77048768D01*
X107269818Y-77082795D01*
X107176512Y-77150586D01*
X107176510Y-77150588D01*
X107176509Y-77150588D01*
X107054028Y-77273069D01*
X107054028Y-77273070D01*
X107054026Y-77273072D01*
X107053790Y-77273397D01*
X106952208Y-77413211D01*
X106873568Y-77567552D01*
X106820037Y-77732302D01*
X106792940Y-77903389D01*
X106453940Y-77903389D01*
X106426842Y-77732299D01*
X106373313Y-77567555D01*
X106294672Y-77413212D01*
X106192854Y-77273072D01*
X106070368Y-77150586D01*
X105930228Y-77048768D01*
X105775885Y-76970127D01*
X105611141Y-76916598D01*
X105611139Y-76916597D01*
X105611138Y-76916597D01*
X105479711Y-76895781D01*
X105440051Y-76889500D01*
X105266829Y-76889500D01*
X105227168Y-76895781D01*
X105095742Y-76916597D01*
X104930992Y-76970128D01*
X104776651Y-77048768D01*
X104729818Y-77082795D01*
X104636512Y-77150586D01*
X104636510Y-77150588D01*
X104636509Y-77150588D01*
X104514028Y-77273069D01*
X104514028Y-77273070D01*
X104514026Y-77273072D01*
X104513790Y-77273397D01*
X104412208Y-77413211D01*
X104333568Y-77567552D01*
X104280037Y-77732302D01*
X104252940Y-77903389D01*
X103913940Y-77903389D01*
X103886842Y-77732299D01*
X103833313Y-77567555D01*
X103754672Y-77413212D01*
X103652854Y-77273072D01*
X103530368Y-77150586D01*
X103390228Y-77048768D01*
X103235885Y-76970127D01*
X103071141Y-76916598D01*
X103071139Y-76916597D01*
X103071138Y-76916597D01*
X102939711Y-76895781D01*
X102900051Y-76889500D01*
X102726829Y-76889500D01*
X102687168Y-76895781D01*
X102555742Y-76916597D01*
X102390992Y-76970128D01*
X102236651Y-77048768D01*
X102189818Y-77082795D01*
X102096512Y-77150586D01*
X102096510Y-77150588D01*
X102096509Y-77150588D01*
X101974028Y-77273069D01*
X101974028Y-77273070D01*
X101974026Y-77273072D01*
X101973790Y-77273397D01*
X101872208Y-77413211D01*
X101793568Y-77567552D01*
X101740037Y-77732302D01*
X101712940Y-77903389D01*
X101373940Y-77903389D01*
X101346842Y-77732299D01*
X101293313Y-77567555D01*
X101214672Y-77413212D01*
X101112854Y-77273072D01*
X100990368Y-77150586D01*
X100850228Y-77048768D01*
X100695885Y-76970127D01*
X100531141Y-76916598D01*
X100531139Y-76916597D01*
X100531138Y-76916597D01*
X100399711Y-76895781D01*
X100360051Y-76889500D01*
X100186829Y-76889500D01*
X100147168Y-76895781D01*
X100015742Y-76916597D01*
X99850992Y-76970128D01*
X99696651Y-77048768D01*
X99649818Y-77082795D01*
X99556512Y-77150586D01*
X99556510Y-77150588D01*
X99556509Y-77150588D01*
X99434028Y-77273069D01*
X99434028Y-77273070D01*
X99434026Y-77273072D01*
X99433790Y-77273397D01*
X99332208Y-77413211D01*
X99253568Y-77567552D01*
X99200037Y-77732302D01*
X99172940Y-77903389D01*
X98833940Y-77903389D01*
X98806842Y-77732299D01*
X98753313Y-77567555D01*
X98674672Y-77413212D01*
X98572854Y-77273072D01*
X98450368Y-77150586D01*
X98310228Y-77048768D01*
X98155885Y-76970127D01*
X97991141Y-76916598D01*
X97991139Y-76916597D01*
X97991138Y-76916597D01*
X97859711Y-76895781D01*
X97820051Y-76889500D01*
X97646829Y-76889500D01*
X97607168Y-76895781D01*
X97475742Y-76916597D01*
X97310992Y-76970128D01*
X97156651Y-77048768D01*
X97109818Y-77082795D01*
X97016512Y-77150586D01*
X97016510Y-77150588D01*
X97016509Y-77150588D01*
X96894028Y-77273069D01*
X96894028Y-77273070D01*
X96894026Y-77273072D01*
X96893790Y-77273397D01*
X96792208Y-77413211D01*
X96713568Y-77567552D01*
X96660037Y-77732302D01*
X96632940Y-77903389D01*
X96293434Y-77903389D01*
X96266354Y-77732415D01*
X96212848Y-77567742D01*
X96134243Y-77413474D01*
X96032472Y-77273397D01*
X95910042Y-77150967D01*
X95769964Y-77049195D01*
X95615697Y-76970591D01*
X95451029Y-76917087D01*
X95451021Y-76917085D01*
X95443440Y-76915884D01*
X95443440Y-78074314D01*
X95439046Y-78069920D01*
X95347834Y-78017259D01*
X95246101Y-77990000D01*
X95140779Y-77990000D01*
X95039046Y-78017259D01*
X94947834Y-78069920D01*
X94943440Y-78074314D01*
X94943440Y-76915884D01*
X94943439Y-76915884D01*
X94935858Y-76917085D01*
X94935850Y-76917087D01*
X94771182Y-76970591D01*
X94616915Y-77049195D01*
X94476837Y-77150967D01*
X94354407Y-77273397D01*
X94252637Y-77413474D01*
X94174031Y-77567742D01*
X94120525Y-77732415D01*
X94093440Y-77903428D01*
X94093440Y-78140000D01*
X94877754Y-78140000D01*
X94873360Y-78144394D01*
X94820699Y-78235606D01*
X94793440Y-78337339D01*
X94793440Y-78442661D01*
X94820699Y-78544394D01*
X94873360Y-78635606D01*
X94877754Y-78640000D01*
X94093440Y-78640000D01*
X94086100Y-78647339D01*
X94085622Y-78654026D01*
X94077549Y-78664809D01*
X94073755Y-78677731D01*
X94057021Y-78692230D01*
X94043750Y-78709959D01*
X94031129Y-78714666D01*
X94020951Y-78723486D01*
X93999033Y-78726637D01*
X93978286Y-78734376D01*
X93965125Y-78731513D01*
X93951793Y-78733430D01*
X93931649Y-78724230D01*
X93910013Y-78719524D01*
X93892287Y-78706255D01*
X93888237Y-78704405D01*
X93881759Y-78698373D01*
X93790259Y-78606873D01*
X93756774Y-78545550D01*
X93753940Y-78519192D01*
X93753940Y-77903389D01*
X93726842Y-77732302D01*
X93726842Y-77732299D01*
X93673313Y-77567555D01*
X93594672Y-77413212D01*
X93492854Y-77273072D01*
X93370368Y-77150586D01*
X93230228Y-77048768D01*
X93075885Y-76970127D01*
X92911141Y-76916598D01*
X92911139Y-76916597D01*
X92911138Y-76916597D01*
X92779711Y-76895781D01*
X92740051Y-76889500D01*
X92566829Y-76889500D01*
X92527168Y-76895781D01*
X92395742Y-76916597D01*
X92230992Y-76970128D01*
X92076651Y-77048768D01*
X92029818Y-77082795D01*
X91936512Y-77150586D01*
X91936510Y-77150588D01*
X91936509Y-77150588D01*
X91814028Y-77273069D01*
X91814028Y-77273070D01*
X91814026Y-77273072D01*
X91813790Y-77273397D01*
X91712208Y-77413211D01*
X91633568Y-77567552D01*
X91580037Y-77732302D01*
X91552940Y-77903389D01*
X91552940Y-78876610D01*
X91579454Y-79044018D01*
X91580038Y-79047701D01*
X91633567Y-79212445D01*
X91712208Y-79366788D01*
X91814026Y-79506928D01*
X91936512Y-79629414D01*
X92076652Y-79731232D01*
X92230995Y-79809873D01*
X92395739Y-79863402D01*
X92566829Y-79890500D01*
X92566830Y-79890500D01*
X92740050Y-79890500D01*
X92740051Y-79890500D01*
X92911141Y-79863402D01*
X93062100Y-79814351D01*
X93131937Y-79812357D01*
X93188096Y-79844602D01*
X95614676Y-82271182D01*
X95648161Y-82332505D01*
X95643177Y-82402197D01*
X95601305Y-82458130D01*
X95535841Y-82482547D01*
X95488680Y-82476795D01*
X95476243Y-82472754D01*
X95476239Y-82472753D01*
X95476238Y-82472753D01*
X95357028Y-82453872D01*
X95266287Y-82439500D01*
X95053713Y-82439500D01*
X95005042Y-82447208D01*
X94843760Y-82472753D01*
X94641585Y-82538444D01*
X94452179Y-82634951D01*
X94280213Y-82759890D01*
X94129890Y-82910213D01*
X94004949Y-83082182D01*
X94000484Y-83090946D01*
X93952509Y-83141742D01*
X93884688Y-83158536D01*
X93818553Y-83135998D01*
X93779516Y-83090946D01*
X93775050Y-83082182D01*
X93650109Y-82910213D01*
X93499786Y-82759890D01*
X93327820Y-82634951D01*
X93138414Y-82538444D01*
X93138413Y-82538443D01*
X93138412Y-82538443D01*
X92936243Y-82472754D01*
X92936241Y-82472753D01*
X92936240Y-82472753D01*
X92774957Y-82447208D01*
X92726287Y-82439500D01*
X92513713Y-82439500D01*
X92465042Y-82447208D01*
X92303760Y-82472753D01*
X92101585Y-82538444D01*
X91912179Y-82634951D01*
X91740213Y-82759890D01*
X91589890Y-82910213D01*
X91464949Y-83082182D01*
X91460484Y-83090946D01*
X91412509Y-83141742D01*
X91344688Y-83158536D01*
X91278553Y-83135998D01*
X91239516Y-83090946D01*
X91235050Y-83082182D01*
X91110109Y-82910213D01*
X90959786Y-82759890D01*
X90787820Y-82634951D01*
X90598414Y-82538444D01*
X90598413Y-82538443D01*
X90598412Y-82538443D01*
X90396243Y-82472754D01*
X90396241Y-82472753D01*
X90396240Y-82472753D01*
X90234957Y-82447208D01*
X90186287Y-82439500D01*
X89973713Y-82439500D01*
X89925042Y-82447208D01*
X89763760Y-82472753D01*
X89561585Y-82538444D01*
X89372179Y-82634951D01*
X89200213Y-82759890D01*
X89049890Y-82910213D01*
X88924949Y-83082182D01*
X88920484Y-83090946D01*
X88872509Y-83141742D01*
X88804688Y-83158536D01*
X88738553Y-83135998D01*
X88699516Y-83090946D01*
X88695050Y-83082182D01*
X88570109Y-82910213D01*
X88419786Y-82759890D01*
X88247820Y-82634951D01*
X88058414Y-82538444D01*
X88058413Y-82538443D01*
X88058412Y-82538443D01*
X87856243Y-82472754D01*
X87856241Y-82472753D01*
X87856240Y-82472753D01*
X87694957Y-82447208D01*
X87646287Y-82439500D01*
X87433713Y-82439500D01*
X87385042Y-82447208D01*
X87223760Y-82472753D01*
X87021585Y-82538444D01*
X86832179Y-82634951D01*
X86660213Y-82759890D01*
X86509890Y-82910213D01*
X86384949Y-83082182D01*
X86380202Y-83091499D01*
X86332227Y-83142293D01*
X86264405Y-83159087D01*
X86198271Y-83136548D01*
X86159234Y-83091495D01*
X86154626Y-83082452D01*
X86115270Y-83028282D01*
X86115269Y-83028282D01*
X85482962Y-83660590D01*
X85465925Y-83597007D01*
X85400099Y-83482993D01*
X85307007Y-83389901D01*
X85192993Y-83324075D01*
X85129409Y-83307037D01*
X85761716Y-82674728D01*
X85707550Y-82635375D01*
X85518217Y-82538904D01*
X85316129Y-82473242D01*
X85106246Y-82440000D01*
X84893754Y-82440000D01*
X84683872Y-82473242D01*
X84683869Y-82473242D01*
X84481782Y-82538904D01*
X84292439Y-82635380D01*
X84238282Y-82674727D01*
X84238282Y-82674728D01*
X84870591Y-83307037D01*
X84807007Y-83324075D01*
X84692993Y-83389901D01*
X84599901Y-83482993D01*
X84534075Y-83597007D01*
X84517037Y-83660591D01*
X83846818Y-82990372D01*
X83813333Y-82929049D01*
X83813330Y-82929036D01*
X83810499Y-82916015D01*
X83810499Y-82892128D01*
X83804091Y-82832517D01*
X83775926Y-82757002D01*
X83753798Y-82697673D01*
X83753793Y-82697664D01*
X83667547Y-82582455D01*
X83667544Y-82582452D01*
X83552335Y-82496206D01*
X83552328Y-82496202D01*
X83417482Y-82445908D01*
X83417483Y-82445908D01*
X83357883Y-82439501D01*
X83357881Y-82439500D01*
X83357873Y-82439500D01*
X83357864Y-82439500D01*
X81562129Y-82439500D01*
X81562123Y-82439501D01*
X81502516Y-82445908D01*
X81367671Y-82496202D01*
X81367664Y-82496206D01*
X81252455Y-82582452D01*
X81252452Y-82582455D01*
X81166206Y-82697664D01*
X81166202Y-82697671D01*
X81115908Y-82832517D01*
X81109501Y-82892116D01*
X81109500Y-82892135D01*
X81109500Y-84687870D01*
X81109501Y-84687876D01*
X81115908Y-84747483D01*
X81159148Y-84863414D01*
X81166204Y-84882331D01*
X81184766Y-84907126D01*
X81209184Y-84972590D01*
X81209500Y-84981438D01*
X81209500Y-88208422D01*
X81240290Y-88402826D01*
X81301117Y-88590030D01*
X81366534Y-88718417D01*
X81390476Y-88765405D01*
X81506172Y-88924646D01*
X81506174Y-88924648D01*
X82419345Y-89837819D01*
X82452830Y-89899142D01*
X82447846Y-89968834D01*
X82405974Y-90024767D01*
X82340510Y-90049184D01*
X82331664Y-90049500D01*
X69859336Y-90049500D01*
X69792297Y-90029815D01*
X69771655Y-90013181D01*
X67896819Y-88138345D01*
X67863334Y-88077022D01*
X67860500Y-88050664D01*
X67860500Y-85355132D01*
X67865195Y-85338574D01*
X67864896Y-85322408D01*
X67878960Y-85290038D01*
X67898447Y-85258443D01*
X67950394Y-85211717D01*
X68019356Y-85200493D01*
X68083439Y-85228335D01*
X68091668Y-85235856D01*
X68230535Y-85374723D01*
X68230540Y-85374727D01*
X68402442Y-85499620D01*
X68591782Y-85596095D01*
X68793871Y-85661757D01*
X68860000Y-85672231D01*
X68860000Y-84624145D01*
X68926657Y-84662630D01*
X69047465Y-84695000D01*
X69172535Y-84695000D01*
X69293343Y-84662630D01*
X69360000Y-84624145D01*
X69360000Y-85672230D01*
X69426126Y-85661757D01*
X69426129Y-85661757D01*
X69628217Y-85596095D01*
X69817557Y-85499620D01*
X69989459Y-85374727D01*
X69989464Y-85374723D01*
X70139721Y-85224466D01*
X70259371Y-85059781D01*
X70314701Y-85017115D01*
X70384314Y-85011136D01*
X70446110Y-85043741D01*
X70460008Y-85059781D01*
X70579890Y-85224785D01*
X70579894Y-85224790D01*
X70730213Y-85375109D01*
X70902179Y-85500048D01*
X70902181Y-85500049D01*
X70902184Y-85500051D01*
X71091588Y-85596557D01*
X71293757Y-85662246D01*
X71503713Y-85695500D01*
X71503714Y-85695500D01*
X71716286Y-85695500D01*
X71716287Y-85695500D01*
X71926243Y-85662246D01*
X72128412Y-85596557D01*
X72317816Y-85500051D01*
X72364275Y-85466297D01*
X72489786Y-85375109D01*
X72489788Y-85375106D01*
X72489792Y-85375104D01*
X72640104Y-85224792D01*
X72759683Y-85060204D01*
X72815011Y-85017540D01*
X72884624Y-85011561D01*
X72946420Y-85044166D01*
X72960313Y-85060199D01*
X73018655Y-85140500D01*
X73079896Y-85224792D01*
X73230213Y-85375109D01*
X73402179Y-85500048D01*
X73402181Y-85500049D01*
X73402184Y-85500051D01*
X73591588Y-85596557D01*
X73793757Y-85662246D01*
X74003713Y-85695500D01*
X74003714Y-85695500D01*
X74216286Y-85695500D01*
X74216287Y-85695500D01*
X74426243Y-85662246D01*
X74628412Y-85596557D01*
X74817816Y-85500051D01*
X74864275Y-85466297D01*
X74989786Y-85375109D01*
X74989788Y-85375106D01*
X74989792Y-85375104D01*
X75140104Y-85224792D01*
X75259683Y-85060204D01*
X75315011Y-85017540D01*
X75384624Y-85011561D01*
X75446420Y-85044166D01*
X75460313Y-85060199D01*
X75518655Y-85140500D01*
X75579896Y-85224792D01*
X75730213Y-85375109D01*
X75902179Y-85500048D01*
X75902181Y-85500049D01*
X75902184Y-85500051D01*
X76091588Y-85596557D01*
X76293757Y-85662246D01*
X76503713Y-85695500D01*
X76503714Y-85695500D01*
X76716286Y-85695500D01*
X76716287Y-85695500D01*
X76926243Y-85662246D01*
X77128412Y-85596557D01*
X77317816Y-85500051D01*
X77364275Y-85466297D01*
X77489786Y-85375109D01*
X77489788Y-85375106D01*
X77489792Y-85375104D01*
X77640104Y-85224792D01*
X77640106Y-85224788D01*
X77640109Y-85224786D01*
X77765048Y-85052820D01*
X77765047Y-85052820D01*
X77765051Y-85052816D01*
X77861557Y-84863412D01*
X77927246Y-84661243D01*
X77960500Y-84451287D01*
X77960500Y-83988713D01*
X77927246Y-83778757D01*
X77861557Y-83576588D01*
X77765051Y-83387184D01*
X77765049Y-83387181D01*
X77765048Y-83387179D01*
X77640109Y-83215213D01*
X77489786Y-83064890D01*
X77317820Y-82939951D01*
X77128414Y-82843444D01*
X77128413Y-82843443D01*
X77128412Y-82843443D01*
X76926243Y-82777754D01*
X76926241Y-82777753D01*
X76926240Y-82777753D01*
X76764957Y-82752208D01*
X76716287Y-82744500D01*
X76503713Y-82744500D01*
X76455042Y-82752208D01*
X76293760Y-82777753D01*
X76091585Y-82843444D01*
X75902179Y-82939951D01*
X75730213Y-83064890D01*
X75579894Y-83215209D01*
X75579890Y-83215214D01*
X75460318Y-83379793D01*
X75404989Y-83422459D01*
X75335375Y-83428438D01*
X75273580Y-83395833D01*
X75259682Y-83379793D01*
X75140109Y-83215214D01*
X75140105Y-83215209D01*
X74989786Y-83064890D01*
X74817820Y-82939951D01*
X74628414Y-82843444D01*
X74628413Y-82843443D01*
X74628412Y-82843443D01*
X74426243Y-82777754D01*
X74426241Y-82777753D01*
X74426240Y-82777753D01*
X74264957Y-82752208D01*
X74216287Y-82744500D01*
X74003713Y-82744500D01*
X73955042Y-82752208D01*
X73793760Y-82777753D01*
X73591585Y-82843444D01*
X73402179Y-82939951D01*
X73230213Y-83064890D01*
X73079894Y-83215209D01*
X73079890Y-83215214D01*
X72960318Y-83379793D01*
X72904989Y-83422459D01*
X72835375Y-83428438D01*
X72773580Y-83395833D01*
X72759682Y-83379793D01*
X72640109Y-83215214D01*
X72640105Y-83215209D01*
X72489786Y-83064890D01*
X72317820Y-82939951D01*
X72128414Y-82843444D01*
X72128413Y-82843443D01*
X72128412Y-82843443D01*
X71926243Y-82777754D01*
X71926241Y-82777753D01*
X71926240Y-82777753D01*
X71764957Y-82752208D01*
X71716287Y-82744500D01*
X71503713Y-82744500D01*
X71455042Y-82752208D01*
X71293760Y-82777753D01*
X71091585Y-82843444D01*
X70902179Y-82939951D01*
X70730213Y-83064890D01*
X70579894Y-83215209D01*
X70579890Y-83215214D01*
X70460008Y-83380218D01*
X70404678Y-83422884D01*
X70335065Y-83428863D01*
X70273270Y-83396257D01*
X70259372Y-83380218D01*
X70139727Y-83215540D01*
X70139723Y-83215535D01*
X69989464Y-83065276D01*
X69989459Y-83065272D01*
X69817557Y-82940379D01*
X69628215Y-82843903D01*
X69426124Y-82778241D01*
X69360000Y-82767768D01*
X69360000Y-83815854D01*
X69293343Y-83777370D01*
X69172535Y-83745000D01*
X69047465Y-83745000D01*
X68926657Y-83777370D01*
X68860000Y-83815854D01*
X68860000Y-82767768D01*
X68859999Y-82767768D01*
X68793875Y-82778241D01*
X68591784Y-82843903D01*
X68402442Y-82940379D01*
X68230541Y-83065271D01*
X68091668Y-83204144D01*
X68030345Y-83237628D01*
X67960653Y-83232644D01*
X67904720Y-83190772D01*
X67898448Y-83181558D01*
X67873889Y-83141742D01*
X67802712Y-83026344D01*
X67678656Y-82902288D01*
X67565539Y-82832517D01*
X67529336Y-82810187D01*
X67529331Y-82810185D01*
X67521675Y-82807648D01*
X67362797Y-82755001D01*
X67362795Y-82755000D01*
X67260016Y-82744500D01*
X67260009Y-82744500D01*
X66954336Y-82744500D01*
X66887297Y-82724815D01*
X66866655Y-82708181D01*
X64171512Y-80013038D01*
X64138027Y-79951715D01*
X64143011Y-79882023D01*
X64184883Y-79826090D01*
X64250347Y-79801673D01*
X64297509Y-79807425D01*
X64458459Y-79859722D01*
X64629549Y-79886820D01*
X64629550Y-79886820D01*
X64802770Y-79886820D01*
X64802771Y-79886820D01*
X64973861Y-79859722D01*
X65138605Y-79806193D01*
X65292948Y-79727552D01*
X65433088Y-79625734D01*
X65555574Y-79503248D01*
X65657392Y-79363108D01*
X65736033Y-79208765D01*
X65789562Y-79044021D01*
X65816660Y-78872931D01*
X65816660Y-77899709D01*
X66155660Y-77899709D01*
X66155660Y-78872930D01*
X66182757Y-79044017D01*
X66182757Y-79044019D01*
X66182758Y-79044021D01*
X66236287Y-79208765D01*
X66314928Y-79363108D01*
X66416746Y-79503248D01*
X66539232Y-79625734D01*
X66679372Y-79727552D01*
X66833715Y-79806193D01*
X66998459Y-79859722D01*
X67169549Y-79886820D01*
X67169550Y-79886820D01*
X67342770Y-79886820D01*
X67342771Y-79886820D01*
X67513861Y-79859722D01*
X67678605Y-79806193D01*
X67832948Y-79727552D01*
X67973088Y-79625734D01*
X68095574Y-79503248D01*
X68197392Y-79363108D01*
X68276033Y-79208765D01*
X68329562Y-79044021D01*
X68356660Y-78872931D01*
X68356660Y-77903389D01*
X68692940Y-77903389D01*
X68692940Y-78876610D01*
X68719454Y-79044018D01*
X68720038Y-79047701D01*
X68773567Y-79212445D01*
X68852208Y-79366788D01*
X68954026Y-79506928D01*
X69076512Y-79629414D01*
X69216652Y-79731232D01*
X69370995Y-79809873D01*
X69535739Y-79863402D01*
X69706829Y-79890500D01*
X69706830Y-79890500D01*
X69880050Y-79890500D01*
X69880051Y-79890500D01*
X70051141Y-79863402D01*
X70215885Y-79809873D01*
X70370228Y-79731232D01*
X70510368Y-79629414D01*
X70632854Y-79506928D01*
X70734672Y-79366788D01*
X70813313Y-79212445D01*
X70866842Y-79047701D01*
X70893940Y-78876611D01*
X70893940Y-77903389D01*
X71232940Y-77903389D01*
X71232940Y-78876610D01*
X71259454Y-79044018D01*
X71260038Y-79047701D01*
X71313567Y-79212445D01*
X71392208Y-79366788D01*
X71494026Y-79506928D01*
X71616512Y-79629414D01*
X71756652Y-79731232D01*
X71910995Y-79809873D01*
X72075739Y-79863402D01*
X72246829Y-79890500D01*
X72246830Y-79890500D01*
X72420050Y-79890500D01*
X72420051Y-79890500D01*
X72591141Y-79863402D01*
X72755885Y-79809873D01*
X72910228Y-79731232D01*
X73050368Y-79629414D01*
X73172854Y-79506928D01*
X73274672Y-79366788D01*
X73353313Y-79212445D01*
X73406842Y-79047701D01*
X73433940Y-78876611D01*
X73433940Y-77903389D01*
X73772940Y-77903389D01*
X73772940Y-78876610D01*
X73799454Y-79044018D01*
X73800038Y-79047701D01*
X73853567Y-79212445D01*
X73932208Y-79366788D01*
X74034026Y-79506928D01*
X74156512Y-79629414D01*
X74296652Y-79731232D01*
X74450995Y-79809873D01*
X74615739Y-79863402D01*
X74786829Y-79890500D01*
X74786830Y-79890500D01*
X74960050Y-79890500D01*
X74960051Y-79890500D01*
X75131141Y-79863402D01*
X75295885Y-79809873D01*
X75450228Y-79731232D01*
X75590368Y-79629414D01*
X75712854Y-79506928D01*
X75814672Y-79366788D01*
X75893313Y-79212445D01*
X75946842Y-79047701D01*
X75973940Y-78876611D01*
X75973940Y-77903389D01*
X76312940Y-77903389D01*
X76312940Y-78876610D01*
X76339454Y-79044018D01*
X76340038Y-79047701D01*
X76393567Y-79212445D01*
X76472208Y-79366788D01*
X76574026Y-79506928D01*
X76696512Y-79629414D01*
X76836652Y-79731232D01*
X76990995Y-79809873D01*
X77155739Y-79863402D01*
X77326829Y-79890500D01*
X77326830Y-79890500D01*
X77500050Y-79890500D01*
X77500051Y-79890500D01*
X77671141Y-79863402D01*
X77835885Y-79809873D01*
X77990228Y-79731232D01*
X78130368Y-79629414D01*
X78252854Y-79506928D01*
X78354672Y-79366788D01*
X78433313Y-79212445D01*
X78486842Y-79047701D01*
X78513940Y-78876611D01*
X78513940Y-77903389D01*
X78486842Y-77732299D01*
X78433313Y-77567555D01*
X78354672Y-77413212D01*
X78252854Y-77273072D01*
X78130368Y-77150586D01*
X77990228Y-77048768D01*
X77835885Y-76970127D01*
X77671141Y-76916598D01*
X77671139Y-76916597D01*
X77671138Y-76916597D01*
X77539711Y-76895781D01*
X77500051Y-76889500D01*
X77326829Y-76889500D01*
X77287168Y-76895781D01*
X77155742Y-76916597D01*
X76990992Y-76970128D01*
X76836651Y-77048768D01*
X76789818Y-77082795D01*
X76696512Y-77150586D01*
X76696510Y-77150588D01*
X76696509Y-77150588D01*
X76574028Y-77273069D01*
X76574028Y-77273070D01*
X76574026Y-77273072D01*
X76573790Y-77273397D01*
X76472208Y-77413211D01*
X76393568Y-77567552D01*
X76340037Y-77732302D01*
X76312940Y-77903389D01*
X75973940Y-77903389D01*
X75946842Y-77732299D01*
X75893313Y-77567555D01*
X75814672Y-77413212D01*
X75712854Y-77273072D01*
X75590368Y-77150586D01*
X75450228Y-77048768D01*
X75295885Y-76970127D01*
X75131141Y-76916598D01*
X75131139Y-76916597D01*
X75131138Y-76916597D01*
X74999711Y-76895781D01*
X74960051Y-76889500D01*
X74786829Y-76889500D01*
X74747168Y-76895781D01*
X74615742Y-76916597D01*
X74450992Y-76970128D01*
X74296651Y-77048768D01*
X74249818Y-77082795D01*
X74156512Y-77150586D01*
X74156510Y-77150588D01*
X74156509Y-77150588D01*
X74034028Y-77273069D01*
X74034028Y-77273070D01*
X74034026Y-77273072D01*
X74033790Y-77273397D01*
X73932208Y-77413211D01*
X73853568Y-77567552D01*
X73800037Y-77732302D01*
X73772940Y-77903389D01*
X73433940Y-77903389D01*
X73406842Y-77732299D01*
X73353313Y-77567555D01*
X73274672Y-77413212D01*
X73172854Y-77273072D01*
X73050368Y-77150586D01*
X72910228Y-77048768D01*
X72755885Y-76970127D01*
X72591141Y-76916598D01*
X72591139Y-76916597D01*
X72591138Y-76916597D01*
X72459711Y-76895781D01*
X72420051Y-76889500D01*
X72246829Y-76889500D01*
X72207168Y-76895781D01*
X72075742Y-76916597D01*
X71910992Y-76970128D01*
X71756651Y-77048768D01*
X71709818Y-77082795D01*
X71616512Y-77150586D01*
X71616510Y-77150588D01*
X71616509Y-77150588D01*
X71494028Y-77273069D01*
X71494028Y-77273070D01*
X71494026Y-77273072D01*
X71493790Y-77273397D01*
X71392208Y-77413211D01*
X71313568Y-77567552D01*
X71260037Y-77732302D01*
X71232940Y-77903389D01*
X70893940Y-77903389D01*
X70866842Y-77732299D01*
X70813313Y-77567555D01*
X70734672Y-77413212D01*
X70632854Y-77273072D01*
X70510368Y-77150586D01*
X70370228Y-77048768D01*
X70215885Y-76970127D01*
X70051141Y-76916598D01*
X70051139Y-76916597D01*
X70051138Y-76916597D01*
X69919711Y-76895781D01*
X69880051Y-76889500D01*
X69706829Y-76889500D01*
X69667168Y-76895781D01*
X69535742Y-76916597D01*
X69370992Y-76970128D01*
X69216651Y-77048768D01*
X69169818Y-77082795D01*
X69076512Y-77150586D01*
X69076510Y-77150588D01*
X69076509Y-77150588D01*
X68954028Y-77273069D01*
X68954028Y-77273070D01*
X68954026Y-77273072D01*
X68953790Y-77273397D01*
X68852208Y-77413211D01*
X68773568Y-77567552D01*
X68720037Y-77732302D01*
X68692940Y-77903389D01*
X68356660Y-77903389D01*
X68356660Y-77899709D01*
X68329562Y-77728619D01*
X68276033Y-77563875D01*
X68197392Y-77409532D01*
X68095574Y-77269392D01*
X67973088Y-77146906D01*
X67832948Y-77045088D01*
X67685829Y-76970128D01*
X67678607Y-76966448D01*
X67678606Y-76966447D01*
X67678605Y-76966447D01*
X67513861Y-76912918D01*
X67513859Y-76912917D01*
X67513858Y-76912917D01*
X67382431Y-76892101D01*
X67342771Y-76885820D01*
X67169549Y-76885820D01*
X67129888Y-76892101D01*
X66998462Y-76912917D01*
X66833712Y-76966448D01*
X66679371Y-77045088D01*
X66627473Y-77082795D01*
X66539232Y-77146906D01*
X66539230Y-77146908D01*
X66539229Y-77146908D01*
X66416748Y-77269389D01*
X66416748Y-77269390D01*
X66416746Y-77269392D01*
X66373019Y-77329576D01*
X66314928Y-77409531D01*
X66236288Y-77563872D01*
X66182757Y-77728622D01*
X66155660Y-77899709D01*
X65816660Y-77899709D01*
X65789562Y-77728619D01*
X65736033Y-77563875D01*
X65657392Y-77409532D01*
X65555574Y-77269392D01*
X65433088Y-77146906D01*
X65292948Y-77045088D01*
X65145829Y-76970128D01*
X65138607Y-76966448D01*
X65138606Y-76966447D01*
X65138605Y-76966447D01*
X64973861Y-76912918D01*
X64973859Y-76912917D01*
X64973858Y-76912917D01*
X64842431Y-76892101D01*
X64802771Y-76885820D01*
X64629549Y-76885820D01*
X64589888Y-76892101D01*
X64458462Y-76912917D01*
X64293712Y-76966448D01*
X64139371Y-77045088D01*
X64087473Y-77082795D01*
X63999232Y-77146906D01*
X63999230Y-77146908D01*
X63999229Y-77146908D01*
X63876748Y-77269389D01*
X63876748Y-77269390D01*
X63876746Y-77269392D01*
X63833019Y-77329576D01*
X63774928Y-77409531D01*
X63696288Y-77563872D01*
X63642757Y-77728622D01*
X63615660Y-77899709D01*
X63615660Y-78872930D01*
X63642757Y-79044018D01*
X63695053Y-79204968D01*
X63697048Y-79274809D01*
X63660968Y-79334642D01*
X63598267Y-79365470D01*
X63528852Y-79357505D01*
X63489441Y-79330967D01*
X63346819Y-79188345D01*
X63313334Y-79127022D01*
X63310500Y-79100664D01*
X63310500Y-56212775D01*
X63330185Y-56145736D01*
X63346814Y-56125099D01*
X65005450Y-54466462D01*
X65054808Y-54436215D01*
X65135885Y-54409873D01*
X65290228Y-54331232D01*
X65430368Y-54229414D01*
X65552854Y-54106928D01*
X65654672Y-53966788D01*
X65733313Y-53812445D01*
X65786842Y-53647701D01*
X65786845Y-53647678D01*
X65787907Y-53643258D01*
X65798000Y-53615892D01*
X65872324Y-53470026D01*
X65911009Y-53350966D01*
X65950447Y-53293290D01*
X66014805Y-53266092D01*
X66083652Y-53278007D01*
X66135127Y-53325251D01*
X66152940Y-53389284D01*
X66152940Y-53476610D01*
X66174760Y-53614381D01*
X66180038Y-53647701D01*
X66233567Y-53812445D01*
X66312208Y-53966788D01*
X66414026Y-54106928D01*
X66536512Y-54229414D01*
X66676652Y-54331232D01*
X66830995Y-54409873D01*
X66995739Y-54463402D01*
X67166829Y-54490500D01*
X67166830Y-54490500D01*
X67340050Y-54490500D01*
X67340051Y-54490500D01*
X67511141Y-54463402D01*
X67675885Y-54409873D01*
X67830228Y-54331232D01*
X67970368Y-54229414D01*
X68092854Y-54106928D01*
X68194672Y-53966788D01*
X68273313Y-53812445D01*
X68326842Y-53647701D01*
X68353940Y-53476611D01*
X68353940Y-52503389D01*
X68692940Y-52503389D01*
X68692940Y-53476610D01*
X68714760Y-53614381D01*
X68720038Y-53647701D01*
X68773567Y-53812445D01*
X68852208Y-53966788D01*
X68954026Y-54106928D01*
X69076512Y-54229414D01*
X69216652Y-54331232D01*
X69370995Y-54409873D01*
X69535739Y-54463402D01*
X69706829Y-54490500D01*
X69706830Y-54490500D01*
X69880050Y-54490500D01*
X69880051Y-54490500D01*
X70051141Y-54463402D01*
X70215885Y-54409873D01*
X70370228Y-54331232D01*
X70510368Y-54229414D01*
X70632854Y-54106928D01*
X70734672Y-53966788D01*
X70813313Y-53812445D01*
X70866842Y-53647701D01*
X70893940Y-53476611D01*
X70893940Y-52503389D01*
X71232940Y-52503389D01*
X71232940Y-53476610D01*
X71254760Y-53614381D01*
X71260038Y-53647701D01*
X71313567Y-53812445D01*
X71392208Y-53966788D01*
X71494026Y-54106928D01*
X71616512Y-54229414D01*
X71756652Y-54331232D01*
X71910995Y-54409873D01*
X72075739Y-54463402D01*
X72246829Y-54490500D01*
X72246830Y-54490500D01*
X72420050Y-54490500D01*
X72420051Y-54490500D01*
X72591141Y-54463402D01*
X72755885Y-54409873D01*
X72910228Y-54331232D01*
X73050368Y-54229414D01*
X73172854Y-54106928D01*
X73274672Y-53966788D01*
X73353313Y-53812445D01*
X73406842Y-53647701D01*
X73433940Y-53476611D01*
X73433940Y-52503389D01*
X73772940Y-52503389D01*
X73772940Y-53476610D01*
X73794760Y-53614381D01*
X73800038Y-53647701D01*
X73853567Y-53812445D01*
X73932208Y-53966788D01*
X74034026Y-54106928D01*
X74156512Y-54229414D01*
X74296652Y-54331232D01*
X74450995Y-54409873D01*
X74615739Y-54463402D01*
X74786829Y-54490500D01*
X74786830Y-54490500D01*
X74960050Y-54490500D01*
X74960051Y-54490500D01*
X75131141Y-54463402D01*
X75295885Y-54409873D01*
X75450228Y-54331232D01*
X75590368Y-54229414D01*
X75712854Y-54106928D01*
X75814672Y-53966788D01*
X75893313Y-53812445D01*
X75946842Y-53647701D01*
X75973940Y-53476611D01*
X75973940Y-52503428D01*
X76313440Y-52503428D01*
X76313440Y-52740000D01*
X77097754Y-52740000D01*
X77093360Y-52744394D01*
X77040699Y-52835606D01*
X77013440Y-52937339D01*
X77013440Y-53042661D01*
X77040699Y-53144394D01*
X77093360Y-53235606D01*
X77097754Y-53240000D01*
X76313440Y-53240000D01*
X76313440Y-53476571D01*
X76340525Y-53647584D01*
X76394031Y-53812257D01*
X76472635Y-53966524D01*
X76574407Y-54106602D01*
X76696837Y-54229032D01*
X76836915Y-54330804D01*
X76991184Y-54409408D01*
X77155855Y-54462914D01*
X77155854Y-54462914D01*
X77163439Y-54464115D01*
X77163440Y-54464114D01*
X77163440Y-53305686D01*
X77167834Y-53310080D01*
X77259046Y-53362741D01*
X77360779Y-53390000D01*
X77466101Y-53390000D01*
X77567834Y-53362741D01*
X77659046Y-53310080D01*
X77663440Y-53305686D01*
X77663440Y-54464115D01*
X77671024Y-54462914D01*
X77835695Y-54409408D01*
X77989964Y-54330804D01*
X78130042Y-54229032D01*
X78252472Y-54106602D01*
X78354244Y-53966524D01*
X78432848Y-53812257D01*
X78486354Y-53647584D01*
X78513440Y-53476571D01*
X78513440Y-53240000D01*
X77729126Y-53240000D01*
X77733520Y-53235606D01*
X77786181Y-53144394D01*
X77813440Y-53042661D01*
X77813440Y-52937339D01*
X77786181Y-52835606D01*
X77733520Y-52744394D01*
X77729126Y-52740000D01*
X78513440Y-52740000D01*
X78513440Y-52503428D01*
X78513434Y-52503389D01*
X78852940Y-52503389D01*
X78852940Y-53476610D01*
X78874760Y-53614381D01*
X78880038Y-53647701D01*
X78933567Y-53812445D01*
X79012208Y-53966788D01*
X79114026Y-54106928D01*
X79236512Y-54229414D01*
X79376652Y-54331232D01*
X79530995Y-54409873D01*
X79695739Y-54463402D01*
X79866829Y-54490500D01*
X79866830Y-54490500D01*
X80040050Y-54490500D01*
X80040051Y-54490500D01*
X80211141Y-54463402D01*
X80357185Y-54415948D01*
X80427022Y-54413954D01*
X80486855Y-54450034D01*
X80517684Y-54512734D01*
X80519500Y-54533880D01*
X80519500Y-69648480D01*
X80499815Y-69715519D01*
X80483181Y-69736161D01*
X79409328Y-70810013D01*
X79409322Y-70810021D01*
X79339628Y-70914326D01*
X79339629Y-70914327D01*
X79332666Y-70924747D01*
X79332663Y-70924752D01*
X79279860Y-71052231D01*
X79279858Y-71052237D01*
X79252940Y-71187564D01*
X79252940Y-77082795D01*
X79233255Y-77149834D01*
X79216622Y-77170476D01*
X79114025Y-77273073D01*
X79012208Y-77413211D01*
X78933568Y-77567552D01*
X78880037Y-77732302D01*
X78852940Y-77903389D01*
X78852940Y-78876610D01*
X78879454Y-79044018D01*
X78880038Y-79047701D01*
X78933567Y-79212445D01*
X79012208Y-79366788D01*
X79114026Y-79506928D01*
X79236512Y-79629414D01*
X79376652Y-79731232D01*
X79530995Y-79809873D01*
X79695739Y-79863402D01*
X79866829Y-79890500D01*
X79866830Y-79890500D01*
X80040050Y-79890500D01*
X80040051Y-79890500D01*
X80211141Y-79863402D01*
X80375885Y-79809873D01*
X80530228Y-79731232D01*
X80670368Y-79629414D01*
X80792854Y-79506928D01*
X80894672Y-79366788D01*
X80973313Y-79212445D01*
X81026842Y-79047701D01*
X81053940Y-78876611D01*
X81053940Y-77903389D01*
X81026842Y-77732299D01*
X80973313Y-77567555D01*
X80894672Y-77413212D01*
X80792854Y-77273072D01*
X80690258Y-77170476D01*
X80656774Y-77109153D01*
X80653940Y-77082795D01*
X80653940Y-71598078D01*
X80673625Y-71531039D01*
X80690259Y-71510397D01*
X81764113Y-70436543D01*
X81840774Y-70321812D01*
X81840775Y-70321811D01*
X81893580Y-70194328D01*
X81911696Y-70103253D01*
X81920500Y-70058995D01*
X81920500Y-67433147D01*
X81940185Y-67366108D01*
X81992989Y-67320353D01*
X82062147Y-67310409D01*
X82125703Y-67339434D01*
X82163477Y-67398212D01*
X82166973Y-67413749D01*
X82194022Y-67584534D01*
X82257281Y-67779223D01*
X82312952Y-67888481D01*
X82334695Y-67931155D01*
X82350215Y-67961613D01*
X82470528Y-68127213D01*
X82615286Y-68271971D01*
X82769138Y-68383749D01*
X82780890Y-68392287D01*
X82863408Y-68434332D01*
X82963276Y-68485218D01*
X82963278Y-68485218D01*
X82963281Y-68485220D01*
X83067637Y-68519127D01*
X83157965Y-68548477D01*
X83230718Y-68560000D01*
X83360148Y-68580500D01*
X83360149Y-68580500D01*
X83564851Y-68580500D01*
X83564852Y-68580500D01*
X83767034Y-68548477D01*
X83961719Y-68485220D01*
X84144110Y-68392287D01*
X84237090Y-68324732D01*
X84309713Y-68271971D01*
X84309715Y-68271968D01*
X84309719Y-68271966D01*
X84454466Y-68127219D01*
X84454468Y-68127215D01*
X84454471Y-68127213D01*
X84539630Y-68010000D01*
X84574787Y-67961610D01*
X84667720Y-67779219D01*
X84730977Y-67584534D01*
X84763000Y-67382352D01*
X84763000Y-67177648D01*
X85505750Y-67177648D01*
X85505750Y-67382351D01*
X85537772Y-67584534D01*
X85601031Y-67779223D01*
X85656702Y-67888481D01*
X85678445Y-67931155D01*
X85693965Y-67961613D01*
X85814278Y-68127213D01*
X85959036Y-68271971D01*
X86112888Y-68383749D01*
X86124640Y-68392287D01*
X86207158Y-68434332D01*
X86307026Y-68485218D01*
X86307028Y-68485218D01*
X86307031Y-68485220D01*
X86411387Y-68519127D01*
X86501715Y-68548477D01*
X86574468Y-68560000D01*
X86703898Y-68580500D01*
X86703899Y-68580500D01*
X86908601Y-68580500D01*
X86908602Y-68580500D01*
X87110784Y-68548477D01*
X87305469Y-68485220D01*
X87487860Y-68392287D01*
X87580840Y-68324732D01*
X87653463Y-68271971D01*
X87653465Y-68271968D01*
X87653469Y-68271966D01*
X87798216Y-68127219D01*
X87798218Y-68127215D01*
X87798221Y-68127213D01*
X87883380Y-68010000D01*
X87918537Y-67961610D01*
X88011470Y-67779219D01*
X88074727Y-67584534D01*
X88106750Y-67382352D01*
X88106750Y-67177648D01*
X88849500Y-67177648D01*
X88849500Y-67382351D01*
X88881522Y-67584534D01*
X88944781Y-67779223D01*
X89000452Y-67888481D01*
X89022195Y-67931155D01*
X89037715Y-67961613D01*
X89158028Y-68127213D01*
X89302786Y-68271971D01*
X89456638Y-68383749D01*
X89468390Y-68392287D01*
X89550908Y-68434332D01*
X89650776Y-68485218D01*
X89650778Y-68485218D01*
X89650781Y-68485220D01*
X89755137Y-68519127D01*
X89845465Y-68548477D01*
X89918218Y-68560000D01*
X90047648Y-68580500D01*
X90047649Y-68580500D01*
X90252351Y-68580500D01*
X90252352Y-68580500D01*
X90454534Y-68548477D01*
X90649219Y-68485220D01*
X90831610Y-68392287D01*
X90924590Y-68324732D01*
X90997213Y-68271971D01*
X90997215Y-68271968D01*
X90997219Y-68271966D01*
X91141966Y-68127219D01*
X91141968Y-68127215D01*
X91141971Y-68127213D01*
X91227130Y-68010000D01*
X91262287Y-67961610D01*
X91355220Y-67779219D01*
X91418477Y-67584534D01*
X91450500Y-67382352D01*
X91450500Y-67177648D01*
X92193250Y-67177648D01*
X92193250Y-67382351D01*
X92225272Y-67584534D01*
X92288531Y-67779223D01*
X92344202Y-67888481D01*
X92365945Y-67931155D01*
X92381465Y-67961613D01*
X92501778Y-68127213D01*
X92646536Y-68271971D01*
X92800388Y-68383749D01*
X92812140Y-68392287D01*
X92894658Y-68434332D01*
X92994526Y-68485218D01*
X92994528Y-68485218D01*
X92994531Y-68485220D01*
X93098887Y-68519127D01*
X93189215Y-68548477D01*
X93261968Y-68560000D01*
X93391398Y-68580500D01*
X93391399Y-68580500D01*
X93596101Y-68580500D01*
X93596102Y-68580500D01*
X93798284Y-68548477D01*
X93992969Y-68485220D01*
X94175360Y-68392287D01*
X94268340Y-68324732D01*
X94340963Y-68271971D01*
X94340965Y-68271968D01*
X94340969Y-68271966D01*
X94485716Y-68127219D01*
X94485718Y-68127215D01*
X94485721Y-68127213D01*
X94570880Y-68010000D01*
X94606037Y-67961610D01*
X94698970Y-67779219D01*
X94762227Y-67584534D01*
X94794250Y-67382352D01*
X94794250Y-67177648D01*
X94783540Y-67110028D01*
X94762227Y-66975465D01*
X94717844Y-66838870D01*
X94698970Y-66780781D01*
X94698968Y-66780778D01*
X94698968Y-66780776D01*
X94653119Y-66690793D01*
X94606037Y-66598390D01*
X94560859Y-66536207D01*
X94485721Y-66432786D01*
X94340963Y-66288028D01*
X94175363Y-66167715D01*
X94175362Y-66167714D01*
X94175360Y-66167713D01*
X94118403Y-66138691D01*
X93992973Y-66074781D01*
X93798284Y-66011522D01*
X93601083Y-65980289D01*
X93596102Y-65979500D01*
X93391398Y-65979500D01*
X93386417Y-65980289D01*
X93189215Y-66011522D01*
X92994526Y-66074781D01*
X92812136Y-66167715D01*
X92646536Y-66288028D01*
X92501778Y-66432786D01*
X92381465Y-66598386D01*
X92288531Y-66780776D01*
X92225272Y-66975465D01*
X92193250Y-67177648D01*
X91450500Y-67177648D01*
X91439790Y-67110028D01*
X91418477Y-66975465D01*
X91374094Y-66838870D01*
X91355220Y-66780781D01*
X91355218Y-66780778D01*
X91355218Y-66780776D01*
X91309369Y-66690793D01*
X91262287Y-66598390D01*
X91217109Y-66536207D01*
X91141971Y-66432786D01*
X90997213Y-66288028D01*
X90831613Y-66167715D01*
X90831612Y-66167714D01*
X90831610Y-66167713D01*
X90774653Y-66138691D01*
X90649223Y-66074781D01*
X90454534Y-66011522D01*
X90257333Y-65980289D01*
X90252352Y-65979500D01*
X90047648Y-65979500D01*
X90042667Y-65980289D01*
X89845465Y-66011522D01*
X89650776Y-66074781D01*
X89468386Y-66167715D01*
X89302786Y-66288028D01*
X89158028Y-66432786D01*
X89037715Y-66598386D01*
X88944781Y-66780776D01*
X88881522Y-66975465D01*
X88849500Y-67177648D01*
X88106750Y-67177648D01*
X88096040Y-67110028D01*
X88074727Y-66975465D01*
X88030344Y-66838870D01*
X88011470Y-66780781D01*
X88011468Y-66780778D01*
X88011468Y-66780776D01*
X87965619Y-66690793D01*
X87918537Y-66598390D01*
X87873359Y-66536207D01*
X87798221Y-66432786D01*
X87653463Y-66288028D01*
X87487863Y-66167715D01*
X87487862Y-66167714D01*
X87487860Y-66167713D01*
X87430903Y-66138691D01*
X87305473Y-66074781D01*
X87110784Y-66011522D01*
X86913583Y-65980289D01*
X86908602Y-65979500D01*
X86703898Y-65979500D01*
X86698917Y-65980289D01*
X86501715Y-66011522D01*
X86307026Y-66074781D01*
X86124636Y-66167715D01*
X85959036Y-66288028D01*
X85814278Y-66432786D01*
X85693965Y-66598386D01*
X85601031Y-66780776D01*
X85537772Y-66975465D01*
X85505750Y-67177648D01*
X84763000Y-67177648D01*
X84752290Y-67110028D01*
X84730977Y-66975465D01*
X84686594Y-66838870D01*
X84667720Y-66780781D01*
X84667718Y-66780778D01*
X84667718Y-66780776D01*
X84621869Y-66690793D01*
X84574787Y-66598390D01*
X84529609Y-66536207D01*
X84454471Y-66432786D01*
X84309713Y-66288028D01*
X84144113Y-66167715D01*
X84144112Y-66167714D01*
X84144110Y-66167713D01*
X84087153Y-66138691D01*
X83961723Y-66074781D01*
X83767034Y-66011522D01*
X83569833Y-65980289D01*
X83564852Y-65979500D01*
X83360148Y-65979500D01*
X83355167Y-65980289D01*
X83157965Y-66011522D01*
X82963276Y-66074781D01*
X82780886Y-66167715D01*
X82615286Y-66288028D01*
X82470528Y-66432786D01*
X82350215Y-66598386D01*
X82257281Y-66780776D01*
X82194022Y-66975465D01*
X82166973Y-67146250D01*
X82137044Y-67209385D01*
X82077732Y-67246316D01*
X82007870Y-67245318D01*
X81949637Y-67206708D01*
X81921523Y-67142744D01*
X81920500Y-67126852D01*
X81920500Y-59813147D01*
X81940185Y-59746108D01*
X81992989Y-59700353D01*
X82062147Y-59690409D01*
X82125703Y-59719434D01*
X82163477Y-59778212D01*
X82166973Y-59793749D01*
X82194022Y-59964534D01*
X82257281Y-60159223D01*
X82350215Y-60341613D01*
X82470528Y-60507213D01*
X82615286Y-60651971D01*
X82770249Y-60764556D01*
X82780890Y-60772287D01*
X82897107Y-60831503D01*
X82963276Y-60865218D01*
X82963278Y-60865218D01*
X82963281Y-60865220D01*
X83067637Y-60899127D01*
X83157965Y-60928477D01*
X83259057Y-60944488D01*
X83360148Y-60960500D01*
X83360149Y-60960500D01*
X83564851Y-60960500D01*
X83564852Y-60960500D01*
X83767034Y-60928477D01*
X83961719Y-60865220D01*
X84144110Y-60772287D01*
X84257006Y-60690264D01*
X84309713Y-60651971D01*
X84309715Y-60651968D01*
X84309719Y-60651966D01*
X84454466Y-60507219D01*
X84454468Y-60507215D01*
X84454471Y-60507213D01*
X84530010Y-60403241D01*
X84574787Y-60341610D01*
X84667720Y-60159219D01*
X84730977Y-59964534D01*
X84763000Y-59762352D01*
X84763000Y-59557648D01*
X85505750Y-59557648D01*
X85505750Y-59762351D01*
X85537772Y-59964534D01*
X85601031Y-60159223D01*
X85693965Y-60341613D01*
X85814278Y-60507213D01*
X85959036Y-60651971D01*
X86113999Y-60764556D01*
X86124640Y-60772287D01*
X86240857Y-60831503D01*
X86307026Y-60865218D01*
X86307028Y-60865218D01*
X86307031Y-60865220D01*
X86411387Y-60899127D01*
X86501715Y-60928477D01*
X86602807Y-60944488D01*
X86703898Y-60960500D01*
X86703899Y-60960500D01*
X86908601Y-60960500D01*
X86908602Y-60960500D01*
X87110784Y-60928477D01*
X87305469Y-60865220D01*
X87487860Y-60772287D01*
X87600756Y-60690264D01*
X87653463Y-60651971D01*
X87653465Y-60651968D01*
X87653469Y-60651966D01*
X87798216Y-60507219D01*
X87798218Y-60507215D01*
X87798221Y-60507213D01*
X87873760Y-60403241D01*
X87918537Y-60341610D01*
X88011470Y-60159219D01*
X88074727Y-59964534D01*
X88106750Y-59762352D01*
X88106750Y-59557648D01*
X88849500Y-59557648D01*
X88849500Y-59762351D01*
X88881522Y-59964534D01*
X88944781Y-60159223D01*
X89037715Y-60341613D01*
X89158028Y-60507213D01*
X89302786Y-60651971D01*
X89457749Y-60764556D01*
X89468390Y-60772287D01*
X89584607Y-60831503D01*
X89650776Y-60865218D01*
X89650778Y-60865218D01*
X89650781Y-60865220D01*
X89755137Y-60899127D01*
X89845465Y-60928477D01*
X89946557Y-60944488D01*
X90047648Y-60960500D01*
X90047649Y-60960500D01*
X90252351Y-60960500D01*
X90252352Y-60960500D01*
X90454534Y-60928477D01*
X90649219Y-60865220D01*
X90831610Y-60772287D01*
X90944506Y-60690264D01*
X90997213Y-60651971D01*
X90997215Y-60651968D01*
X90997219Y-60651966D01*
X91141966Y-60507219D01*
X91141968Y-60507215D01*
X91141971Y-60507213D01*
X91217510Y-60403241D01*
X91262287Y-60341610D01*
X91355220Y-60159219D01*
X91418477Y-59964534D01*
X91450500Y-59762352D01*
X91450500Y-59557648D01*
X92193250Y-59557648D01*
X92193250Y-59762351D01*
X92225272Y-59964534D01*
X92288531Y-60159223D01*
X92381465Y-60341613D01*
X92501778Y-60507213D01*
X92646536Y-60651971D01*
X92801499Y-60764556D01*
X92812140Y-60772287D01*
X92928357Y-60831503D01*
X92994526Y-60865218D01*
X92994528Y-60865218D01*
X92994531Y-60865220D01*
X93098887Y-60899127D01*
X93189215Y-60928477D01*
X93290307Y-60944488D01*
X93391398Y-60960500D01*
X93391399Y-60960500D01*
X93596101Y-60960500D01*
X93596102Y-60960500D01*
X93798284Y-60928477D01*
X93992969Y-60865220D01*
X94175360Y-60772287D01*
X94288256Y-60690264D01*
X94340963Y-60651971D01*
X94340965Y-60651968D01*
X94340969Y-60651966D01*
X94485716Y-60507219D01*
X94485718Y-60507215D01*
X94485721Y-60507213D01*
X94561260Y-60403241D01*
X94606037Y-60341610D01*
X94698970Y-60159219D01*
X94762227Y-59964534D01*
X94794250Y-59762352D01*
X94794250Y-59557648D01*
X94790565Y-59534383D01*
X94762227Y-59355465D01*
X94712061Y-59201071D01*
X94698970Y-59160781D01*
X94698968Y-59160778D01*
X94698968Y-59160776D01*
X94665253Y-59094607D01*
X94606037Y-58978390D01*
X94598306Y-58967749D01*
X94485721Y-58812786D01*
X94340963Y-58668028D01*
X94175363Y-58547715D01*
X94175362Y-58547714D01*
X94175360Y-58547713D01*
X94118403Y-58518691D01*
X93992973Y-58454781D01*
X93798284Y-58391522D01*
X93623745Y-58363878D01*
X93596102Y-58359500D01*
X93391398Y-58359500D01*
X93367079Y-58363351D01*
X93189215Y-58391522D01*
X92994526Y-58454781D01*
X92812136Y-58547715D01*
X92646536Y-58668028D01*
X92501778Y-58812786D01*
X92381465Y-58978386D01*
X92288531Y-59160776D01*
X92225272Y-59355465D01*
X92193250Y-59557648D01*
X91450500Y-59557648D01*
X91446815Y-59534383D01*
X91418477Y-59355465D01*
X91368311Y-59201071D01*
X91355220Y-59160781D01*
X91355218Y-59160778D01*
X91355218Y-59160776D01*
X91321503Y-59094607D01*
X91262287Y-58978390D01*
X91254556Y-58967749D01*
X91141971Y-58812786D01*
X90997213Y-58668028D01*
X90831613Y-58547715D01*
X90831612Y-58547714D01*
X90831610Y-58547713D01*
X90774653Y-58518691D01*
X90649223Y-58454781D01*
X90454534Y-58391522D01*
X90279995Y-58363878D01*
X90252352Y-58359500D01*
X90047648Y-58359500D01*
X90023329Y-58363351D01*
X89845465Y-58391522D01*
X89650776Y-58454781D01*
X89468386Y-58547715D01*
X89302786Y-58668028D01*
X89158028Y-58812786D01*
X89037715Y-58978386D01*
X88944781Y-59160776D01*
X88881522Y-59355465D01*
X88849500Y-59557648D01*
X88106750Y-59557648D01*
X88103065Y-59534383D01*
X88074727Y-59355465D01*
X88024561Y-59201071D01*
X88011470Y-59160781D01*
X88011468Y-59160778D01*
X88011468Y-59160776D01*
X87977753Y-59094607D01*
X87918537Y-58978390D01*
X87910806Y-58967749D01*
X87798221Y-58812786D01*
X87653463Y-58668028D01*
X87487863Y-58547715D01*
X87487862Y-58547714D01*
X87487860Y-58547713D01*
X87430903Y-58518691D01*
X87305473Y-58454781D01*
X87110784Y-58391522D01*
X86936245Y-58363878D01*
X86908602Y-58359500D01*
X86703898Y-58359500D01*
X86679579Y-58363351D01*
X86501715Y-58391522D01*
X86307026Y-58454781D01*
X86124636Y-58547715D01*
X85959036Y-58668028D01*
X85814278Y-58812786D01*
X85693965Y-58978386D01*
X85601031Y-59160776D01*
X85537772Y-59355465D01*
X85505750Y-59557648D01*
X84763000Y-59557648D01*
X84759315Y-59534383D01*
X84730977Y-59355465D01*
X84680811Y-59201071D01*
X84667720Y-59160781D01*
X84667718Y-59160778D01*
X84667718Y-59160776D01*
X84634003Y-59094607D01*
X84574787Y-58978390D01*
X84567056Y-58967749D01*
X84454471Y-58812786D01*
X84309713Y-58668028D01*
X84144113Y-58547715D01*
X84144112Y-58547714D01*
X84144110Y-58547713D01*
X84087153Y-58518691D01*
X83961723Y-58454781D01*
X83767034Y-58391522D01*
X83592495Y-58363878D01*
X83564852Y-58359500D01*
X83360148Y-58359500D01*
X83335829Y-58363351D01*
X83157965Y-58391522D01*
X82963276Y-58454781D01*
X82780886Y-58547715D01*
X82615286Y-58668028D01*
X82470528Y-58812786D01*
X82350215Y-58978386D01*
X82257281Y-59160776D01*
X82194022Y-59355465D01*
X82166973Y-59526250D01*
X82137044Y-59589385D01*
X82077732Y-59626316D01*
X82007870Y-59625318D01*
X81949637Y-59586708D01*
X81921523Y-59522744D01*
X81920500Y-59506852D01*
X81920500Y-54531645D01*
X81940185Y-54464606D01*
X81992989Y-54418851D01*
X82062147Y-54408907D01*
X82082809Y-54413711D01*
X82235739Y-54463402D01*
X82406829Y-54490500D01*
X82406830Y-54490500D01*
X82580050Y-54490500D01*
X82580051Y-54490500D01*
X82751141Y-54463402D01*
X82915885Y-54409873D01*
X83070228Y-54331232D01*
X83210368Y-54229414D01*
X83332854Y-54106928D01*
X83434672Y-53966788D01*
X83513313Y-53812445D01*
X83566842Y-53647701D01*
X83593940Y-53476611D01*
X83593940Y-52503389D01*
X83932940Y-52503389D01*
X83932940Y-53476610D01*
X83954760Y-53614381D01*
X83960038Y-53647701D01*
X84013567Y-53812445D01*
X84092208Y-53966788D01*
X84194026Y-54106928D01*
X84316512Y-54229414D01*
X84456652Y-54331232D01*
X84610995Y-54409873D01*
X84775739Y-54463402D01*
X84946829Y-54490500D01*
X84946830Y-54490500D01*
X85120050Y-54490500D01*
X85120051Y-54490500D01*
X85291141Y-54463402D01*
X85455885Y-54409873D01*
X85610228Y-54331232D01*
X85750368Y-54229414D01*
X85872854Y-54106928D01*
X85974672Y-53966788D01*
X86053313Y-53812445D01*
X86106842Y-53647701D01*
X86133940Y-53476611D01*
X86133940Y-52503389D01*
X86472940Y-52503389D01*
X86472940Y-53476610D01*
X86494760Y-53614381D01*
X86500038Y-53647701D01*
X86553567Y-53812445D01*
X86632208Y-53966788D01*
X86734026Y-54106928D01*
X86856512Y-54229414D01*
X86996652Y-54331232D01*
X87150995Y-54409873D01*
X87315739Y-54463402D01*
X87486829Y-54490500D01*
X87486830Y-54490500D01*
X87660050Y-54490500D01*
X87660051Y-54490500D01*
X87831141Y-54463402D01*
X87995885Y-54409873D01*
X88150228Y-54331232D01*
X88290368Y-54229414D01*
X88412854Y-54106928D01*
X88514672Y-53966788D01*
X88593313Y-53812445D01*
X88646842Y-53647701D01*
X88673940Y-53476611D01*
X88673940Y-52503389D01*
X89012940Y-52503389D01*
X89012940Y-53476610D01*
X89034760Y-53614381D01*
X89040038Y-53647701D01*
X89093567Y-53812445D01*
X89172208Y-53966788D01*
X89274026Y-54106928D01*
X89396512Y-54229414D01*
X89536652Y-54331232D01*
X89690995Y-54409873D01*
X89855739Y-54463402D01*
X90026829Y-54490500D01*
X90026830Y-54490500D01*
X90200050Y-54490500D01*
X90200051Y-54490500D01*
X90371141Y-54463402D01*
X90535885Y-54409873D01*
X90690228Y-54331232D01*
X90830368Y-54229414D01*
X90952854Y-54106928D01*
X91054672Y-53966788D01*
X91133313Y-53812445D01*
X91186842Y-53647701D01*
X91213940Y-53476611D01*
X91213940Y-52503389D01*
X91552940Y-52503389D01*
X91552940Y-53476610D01*
X91574760Y-53614381D01*
X91580038Y-53647701D01*
X91633567Y-53812445D01*
X91712208Y-53966788D01*
X91814026Y-54106928D01*
X91936512Y-54229414D01*
X92076652Y-54331232D01*
X92230995Y-54409873D01*
X92395739Y-54463402D01*
X92566829Y-54490500D01*
X92566830Y-54490500D01*
X92740050Y-54490500D01*
X92740051Y-54490500D01*
X92911141Y-54463402D01*
X93075885Y-54409873D01*
X93230228Y-54331232D01*
X93370368Y-54229414D01*
X93492854Y-54106928D01*
X93594672Y-53966788D01*
X93673313Y-53812445D01*
X93726842Y-53647701D01*
X93753940Y-53476611D01*
X93753940Y-52503389D01*
X94092940Y-52503389D01*
X94092940Y-53476610D01*
X94114760Y-53614381D01*
X94120038Y-53647701D01*
X94173567Y-53812445D01*
X94252208Y-53966788D01*
X94354026Y-54106928D01*
X94476512Y-54229414D01*
X94616652Y-54331232D01*
X94770995Y-54409873D01*
X94935739Y-54463402D01*
X95106829Y-54490500D01*
X95106830Y-54490500D01*
X95280050Y-54490500D01*
X95280051Y-54490500D01*
X95451141Y-54463402D01*
X95615885Y-54409873D01*
X95770228Y-54331232D01*
X95910368Y-54229414D01*
X96032854Y-54106928D01*
X96134672Y-53966788D01*
X96213313Y-53812445D01*
X96266842Y-53647701D01*
X96293940Y-53476611D01*
X96293940Y-52503389D01*
X96266842Y-52332299D01*
X96213313Y-52167555D01*
X96134672Y-52013212D01*
X96032854Y-51873072D01*
X95910368Y-51750586D01*
X95770228Y-51648768D01*
X95615885Y-51570127D01*
X95451141Y-51516598D01*
X95451139Y-51516597D01*
X95451138Y-51516597D01*
X95319711Y-51495781D01*
X95280051Y-51489500D01*
X95106829Y-51489500D01*
X95067168Y-51495781D01*
X94935742Y-51516597D01*
X94770992Y-51570128D01*
X94616651Y-51648768D01*
X94536696Y-51706859D01*
X94476512Y-51750586D01*
X94476510Y-51750588D01*
X94476509Y-51750588D01*
X94354028Y-51873069D01*
X94354028Y-51873070D01*
X94354026Y-51873072D01*
X94333899Y-51900775D01*
X94252208Y-52013211D01*
X94173568Y-52167552D01*
X94120037Y-52332302D01*
X94092940Y-52503389D01*
X93753940Y-52503389D01*
X93726842Y-52332299D01*
X93673313Y-52167555D01*
X93594672Y-52013212D01*
X93492854Y-51873072D01*
X93370368Y-51750586D01*
X93230228Y-51648768D01*
X93075885Y-51570127D01*
X92911141Y-51516598D01*
X92911139Y-51516597D01*
X92911138Y-51516597D01*
X92779711Y-51495781D01*
X92740051Y-51489500D01*
X92566829Y-51489500D01*
X92527168Y-51495781D01*
X92395742Y-51516597D01*
X92230992Y-51570128D01*
X92076651Y-51648768D01*
X91996696Y-51706859D01*
X91936512Y-51750586D01*
X91936510Y-51750588D01*
X91936509Y-51750588D01*
X91814028Y-51873069D01*
X91814028Y-51873070D01*
X91814026Y-51873072D01*
X91793899Y-51900775D01*
X91712208Y-52013211D01*
X91633568Y-52167552D01*
X91580037Y-52332302D01*
X91552940Y-52503389D01*
X91213940Y-52503389D01*
X91186842Y-52332299D01*
X91133313Y-52167555D01*
X91054672Y-52013212D01*
X90952854Y-51873072D01*
X90830368Y-51750586D01*
X90690228Y-51648768D01*
X90535885Y-51570127D01*
X90371141Y-51516598D01*
X90371139Y-51516597D01*
X90371138Y-51516597D01*
X90239711Y-51495781D01*
X90200051Y-51489500D01*
X90026829Y-51489500D01*
X89987168Y-51495781D01*
X89855742Y-51516597D01*
X89690992Y-51570128D01*
X89536651Y-51648768D01*
X89456696Y-51706859D01*
X89396512Y-51750586D01*
X89396510Y-51750588D01*
X89396509Y-51750588D01*
X89274028Y-51873069D01*
X89274028Y-51873070D01*
X89274026Y-51873072D01*
X89253899Y-51900775D01*
X89172208Y-52013211D01*
X89093568Y-52167552D01*
X89040037Y-52332302D01*
X89012940Y-52503389D01*
X88673940Y-52503389D01*
X88646842Y-52332299D01*
X88593313Y-52167555D01*
X88514672Y-52013212D01*
X88412854Y-51873072D01*
X88290368Y-51750586D01*
X88150228Y-51648768D01*
X87995885Y-51570127D01*
X87831141Y-51516598D01*
X87831139Y-51516597D01*
X87831138Y-51516597D01*
X87699711Y-51495781D01*
X87660051Y-51489500D01*
X87486829Y-51489500D01*
X87447168Y-51495781D01*
X87315742Y-51516597D01*
X87150992Y-51570128D01*
X86996651Y-51648768D01*
X86916696Y-51706859D01*
X86856512Y-51750586D01*
X86856510Y-51750588D01*
X86856509Y-51750588D01*
X86734028Y-51873069D01*
X86734028Y-51873070D01*
X86734026Y-51873072D01*
X86713899Y-51900775D01*
X86632208Y-52013211D01*
X86553568Y-52167552D01*
X86500037Y-52332302D01*
X86472940Y-52503389D01*
X86133940Y-52503389D01*
X86106842Y-52332299D01*
X86053313Y-52167555D01*
X85974672Y-52013212D01*
X85872854Y-51873072D01*
X85750368Y-51750586D01*
X85610228Y-51648768D01*
X85455885Y-51570127D01*
X85291141Y-51516598D01*
X85291139Y-51516597D01*
X85291138Y-51516597D01*
X85159711Y-51495781D01*
X85120051Y-51489500D01*
X84946829Y-51489500D01*
X84907168Y-51495781D01*
X84775742Y-51516597D01*
X84610992Y-51570128D01*
X84456651Y-51648768D01*
X84376696Y-51706859D01*
X84316512Y-51750586D01*
X84316510Y-51750588D01*
X84316509Y-51750588D01*
X84194028Y-51873069D01*
X84194028Y-51873070D01*
X84194026Y-51873072D01*
X84173899Y-51900775D01*
X84092208Y-52013211D01*
X84013568Y-52167552D01*
X83960037Y-52332302D01*
X83932940Y-52503389D01*
X83593940Y-52503389D01*
X83566842Y-52332299D01*
X83513313Y-52167555D01*
X83434672Y-52013212D01*
X83332854Y-51873072D01*
X83210368Y-51750586D01*
X83070228Y-51648768D01*
X82915885Y-51570127D01*
X82751141Y-51516598D01*
X82751139Y-51516597D01*
X82751138Y-51516597D01*
X82619711Y-51495781D01*
X82580051Y-51489500D01*
X82500518Y-51489500D01*
X82433479Y-51469815D01*
X82387724Y-51417011D01*
X82377780Y-51347853D01*
X82406805Y-51284297D01*
X82412837Y-51277819D01*
X83111157Y-50579500D01*
X83993838Y-49696819D01*
X84055161Y-49663334D01*
X84081519Y-49660500D01*
X99409481Y-49660500D01*
X99476520Y-49680185D01*
X99522275Y-49732989D01*
X99532219Y-49802147D01*
X99503194Y-49865703D01*
X99497162Y-49872181D01*
X98465890Y-50903451D01*
X98465884Y-50903458D01*
X98403267Y-50997173D01*
X98389226Y-51018186D01*
X98389222Y-51018193D01*
X98336421Y-51145667D01*
X98336418Y-51145677D01*
X98309500Y-51281004D01*
X98309500Y-51449368D01*
X98289815Y-51516407D01*
X98237011Y-51562162D01*
X98167853Y-51572106D01*
X98147182Y-51567299D01*
X97991138Y-51516597D01*
X97859711Y-51495781D01*
X97820051Y-51489500D01*
X97646829Y-51489500D01*
X97607168Y-51495781D01*
X97475742Y-51516597D01*
X97310992Y-51570128D01*
X97156651Y-51648768D01*
X97076696Y-51706859D01*
X97016512Y-51750586D01*
X97016510Y-51750588D01*
X97016509Y-51750588D01*
X96894028Y-51873069D01*
X96894028Y-51873070D01*
X96894026Y-51873072D01*
X96873899Y-51900775D01*
X96792208Y-52013211D01*
X96713568Y-52167552D01*
X96660037Y-52332302D01*
X96632940Y-52503389D01*
X96632940Y-53476610D01*
X96654760Y-53614381D01*
X96660038Y-53647701D01*
X96713567Y-53812445D01*
X96792208Y-53966788D01*
X96894026Y-54106928D01*
X97016512Y-54229414D01*
X97156652Y-54331232D01*
X97310995Y-54409873D01*
X97475739Y-54463402D01*
X97646829Y-54490500D01*
X97646830Y-54490500D01*
X97820050Y-54490500D01*
X97820051Y-54490500D01*
X97991141Y-54463402D01*
X98147184Y-54412699D01*
X98217022Y-54410705D01*
X98276855Y-54446785D01*
X98307684Y-54509486D01*
X98309500Y-54530631D01*
X98309500Y-59198940D01*
X98289815Y-59265979D01*
X98237011Y-59311734D01*
X98167853Y-59321678D01*
X98104297Y-59292653D01*
X98067569Y-59237259D01*
X98055811Y-59201071D01*
X98042720Y-59160781D01*
X98042718Y-59160778D01*
X98042718Y-59160776D01*
X98009003Y-59094607D01*
X97949787Y-58978390D01*
X97942056Y-58967749D01*
X97829471Y-58812786D01*
X97684713Y-58668028D01*
X97519113Y-58547715D01*
X97519112Y-58547714D01*
X97519110Y-58547713D01*
X97462153Y-58518691D01*
X97336723Y-58454781D01*
X97142034Y-58391522D01*
X96967495Y-58363878D01*
X96939852Y-58359500D01*
X96735148Y-58359500D01*
X96710829Y-58363351D01*
X96532965Y-58391522D01*
X96338276Y-58454781D01*
X96155886Y-58547715D01*
X95990286Y-58668028D01*
X95845528Y-58812786D01*
X95725215Y-58978386D01*
X95632281Y-59160776D01*
X95569022Y-59355465D01*
X95537000Y-59557648D01*
X95537000Y-59762351D01*
X95569022Y-59964534D01*
X95632281Y-60159223D01*
X95725215Y-60341613D01*
X95845528Y-60507213D01*
X95990286Y-60651971D01*
X96145249Y-60764556D01*
X96155890Y-60772287D01*
X96272107Y-60831503D01*
X96338276Y-60865218D01*
X96338278Y-60865218D01*
X96338281Y-60865220D01*
X96442637Y-60899127D01*
X96532965Y-60928477D01*
X96634057Y-60944488D01*
X96735148Y-60960500D01*
X96735149Y-60960500D01*
X96939851Y-60960500D01*
X96939852Y-60960500D01*
X97142034Y-60928477D01*
X97336719Y-60865220D01*
X97519110Y-60772287D01*
X97632006Y-60690264D01*
X97684713Y-60651971D01*
X97684715Y-60651968D01*
X97684719Y-60651966D01*
X97829466Y-60507219D01*
X97829468Y-60507215D01*
X97829471Y-60507213D01*
X97905010Y-60403241D01*
X97949787Y-60341610D01*
X98042720Y-60159219D01*
X98067569Y-60082740D01*
X98107007Y-60025065D01*
X98171365Y-59997867D01*
X98240212Y-60009782D01*
X98291687Y-60057026D01*
X98309500Y-60121059D01*
X98309500Y-66818940D01*
X98289815Y-66885979D01*
X98237011Y-66931734D01*
X98167853Y-66941678D01*
X98104297Y-66912653D01*
X98067569Y-66857259D01*
X98061594Y-66838870D01*
X98042720Y-66780781D01*
X98042718Y-66780778D01*
X98042718Y-66780776D01*
X97996869Y-66690793D01*
X97949787Y-66598390D01*
X97904609Y-66536207D01*
X97829471Y-66432786D01*
X97684713Y-66288028D01*
X97519113Y-66167715D01*
X97519112Y-66167714D01*
X97519110Y-66167713D01*
X97462153Y-66138691D01*
X97336723Y-66074781D01*
X97142034Y-66011522D01*
X96944833Y-65980289D01*
X96939852Y-65979500D01*
X96735148Y-65979500D01*
X96730167Y-65980289D01*
X96532965Y-66011522D01*
X96338276Y-66074781D01*
X96155886Y-66167715D01*
X95990286Y-66288028D01*
X95845528Y-66432786D01*
X95725215Y-66598386D01*
X95632281Y-66780776D01*
X95569022Y-66975465D01*
X95537000Y-67177648D01*
X95537000Y-67382351D01*
X95569022Y-67584534D01*
X95632281Y-67779223D01*
X95687952Y-67888481D01*
X95709695Y-67931155D01*
X95725215Y-67961613D01*
X95845528Y-68127213D01*
X95990286Y-68271971D01*
X96144138Y-68383749D01*
X96155890Y-68392287D01*
X96238408Y-68434332D01*
X96338276Y-68485218D01*
X96338278Y-68485218D01*
X96338281Y-68485220D01*
X96442637Y-68519127D01*
X96532965Y-68548477D01*
X96605718Y-68560000D01*
X96735148Y-68580500D01*
X96735149Y-68580500D01*
X96939851Y-68580500D01*
X96939852Y-68580500D01*
X97142034Y-68548477D01*
X97336719Y-68485220D01*
X97336724Y-68485217D01*
X97336728Y-68485216D01*
X97510555Y-68396646D01*
X97579224Y-68383749D01*
X97643964Y-68410025D01*
X97684222Y-68467131D01*
X97687214Y-68536937D01*
X97654531Y-68594811D01*
X96276162Y-69973181D01*
X96214839Y-70006666D01*
X96188481Y-70009500D01*
X84291003Y-70009500D01*
X84193760Y-70028843D01*
X84193758Y-70028843D01*
X84182591Y-70031065D01*
X84155671Y-70036420D01*
X84102866Y-70058292D01*
X84028189Y-70089225D01*
X84028188Y-70089226D01*
X84007199Y-70103249D01*
X84007192Y-70103253D01*
X83913457Y-70165886D01*
X83913453Y-70165889D01*
X81949328Y-72130013D01*
X81949327Y-72130014D01*
X81872662Y-72244752D01*
X81819861Y-72372227D01*
X81819858Y-72372237D01*
X81792940Y-72507564D01*
X81792940Y-77082795D01*
X81773255Y-77149834D01*
X81756622Y-77170476D01*
X81654025Y-77273073D01*
X81552208Y-77413211D01*
X81473568Y-77567552D01*
X81420037Y-77732302D01*
X81392940Y-77903389D01*
X81392940Y-78876610D01*
X81419454Y-79044018D01*
X81420038Y-79047701D01*
X81473567Y-79212445D01*
X81552208Y-79366788D01*
X81654026Y-79506928D01*
X81776512Y-79629414D01*
X81916652Y-79731232D01*
X82070995Y-79809873D01*
X82235739Y-79863402D01*
X82406829Y-79890500D01*
X82406830Y-79890500D01*
X82580050Y-79890500D01*
X82580051Y-79890500D01*
X82751141Y-79863402D01*
X82915885Y-79809873D01*
X83070228Y-79731232D01*
X83210368Y-79629414D01*
X83332854Y-79506928D01*
X83434672Y-79366788D01*
X83513313Y-79212445D01*
X83566842Y-79047701D01*
X83593940Y-78876611D01*
X83593940Y-77903389D01*
X83566842Y-77732299D01*
X83513313Y-77567555D01*
X83434672Y-77413212D01*
X83332854Y-77273072D01*
X83230258Y-77170476D01*
X83196774Y-77109153D01*
X83193940Y-77082795D01*
X83193940Y-72918078D01*
X83213625Y-72851039D01*
X83230259Y-72830397D01*
X84613837Y-71446819D01*
X84675160Y-71413334D01*
X84701518Y-71410500D01*
X96598996Y-71410500D01*
X96690040Y-71392389D01*
X96734328Y-71383580D01*
X96798069Y-71357177D01*
X96861807Y-71330777D01*
X96861808Y-71330776D01*
X96861811Y-71330775D01*
X96976543Y-71254114D01*
X99554114Y-68676543D01*
X99630775Y-68561811D01*
X99683580Y-68434328D01*
X99692562Y-68389172D01*
X99710500Y-68298996D01*
X99710500Y-54534894D01*
X99730185Y-54467855D01*
X99782989Y-54422100D01*
X99852147Y-54412156D01*
X99872807Y-54416960D01*
X100015739Y-54463402D01*
X100186829Y-54490500D01*
X100186830Y-54490500D01*
X100360050Y-54490500D01*
X100360051Y-54490500D01*
X100531141Y-54463402D01*
X100677185Y-54415948D01*
X100747022Y-54413954D01*
X100806855Y-54450034D01*
X100837684Y-54512734D01*
X100839500Y-54533880D01*
X100839500Y-68158481D01*
X100819815Y-68225520D01*
X100803181Y-68246162D01*
X97306162Y-71743181D01*
X97244839Y-71776666D01*
X97218481Y-71779500D01*
X86031004Y-71779500D01*
X85895677Y-71806418D01*
X85895667Y-71806421D01*
X85768192Y-71859222D01*
X85653454Y-71935887D01*
X84489327Y-73100014D01*
X84424300Y-73197336D01*
X84424299Y-73197337D01*
X84412667Y-73214744D01*
X84412662Y-73214753D01*
X84359861Y-73342227D01*
X84359858Y-73342237D01*
X84332940Y-73477564D01*
X84332940Y-77082795D01*
X84313255Y-77149834D01*
X84296622Y-77170476D01*
X84194025Y-77273073D01*
X84092208Y-77413211D01*
X84013568Y-77567552D01*
X83960037Y-77732302D01*
X83932940Y-77903389D01*
X83932940Y-78876610D01*
X83959454Y-79044018D01*
X83960038Y-79047701D01*
X84013567Y-79212445D01*
X84092208Y-79366788D01*
X84194026Y-79506928D01*
X84316512Y-79629414D01*
X84456652Y-79731232D01*
X84610995Y-79809873D01*
X84775739Y-79863402D01*
X84946829Y-79890500D01*
X84946830Y-79890500D01*
X85120050Y-79890500D01*
X85120051Y-79890500D01*
X85291141Y-79863402D01*
X85455885Y-79809873D01*
X85610228Y-79731232D01*
X85750368Y-79629414D01*
X85872854Y-79506928D01*
X85974672Y-79366788D01*
X86053313Y-79212445D01*
X86106842Y-79047701D01*
X86133940Y-78876611D01*
X86133940Y-77903389D01*
X86472940Y-77903389D01*
X86472940Y-78876610D01*
X86499454Y-79044018D01*
X86500038Y-79047701D01*
X86553567Y-79212445D01*
X86632208Y-79366788D01*
X86734026Y-79506928D01*
X86856512Y-79629414D01*
X86996652Y-79731232D01*
X87150995Y-79809873D01*
X87315739Y-79863402D01*
X87486829Y-79890500D01*
X87486830Y-79890500D01*
X87660050Y-79890500D01*
X87660051Y-79890500D01*
X87831141Y-79863402D01*
X87995885Y-79809873D01*
X88150228Y-79731232D01*
X88290368Y-79629414D01*
X88412854Y-79506928D01*
X88514672Y-79366788D01*
X88593313Y-79212445D01*
X88646842Y-79047701D01*
X88673940Y-78876611D01*
X88673940Y-77903389D01*
X89012940Y-77903389D01*
X89012940Y-78876610D01*
X89039454Y-79044018D01*
X89040038Y-79047701D01*
X89093567Y-79212445D01*
X89172208Y-79366788D01*
X89274026Y-79506928D01*
X89396512Y-79629414D01*
X89536652Y-79731232D01*
X89690995Y-79809873D01*
X89855739Y-79863402D01*
X90026829Y-79890500D01*
X90026830Y-79890500D01*
X90200050Y-79890500D01*
X90200051Y-79890500D01*
X90371141Y-79863402D01*
X90535885Y-79809873D01*
X90690228Y-79731232D01*
X90830368Y-79629414D01*
X90952854Y-79506928D01*
X91054672Y-79366788D01*
X91133313Y-79212445D01*
X91186842Y-79047701D01*
X91213940Y-78876611D01*
X91213940Y-77903389D01*
X91186842Y-77732299D01*
X91133313Y-77567555D01*
X91054672Y-77413212D01*
X90952854Y-77273072D01*
X90830368Y-77150586D01*
X90690228Y-77048768D01*
X90535885Y-76970127D01*
X90371141Y-76916598D01*
X90371139Y-76916597D01*
X90371138Y-76916597D01*
X90239711Y-76895781D01*
X90200051Y-76889500D01*
X90026829Y-76889500D01*
X89987168Y-76895781D01*
X89855742Y-76916597D01*
X89690992Y-76970128D01*
X89536651Y-77048768D01*
X89489818Y-77082795D01*
X89396512Y-77150586D01*
X89396510Y-77150588D01*
X89396509Y-77150588D01*
X89274028Y-77273069D01*
X89274028Y-77273070D01*
X89274026Y-77273072D01*
X89273790Y-77273397D01*
X89172208Y-77413211D01*
X89093568Y-77567552D01*
X89040037Y-77732302D01*
X89012940Y-77903389D01*
X88673940Y-77903389D01*
X88646842Y-77732299D01*
X88593313Y-77567555D01*
X88514672Y-77413212D01*
X88412854Y-77273072D01*
X88290368Y-77150586D01*
X88150228Y-77048768D01*
X87995885Y-76970127D01*
X87831141Y-76916598D01*
X87831139Y-76916597D01*
X87831138Y-76916597D01*
X87699711Y-76895781D01*
X87660051Y-76889500D01*
X87486829Y-76889500D01*
X87447168Y-76895781D01*
X87315742Y-76916597D01*
X87150992Y-76970128D01*
X86996651Y-77048768D01*
X86949818Y-77082795D01*
X86856512Y-77150586D01*
X86856510Y-77150588D01*
X86856509Y-77150588D01*
X86734028Y-77273069D01*
X86734028Y-77273070D01*
X86734026Y-77273072D01*
X86733790Y-77273397D01*
X86632208Y-77413211D01*
X86553568Y-77567552D01*
X86500037Y-77732302D01*
X86472940Y-77903389D01*
X86133940Y-77903389D01*
X86106842Y-77732299D01*
X86053313Y-77567555D01*
X85974672Y-77413212D01*
X85872854Y-77273072D01*
X85770258Y-77170476D01*
X85736774Y-77109153D01*
X85733940Y-77082795D01*
X85733940Y-73888079D01*
X85753625Y-73821040D01*
X85770259Y-73800398D01*
X86353838Y-73216819D01*
X86415161Y-73183334D01*
X86441519Y-73180500D01*
X97628996Y-73180500D01*
X97720040Y-73162389D01*
X97764328Y-73153580D01*
X97828069Y-73127177D01*
X97891807Y-73100777D01*
X97891808Y-73100776D01*
X97891811Y-73100775D01*
X98006543Y-73024114D01*
X102084114Y-68946543D01*
X102160775Y-68831811D01*
X102169603Y-68810500D01*
X102213578Y-68704332D01*
X102213580Y-68704328D01*
X102235365Y-68594811D01*
X102240500Y-68568996D01*
X102240500Y-54531645D01*
X102260185Y-54464606D01*
X102312989Y-54418851D01*
X102382147Y-54408907D01*
X102402809Y-54413711D01*
X102555739Y-54463402D01*
X102726829Y-54490500D01*
X102726830Y-54490500D01*
X102900050Y-54490500D01*
X102900051Y-54490500D01*
X103071141Y-54463402D01*
X103235885Y-54409873D01*
X103390228Y-54331232D01*
X103530368Y-54229414D01*
X103652854Y-54106928D01*
X103754672Y-53966788D01*
X103833313Y-53812445D01*
X103886842Y-53647701D01*
X103913940Y-53476611D01*
X103913940Y-52503389D01*
X103886842Y-52332299D01*
X103833313Y-52167555D01*
X103829868Y-52160793D01*
X103816973Y-52092123D01*
X103843251Y-52027384D01*
X103900358Y-51987127D01*
X103940354Y-51980500D01*
X104226526Y-51980500D01*
X104293565Y-52000185D01*
X104339320Y-52052989D01*
X104349264Y-52122147D01*
X104337012Y-52160793D01*
X104333568Y-52167551D01*
X104280037Y-52332302D01*
X104252940Y-52503389D01*
X104252940Y-53476610D01*
X104274760Y-53614381D01*
X104280038Y-53647701D01*
X104333567Y-53812445D01*
X104412208Y-53966788D01*
X104514026Y-54106928D01*
X104636512Y-54229414D01*
X104776652Y-54331232D01*
X104930995Y-54409873D01*
X105095739Y-54463402D01*
X105266829Y-54490500D01*
X105266830Y-54490500D01*
X105440050Y-54490500D01*
X105440051Y-54490500D01*
X105611141Y-54463402D01*
X105775885Y-54409873D01*
X105930228Y-54331232D01*
X106070368Y-54229414D01*
X106192854Y-54106928D01*
X106294672Y-53966788D01*
X106373313Y-53812445D01*
X106426842Y-53647701D01*
X106453940Y-53476611D01*
X106453940Y-52503389D01*
X106792940Y-52503389D01*
X106792940Y-53476610D01*
X106814760Y-53614381D01*
X106820038Y-53647701D01*
X106873567Y-53812445D01*
X106952208Y-53966788D01*
X107054026Y-54106928D01*
X107176512Y-54229414D01*
X107316652Y-54331232D01*
X107470995Y-54409873D01*
X107635739Y-54463402D01*
X107806829Y-54490500D01*
X107806830Y-54490500D01*
X107980050Y-54490500D01*
X107980051Y-54490500D01*
X108151141Y-54463402D01*
X108315885Y-54409873D01*
X108470228Y-54331232D01*
X108610368Y-54229414D01*
X108732854Y-54106928D01*
X108834672Y-53966788D01*
X108913313Y-53812445D01*
X108966842Y-53647701D01*
X108993940Y-53476611D01*
X108993940Y-53389284D01*
X108997262Y-53377967D01*
X108996102Y-53366229D01*
X109006926Y-53345056D01*
X109013625Y-53322245D01*
X109022537Y-53314522D01*
X109027908Y-53304018D01*
X109048462Y-53292057D01*
X109066429Y-53276490D01*
X109078102Y-53274811D01*
X109088298Y-53268879D01*
X109112052Y-53269929D01*
X109135587Y-53266546D01*
X109146315Y-53271445D01*
X109158100Y-53271967D01*
X109177515Y-53285694D01*
X109199143Y-53295571D01*
X109206963Y-53306514D01*
X109215151Y-53312303D01*
X109227298Y-53334969D01*
X109232901Y-53342809D01*
X109234530Y-53346838D01*
X109274556Y-53470025D01*
X109321876Y-53562898D01*
X109323901Y-53567906D01*
X109325385Y-53582913D01*
X109332940Y-53614381D01*
X109332940Y-54037870D01*
X109332941Y-54037876D01*
X109339348Y-54097483D01*
X109389642Y-54232328D01*
X109389646Y-54232335D01*
X109475892Y-54347544D01*
X109475895Y-54347547D01*
X109591104Y-54433793D01*
X109591111Y-54433797D01*
X109595873Y-54435573D01*
X109725957Y-54484091D01*
X109785567Y-54490500D01*
X110510663Y-54490499D01*
X110577702Y-54510183D01*
X110598344Y-54526818D01*
X116013181Y-59941655D01*
X116046666Y-60002978D01*
X116049500Y-60029336D01*
X116049500Y-82530498D01*
X116043431Y-82568816D01*
X116031523Y-82605464D01*
X115999500Y-82807648D01*
X115999500Y-83012351D01*
X116031522Y-83214534D01*
X116094781Y-83409223D01*
X116158691Y-83534653D01*
X116180057Y-83576585D01*
X116187715Y-83591613D01*
X116308028Y-83757213D01*
X116452786Y-83901971D01*
X116572179Y-83988713D01*
X116618390Y-84022287D01*
X116722273Y-84075218D01*
X116800776Y-84115218D01*
X116800778Y-84115218D01*
X116800781Y-84115220D01*
X116872359Y-84138477D01*
X116995465Y-84178477D01*
X117068843Y-84190099D01*
X117197648Y-84210500D01*
X117197649Y-84210500D01*
X117402351Y-84210500D01*
X117402352Y-84210500D01*
X117604534Y-84178477D01*
X117799219Y-84115220D01*
X117981610Y-84022287D01*
X118110914Y-83928343D01*
X118147213Y-83901971D01*
X118147215Y-83901968D01*
X118147219Y-83901966D01*
X118291966Y-83757219D01*
X118291968Y-83757215D01*
X118291971Y-83757213D01*
X118352169Y-83674356D01*
X118412287Y-83591610D01*
X118505220Y-83409219D01*
X118568477Y-83214534D01*
X118600500Y-83012352D01*
X118600500Y-82807648D01*
X118568477Y-82605466D01*
X118556569Y-82568816D01*
X118550500Y-82530498D01*
X118550500Y-78704038D01*
X120689500Y-78704038D01*
X120689500Y-78955962D01*
X120719200Y-79143476D01*
X120728910Y-79204785D01*
X120806760Y-79444383D01*
X120885413Y-79598747D01*
X120901037Y-79629411D01*
X120921132Y-79668848D01*
X120989062Y-79762347D01*
X121012542Y-79828153D01*
X120996716Y-79896207D01*
X120976426Y-79922913D01*
X120847680Y-80051659D01*
X120755645Y-80200869D01*
X120755640Y-80200880D01*
X120700494Y-80367302D01*
X120690000Y-80470013D01*
X120690000Y-81120000D01*
X121799252Y-81120000D01*
X121777482Y-81157708D01*
X121740000Y-81297591D01*
X121740000Y-81442409D01*
X121777482Y-81582292D01*
X121799252Y-81620000D01*
X120690001Y-81620000D01*
X120690001Y-82269986D01*
X120700494Y-82372696D01*
X120700494Y-82372698D01*
X120755640Y-82539119D01*
X120755645Y-82539130D01*
X120847680Y-82688340D01*
X120847683Y-82688344D01*
X120971655Y-82812316D01*
X120971659Y-82812319D01*
X121120869Y-82904354D01*
X121120880Y-82904359D01*
X121287302Y-82959505D01*
X121390019Y-82969999D01*
X122039999Y-82969999D01*
X122040000Y-82969998D01*
X122040000Y-81860747D01*
X122077708Y-81882518D01*
X122217591Y-81920000D01*
X122362409Y-81920000D01*
X122502292Y-81882518D01*
X122540000Y-81860747D01*
X122540000Y-82969999D01*
X123189972Y-82969999D01*
X123189986Y-82969998D01*
X123292696Y-82959505D01*
X123292698Y-82959505D01*
X123459119Y-82904359D01*
X123459130Y-82904354D01*
X123608340Y-82812319D01*
X123608344Y-82812316D01*
X123732316Y-82688344D01*
X123732319Y-82688340D01*
X123824354Y-82539130D01*
X123824359Y-82539119D01*
X123879505Y-82372697D01*
X123889999Y-82269986D01*
X123889999Y-81812781D01*
X123909683Y-81745742D01*
X123962487Y-81699987D01*
X124031646Y-81690043D01*
X124095202Y-81719068D01*
X124115917Y-81744985D01*
X124117221Y-81744114D01*
X124208210Y-81880288D01*
X124208213Y-81880292D01*
X124319707Y-81991786D01*
X124319711Y-81991789D01*
X124450814Y-82079390D01*
X124450827Y-82079397D01*
X124596498Y-82139735D01*
X124596503Y-82139737D01*
X124751153Y-82170499D01*
X124751156Y-82170500D01*
X124751158Y-82170500D01*
X124908844Y-82170500D01*
X124908845Y-82170499D01*
X125063497Y-82139737D01*
X125209179Y-82079394D01*
X125340289Y-81991789D01*
X125451789Y-81880289D01*
X125539394Y-81749179D01*
X125599737Y-81603497D01*
X125630500Y-81448842D01*
X125630500Y-81291158D01*
X125630500Y-81291155D01*
X125630499Y-81291153D01*
X125599738Y-81136510D01*
X125599737Y-81136503D01*
X125592901Y-81120000D01*
X125539397Y-80990827D01*
X125539390Y-80990814D01*
X125451789Y-80859711D01*
X125451786Y-80859707D01*
X125340292Y-80748213D01*
X125340288Y-80748210D01*
X125209185Y-80660609D01*
X125209172Y-80660602D01*
X125063501Y-80600264D01*
X125063489Y-80600261D01*
X124908845Y-80569500D01*
X124908842Y-80569500D01*
X124751158Y-80569500D01*
X124751155Y-80569500D01*
X124596510Y-80600261D01*
X124596498Y-80600264D01*
X124450827Y-80660602D01*
X124450814Y-80660609D01*
X124319711Y-80748210D01*
X124319707Y-80748213D01*
X124208213Y-80859707D01*
X124208210Y-80859711D01*
X124117221Y-80995886D01*
X124114886Y-80994326D01*
X124074294Y-81035573D01*
X124006141Y-81050970D01*
X123940484Y-81027077D01*
X123898167Y-80971479D01*
X123889999Y-80927219D01*
X123889999Y-80470028D01*
X123889998Y-80470012D01*
X123879505Y-80367303D01*
X123879505Y-80367301D01*
X123824359Y-80200880D01*
X123824354Y-80200869D01*
X123732319Y-80051659D01*
X123732316Y-80051655D01*
X123603574Y-79922913D01*
X123570089Y-79861590D01*
X123575073Y-79791898D01*
X123590934Y-79762349D01*
X123658870Y-79668845D01*
X123773241Y-79444379D01*
X123851090Y-79204785D01*
X123856357Y-79171531D01*
X123886286Y-79108396D01*
X123945597Y-79071464D01*
X124015460Y-79072462D01*
X124073692Y-79111071D01*
X124093391Y-79143476D01*
X124120602Y-79209173D01*
X124120609Y-79209185D01*
X124208210Y-79340288D01*
X124208213Y-79340292D01*
X124319707Y-79451786D01*
X124319711Y-79451789D01*
X124450814Y-79539390D01*
X124450827Y-79539397D01*
X124596498Y-79599735D01*
X124596503Y-79599737D01*
X124727183Y-79625731D01*
X124751153Y-79630499D01*
X124751156Y-79630500D01*
X124751158Y-79630500D01*
X124908844Y-79630500D01*
X124908845Y-79630499D01*
X125063497Y-79599737D01*
X125209179Y-79539394D01*
X125340289Y-79451789D01*
X125451789Y-79340289D01*
X125539394Y-79209179D01*
X125539566Y-79208765D01*
X125584342Y-79100664D01*
X125599737Y-79063497D01*
X125630500Y-78908842D01*
X125630500Y-78751158D01*
X125630500Y-78751155D01*
X125630499Y-78751153D01*
X125624996Y-78723486D01*
X125599737Y-78596503D01*
X125567714Y-78519192D01*
X125539397Y-78450827D01*
X125539390Y-78450814D01*
X125451789Y-78319711D01*
X125451786Y-78319707D01*
X125340292Y-78208213D01*
X125340288Y-78208210D01*
X125209185Y-78120609D01*
X125209172Y-78120602D01*
X125063501Y-78060264D01*
X125063489Y-78060261D01*
X124908845Y-78029500D01*
X124908842Y-78029500D01*
X124751158Y-78029500D01*
X124751155Y-78029500D01*
X124596510Y-78060261D01*
X124596498Y-78060264D01*
X124450827Y-78120602D01*
X124450814Y-78120609D01*
X124319711Y-78208210D01*
X124319707Y-78208213D01*
X124208213Y-78319707D01*
X124208210Y-78319711D01*
X124120609Y-78450814D01*
X124120602Y-78450827D01*
X124093391Y-78516523D01*
X124049550Y-78570927D01*
X123983256Y-78592992D01*
X123915557Y-78575713D01*
X123867946Y-78524576D01*
X123856357Y-78488469D01*
X123856103Y-78486866D01*
X123851090Y-78455215D01*
X123773241Y-78215621D01*
X123773239Y-78215618D01*
X123773239Y-78215616D01*
X123724826Y-78120602D01*
X123658870Y-77991155D01*
X123595133Y-77903428D01*
X123510798Y-77787350D01*
X123510794Y-77787345D01*
X123332654Y-77609205D01*
X123332649Y-77609201D01*
X123128848Y-77461132D01*
X123128847Y-77461131D01*
X123128845Y-77461130D01*
X123034799Y-77413211D01*
X122904383Y-77346760D01*
X122664785Y-77268910D01*
X122415962Y-77229500D01*
X122164038Y-77229500D01*
X122039626Y-77249205D01*
X121915214Y-77268910D01*
X121675616Y-77346760D01*
X121451151Y-77461132D01*
X121247350Y-77609201D01*
X121247345Y-77609205D01*
X121069205Y-77787345D01*
X121069201Y-77787350D01*
X120921132Y-77991151D01*
X120806760Y-78215616D01*
X120728910Y-78455214D01*
X120700339Y-78635606D01*
X120689500Y-78704038D01*
X118550500Y-78704038D01*
X118550500Y-71914038D01*
X120689500Y-71914038D01*
X120689500Y-72165961D01*
X120728910Y-72414785D01*
X120806760Y-72654383D01*
X120921132Y-72878848D01*
X120989062Y-72972347D01*
X121012542Y-73038153D01*
X120996716Y-73106207D01*
X120976426Y-73132913D01*
X120847680Y-73261659D01*
X120755645Y-73410869D01*
X120755640Y-73410880D01*
X120700494Y-73577302D01*
X120690000Y-73680013D01*
X120690000Y-74330000D01*
X121799252Y-74330000D01*
X121777482Y-74367708D01*
X121740000Y-74507591D01*
X121740000Y-74652409D01*
X121777482Y-74792292D01*
X121799252Y-74830000D01*
X120690001Y-74830000D01*
X120690001Y-75479986D01*
X120700494Y-75582696D01*
X120700494Y-75582698D01*
X120755640Y-75749119D01*
X120755645Y-75749130D01*
X120847680Y-75898340D01*
X120847683Y-75898344D01*
X120971655Y-76022316D01*
X120971659Y-76022319D01*
X121120869Y-76114354D01*
X121120880Y-76114359D01*
X121287302Y-76169505D01*
X121390019Y-76179999D01*
X122039999Y-76179999D01*
X122040000Y-76179998D01*
X122040000Y-75070747D01*
X122077708Y-75092518D01*
X122217591Y-75130000D01*
X122362409Y-75130000D01*
X122502292Y-75092518D01*
X122540000Y-75070747D01*
X122540000Y-76179999D01*
X123189972Y-76179999D01*
X123189986Y-76179998D01*
X123292696Y-76169505D01*
X123292698Y-76169505D01*
X123459119Y-76114359D01*
X123459130Y-76114354D01*
X123608340Y-76022319D01*
X123608344Y-76022316D01*
X123732316Y-75898344D01*
X123732319Y-75898340D01*
X123824354Y-75749130D01*
X123824359Y-75749119D01*
X123879505Y-75582697D01*
X123889999Y-75479986D01*
X123889999Y-75022781D01*
X123909683Y-74955742D01*
X123962487Y-74909987D01*
X124031646Y-74900043D01*
X124095202Y-74929068D01*
X124115917Y-74954985D01*
X124117221Y-74954114D01*
X124208210Y-75090288D01*
X124208213Y-75090292D01*
X124319707Y-75201786D01*
X124319711Y-75201789D01*
X124450814Y-75289390D01*
X124450827Y-75289397D01*
X124596498Y-75349735D01*
X124596503Y-75349737D01*
X124751153Y-75380499D01*
X124751156Y-75380500D01*
X124751158Y-75380500D01*
X124908844Y-75380500D01*
X124908845Y-75380499D01*
X125063497Y-75349737D01*
X125209179Y-75289394D01*
X125340289Y-75201789D01*
X125451789Y-75090289D01*
X125539394Y-74959179D01*
X125599737Y-74813497D01*
X125630500Y-74658842D01*
X125630500Y-74501158D01*
X125630500Y-74501155D01*
X125630499Y-74501153D01*
X125599738Y-74346510D01*
X125599737Y-74346503D01*
X125592901Y-74330000D01*
X125539397Y-74200827D01*
X125539390Y-74200814D01*
X125451789Y-74069711D01*
X125451786Y-74069707D01*
X125340292Y-73958213D01*
X125340288Y-73958210D01*
X125209185Y-73870609D01*
X125209172Y-73870602D01*
X125063501Y-73810264D01*
X125063489Y-73810261D01*
X124908845Y-73779500D01*
X124908842Y-73779500D01*
X124751158Y-73779500D01*
X124751155Y-73779500D01*
X124596510Y-73810261D01*
X124596498Y-73810264D01*
X124450827Y-73870602D01*
X124450814Y-73870609D01*
X124319711Y-73958210D01*
X124319707Y-73958213D01*
X124208213Y-74069707D01*
X124208210Y-74069711D01*
X124117221Y-74205886D01*
X124114886Y-74204326D01*
X124074294Y-74245573D01*
X124006141Y-74260970D01*
X123940484Y-74237077D01*
X123898167Y-74181479D01*
X123889999Y-74137219D01*
X123889999Y-73680028D01*
X123889998Y-73680012D01*
X123879505Y-73577303D01*
X123879505Y-73577301D01*
X123824359Y-73410880D01*
X123824354Y-73410869D01*
X123732319Y-73261659D01*
X123732316Y-73261655D01*
X123603574Y-73132913D01*
X123570089Y-73071590D01*
X123575073Y-73001898D01*
X123590934Y-72972349D01*
X123658870Y-72878845D01*
X123773241Y-72654379D01*
X123851090Y-72414785D01*
X123856357Y-72381531D01*
X123886286Y-72318396D01*
X123945597Y-72281464D01*
X124015460Y-72282462D01*
X124073692Y-72321071D01*
X124093391Y-72353476D01*
X124120602Y-72419173D01*
X124120609Y-72419185D01*
X124208210Y-72550288D01*
X124208213Y-72550292D01*
X124319707Y-72661786D01*
X124319711Y-72661789D01*
X124450814Y-72749390D01*
X124450827Y-72749397D01*
X124596498Y-72809735D01*
X124596503Y-72809737D01*
X124751153Y-72840499D01*
X124751156Y-72840500D01*
X124751158Y-72840500D01*
X124908844Y-72840500D01*
X124908845Y-72840499D01*
X125063497Y-72809737D01*
X125209179Y-72749394D01*
X125340289Y-72661789D01*
X125451789Y-72550289D01*
X125539394Y-72419179D01*
X125599737Y-72273497D01*
X125630500Y-72118842D01*
X125630500Y-71961158D01*
X125630500Y-71961155D01*
X125630499Y-71961153D01*
X125610224Y-71859225D01*
X125599737Y-71806503D01*
X125587378Y-71776666D01*
X125539397Y-71660827D01*
X125539390Y-71660814D01*
X125451789Y-71529711D01*
X125451786Y-71529707D01*
X125340292Y-71418213D01*
X125340288Y-71418210D01*
X125209185Y-71330609D01*
X125209172Y-71330602D01*
X125063501Y-71270264D01*
X125063489Y-71270261D01*
X124908845Y-71239500D01*
X124908842Y-71239500D01*
X124751158Y-71239500D01*
X124751155Y-71239500D01*
X124596510Y-71270261D01*
X124596498Y-71270264D01*
X124450827Y-71330602D01*
X124450814Y-71330609D01*
X124319711Y-71418210D01*
X124319707Y-71418213D01*
X124208213Y-71529707D01*
X124208210Y-71529711D01*
X124120609Y-71660814D01*
X124120602Y-71660827D01*
X124093391Y-71726523D01*
X124049550Y-71780927D01*
X123983256Y-71802992D01*
X123915557Y-71785713D01*
X123867946Y-71734576D01*
X123856357Y-71698469D01*
X123856103Y-71696866D01*
X123851090Y-71665215D01*
X123773241Y-71425621D01*
X123773239Y-71425618D01*
X123773239Y-71425616D01*
X123724826Y-71330602D01*
X123658870Y-71201155D01*
X123550675Y-71052237D01*
X123510798Y-70997350D01*
X123510794Y-70997345D01*
X123332654Y-70819205D01*
X123332649Y-70819201D01*
X123128848Y-70671132D01*
X123128847Y-70671131D01*
X123128845Y-70671130D01*
X123058747Y-70635413D01*
X122904383Y-70556760D01*
X122664785Y-70478910D01*
X122415962Y-70439500D01*
X122164038Y-70439500D01*
X122039626Y-70459205D01*
X121915214Y-70478910D01*
X121675616Y-70556760D01*
X121451151Y-70671132D01*
X121247350Y-70819201D01*
X121247345Y-70819205D01*
X121069205Y-70997345D01*
X121069201Y-70997350D01*
X120921132Y-71201151D01*
X120806760Y-71425616D01*
X120728910Y-71665214D01*
X120689500Y-71914038D01*
X118550500Y-71914038D01*
X118550500Y-65344038D01*
X120739500Y-65344038D01*
X120739500Y-65595961D01*
X120778910Y-65844785D01*
X120856760Y-66084383D01*
X120905173Y-66179397D01*
X120960526Y-66288034D01*
X120971132Y-66308848D01*
X121039062Y-66402347D01*
X121062542Y-66468153D01*
X121046716Y-66536207D01*
X121026426Y-66562913D01*
X120897680Y-66691659D01*
X120805645Y-66840869D01*
X120805640Y-66840880D01*
X120750494Y-67007302D01*
X120740000Y-67110013D01*
X120740000Y-67760000D01*
X121849252Y-67760000D01*
X121827482Y-67797708D01*
X121790000Y-67937591D01*
X121790000Y-68082409D01*
X121827482Y-68222292D01*
X121849252Y-68260000D01*
X120740001Y-68260000D01*
X120740001Y-68909986D01*
X120750494Y-69012696D01*
X120750494Y-69012698D01*
X120805640Y-69179119D01*
X120805645Y-69179130D01*
X120897680Y-69328340D01*
X120897683Y-69328344D01*
X121021655Y-69452316D01*
X121021659Y-69452319D01*
X121170869Y-69544354D01*
X121170880Y-69544359D01*
X121337302Y-69599505D01*
X121440019Y-69609999D01*
X122089999Y-69609999D01*
X122090000Y-69609998D01*
X122090000Y-68500747D01*
X122127708Y-68522518D01*
X122267591Y-68560000D01*
X122412409Y-68560000D01*
X122552292Y-68522518D01*
X122590000Y-68500747D01*
X122590000Y-69609999D01*
X123239972Y-69609999D01*
X123239986Y-69609998D01*
X123342696Y-69599505D01*
X123342698Y-69599505D01*
X123509119Y-69544359D01*
X123509130Y-69544354D01*
X123658340Y-69452319D01*
X123658344Y-69452316D01*
X123782316Y-69328344D01*
X123782319Y-69328340D01*
X123874354Y-69179130D01*
X123874359Y-69179119D01*
X123929505Y-69012697D01*
X123939999Y-68909986D01*
X123939999Y-68452781D01*
X123959683Y-68385742D01*
X124012487Y-68339987D01*
X124081646Y-68330043D01*
X124145202Y-68359068D01*
X124165917Y-68384985D01*
X124167221Y-68384114D01*
X124258210Y-68520288D01*
X124258213Y-68520292D01*
X124369707Y-68631786D01*
X124369711Y-68631789D01*
X124500814Y-68719390D01*
X124500827Y-68719397D01*
X124646498Y-68779735D01*
X124646503Y-68779737D01*
X124801153Y-68810499D01*
X124801156Y-68810500D01*
X124801158Y-68810500D01*
X124958844Y-68810500D01*
X124958845Y-68810499D01*
X125113497Y-68779737D01*
X125259179Y-68719394D01*
X125390289Y-68631789D01*
X125501789Y-68520289D01*
X125589394Y-68389179D01*
X125649737Y-68243497D01*
X125680500Y-68088842D01*
X125680500Y-67931158D01*
X125680500Y-67931155D01*
X125680499Y-67931153D01*
X125650370Y-67779685D01*
X125649737Y-67776503D01*
X125619184Y-67702741D01*
X125589397Y-67630827D01*
X125589390Y-67630814D01*
X125501789Y-67499711D01*
X125501786Y-67499707D01*
X125390292Y-67388213D01*
X125390288Y-67388210D01*
X125259185Y-67300609D01*
X125259172Y-67300602D01*
X125113501Y-67240264D01*
X125113489Y-67240261D01*
X124958845Y-67209500D01*
X124958842Y-67209500D01*
X124801158Y-67209500D01*
X124801155Y-67209500D01*
X124646510Y-67240261D01*
X124646498Y-67240264D01*
X124500827Y-67300602D01*
X124500814Y-67300609D01*
X124369711Y-67388210D01*
X124369707Y-67388213D01*
X124258213Y-67499707D01*
X124258210Y-67499711D01*
X124167221Y-67635886D01*
X124164886Y-67634326D01*
X124124294Y-67675573D01*
X124056141Y-67690970D01*
X123990484Y-67667077D01*
X123948167Y-67611479D01*
X123939999Y-67567219D01*
X123939999Y-67110028D01*
X123939998Y-67110012D01*
X123929505Y-67007303D01*
X123929505Y-67007301D01*
X123874359Y-66840880D01*
X123874354Y-66840869D01*
X123782319Y-66691659D01*
X123782316Y-66691655D01*
X123653574Y-66562913D01*
X123620089Y-66501590D01*
X123625073Y-66431898D01*
X123640934Y-66402349D01*
X123708870Y-66308845D01*
X123823241Y-66084379D01*
X123901090Y-65844785D01*
X123906357Y-65811531D01*
X123936286Y-65748396D01*
X123995597Y-65711464D01*
X124065460Y-65712462D01*
X124123692Y-65751071D01*
X124143391Y-65783476D01*
X124170602Y-65849173D01*
X124170609Y-65849185D01*
X124258210Y-65980288D01*
X124258213Y-65980292D01*
X124369707Y-66091786D01*
X124369711Y-66091789D01*
X124500814Y-66179390D01*
X124500827Y-66179397D01*
X124646498Y-66239735D01*
X124646503Y-66239737D01*
X124801153Y-66270499D01*
X124801156Y-66270500D01*
X124801158Y-66270500D01*
X124958844Y-66270500D01*
X124958845Y-66270499D01*
X125113497Y-66239737D01*
X125259179Y-66179394D01*
X125390289Y-66091789D01*
X125501789Y-65980289D01*
X125589394Y-65849179D01*
X125649737Y-65703497D01*
X125680500Y-65548842D01*
X125680500Y-65391158D01*
X125680500Y-65391155D01*
X125680499Y-65391153D01*
X125649738Y-65236510D01*
X125649737Y-65236503D01*
X125619944Y-65164576D01*
X125589397Y-65090827D01*
X125589390Y-65090814D01*
X125501789Y-64959711D01*
X125501786Y-64959707D01*
X125390292Y-64848213D01*
X125390288Y-64848210D01*
X125259185Y-64760609D01*
X125259172Y-64760602D01*
X125113501Y-64700264D01*
X125113489Y-64700261D01*
X124958845Y-64669500D01*
X124958842Y-64669500D01*
X124801158Y-64669500D01*
X124801155Y-64669500D01*
X124646510Y-64700261D01*
X124646498Y-64700264D01*
X124500827Y-64760602D01*
X124500814Y-64760609D01*
X124369711Y-64848210D01*
X124369707Y-64848213D01*
X124258213Y-64959707D01*
X124258210Y-64959711D01*
X124170609Y-65090814D01*
X124170602Y-65090827D01*
X124143391Y-65156523D01*
X124099550Y-65210927D01*
X124033256Y-65232992D01*
X123965557Y-65215713D01*
X123917946Y-65164576D01*
X123906357Y-65128469D01*
X123906103Y-65126866D01*
X123901090Y-65095215D01*
X123823241Y-64855621D01*
X123823239Y-64855618D01*
X123823239Y-64855616D01*
X123774826Y-64760602D01*
X123708870Y-64631155D01*
X123689952Y-64605117D01*
X123560798Y-64427350D01*
X123560794Y-64427345D01*
X123382654Y-64249205D01*
X123382649Y-64249201D01*
X123178848Y-64101132D01*
X123178847Y-64101131D01*
X123178845Y-64101130D01*
X123108747Y-64065413D01*
X122954383Y-63986760D01*
X122714785Y-63908910D01*
X122465962Y-63869500D01*
X122214038Y-63869500D01*
X122089626Y-63889205D01*
X121965214Y-63908910D01*
X121725616Y-63986760D01*
X121501151Y-64101132D01*
X121297350Y-64249201D01*
X121297345Y-64249205D01*
X121119205Y-64427345D01*
X121119201Y-64427350D01*
X120971132Y-64631151D01*
X120856760Y-64855616D01*
X120778910Y-65095214D01*
X120739500Y-65344038D01*
X118550500Y-65344038D01*
X118550500Y-59361577D01*
X118529972Y-59231977D01*
X118519709Y-59167174D01*
X118517396Y-59160057D01*
X118515264Y-59153493D01*
X118515264Y-59153492D01*
X118493918Y-59087800D01*
X118458884Y-58979974D01*
X118369524Y-58804595D01*
X118369522Y-58804592D01*
X118369521Y-58804590D01*
X118361855Y-58794038D01*
X120799500Y-58794038D01*
X120799500Y-59045961D01*
X120838910Y-59294785D01*
X120916760Y-59534383D01*
X120965173Y-59629397D01*
X121024640Y-59746108D01*
X121031132Y-59758848D01*
X121099062Y-59852347D01*
X121122542Y-59918153D01*
X121106716Y-59986207D01*
X121086426Y-60012913D01*
X120957680Y-60141659D01*
X120865645Y-60290869D01*
X120865640Y-60290880D01*
X120810494Y-60457302D01*
X120800000Y-60560013D01*
X120800000Y-61210000D01*
X121909252Y-61210000D01*
X121887482Y-61247708D01*
X121850000Y-61387591D01*
X121850000Y-61532409D01*
X121887482Y-61672292D01*
X121909252Y-61710000D01*
X120800001Y-61710000D01*
X120800001Y-62359986D01*
X120810494Y-62462696D01*
X120810494Y-62462698D01*
X120865640Y-62629119D01*
X120865645Y-62629130D01*
X120957680Y-62778340D01*
X120957683Y-62778344D01*
X121081655Y-62902316D01*
X121081659Y-62902319D01*
X121230869Y-62994354D01*
X121230880Y-62994359D01*
X121397302Y-63049505D01*
X121500019Y-63059999D01*
X122149999Y-63059999D01*
X122150000Y-63059998D01*
X122150000Y-61950747D01*
X122187708Y-61972518D01*
X122327591Y-62010000D01*
X122472409Y-62010000D01*
X122612292Y-61972518D01*
X122650000Y-61950747D01*
X122650000Y-63059999D01*
X123299972Y-63059999D01*
X123299986Y-63059998D01*
X123402696Y-63049505D01*
X123402698Y-63049505D01*
X123569119Y-62994359D01*
X123569130Y-62994354D01*
X123718340Y-62902319D01*
X123718344Y-62902316D01*
X123842316Y-62778344D01*
X123842319Y-62778340D01*
X123934354Y-62629130D01*
X123934359Y-62629119D01*
X123989505Y-62462697D01*
X123999999Y-62359986D01*
X123999999Y-61902781D01*
X124019683Y-61835742D01*
X124072487Y-61789987D01*
X124141646Y-61780043D01*
X124205202Y-61809068D01*
X124225917Y-61834985D01*
X124227221Y-61834114D01*
X124318210Y-61970288D01*
X124318213Y-61970292D01*
X124429707Y-62081786D01*
X124429711Y-62081789D01*
X124560814Y-62169390D01*
X124560827Y-62169397D01*
X124706498Y-62229735D01*
X124706503Y-62229737D01*
X124861153Y-62260499D01*
X124861156Y-62260500D01*
X124861158Y-62260500D01*
X125018844Y-62260500D01*
X125018845Y-62260499D01*
X125173497Y-62229737D01*
X125319179Y-62169394D01*
X125450289Y-62081789D01*
X125561789Y-61970289D01*
X125649394Y-61839179D01*
X125709737Y-61693497D01*
X125740500Y-61538842D01*
X125740500Y-61381158D01*
X125740500Y-61381155D01*
X125740499Y-61381153D01*
X125709738Y-61226510D01*
X125709737Y-61226503D01*
X125702901Y-61210000D01*
X125649397Y-61080827D01*
X125649390Y-61080814D01*
X125561789Y-60949711D01*
X125561786Y-60949707D01*
X125450292Y-60838213D01*
X125450288Y-60838210D01*
X125319185Y-60750609D01*
X125319172Y-60750602D01*
X125173501Y-60690264D01*
X125173489Y-60690261D01*
X125018845Y-60659500D01*
X125018842Y-60659500D01*
X124861158Y-60659500D01*
X124861155Y-60659500D01*
X124706510Y-60690261D01*
X124706498Y-60690264D01*
X124560827Y-60750602D01*
X124560814Y-60750609D01*
X124429711Y-60838210D01*
X124429707Y-60838213D01*
X124318213Y-60949707D01*
X124318210Y-60949711D01*
X124227221Y-61085886D01*
X124224886Y-61084326D01*
X124184294Y-61125573D01*
X124116141Y-61140970D01*
X124050484Y-61117077D01*
X124008167Y-61061479D01*
X123999999Y-61017219D01*
X123999999Y-60560028D01*
X123999998Y-60560012D01*
X123989505Y-60457303D01*
X123989505Y-60457301D01*
X123934359Y-60290880D01*
X123934354Y-60290869D01*
X123842319Y-60141659D01*
X123842316Y-60141655D01*
X123713574Y-60012913D01*
X123680089Y-59951590D01*
X123685073Y-59881898D01*
X123700934Y-59852349D01*
X123768870Y-59758845D01*
X123883241Y-59534379D01*
X123961090Y-59294785D01*
X123966357Y-59261531D01*
X123996286Y-59198396D01*
X124055597Y-59161464D01*
X124125460Y-59162462D01*
X124183692Y-59201071D01*
X124203391Y-59233476D01*
X124230602Y-59299173D01*
X124230609Y-59299185D01*
X124318210Y-59430288D01*
X124318213Y-59430292D01*
X124429707Y-59541786D01*
X124429711Y-59541789D01*
X124560814Y-59629390D01*
X124560827Y-59629397D01*
X124706498Y-59689735D01*
X124706503Y-59689737D01*
X124855799Y-59719434D01*
X124861153Y-59720499D01*
X124861156Y-59720500D01*
X124861158Y-59720500D01*
X125018844Y-59720500D01*
X125018845Y-59720499D01*
X125173497Y-59689737D01*
X125319179Y-59629394D01*
X125450289Y-59541789D01*
X125561789Y-59430289D01*
X125649394Y-59299179D01*
X125709737Y-59153497D01*
X125740500Y-58998842D01*
X125740500Y-58841158D01*
X125740500Y-58841155D01*
X125740499Y-58841153D01*
X125709738Y-58686510D01*
X125709737Y-58686503D01*
X125702087Y-58668034D01*
X125649397Y-58540827D01*
X125649390Y-58540814D01*
X125561789Y-58409711D01*
X125561786Y-58409707D01*
X125450292Y-58298213D01*
X125450288Y-58298210D01*
X125319185Y-58210609D01*
X125319172Y-58210602D01*
X125173501Y-58150264D01*
X125173489Y-58150261D01*
X125018845Y-58119500D01*
X125018842Y-58119500D01*
X124861158Y-58119500D01*
X124861155Y-58119500D01*
X124706510Y-58150261D01*
X124706498Y-58150264D01*
X124560827Y-58210602D01*
X124560814Y-58210609D01*
X124429711Y-58298210D01*
X124429707Y-58298213D01*
X124318213Y-58409707D01*
X124318210Y-58409711D01*
X124230609Y-58540814D01*
X124230602Y-58540827D01*
X124203391Y-58606523D01*
X124159550Y-58660927D01*
X124093256Y-58682992D01*
X124025557Y-58665713D01*
X123977946Y-58614576D01*
X123966357Y-58578469D01*
X123966103Y-58576866D01*
X123961090Y-58545215D01*
X123883241Y-58305621D01*
X123883239Y-58305618D01*
X123883239Y-58305616D01*
X123834826Y-58210602D01*
X123768870Y-58081155D01*
X123749952Y-58055117D01*
X123620798Y-57877350D01*
X123620794Y-57877345D01*
X123442654Y-57699205D01*
X123442649Y-57699201D01*
X123238848Y-57551132D01*
X123238847Y-57551131D01*
X123238845Y-57551130D01*
X123168747Y-57515413D01*
X123014383Y-57436760D01*
X122774785Y-57358910D01*
X122525962Y-57319500D01*
X122274038Y-57319500D01*
X122149626Y-57339205D01*
X122025214Y-57358910D01*
X121785616Y-57436760D01*
X121561151Y-57551132D01*
X121357350Y-57699201D01*
X121357345Y-57699205D01*
X121179205Y-57877345D01*
X121179201Y-57877350D01*
X121031132Y-58081151D01*
X120916760Y-58305616D01*
X120838910Y-58545214D01*
X120799500Y-58794038D01*
X118361855Y-58794038D01*
X118253834Y-58645360D01*
X118253830Y-58645355D01*
X116927975Y-57319500D01*
X111712512Y-52104038D01*
X120819500Y-52104038D01*
X120819500Y-52355962D01*
X120844067Y-52511071D01*
X120858910Y-52604785D01*
X120936760Y-52844383D01*
X121051132Y-53068848D01*
X121119062Y-53162347D01*
X121142542Y-53228153D01*
X121126716Y-53296207D01*
X121106426Y-53322913D01*
X120977680Y-53451659D01*
X120885645Y-53600869D01*
X120885640Y-53600880D01*
X120830494Y-53767302D01*
X120820000Y-53870013D01*
X120820000Y-54520000D01*
X121929252Y-54520000D01*
X121907482Y-54557708D01*
X121870000Y-54697591D01*
X121870000Y-54842409D01*
X121907482Y-54982292D01*
X121929252Y-55020000D01*
X120820001Y-55020000D01*
X120820001Y-55669986D01*
X120830494Y-55772696D01*
X120830494Y-55772698D01*
X120885640Y-55939119D01*
X120885645Y-55939130D01*
X120977680Y-56088340D01*
X120977683Y-56088344D01*
X121101655Y-56212316D01*
X121101659Y-56212319D01*
X121250869Y-56304354D01*
X121250880Y-56304359D01*
X121417302Y-56359505D01*
X121520019Y-56369999D01*
X122169999Y-56369999D01*
X122170000Y-56369998D01*
X122170000Y-55260747D01*
X122207708Y-55282518D01*
X122347591Y-55320000D01*
X122492409Y-55320000D01*
X122632292Y-55282518D01*
X122670000Y-55260747D01*
X122670000Y-56369999D01*
X123319972Y-56369999D01*
X123319986Y-56369998D01*
X123422696Y-56359505D01*
X123422698Y-56359505D01*
X123589119Y-56304359D01*
X123589130Y-56304354D01*
X123738340Y-56212319D01*
X123738344Y-56212316D01*
X123862316Y-56088344D01*
X123862319Y-56088340D01*
X123954354Y-55939130D01*
X123954359Y-55939119D01*
X124009505Y-55772697D01*
X124019999Y-55669986D01*
X124019999Y-55212781D01*
X124039683Y-55145742D01*
X124092487Y-55099987D01*
X124161646Y-55090043D01*
X124225202Y-55119068D01*
X124245917Y-55144985D01*
X124247221Y-55144114D01*
X124338210Y-55280288D01*
X124338213Y-55280292D01*
X124449707Y-55391786D01*
X124449711Y-55391789D01*
X124580814Y-55479390D01*
X124580827Y-55479397D01*
X124726498Y-55539735D01*
X124726503Y-55539737D01*
X124881153Y-55570499D01*
X124881156Y-55570500D01*
X124881158Y-55570500D01*
X125038844Y-55570500D01*
X125038845Y-55570499D01*
X125193497Y-55539737D01*
X125339179Y-55479394D01*
X125470289Y-55391789D01*
X125581789Y-55280289D01*
X125669394Y-55149179D01*
X125729737Y-55003497D01*
X125760500Y-54848842D01*
X125760500Y-54691158D01*
X125760500Y-54691155D01*
X125760499Y-54691153D01*
X125729738Y-54536510D01*
X125729737Y-54536503D01*
X125710682Y-54490499D01*
X125669397Y-54390827D01*
X125669390Y-54390814D01*
X125581789Y-54259711D01*
X125581786Y-54259707D01*
X125470292Y-54148213D01*
X125470288Y-54148210D01*
X125339185Y-54060609D01*
X125339172Y-54060602D01*
X125193501Y-54000264D01*
X125193489Y-54000261D01*
X125038845Y-53969500D01*
X125038842Y-53969500D01*
X124881158Y-53969500D01*
X124881155Y-53969500D01*
X124726510Y-54000261D01*
X124726498Y-54000264D01*
X124580827Y-54060602D01*
X124580814Y-54060609D01*
X124449711Y-54148210D01*
X124449707Y-54148213D01*
X124338213Y-54259707D01*
X124338210Y-54259711D01*
X124247221Y-54395886D01*
X124244886Y-54394326D01*
X124204294Y-54435573D01*
X124136141Y-54450970D01*
X124070484Y-54427077D01*
X124028167Y-54371479D01*
X124019999Y-54327219D01*
X124019999Y-53870028D01*
X124019998Y-53870012D01*
X124009505Y-53767303D01*
X124009505Y-53767301D01*
X123954359Y-53600880D01*
X123954354Y-53600869D01*
X123862319Y-53451659D01*
X123862316Y-53451655D01*
X123733574Y-53322913D01*
X123700089Y-53261590D01*
X123705073Y-53191898D01*
X123720934Y-53162349D01*
X123788870Y-53068845D01*
X123903241Y-52844379D01*
X123981090Y-52604785D01*
X123986357Y-52571531D01*
X124016286Y-52508396D01*
X124075597Y-52471464D01*
X124145460Y-52472462D01*
X124203692Y-52511071D01*
X124223391Y-52543476D01*
X124250602Y-52609173D01*
X124250609Y-52609185D01*
X124338210Y-52740288D01*
X124338213Y-52740292D01*
X124449707Y-52851786D01*
X124449711Y-52851789D01*
X124580814Y-52939390D01*
X124580827Y-52939397D01*
X124726498Y-52999735D01*
X124726503Y-52999737D01*
X124881153Y-53030499D01*
X124881156Y-53030500D01*
X124881158Y-53030500D01*
X125038844Y-53030500D01*
X125038845Y-53030499D01*
X125193497Y-52999737D01*
X125339179Y-52939394D01*
X125470289Y-52851789D01*
X125581789Y-52740289D01*
X125669394Y-52609179D01*
X125729737Y-52463497D01*
X125760500Y-52308842D01*
X125760500Y-52151158D01*
X125760500Y-52151155D01*
X125760499Y-52151153D01*
X125740973Y-52052989D01*
X125729737Y-51996503D01*
X125725853Y-51987127D01*
X125669397Y-51850827D01*
X125669390Y-51850814D01*
X125581789Y-51719711D01*
X125581786Y-51719707D01*
X125470292Y-51608213D01*
X125470288Y-51608210D01*
X125339185Y-51520609D01*
X125339172Y-51520602D01*
X125193501Y-51460264D01*
X125193489Y-51460261D01*
X125038845Y-51429500D01*
X125038842Y-51429500D01*
X124881158Y-51429500D01*
X124881155Y-51429500D01*
X124726510Y-51460261D01*
X124726498Y-51460264D01*
X124580827Y-51520602D01*
X124580814Y-51520609D01*
X124449711Y-51608210D01*
X124449707Y-51608213D01*
X124338213Y-51719707D01*
X124338210Y-51719711D01*
X124250609Y-51850814D01*
X124250602Y-51850827D01*
X124223391Y-51916523D01*
X124179550Y-51970927D01*
X124113256Y-51992992D01*
X124045557Y-51975713D01*
X123997946Y-51924576D01*
X123986357Y-51888469D01*
X123985414Y-51882516D01*
X123981090Y-51855215D01*
X123903241Y-51615621D01*
X123903239Y-51615618D01*
X123903239Y-51615616D01*
X123852689Y-51516407D01*
X123788870Y-51391155D01*
X123724872Y-51303069D01*
X123640798Y-51187350D01*
X123640794Y-51187345D01*
X123462654Y-51009205D01*
X123462649Y-51009201D01*
X123258848Y-50861132D01*
X123258847Y-50861131D01*
X123258845Y-50861130D01*
X123158860Y-50810185D01*
X123034383Y-50746760D01*
X122794785Y-50668910D01*
X122545962Y-50629500D01*
X122294038Y-50629500D01*
X122261870Y-50634595D01*
X122045214Y-50668910D01*
X121805616Y-50746760D01*
X121581151Y-50861132D01*
X121377350Y-51009201D01*
X121377345Y-51009205D01*
X121199205Y-51187345D01*
X121199201Y-51187350D01*
X121051132Y-51391151D01*
X120936760Y-51615616D01*
X120858910Y-51855214D01*
X120833844Y-52013475D01*
X120819500Y-52104038D01*
X111712512Y-52104038D01*
X111644646Y-52036172D01*
X111644645Y-52036171D01*
X111580047Y-51989237D01*
X111537382Y-51933906D01*
X111529644Y-51902173D01*
X111527531Y-51882516D01*
X111477237Y-51747671D01*
X111477233Y-51747664D01*
X111390987Y-51632455D01*
X111390984Y-51632452D01*
X111275775Y-51546206D01*
X111275768Y-51546202D01*
X111140922Y-51495908D01*
X111140923Y-51495908D01*
X111081323Y-51489501D01*
X111081321Y-51489500D01*
X111081313Y-51489500D01*
X111081304Y-51489500D01*
X109785569Y-51489500D01*
X109785563Y-51489501D01*
X109725956Y-51495908D01*
X109591111Y-51546202D01*
X109591104Y-51546206D01*
X109475895Y-51632452D01*
X109475892Y-51632455D01*
X109389646Y-51747664D01*
X109389642Y-51747671D01*
X109339348Y-51882517D01*
X109332941Y-51942116D01*
X109332940Y-51942135D01*
X109332940Y-52365619D01*
X109331464Y-52373206D01*
X109332338Y-52377824D01*
X109327064Y-52395829D01*
X109323901Y-52412095D01*
X109321878Y-52417097D01*
X109274556Y-52509975D01*
X109234530Y-52633161D01*
X109232901Y-52637191D01*
X109213799Y-52661311D01*
X109196433Y-52686709D01*
X109192306Y-52688452D01*
X109189525Y-52691965D01*
X109160416Y-52701929D01*
X109132074Y-52713907D01*
X109127659Y-52713143D01*
X109123421Y-52714594D01*
X109093542Y-52707238D01*
X109063228Y-52701992D01*
X109059927Y-52698963D01*
X109055577Y-52697892D01*
X109034417Y-52675549D01*
X109011752Y-52654747D01*
X109010519Y-52650315D01*
X109007533Y-52647162D01*
X109003045Y-52623449D01*
X108993940Y-52590715D01*
X108993940Y-52503389D01*
X108988973Y-52472026D01*
X108966842Y-52332299D01*
X108913313Y-52167555D01*
X108834672Y-52013212D01*
X108732854Y-51873072D01*
X108610368Y-51750586D01*
X108470228Y-51648768D01*
X108315885Y-51570127D01*
X108151141Y-51516598D01*
X108151139Y-51516597D01*
X108151138Y-51516597D01*
X108019711Y-51495781D01*
X107980051Y-51489500D01*
X107806829Y-51489500D01*
X107767168Y-51495781D01*
X107635742Y-51516597D01*
X107470992Y-51570128D01*
X107316651Y-51648768D01*
X107236696Y-51706859D01*
X107176512Y-51750586D01*
X107176510Y-51750588D01*
X107176509Y-51750588D01*
X107054028Y-51873069D01*
X107054028Y-51873070D01*
X107054026Y-51873072D01*
X107033899Y-51900775D01*
X106952208Y-52013211D01*
X106873568Y-52167552D01*
X106820037Y-52332302D01*
X106792940Y-52503389D01*
X106453940Y-52503389D01*
X106426842Y-52332299D01*
X106373313Y-52167555D01*
X106351333Y-52124418D01*
X106338438Y-52055750D01*
X106364714Y-51991010D01*
X106414361Y-51953566D01*
X106541811Y-51900775D01*
X106656543Y-51824114D01*
X109963838Y-48516819D01*
X110025161Y-48483334D01*
X110051519Y-48480500D01*
X111510005Y-48480500D01*
X111510010Y-48480500D01*
X111612798Y-48469999D01*
X111779335Y-48414814D01*
X111928656Y-48322712D01*
X112052712Y-48198656D01*
X112144814Y-48049335D01*
X112199999Y-47882798D01*
X112210500Y-47780010D01*
X112210500Y-45979990D01*
X112199999Y-45877202D01*
X112144814Y-45710665D01*
X112052712Y-45561344D01*
X111928656Y-45437288D01*
X111779335Y-45345186D01*
X111612798Y-45290001D01*
X111612796Y-45290000D01*
X111510017Y-45279500D01*
X111510010Y-45279500D01*
X109709990Y-45279500D01*
X109709982Y-45279500D01*
X109607203Y-45290000D01*
X109607202Y-45290001D01*
X109556343Y-45306854D01*
X109440667Y-45345185D01*
X109440662Y-45345187D01*
X109291345Y-45437287D01*
X109162503Y-45566128D01*
X109101179Y-45599612D01*
X109031488Y-45594627D01*
X109001937Y-45578764D01*
X108908848Y-45511132D01*
X108908847Y-45511131D01*
X108908845Y-45511130D01*
X108838747Y-45475413D01*
X108684383Y-45396760D01*
X108444785Y-45318910D01*
X108368654Y-45306852D01*
X108195962Y-45279500D01*
X107944038Y-45279500D01*
X107877738Y-45290001D01*
X107695214Y-45318910D01*
X107455616Y-45396760D01*
X107231151Y-45511132D01*
X107027350Y-45659201D01*
X107027345Y-45659205D01*
X106887681Y-45798870D01*
X106826358Y-45832355D01*
X106756666Y-45827371D01*
X106712319Y-45798870D01*
X106572654Y-45659205D01*
X106572649Y-45659201D01*
X106368848Y-45511132D01*
X106368847Y-45511131D01*
X106368845Y-45511130D01*
X106298747Y-45475413D01*
X106144383Y-45396760D01*
X105904785Y-45318910D01*
X105828654Y-45306852D01*
X105655962Y-45279500D01*
X105404038Y-45279500D01*
X105337738Y-45290001D01*
X105155214Y-45318910D01*
X104915616Y-45396760D01*
X104691151Y-45511132D01*
X104487350Y-45659201D01*
X104487345Y-45659205D01*
X104347681Y-45798870D01*
X104286358Y-45832355D01*
X104216666Y-45827371D01*
X104172319Y-45798870D01*
X104032654Y-45659205D01*
X104032649Y-45659201D01*
X103828848Y-45511132D01*
X103828847Y-45511131D01*
X103828845Y-45511130D01*
X103758747Y-45475413D01*
X103604383Y-45396760D01*
X103364785Y-45318910D01*
X103288654Y-45306852D01*
X103115962Y-45279500D01*
X102864038Y-45279500D01*
X102797738Y-45290001D01*
X102615214Y-45318910D01*
X102375616Y-45396760D01*
X102151151Y-45511132D01*
X101947350Y-45659201D01*
X101947345Y-45659205D01*
X101807681Y-45798870D01*
X101746358Y-45832355D01*
X101676666Y-45827371D01*
X101632319Y-45798870D01*
X101492654Y-45659205D01*
X101492649Y-45659201D01*
X101288848Y-45511132D01*
X101288847Y-45511131D01*
X101288845Y-45511130D01*
X101218747Y-45475413D01*
X101064383Y-45396760D01*
X100824785Y-45318910D01*
X100748654Y-45306852D01*
X100575962Y-45279500D01*
X100324038Y-45279500D01*
X100257738Y-45290001D01*
X100075214Y-45318910D01*
X99835616Y-45396760D01*
X99611151Y-45511132D01*
X99407350Y-45659201D01*
X99407345Y-45659205D01*
X99267681Y-45798870D01*
X99206358Y-45832355D01*
X99136666Y-45827371D01*
X99092319Y-45798870D01*
X98952654Y-45659205D01*
X98952649Y-45659201D01*
X98748848Y-45511132D01*
X98748847Y-45511131D01*
X98748845Y-45511130D01*
X98678747Y-45475413D01*
X98524383Y-45396760D01*
X98284785Y-45318910D01*
X98208654Y-45306852D01*
X98035962Y-45279500D01*
X97784038Y-45279500D01*
X97717738Y-45290001D01*
X97535214Y-45318910D01*
X97295616Y-45396760D01*
X97071151Y-45511132D01*
X96867350Y-45659201D01*
X96867345Y-45659205D01*
X96689205Y-45837345D01*
X96689201Y-45837350D01*
X96541131Y-46041152D01*
X96527948Y-46067023D01*
X96505147Y-46098404D01*
X95893787Y-46709764D01*
X95882518Y-46667708D01*
X95810110Y-46542292D01*
X95707708Y-46439890D01*
X95582292Y-46367482D01*
X95540232Y-46356212D01*
X96310698Y-45585748D01*
X96208583Y-45511557D01*
X95984184Y-45397219D01*
X95744669Y-45319397D01*
X95495928Y-45280000D01*
X95244072Y-45280000D01*
X94995330Y-45319397D01*
X94755815Y-45397219D01*
X94531413Y-45511559D01*
X94429301Y-45585747D01*
X94429300Y-45585748D01*
X95199765Y-46356212D01*
X95157708Y-46367482D01*
X95032292Y-46439890D01*
X94929890Y-46542292D01*
X94857482Y-46667708D01*
X94846212Y-46709765D01*
X94075748Y-45939300D01*
X94075747Y-45939301D01*
X94001559Y-46041413D01*
X93887219Y-46265815D01*
X93809397Y-46505330D01*
X93770000Y-46754071D01*
X93770000Y-47005928D01*
X93809397Y-47254669D01*
X93887219Y-47494184D01*
X94001557Y-47718583D01*
X94075748Y-47820697D01*
X94075748Y-47820698D01*
X94846212Y-47050234D01*
X94857482Y-47092292D01*
X94929890Y-47217708D01*
X95032292Y-47320110D01*
X95157708Y-47392518D01*
X95199765Y-47403787D01*
X94411580Y-48191970D01*
X94411124Y-48194144D01*
X94362075Y-48243903D01*
X94301868Y-48259500D01*
X83671003Y-48259500D01*
X83562590Y-48281065D01*
X83562589Y-48281065D01*
X83535671Y-48286420D01*
X83408190Y-48339224D01*
X83293454Y-48415887D01*
X80675888Y-51033453D01*
X80675884Y-51033458D01*
X80653305Y-51067251D01*
X80647679Y-51075672D01*
X80623368Y-51112055D01*
X80599223Y-51148191D01*
X80546421Y-51275667D01*
X80546418Y-51275677D01*
X80519500Y-51411004D01*
X80519500Y-51446119D01*
X80499815Y-51513158D01*
X80447011Y-51558913D01*
X80377853Y-51568857D01*
X80357182Y-51564050D01*
X80211138Y-51516597D01*
X80079711Y-51495781D01*
X80040051Y-51489500D01*
X79866829Y-51489500D01*
X79827168Y-51495781D01*
X79695742Y-51516597D01*
X79530992Y-51570128D01*
X79376651Y-51648768D01*
X79296696Y-51706859D01*
X79236512Y-51750586D01*
X79236510Y-51750588D01*
X79236509Y-51750588D01*
X79114028Y-51873069D01*
X79114028Y-51873070D01*
X79114026Y-51873072D01*
X79093899Y-51900775D01*
X79012208Y-52013211D01*
X78933568Y-52167552D01*
X78880037Y-52332302D01*
X78852940Y-52503389D01*
X78513434Y-52503389D01*
X78486354Y-52332415D01*
X78432848Y-52167742D01*
X78354244Y-52013475D01*
X78252472Y-51873397D01*
X78130042Y-51750967D01*
X77989964Y-51649195D01*
X77835697Y-51570591D01*
X77671029Y-51517087D01*
X77671021Y-51517085D01*
X77663440Y-51515884D01*
X77663440Y-52674314D01*
X77659046Y-52669920D01*
X77567834Y-52617259D01*
X77466101Y-52590000D01*
X77360779Y-52590000D01*
X77259046Y-52617259D01*
X77167834Y-52669920D01*
X77163440Y-52674314D01*
X77163440Y-51515884D01*
X77163439Y-51515884D01*
X77155858Y-51517085D01*
X77155850Y-51517087D01*
X76991182Y-51570591D01*
X76836915Y-51649195D01*
X76696837Y-51750967D01*
X76574407Y-51873397D01*
X76472635Y-52013475D01*
X76394031Y-52167742D01*
X76340525Y-52332415D01*
X76313440Y-52503428D01*
X75973940Y-52503428D01*
X75973940Y-52503389D01*
X75946842Y-52332299D01*
X75893313Y-52167555D01*
X75814672Y-52013212D01*
X75712854Y-51873072D01*
X75590368Y-51750586D01*
X75450228Y-51648768D01*
X75295885Y-51570127D01*
X75131141Y-51516598D01*
X75131139Y-51516597D01*
X75131138Y-51516597D01*
X74999711Y-51495781D01*
X74960051Y-51489500D01*
X74786829Y-51489500D01*
X74747168Y-51495781D01*
X74615742Y-51516597D01*
X74450992Y-51570128D01*
X74296651Y-51648768D01*
X74216696Y-51706859D01*
X74156512Y-51750586D01*
X74156510Y-51750588D01*
X74156509Y-51750588D01*
X74034028Y-51873069D01*
X74034028Y-51873070D01*
X74034026Y-51873072D01*
X74013899Y-51900775D01*
X73932208Y-52013211D01*
X73853568Y-52167552D01*
X73800037Y-52332302D01*
X73772940Y-52503389D01*
X73433940Y-52503389D01*
X73406842Y-52332299D01*
X73353313Y-52167555D01*
X73274672Y-52013212D01*
X73172854Y-51873072D01*
X73050368Y-51750586D01*
X72910228Y-51648768D01*
X72755885Y-51570127D01*
X72591141Y-51516598D01*
X72591139Y-51516597D01*
X72591138Y-51516597D01*
X72459711Y-51495781D01*
X72420051Y-51489500D01*
X72246829Y-51489500D01*
X72207168Y-51495781D01*
X72075742Y-51516597D01*
X71910992Y-51570128D01*
X71756651Y-51648768D01*
X71676696Y-51706859D01*
X71616512Y-51750586D01*
X71616510Y-51750588D01*
X71616509Y-51750588D01*
X71494028Y-51873069D01*
X71494028Y-51873070D01*
X71494026Y-51873072D01*
X71473899Y-51900775D01*
X71392208Y-52013211D01*
X71313568Y-52167552D01*
X71260037Y-52332302D01*
X71232940Y-52503389D01*
X70893940Y-52503389D01*
X70866842Y-52332299D01*
X70813313Y-52167555D01*
X70734672Y-52013212D01*
X70632854Y-51873072D01*
X70510368Y-51750586D01*
X70370228Y-51648768D01*
X70215885Y-51570127D01*
X70051141Y-51516598D01*
X70051139Y-51516597D01*
X70051138Y-51516597D01*
X69919711Y-51495781D01*
X69880051Y-51489500D01*
X69706829Y-51489500D01*
X69667168Y-51495781D01*
X69535742Y-51516597D01*
X69370992Y-51570128D01*
X69216651Y-51648768D01*
X69136696Y-51706859D01*
X69076512Y-51750586D01*
X69076510Y-51750588D01*
X69076509Y-51750588D01*
X68954028Y-51873069D01*
X68954028Y-51873070D01*
X68954026Y-51873072D01*
X68933899Y-51900775D01*
X68852208Y-52013211D01*
X68773568Y-52167552D01*
X68720037Y-52332302D01*
X68692940Y-52503389D01*
X68353940Y-52503389D01*
X68326842Y-52332299D01*
X68273313Y-52167555D01*
X68194672Y-52013212D01*
X68092854Y-51873072D01*
X67970368Y-51750586D01*
X67830228Y-51648768D01*
X67675885Y-51570127D01*
X67511141Y-51516598D01*
X67511139Y-51516597D01*
X67511138Y-51516597D01*
X67379711Y-51495781D01*
X67340051Y-51489500D01*
X67166829Y-51489500D01*
X67127168Y-51495781D01*
X66995742Y-51516597D01*
X66830992Y-51570128D01*
X66676651Y-51648768D01*
X66596696Y-51706859D01*
X66536512Y-51750586D01*
X66536510Y-51750588D01*
X66536509Y-51750588D01*
X66414028Y-51873069D01*
X66414028Y-51873070D01*
X66414026Y-51873072D01*
X66393899Y-51900775D01*
X66312208Y-52013211D01*
X66233568Y-52167550D01*
X66205871Y-52252795D01*
X66166433Y-52310470D01*
X66102074Y-52337668D01*
X66033228Y-52325753D01*
X65981752Y-52278509D01*
X65963940Y-52214476D01*
X65963940Y-51859336D01*
X65983625Y-51792297D01*
X66000259Y-51771655D01*
X66703995Y-51067919D01*
X66765318Y-51034434D01*
X66791676Y-51031600D01*
X73827321Y-51031600D01*
X74021725Y-51000809D01*
X74032915Y-50997173D01*
X74208925Y-50939984D01*
X74384304Y-50850624D01*
X74543545Y-50734928D01*
X76483828Y-48794645D01*
X76566223Y-48681238D01*
X76599524Y-48635404D01*
X76688884Y-48460024D01*
X76690561Y-48454861D01*
X76729996Y-48397184D01*
X76743393Y-48387638D01*
X76848656Y-48322712D01*
X76972712Y-48198656D01*
X77064814Y-48049335D01*
X77119999Y-47882798D01*
X77130500Y-47780010D01*
X77130500Y-45979990D01*
X77119999Y-45877202D01*
X77064814Y-45710665D01*
X76972712Y-45561344D01*
X76848656Y-45437288D01*
X76699335Y-45345186D01*
X76532798Y-45290001D01*
X76532796Y-45290000D01*
X76430017Y-45279500D01*
X76430010Y-45279500D01*
X75973575Y-45279500D01*
X75906536Y-45259815D01*
X75860781Y-45207011D01*
X75850837Y-45137853D01*
X75879862Y-45074297D01*
X75904684Y-45052398D01*
X75972259Y-45007245D01*
X76040289Y-44961789D01*
X76151789Y-44850289D01*
X76239394Y-44719179D01*
X76299737Y-44573497D01*
X76330500Y-44418842D01*
X76330500Y-44261158D01*
X76330500Y-44261155D01*
X76330499Y-44261153D01*
X76318522Y-44200941D01*
X76299737Y-44106503D01*
X76243878Y-43971646D01*
X76239397Y-43960827D01*
X76239390Y-43960814D01*
X76151789Y-43829711D01*
X76151786Y-43829707D01*
X76040292Y-43718213D01*
X76040288Y-43718210D01*
X75934616Y-43647602D01*
X75889811Y-43593990D01*
X75881104Y-43524665D01*
X75911258Y-43461637D01*
X75970702Y-43424918D01*
X76003507Y-43420500D01*
X121469604Y-43420500D01*
X121536643Y-43440185D01*
G37*
%TD.AperFunction*%
%TA.AperFunction,Conductor*%
G36*
X72583532Y-43440185D02*
G01*
X72629287Y-43492989D01*
X72639231Y-43562147D01*
X72610206Y-43625703D01*
X72585384Y-43647602D01*
X72479711Y-43718210D01*
X72479707Y-43718213D01*
X72368213Y-43829707D01*
X72368210Y-43829711D01*
X72280609Y-43960814D01*
X72280602Y-43960827D01*
X72220264Y-44106498D01*
X72220261Y-44106510D01*
X72189500Y-44261153D01*
X72189500Y-44418846D01*
X72220261Y-44573489D01*
X72220264Y-44573501D01*
X72280602Y-44719172D01*
X72280609Y-44719185D01*
X72368210Y-44850288D01*
X72368213Y-44850292D01*
X72479707Y-44961786D01*
X72479711Y-44961789D01*
X72610814Y-45049390D01*
X72610827Y-45049397D01*
X72677405Y-45076974D01*
X72731809Y-45120814D01*
X72753874Y-45187108D01*
X72736595Y-45254808D01*
X72685458Y-45302419D01*
X72649353Y-45314008D01*
X72615329Y-45319397D01*
X72375815Y-45397219D01*
X72151413Y-45511559D01*
X72049301Y-45585747D01*
X72049300Y-45585748D01*
X72819765Y-46356212D01*
X72777708Y-46367482D01*
X72652292Y-46439890D01*
X72549890Y-46542292D01*
X72477482Y-46667708D01*
X72466212Y-46709765D01*
X71695748Y-45939300D01*
X71695747Y-45939301D01*
X71621559Y-46041413D01*
X71507219Y-46265815D01*
X71429397Y-46505330D01*
X71390000Y-46754071D01*
X71390000Y-47005928D01*
X71429397Y-47254669D01*
X71507219Y-47494184D01*
X71621557Y-47718583D01*
X71695748Y-47820697D01*
X71695748Y-47820698D01*
X72466212Y-47050234D01*
X72477482Y-47092292D01*
X72549890Y-47217708D01*
X72652292Y-47320110D01*
X72777708Y-47392518D01*
X72819764Y-47403787D01*
X72049300Y-48174250D01*
X72151416Y-48248442D01*
X72244978Y-48296115D01*
X72295774Y-48344090D01*
X72312569Y-48411911D01*
X72290031Y-48478046D01*
X72235316Y-48521497D01*
X72188683Y-48530600D01*
X66341373Y-48530600D01*
X66274334Y-48510915D01*
X66228579Y-48458111D01*
X66218635Y-48388953D01*
X66238271Y-48337709D01*
X66248293Y-48322710D01*
X66384447Y-48118942D01*
X66537315Y-47832947D01*
X66661414Y-47533346D01*
X66755549Y-47223023D01*
X66755551Y-47223013D01*
X66755554Y-47223002D01*
X66809377Y-46952409D01*
X66818814Y-46904968D01*
X66828405Y-46807591D01*
X66835353Y-46737051D01*
X66850600Y-46582239D01*
X66850600Y-46257960D01*
X66818815Y-45935242D01*
X66818814Y-45935241D01*
X66818814Y-45935232D01*
X66791690Y-45798870D01*
X66755554Y-45617197D01*
X66755551Y-45617186D01*
X66755550Y-45617183D01*
X66755549Y-45617177D01*
X66661414Y-45306854D01*
X66537315Y-45007253D01*
X66513012Y-44961786D01*
X66384453Y-44721269D01*
X66384452Y-44721267D01*
X66384447Y-44721258D01*
X66204283Y-44451624D01*
X65998558Y-44200947D01*
X65998557Y-44200946D01*
X65998553Y-44200941D01*
X65769258Y-43971646D01*
X65518581Y-43765921D01*
X65518580Y-43765920D01*
X65518576Y-43765917D01*
X65341504Y-43647601D01*
X65296700Y-43593990D01*
X65287993Y-43524665D01*
X65318147Y-43461638D01*
X65377590Y-43424918D01*
X65410396Y-43420500D01*
X72516493Y-43420500D01*
X72583532Y-43440185D01*
G37*
%TD.AperFunction*%
%TD*%
M02*
