M48
; DRILL file {KiCad 9.0.3} date 2026-02-04T08:11:35+0200
; FORMAT={-:-/ absolute / metric / decimal}
; #@! TF.CreationDate,2026-02-04T08:11:35+02:00
; #@! TF.GenerationSoftware,Kicad,Pcbnew,9.0.3
; #@! TF.FileFunction,Plated,1,2,PTH
FMAT,2
METRIC
; #@! TA.AperFunction,Plated,PTH,ViaDrill
T1C0.300
; #@! TA.AperFunction,Plated,PTH,ComponentDrill
T2C0.800
; #@! TA.AperFunction,Plated,PTH,ComponentDrill
T3C0.950
; #@! TA.AperFunction,Plated,PTH,ComponentDrill
T4C1.000
; #@! TA.AperFunction,Plated,PTH,ComponentDrill
T5C1.100
; #@! TA.AperFunction,Plated,PTH,ComponentDrill
T6C3.200
%
G90
G05
T1
X61.28Y-95.47
X63.61Y-83.98
X63.85Y-89.29
X64.6Y-91.57
X65.11Y-59.03
X65.16Y-56.72
X65.25Y-62.95
X65.25Y-66.18
X65.58Y-75.13
X65.73Y-70.28
X65.78Y-80.61
X66.02Y-94.64
X66.92Y-43.97
X67.34Y-47.95
X67.79Y-55.48
X68.29Y-45.53
X68.39Y-59.31
X68.51Y-47.91
X68.64Y-80.61
X68.74Y-74.58
X68.74Y-93.93
X69.09Y-99.97
X69.13Y-62.63
X69.31Y-65.12
X69.5Y-68.48
X70.32Y-71.72
X70.39Y-45.02
X70.42Y-44.03
X71.57Y-55.52
X72.63Y-62.63
X72.95Y-59.35
X72.95Y-64.84
X73.05Y-68.25
X73.23Y-56.63
X73.78Y-70.73
X76.04Y-56.82
X76.23Y-59.35
X76.27Y-62.58
X76.41Y-65.85
X76.41Y-68.07
X77.49Y-70.68
X77.97Y-99.14
X78.4Y-43.9
X79.13Y-56.86
X79.13Y-59.26
X79.18Y-62.58
X79.27Y-68.85
X79.32Y-65.85
X79.8Y-46.35
X79.8Y-48.45
X79.82Y-95.13
X80.06Y-85.1
X80.12Y-88.42
X81.32Y-89.58
X81.49Y-43.96
X82.09Y-46.03
X82.22Y-48.57
X84.01Y-101.45
X84.35Y-47.78
X84.54Y-98.01
X84.89Y-44.12
X85.28Y-45.87
X85.31Y-56.77
X85.8Y-93.13
X86.48Y-47.75
X86.48Y-89.04
X86.84Y-73.91
X87.79Y-45.58
X88.28Y-93.13
X88.49Y-57.18
X88.62Y-47.68
X88.87Y-44.02
X88.88Y-76.53
X89.74Y-89.03
X90.13Y-101.7
X90.46Y-47.65
X90.87Y-45.49
X90.98Y-95.47
X91.34Y-73.6
X91.9Y-57.28
X92.12Y-43.87
X92.18Y-47.71
X93.26Y-47.71
X94.14Y-97.38
X94.31Y-73.64
X95.09Y-57.09
X95.14Y-101.54
X95.15Y-91.44
X96.53Y-76.38
X96.92Y-73.6
X100.2Y-56.95
X100.2Y-58.71
X100.25Y-63.41
X100.25Y-72.78
X100.3Y-65.16
X102.15Y-85.92
X102.92Y-55.76
X103.06Y-62.26
X103.11Y-58.2
X103.25Y-72.82
X103.61Y-76.14
X103.7Y-82.77
X103.8Y-66.82
X104.95Y-98.02
X105.03Y-100.66
X105.14Y-65.12
X105.41Y-56.77
X105.56Y-69.32
X106.61Y-55.2
X106.7Y-58.29
X106.85Y-80.59
X107.67Y-61.61
X107.94Y-73.17
X108.06Y-66.9
X108.65Y-69.36
X108.69Y-56.59
X108.8Y-83.33
X109.1Y-64.29
X109.56Y-58.2
X109.7Y-55.11
X109.96Y-66.86
X110.25Y-81.22
X110.3Y-69.45
X110.68Y-75.75
X110.95Y-57.18
X112.08Y-73.69
X112.1Y-61.52
X112.13Y-71.82
X112.17Y-69.41
X112.28Y-81.18
X112.34Y-66.9
X112.72Y-52.13
X113.15Y-48.31
X113.18Y-44.97
X113.25Y-50.45
X113.28Y-43.89
X114.02Y-59.98
X114.52Y-53.73
X114.94Y-81.1
X115.09Y-79.85
X115.12Y-50.86
X115.39Y-67.29
X115.43Y-69.02
X115.52Y-63.56
X115.52Y-71.86
X115.54Y-75.39
X115.6Y-74.07
X115.65Y-77.09
X115.86Y-53.37
X116.56Y-43.83
X117.45Y-50.8
X117.64Y-51.94
X118.24Y-56.55
X119.58Y-46.18
X120.09Y-43.76
X120.53Y-49.05
X120.55Y-96.49
X121.53Y-95.6
X121.62Y-92.88
X122.55Y-84.21
X125.36Y-83.97
X125.78Y-86.96
X125.84Y-49.75
X125.87Y-95.74
X125.9Y-91.21
T2
X64.713Y-52.99
X64.716Y-78.386
X67.253Y-52.99
X67.256Y-78.386
X69.793Y-52.99
X69.793Y-78.39
X72.333Y-52.99
X72.333Y-78.39
X74.873Y-52.99
X74.873Y-78.39
X77.413Y-52.99
X77.413Y-78.39
X79.953Y-52.99
X79.953Y-78.39
X82.493Y-52.99
X82.493Y-78.39
X83.462Y-59.66
X83.462Y-67.28
X85.033Y-52.99
X85.033Y-78.39
X86.806Y-59.66
X86.806Y-67.28
X87.573Y-52.99
X87.573Y-78.39
X90.113Y-52.99
X90.113Y-78.39
X90.15Y-59.66
X90.15Y-67.28
X92.653Y-52.99
X92.653Y-78.39
X93.494Y-59.66
X93.494Y-67.28
X95.193Y-52.99
X95.193Y-78.39
X96.837Y-59.66
X96.837Y-67.28
X97.733Y-52.99
X97.733Y-78.39
X100.273Y-52.99
X100.273Y-78.39
X102.813Y-52.99
X102.813Y-78.39
X105.353Y-52.99
X105.353Y-78.39
X107.893Y-52.99
X107.893Y-78.39
X110.433Y-52.99
X110.433Y-78.39
X110.985Y-82.827
X110.985Y-90.447
X114.155Y-82.87
X114.155Y-90.49
X117.3Y-82.91
X117.3Y-90.53
T3
X66.61Y-84.22
X69.11Y-84.22
X71.61Y-84.22
X74.11Y-84.22
X76.61Y-84.22
T4
X82.46Y-83.79
X85.0Y-83.79
X87.54Y-83.79
X90.08Y-83.79
X92.62Y-83.79
X95.16Y-83.79
T5
X72.99Y-46.88
X75.53Y-46.88
X95.37Y-46.88
X97.91Y-46.88
X99.75Y-99.3
X100.45Y-46.88
X102.29Y-99.3
X102.99Y-46.88
X105.53Y-46.88
X107.8Y-99.3
X108.07Y-46.88
X110.34Y-99.3
X110.61Y-46.88
X112.88Y-99.3
X115.42Y-99.3
X117.96Y-99.3
X122.29Y-72.04
X122.29Y-74.58
X122.29Y-78.83
X122.29Y-81.37
X122.34Y-65.47
X122.34Y-68.01
X122.4Y-58.92
X122.4Y-61.46
X122.42Y-52.23
X122.42Y-54.77
T6
X63.55Y-46.42
X63.55Y-99.4
X123.33Y-46.42
X123.33Y-99.4
M30
