%TF.GenerationSoftware,KiCad,Pcbnew,9.0.3*%
%TF.CreationDate,2026-02-04T08:11:38+02:00*%
%TF.ProjectId,Steering Wheel,53746565-7269-46e6-9720-576865656c2e,rev?*%
%TF.SameCoordinates,Original*%
%TF.FileFunction,Soldermask,Top*%
%TF.FilePolarity,Negative*%
%FSLAX46Y46*%
G04 Gerber Fmt 4.6, Leading zero omitted, Abs format (unit mm)*
G04 Created by KiCad (PCBNEW 9.0.3) date 2026-02-04 08:11:38*
%MOMM*%
%LPD*%
G01*
G04 APERTURE LIST*
G04 Aperture macros list*
%AMRoundRect*
0 Rectangle with rounded corners*
0 $1 Rounding radius*
0 $2 $3 $4 $5 $6 $7 $8 $9 X,Y pos of 4 corners*
0 Add a 4 corners polygon primitive as box body*
4,1,4,$2,$3,$4,$5,$6,$7,$8,$9,$2,$3,0*
0 Add four circle primitives for the rounded corners*
1,1,$1+$1,$2,$3*
1,1,$1+$1,$4,$5*
1,1,$1+$1,$6,$7*
1,1,$1+$1,$8,$9*
0 Add four rect primitives between the rounded corners*
20,1,$1+$1,$2,$3,$4,$5,0*
20,1,$1+$1,$4,$5,$6,$7,0*
20,1,$1+$1,$6,$7,$8,$9,0*
20,1,$1+$1,$8,$9,$2,$3,0*%
G04 Aperture macros list end*
%ADD10R,1.700000X1.700000*%
%ADD11C,1.700000*%
%ADD12C,1.600000*%
%ADD13R,1.200000X2.000000*%
%ADD14O,1.200000X2.000000*%
%ADD15C,1.100000*%
%ADD16RoundRect,0.249999X0.850001X-0.850001X0.850001X0.850001X-0.850001X0.850001X-0.850001X-0.850001X0*%
%ADD17C,2.200000*%
%ADD18C,3.600000*%
%ADD19C,5.600000*%
%ADD20C,1.200000*%
%ADD21RoundRect,0.250000X-0.600000X-0.725000X0.600000X-0.725000X0.600000X0.725000X-0.600000X0.725000X0*%
%ADD22O,1.700000X1.950000*%
%ADD23C,1.500000*%
%ADD24RoundRect,0.249999X0.850001X0.850001X-0.850001X0.850001X-0.850001X-0.850001X0.850001X-0.850001X0*%
%ADD25RoundRect,0.249999X-0.850001X-0.850001X0.850001X-0.850001X0.850001X0.850001X-0.850001X0.850001X0*%
%ADD26R,1.500000X1.000000*%
G04 APERTURE END LIST*
%TO.C,JP1*%
G36*
X121145000Y-86840000D02*
G01*
X119645000Y-86840000D01*
X119645000Y-87140000D01*
X121145000Y-87140000D01*
X121145000Y-86840000D01*
G37*
%TD*%
D10*
%TO.C,J1*%
X82460000Y-83790000D03*
D11*
X85000000Y-83790000D03*
X87540000Y-83790000D03*
X90080000Y-83790000D03*
X92620000Y-83790000D03*
X95160000Y-83790000D03*
%TD*%
D12*
%TO.C,R1*%
X96837500Y-67280000D03*
X96837500Y-59660000D03*
%TD*%
D13*
%TO.C,U2*%
X110433440Y-52990000D03*
D14*
X107893440Y-52990000D03*
X105353440Y-52990000D03*
X102813440Y-52990000D03*
X100273440Y-52990000D03*
X97733440Y-52990000D03*
X95193440Y-52990000D03*
X92653440Y-52990000D03*
X90113440Y-52990000D03*
X87573440Y-52990000D03*
X85033440Y-52990000D03*
X82493440Y-52990000D03*
X79953440Y-52990000D03*
X77413440Y-52990000D03*
X74873440Y-52990000D03*
X72333440Y-52990000D03*
X69793440Y-52990000D03*
X67253440Y-52990000D03*
X64713440Y-52990000D03*
X64716160Y-78386320D03*
X67256160Y-78386320D03*
X69793440Y-78390000D03*
X72333440Y-78390000D03*
X74873440Y-78390000D03*
X77413440Y-78390000D03*
X79953440Y-78390000D03*
X82493440Y-78390000D03*
X85033440Y-78390000D03*
X87573440Y-78390000D03*
X90113440Y-78390000D03*
X92653440Y-78390000D03*
X95193440Y-78390000D03*
X97733440Y-78390000D03*
X100273440Y-78390000D03*
X102813440Y-78390000D03*
X105353440Y-78390000D03*
X107893440Y-78390000D03*
X110433440Y-78390000D03*
%TD*%
D15*
%TO.C,SW2*%
X124940000Y-61460000D03*
X124940000Y-58920000D03*
D16*
X122400000Y-61460000D03*
D17*
X122400000Y-58920000D03*
%TD*%
D18*
%TO.C,H4*%
X63550100Y-99399900D03*
D19*
X63550100Y-99399900D03*
%TD*%
D15*
%TO.C,SW5*%
X124830000Y-81370000D03*
X124830000Y-78830000D03*
D16*
X122290000Y-81370000D03*
D17*
X122290000Y-78830000D03*
%TD*%
D12*
%TO.C,R8*%
X117300000Y-82910000D03*
X117300000Y-90530000D03*
%TD*%
D20*
%TO.C,J5*%
X65010000Y-86220000D03*
D21*
X66610000Y-84220000D03*
D22*
X69110000Y-84220000D03*
X71610000Y-84220000D03*
X74110000Y-84220000D03*
X76610000Y-84220000D03*
%TD*%
D23*
%TO.C,TP3*%
X120265000Y-90670000D03*
%TD*%
D15*
%TO.C,J4*%
X75530000Y-44340000D03*
X72990000Y-44340000D03*
D24*
X75530000Y-46880000D03*
D17*
X72990000Y-46880000D03*
%TD*%
D15*
%TO.C,J2*%
X99750000Y-101840000D03*
X102290000Y-101840000D03*
D25*
X99750000Y-99300000D03*
D17*
X102290000Y-99300000D03*
%TD*%
D26*
%TO.C,JP1*%
X120395000Y-86340000D03*
X120395000Y-87640000D03*
%TD*%
D25*
%TO.C,J3*%
X107800000Y-99300000D03*
D17*
X110340000Y-99300000D03*
X112880000Y-99300000D03*
X115420000Y-99300000D03*
X117960000Y-99300000D03*
%TD*%
D23*
%TO.C,TP1*%
X107435000Y-90460000D03*
%TD*%
%TO.C,TP5*%
X102420000Y-89830000D03*
%TD*%
%TO.C,SW7*%
X114180000Y-46860000D03*
%TD*%
D12*
%TO.C,R3*%
X90150000Y-67280000D03*
X90150000Y-59660000D03*
%TD*%
%TO.C,R6*%
X114155000Y-82870000D03*
X114155000Y-90490000D03*
%TD*%
%TO.C,R4*%
X86806250Y-67280000D03*
X86806250Y-59660000D03*
%TD*%
D15*
%TO.C,SW4*%
X124830000Y-74580000D03*
X124830000Y-72040000D03*
D16*
X122290000Y-74580000D03*
D17*
X122290000Y-72040000D03*
%TD*%
D18*
%TO.C,H3*%
X123329900Y-99399900D03*
D19*
X123329900Y-99399900D03*
%TD*%
D18*
%TO.C,H1*%
X63550100Y-46420100D03*
D19*
X63550100Y-46420100D03*
%TD*%
D12*
%TO.C,R7*%
X110985000Y-82827143D03*
X110985000Y-90447143D03*
%TD*%
D23*
%TO.C,TP4*%
X99520000Y-89800000D03*
%TD*%
D15*
%TO.C,SW3*%
X124880000Y-68010000D03*
X124880000Y-65470000D03*
D16*
X122340000Y-68010000D03*
D17*
X122340000Y-65470000D03*
%TD*%
D15*
%TO.C,SW1*%
X124960000Y-54770000D03*
X124960000Y-52230000D03*
D16*
X122420000Y-54770000D03*
D17*
X122420000Y-52230000D03*
%TD*%
D18*
%TO.C,H2*%
X123329900Y-46420100D03*
D19*
X123329900Y-46420100D03*
%TD*%
D24*
%TO.C,SW6*%
X110610000Y-46880000D03*
D17*
X108070000Y-46880000D03*
X105530000Y-46880000D03*
X102990000Y-46880000D03*
X100450000Y-46880000D03*
X97910000Y-46880000D03*
X95370000Y-46880000D03*
%TD*%
D12*
%TO.C,R2*%
X93493750Y-67280000D03*
X93493750Y-59660000D03*
%TD*%
%TO.C,R5*%
X83462500Y-67280000D03*
X83462500Y-59660000D03*
%TD*%
D23*
%TO.C,TP2*%
X107365000Y-87040000D03*
%TD*%
M02*
