%TF.GenerationSoftware,KiCad,Pcbnew,9.0.3*%
%TF.CreationDate,2026-02-02T13:01:33+02:00*%
%TF.ProjectId,Steering Wheel,53746565-7269-46e6-9720-576865656c2e,rev?*%
%TF.SameCoordinates,Original*%
%TF.FileFunction,Copper,L1,Top*%
%TF.FilePolarity,Positive*%
%FSLAX46Y46*%
G04 Gerber Fmt 4.6, Leading zero omitted, Abs format (unit mm)*
G04 Created by KiCad (PCBNEW 9.0.3) date 2026-02-02 13:01:33*
%MOMM*%
%LPD*%
G01*
G04 APERTURE LIST*
G04 Aperture macros list*
%AMRoundRect*
0 Rectangle with rounded corners*
0 $1 Rounding radius*
0 $2 $3 $4 $5 $6 $7 $8 $9 X,Y pos of 4 corners*
0 Add a 4 corners polygon primitive as box body*
4,1,4,$2,$3,$4,$5,$6,$7,$8,$9,$2,$3,0*
0 Add four circle primitives for the rounded corners*
1,1,$1+$1,$2,$3*
1,1,$1+$1,$4,$5*
1,1,$1+$1,$6,$7*
1,1,$1+$1,$8,$9*
0 Add four rect primitives between the rounded corners*
20,1,$1+$1,$2,$3,$4,$5,0*
20,1,$1+$1,$4,$5,$6,$7,0*
20,1,$1+$1,$6,$7,$8,$9,0*
20,1,$1+$1,$8,$9,$2,$3,0*%
G04 Aperture macros list end*
%TA.AperFunction,ComponentPad*%
%ADD10R,1.700000X1.700000*%
%TD*%
%TA.AperFunction,ComponentPad*%
%ADD11C,1.700000*%
%TD*%
%TA.AperFunction,ComponentPad*%
%ADD12C,1.600000*%
%TD*%
%TA.AperFunction,ComponentPad*%
%ADD13R,1.200000X2.000000*%
%TD*%
%TA.AperFunction,ComponentPad*%
%ADD14O,1.200000X2.000000*%
%TD*%
%TA.AperFunction,ComponentPad*%
%ADD15RoundRect,0.249999X0.850001X-0.850001X0.850001X0.850001X-0.850001X0.850001X-0.850001X-0.850001X0*%
%TD*%
%TA.AperFunction,ComponentPad*%
%ADD16C,2.200000*%
%TD*%
%TA.AperFunction,ComponentPad*%
%ADD17C,3.600000*%
%TD*%
%TA.AperFunction,ConnectorPad*%
%ADD18C,5.600000*%
%TD*%
%TA.AperFunction,ComponentPad*%
%ADD19RoundRect,0.250000X-0.600000X-0.725000X0.600000X-0.725000X0.600000X0.725000X-0.600000X0.725000X0*%
%TD*%
%TA.AperFunction,ComponentPad*%
%ADD20O,1.700000X1.950000*%
%TD*%
%TA.AperFunction,SMDPad,CuDef*%
%ADD21C,1.500000*%
%TD*%
%TA.AperFunction,ComponentPad*%
%ADD22RoundRect,0.249999X0.850001X0.850001X-0.850001X0.850001X-0.850001X-0.850001X0.850001X-0.850001X0*%
%TD*%
%TA.AperFunction,ComponentPad*%
%ADD23RoundRect,0.249999X-0.850001X-0.850001X0.850001X-0.850001X0.850001X0.850001X-0.850001X0.850001X0*%
%TD*%
%TA.AperFunction,SMDPad,CuDef*%
%ADD24R,1.500000X1.000000*%
%TD*%
%TA.AperFunction,ViaPad*%
%ADD25C,0.600000*%
%TD*%
%TA.AperFunction,Conductor*%
%ADD26C,0.400000*%
%TD*%
%TA.AperFunction,Conductor*%
%ADD27C,0.500000*%
%TD*%
%TA.AperFunction,Conductor*%
%ADD28C,0.200000*%
%TD*%
%TA.AperFunction,Conductor*%
%ADD29C,0.300000*%
%TD*%
%TA.AperFunction,Conductor*%
%ADD30C,1.500000*%
%TD*%
G04 APERTURE END LIST*
D10*
%TO.P,J1,1,Pin_1*%
%TO.N,+5V*%
X82460000Y-83790000D03*
D11*
%TO.P,J1,2,Pin_2*%
%TO.N,GND*%
X85000000Y-83790000D03*
%TO.P,J1,3,Pin_3*%
%TO.N,/Rx*%
X87540000Y-83790000D03*
%TO.P,J1,4,Pin_4*%
%TO.N,/Tx*%
X90080000Y-83790000D03*
%TO.P,J1,5,Pin_5*%
%TO.N,/CANH*%
X92620000Y-83790000D03*
%TO.P,J1,6,Pin_6*%
%TO.N,/CANL*%
X95160000Y-83790000D03*
%TD*%
D12*
%TO.P,R1,1*%
%TO.N,Net-(R1-Pad1)*%
X96837500Y-67280000D03*
%TO.P,R1,2*%
%TO.N,/Button1*%
X96837500Y-59660000D03*
%TD*%
D13*
%TO.P,U2,1,3V3*%
%TO.N,+3.3V*%
X110433440Y-52990000D03*
D14*
%TO.P,U2,2,CHIP_PU*%
%TO.N,unconnected-(U2-CHIP_PU-Pad2)*%
X107893440Y-52990000D03*
%TO.P,U2,3,SENSOR_VP/GPIO36/ADC1_CH0*%
%TO.N,unconnected-(U2-SENSOR_VP{slash}GPIO36{slash}ADC1_CH0-Pad3)*%
X105353440Y-52990000D03*
%TO.P,U2,4,SENSOR_VN/GPIO39/ADC1_CH3*%
%TO.N,unconnected-(U2-SENSOR_VN{slash}GPIO39{slash}ADC1_CH3-Pad4)*%
X102813440Y-52990000D03*
%TO.P,U2,5,VDET_1/GPIO34/ADC1_CH6*%
%TO.N,unconnected-(U2-VDET_1{slash}GPIO34{slash}ADC1_CH6-Pad5)*%
X100273440Y-52990000D03*
%TO.P,U2,6,VDET_2/GPIO35/ADC1_CH7*%
%TO.N,unconnected-(U2-VDET_2{slash}GPIO35{slash}ADC1_CH7-Pad6)*%
X97733440Y-52990000D03*
%TO.P,U2,7,32K_XP/GPIO32/ADC1_CH4*%
%TO.N,/Button1*%
X95193440Y-52990000D03*
%TO.P,U2,8,32K_XN/GPIO33/ADC1_CH5*%
%TO.N,/Button2*%
X92653440Y-52990000D03*
%TO.P,U2,9,DAC_1/ADC2_CH8/GPIO25*%
%TO.N,/Button3*%
X90113440Y-52990000D03*
%TO.P,U2,10,DAC_2/ADC2_CH9/GPIO26*%
%TO.N,/Button4*%
X87573440Y-52990000D03*
%TO.P,U2,11,ADC2_CH7/GPIO27*%
%TO.N,/Button5*%
X85033440Y-52990000D03*
%TO.P,U2,12,MTMS/GPIO14/ADC2_CH6*%
%TO.N,/SW5*%
X82493440Y-52990000D03*
%TO.P,U2,13,MTDI/GPIO12/ADC2_CH5*%
%TO.N,unconnected-(U2-MTDI{slash}GPIO12{slash}ADC2_CH5-Pad13)*%
X79953440Y-52990000D03*
%TO.P,U2,14,GND*%
%TO.N,GND*%
X77413440Y-52990000D03*
%TO.P,U2,15,MTCK/GPIO13/ADC2_CH4*%
%TO.N,/SW4*%
X74873440Y-52990000D03*
%TO.P,U2,16,SD_DATA2/GPIO9*%
%TO.N,unconnected-(U2-SD_DATA2{slash}GPIO9-Pad16)*%
X72333440Y-52990000D03*
%TO.P,U2,17,SD_DATA3/GPIO10*%
%TO.N,unconnected-(U2-SD_DATA3{slash}GPIO10-Pad17)*%
X69793440Y-52990000D03*
%TO.P,U2,18,CMD*%
%TO.N,unconnected-(U2-CMD-Pad18)*%
X67253440Y-52990000D03*
%TO.P,U2,19,5V*%
%TO.N,+5V*%
X64713440Y-52990000D03*
%TO.P,U2,20,SD_CLK/GPIO6*%
%TO.N,unconnected-(U2-SD_CLK{slash}GPIO6-Pad20)*%
X64716160Y-78386320D03*
%TO.P,U2,21,SD_DATA0/GPIO7*%
%TO.N,unconnected-(U2-SD_DATA0{slash}GPIO7-Pad21)*%
X67256160Y-78386320D03*
%TO.P,U2,22,SD_DATA1/GPIO8*%
%TO.N,unconnected-(U2-SD_DATA1{slash}GPIO8-Pad22)*%
X69793440Y-78390000D03*
%TO.P,U2,23,MTDO/GPIO15/ADC2_CH3*%
%TO.N,unconnected-(U2-MTDO{slash}GPIO15{slash}ADC2_CH3-Pad23)*%
X72333440Y-78390000D03*
%TO.P,U2,24,ADC2_CH2/GPIO2*%
%TO.N,unconnected-(U2-ADC2_CH2{slash}GPIO2-Pad24)*%
X74873440Y-78390000D03*
%TO.P,U2,25,GPIO0/BOOT/ADC2_CH1*%
%TO.N,unconnected-(U2-GPIO0{slash}BOOT{slash}ADC2_CH1-Pad25)*%
X77413440Y-78390000D03*
%TO.P,U2,26,ADC2_CH0/GPIO4*%
%TO.N,/SW3*%
X79953440Y-78390000D03*
%TO.P,U2,27,GPIO16*%
%TO.N,/SW2*%
X82493440Y-78390000D03*
%TO.P,U2,28,GPIO17*%
%TO.N,/SW1*%
X85033440Y-78390000D03*
%TO.P,U2,29,GPIO5*%
%TO.N,/CS*%
X87573440Y-78390000D03*
%TO.P,U2,30,GPIO18*%
%TO.N,/CLK*%
X90113440Y-78390000D03*
%TO.P,U2,31,GPIO19*%
%TO.N,/EncoderA*%
X92653440Y-78390000D03*
%TO.P,U2,32,GND*%
%TO.N,GND*%
X95193440Y-78390000D03*
%TO.P,U2,33,GPIO21*%
%TO.N,/EncoderB*%
X97733440Y-78390000D03*
%TO.P,U2,34,U0RXD/GPIO3*%
%TO.N,/Rx*%
X100273440Y-78390000D03*
%TO.P,U2,35,U0TXD/GPIO1*%
%TO.N,/Tx*%
X102813440Y-78390000D03*
%TO.P,U2,36,GPIO22*%
%TO.N,Net-(JP1-A)*%
X105353440Y-78390000D03*
%TO.P,U2,37,GPIO23*%
%TO.N,/DIN*%
X107893440Y-78390000D03*
%TO.P,U2,38,GND*%
%TO.N,GND*%
X110433440Y-78390000D03*
%TD*%
D15*
%TO.P,SW2,1,1*%
%TO.N,GND*%
X122400000Y-61460000D03*
D16*
%TO.P,SW2,2,2*%
%TO.N,Net-(R2-Pad1)*%
X122400000Y-58920000D03*
%TD*%
D17*
%TO.P,H4,1*%
%TO.N,N/C*%
X63550100Y-99399900D03*
D18*
X63550100Y-99399900D03*
%TD*%
D15*
%TO.P,SW5,1,1*%
%TO.N,GND*%
X122290000Y-81370000D03*
D16*
%TO.P,SW5,2,2*%
%TO.N,Net-(R5-Pad1)*%
X122290000Y-78830000D03*
%TD*%
D12*
%TO.P,R8,1*%
%TO.N,+3.3V*%
X117300000Y-82910000D03*
%TO.P,R8,2*%
%TO.N,/EncoderZ*%
X117300000Y-90530000D03*
%TD*%
D19*
%TO.P,J5,1,Pin_1*%
%TO.N,+5V*%
X66610000Y-84220000D03*
D20*
%TO.P,J5,2,Pin_2*%
%TO.N,GND*%
X69110000Y-84220000D03*
%TO.P,J5,3,Pin_3*%
%TO.N,/DIN*%
X71610000Y-84220000D03*
%TO.P,J5,4,Pin_4*%
%TO.N,/CS*%
X74110000Y-84220000D03*
%TO.P,J5,5,Pin_5*%
%TO.N,/CLK*%
X76610000Y-84220000D03*
%TD*%
D21*
%TO.P,TP3,1,1*%
%TO.N,/EncoderZ*%
X120265000Y-90670000D03*
%TD*%
D22*
%TO.P,J4,1,Pin_1*%
%TO.N,+5V*%
X75530000Y-46880000D03*
D16*
%TO.P,J4,2,Pin_2*%
%TO.N,GND*%
X72990000Y-46880000D03*
%TD*%
D23*
%TO.P,J2,1,Pin_1*%
%TO.N,/CANH*%
X99750000Y-99300000D03*
D16*
%TO.P,J2,2,Pin_2*%
%TO.N,/CANL*%
X102290000Y-99300000D03*
%TD*%
D24*
%TO.P,JP1,1,A*%
%TO.N,Net-(JP1-A)*%
X120395000Y-86340000D03*
%TO.P,JP1,2,B*%
%TO.N,/EncoderZ*%
X120395000Y-87640000D03*
%TD*%
D23*
%TO.P,J3,1,Pin_1*%
%TO.N,+5V*%
X107800000Y-99300000D03*
D16*
%TO.P,J3,2,Pin_2*%
%TO.N,GND*%
X110340000Y-99300000D03*
%TO.P,J3,3,Pin_3*%
%TO.N,/EncoderA*%
X112880000Y-99300000D03*
%TO.P,J3,4,Pin_4*%
%TO.N,/EncoderB*%
X115420000Y-99300000D03*
%TO.P,J3,5,Pin_5*%
%TO.N,/EncoderZ*%
X117960000Y-99300000D03*
%TD*%
D21*
%TO.P,TP1,1,1*%
%TO.N,/EncoderA*%
X107435000Y-90460000D03*
%TD*%
%TO.P,TP5,1,1*%
%TO.N,/CANL*%
X102420000Y-89830000D03*
%TD*%
%TO.P,SW7,1*%
%TO.N,/SW1*%
X114180000Y-46860000D03*
%TD*%
D12*
%TO.P,R3,1*%
%TO.N,Net-(R3-Pad1)*%
X90150000Y-67280000D03*
%TO.P,R3,2*%
%TO.N,/Button3*%
X90150000Y-59660000D03*
%TD*%
%TO.P,R6,1*%
%TO.N,+3.3V*%
X114155000Y-82870000D03*
%TO.P,R6,2*%
%TO.N,/EncoderB*%
X114155000Y-90490000D03*
%TD*%
%TO.P,R4,1*%
%TO.N,Net-(R4-Pad1)*%
X86806250Y-67280000D03*
%TO.P,R4,2*%
%TO.N,/Button4*%
X86806250Y-59660000D03*
%TD*%
D15*
%TO.P,SW4,1,1*%
%TO.N,GND*%
X122290000Y-74580000D03*
D16*
%TO.P,SW4,2,2*%
%TO.N,Net-(R4-Pad1)*%
X122290000Y-72040000D03*
%TD*%
D17*
%TO.P,H3,1*%
%TO.N,N/C*%
X123329900Y-99399900D03*
D18*
X123329900Y-99399900D03*
%TD*%
D17*
%TO.P,H1,1*%
%TO.N,N/C*%
X63550100Y-46420100D03*
D18*
X63550100Y-46420100D03*
%TD*%
D12*
%TO.P,R7,1*%
%TO.N,+3.3V*%
X110985000Y-82827143D03*
%TO.P,R7,2*%
%TO.N,/EncoderA*%
X110985000Y-90447143D03*
%TD*%
D21*
%TO.P,TP4,1,1*%
%TO.N,/CANH*%
X99520000Y-89800000D03*
%TD*%
D15*
%TO.P,SW3,1,1*%
%TO.N,GND*%
X122340000Y-68010000D03*
D16*
%TO.P,SW3,2,2*%
%TO.N,Net-(R3-Pad1)*%
X122340000Y-65470000D03*
%TD*%
D15*
%TO.P,SW1,1,1*%
%TO.N,GND*%
X122420000Y-54770000D03*
D16*
%TO.P,SW1,2,2*%
%TO.N,Net-(R1-Pad1)*%
X122420000Y-52230000D03*
%TD*%
D17*
%TO.P,H2,1*%
%TO.N,N/C*%
X123329900Y-46420100D03*
D18*
X123329900Y-46420100D03*
%TD*%
D22*
%TO.P,SW6,1*%
%TO.N,/SW1*%
X110610000Y-46880000D03*
D16*
%TO.P,SW6,2*%
%TO.N,/SW2*%
X108070000Y-46880000D03*
%TO.P,SW6,3*%
%TO.N,/SW3*%
X105530000Y-46880000D03*
%TO.P,SW6,4*%
%TO.N,/SW4*%
X102990000Y-46880000D03*
%TO.P,SW6,5*%
%TO.N,/SW5*%
X100450000Y-46880000D03*
%TO.P,SW6,6*%
%TO.N,/SW6*%
X97910000Y-46880000D03*
%TO.P,SW6,7*%
%TO.N,GND*%
X95370000Y-46880000D03*
%TD*%
D12*
%TO.P,R2,1*%
%TO.N,Net-(R2-Pad1)*%
X93493750Y-67280000D03*
%TO.P,R2,2*%
%TO.N,/Button2*%
X93493750Y-59660000D03*
%TD*%
%TO.P,R5,1*%
%TO.N,Net-(R5-Pad1)*%
X83462500Y-67280000D03*
%TO.P,R5,2*%
%TO.N,/Button5*%
X83462500Y-59660000D03*
%TD*%
D21*
%TO.P,TP2,1,1*%
%TO.N,/EncoderB*%
X107365000Y-87040000D03*
%TD*%
D25*
%TO.N,GND*%
X88870000Y-44020000D03*
X104950000Y-98020000D03*
X108650000Y-69360000D03*
X84350000Y-47780000D03*
X93260000Y-47710000D03*
X100250000Y-63410000D03*
X105030000Y-100660000D03*
X106610000Y-55200000D03*
X113250000Y-50450000D03*
X63610000Y-83980000D03*
X102920000Y-55760000D03*
X72630000Y-62630000D03*
X65580000Y-75130000D03*
X69500000Y-68480000D03*
X67790000Y-55480000D03*
X120550000Y-96490000D03*
X94140000Y-97380000D03*
X79130000Y-59260000D03*
X122550000Y-84210000D03*
X88490000Y-57180000D03*
X68640000Y-80610000D03*
X76270000Y-62580000D03*
X86480000Y-89040000D03*
X81490000Y-43960000D03*
X115520000Y-63560000D03*
X91900000Y-57280000D03*
X121530000Y-95600000D03*
X79130000Y-56860000D03*
X81320000Y-89580000D03*
X69310000Y-65120000D03*
X79320000Y-65850000D03*
X85800000Y-93130000D03*
X90870000Y-45490000D03*
X70390000Y-45020000D03*
X68290000Y-45530000D03*
X113150000Y-48310000D03*
X121620000Y-92880000D03*
X95090000Y-57090000D03*
X65780000Y-80610000D03*
X119580000Y-46180000D03*
X92120000Y-43870000D03*
X125900000Y-91210000D03*
X65250000Y-62950000D03*
X92180000Y-47710000D03*
X103110000Y-58200000D03*
X112280000Y-81180000D03*
X95140000Y-101540000D03*
X103800000Y-66820000D03*
X117640000Y-51940000D03*
X70320000Y-71720000D03*
X96920000Y-73600000D03*
X115120000Y-50860000D03*
X69090000Y-99970000D03*
X115090000Y-79850000D03*
X86480000Y-47750000D03*
X115860000Y-53370000D03*
X112340000Y-66900000D03*
X114940000Y-81100000D03*
X71570000Y-55520000D03*
X125360000Y-83970000D03*
X64600000Y-91570000D03*
X76410000Y-68070000D03*
X94310000Y-73640000D03*
X107940000Y-73170000D03*
X115390000Y-67290000D03*
X76410000Y-65850000D03*
X109960000Y-66860000D03*
X105560000Y-69320000D03*
X84010000Y-101450000D03*
X115650000Y-77090000D03*
X72950000Y-59350000D03*
X100300000Y-65160000D03*
X88280000Y-93130000D03*
X63850000Y-89290000D03*
X76040000Y-56820000D03*
X112080000Y-73690000D03*
X65110000Y-59030000D03*
X115520000Y-71860000D03*
X82220000Y-48570000D03*
X79800000Y-48450000D03*
X125870000Y-95740000D03*
X103060000Y-62260000D03*
X89740000Y-89030000D03*
X109700000Y-55110000D03*
X86840000Y-73910000D03*
X78400000Y-43900000D03*
X66020000Y-94640000D03*
X112170000Y-69410000D03*
X77970000Y-99140000D03*
X84890000Y-44120000D03*
X88620000Y-47680000D03*
X65160000Y-56720000D03*
X76230000Y-59350000D03*
X96530000Y-76380000D03*
X106700000Y-58290000D03*
X107670000Y-61610000D03*
X88880000Y-76530000D03*
X100200000Y-58710000D03*
X112100000Y-61520000D03*
X106850000Y-80590000D03*
X113280000Y-43890000D03*
X105140000Y-65120000D03*
X120090000Y-43760000D03*
X68740000Y-93930000D03*
X109560000Y-58200000D03*
X117450000Y-50800000D03*
X100250000Y-72780000D03*
X65250000Y-66180000D03*
X103700000Y-82770000D03*
X84540000Y-98010000D03*
X85310000Y-56770000D03*
X77490000Y-70680000D03*
X114020000Y-59980000D03*
X110250000Y-81220000D03*
X87790000Y-45580000D03*
X115540000Y-75390000D03*
X68740000Y-74580000D03*
X95150000Y-91440000D03*
X68510000Y-47910000D03*
X100200000Y-56950000D03*
X90130000Y-101700000D03*
X72950000Y-64840000D03*
X73780000Y-70730000D03*
X110950000Y-57180000D03*
X120530000Y-49050000D03*
X80060000Y-85100000D03*
X79800000Y-46350000D03*
X118240000Y-56550000D03*
X67340000Y-47950000D03*
X61280000Y-95470000D03*
X115600000Y-74070000D03*
X73230000Y-56630000D03*
X108060000Y-66900000D03*
X79270000Y-68850000D03*
X85280000Y-45870000D03*
X103610000Y-76140000D03*
X82090000Y-46030000D03*
X125840000Y-49750000D03*
X112720000Y-52130000D03*
X80120000Y-88420000D03*
X112130000Y-71820000D03*
X68390000Y-59310000D03*
X91340000Y-73600000D03*
X110300000Y-69450000D03*
X66920000Y-43970000D03*
X69130000Y-62630000D03*
X109100000Y-64290000D03*
X113180000Y-44970000D03*
X90980000Y-95470000D03*
X65730000Y-70280000D03*
X108690000Y-56590000D03*
X79820000Y-95130000D03*
X116560000Y-43830000D03*
X73050000Y-68250000D03*
X108800000Y-83330000D03*
X70420000Y-44030000D03*
X110680000Y-75750000D03*
X90460000Y-47650000D03*
X125780000Y-86960000D03*
X114520000Y-53730000D03*
X102150000Y-85920000D03*
X115430000Y-69020000D03*
X103250000Y-72820000D03*
X105410000Y-56770000D03*
X79180000Y-62580000D03*
%TD*%
D26*
%TO.N,/CS*%
X73590000Y-83700000D02*
X73590000Y-76260000D01*
X85503440Y-74240000D02*
X87633440Y-76370000D01*
X74110000Y-84220000D02*
X73590000Y-83700000D01*
X73590000Y-76260000D02*
X75610000Y-74240000D01*
X75610000Y-74240000D02*
X85503440Y-74240000D01*
X87633440Y-76370000D02*
X87633440Y-78390000D01*
D27*
%TO.N,/CANH*%
X92620000Y-87340000D02*
X92620000Y-88000000D01*
X92620000Y-88000000D02*
X94420000Y-89800000D01*
D26*
%TO.N,/EncoderZ*%
X118385000Y-97725000D02*
X118385000Y-91660000D01*
X117300000Y-90530000D02*
X118385000Y-91615000D01*
X118385000Y-91615000D02*
X118385000Y-91660000D01*
%TO.N,/EncoderB*%
X114155000Y-90490000D02*
X115240000Y-91575000D01*
X115240000Y-91575000D02*
X115240000Y-92260000D01*
%TO.N,/EncoderA*%
X112070000Y-94070000D02*
X112070000Y-92210000D01*
X110985000Y-90447143D02*
X112070000Y-91532143D01*
X112070000Y-91532143D02*
X112070000Y-92210000D01*
D27*
%TO.N,/CANH*%
X92620000Y-83790000D02*
X92620000Y-87340000D01*
D26*
%TO.N,/Rx*%
X87540000Y-83790000D02*
X87540000Y-83370000D01*
X98043440Y-80680000D02*
X100333440Y-78390000D01*
X88095000Y-82815000D02*
X90230000Y-80680000D01*
X87455000Y-83455000D02*
X88095000Y-82815000D01*
X87540000Y-83370000D02*
X88095000Y-82815000D01*
X90230000Y-80680000D02*
X98043440Y-80680000D01*
%TO.N,/CANH*%
X99520000Y-89800000D02*
X99520000Y-90050000D01*
X99750000Y-90280000D02*
X99750000Y-99300000D01*
X99520000Y-90050000D02*
X99750000Y-90280000D01*
D27*
X99520000Y-89800000D02*
X94420000Y-89800000D01*
D26*
%TO.N,/CANL*%
X102290000Y-99300000D02*
X102290000Y-89960000D01*
D27*
X102420000Y-88360000D02*
X100225000Y-86165000D01*
X100225000Y-86165000D02*
X96245000Y-86165000D01*
X96245000Y-86165000D02*
X95160000Y-85080000D01*
X102420000Y-89830000D02*
X102420000Y-88360000D01*
X95160000Y-83790000D02*
X95160000Y-85080000D01*
D26*
X102290000Y-89960000D02*
X102420000Y-89830000D01*
%TO.N,/Tx*%
X92150000Y-81720000D02*
X101520000Y-81720000D01*
X101520000Y-81720000D02*
X102890000Y-80350000D01*
X90080000Y-83790000D02*
X92150000Y-81720000D01*
X102873440Y-80333440D02*
X102873440Y-78390000D01*
X102890000Y-80350000D02*
X102873440Y-80333440D01*
%TO.N,/EncoderA*%
X112880000Y-94880000D02*
X112070000Y-94070000D01*
D28*
X110660000Y-90772143D02*
X110985000Y-90447143D01*
D26*
X110985000Y-90447143D02*
X107447857Y-90447143D01*
X107447857Y-90447143D02*
X107435000Y-90460000D01*
X112880000Y-99300000D02*
X112880000Y-94880000D01*
%TO.N,/EncoderZ*%
X118330000Y-97780000D02*
X118385000Y-97725000D01*
X120265000Y-90670000D02*
X120265000Y-87770000D01*
X120265000Y-87770000D02*
X120395000Y-87640000D01*
X118330000Y-98930000D02*
X118330000Y-97780000D01*
X117960000Y-99300000D02*
X118330000Y-98930000D01*
X117300000Y-90530000D02*
X120125000Y-90530000D01*
X120125000Y-90530000D02*
X120265000Y-90670000D01*
%TO.N,/EncoderB*%
X115240000Y-99120000D02*
X115420000Y-99300000D01*
X115240000Y-92260000D02*
X115240000Y-99120000D01*
X114155000Y-90490000D02*
X114155000Y-88240000D01*
X114155000Y-88240000D02*
X112955000Y-87040000D01*
X112955000Y-87040000D02*
X107365000Y-87040000D01*
%TO.N,/DIN*%
X71610000Y-84220000D02*
X71030000Y-83640000D01*
X71030000Y-74280000D02*
X72830000Y-72480000D01*
X89220000Y-74810000D02*
X86890000Y-72480000D01*
X71030000Y-83640000D02*
X71030000Y-74280000D01*
X107893440Y-78390000D02*
X107893440Y-77453440D01*
X105250000Y-74810000D02*
X89220000Y-74810000D01*
X107893440Y-77453440D02*
X105250000Y-74810000D01*
X86890000Y-72480000D02*
X85540000Y-72480000D01*
X72830000Y-72480000D02*
X85540000Y-72480000D01*
%TO.N,/CLK*%
X87413440Y-81150000D02*
X90173440Y-78390000D01*
X79680000Y-81150000D02*
X87413440Y-81150000D01*
X76610000Y-84220000D02*
X79680000Y-81150000D01*
%TO.N,Net-(R1-Pad1)*%
X101140000Y-60410000D02*
X111230000Y-60410000D01*
X96837500Y-67280000D02*
X96837500Y-64712500D01*
X96837500Y-64712500D02*
X101140000Y-60410000D01*
X119410000Y-52230000D02*
X122420000Y-52230000D01*
X111230000Y-60410000D02*
X119410000Y-52230000D01*
%TO.N,/Button1*%
X95193440Y-54223440D02*
X96837500Y-55867500D01*
X96837500Y-55867500D02*
X96837500Y-59660000D01*
X95193440Y-52990000D02*
X95193440Y-54223440D01*
%TO.N,Net-(R2-Pad1)*%
X98560000Y-68990000D02*
X104530000Y-63020000D01*
X113860000Y-63020000D02*
X117960000Y-58920000D01*
X104530000Y-63020000D02*
X113860000Y-63020000D01*
X95203750Y-68990000D02*
X98560000Y-68990000D01*
X117960000Y-58920000D02*
X122400000Y-58920000D01*
X93493750Y-67280000D02*
X95203750Y-68990000D01*
%TO.N,/Button2*%
X93493750Y-55663750D02*
X92653440Y-54823440D01*
X93493750Y-59660000D02*
X93493750Y-55663750D01*
X92653440Y-54823440D02*
X92653440Y-52990000D01*
%TO.N,/Button3*%
X90150000Y-59660000D02*
X90150000Y-53026560D01*
D29*
X90080000Y-53023440D02*
X90113440Y-52990000D01*
D26*
X90150000Y-53026560D02*
X90113440Y-52990000D01*
%TO.N,Net-(R3-Pad1)*%
X90150000Y-67280000D02*
X92780000Y-69910000D01*
X107370000Y-65470000D02*
X122340000Y-65470000D01*
X102930000Y-69910000D02*
X107370000Y-65470000D01*
X92780000Y-69910000D02*
X102930000Y-69910000D01*
%TO.N,Net-(R4-Pad1)*%
X86806250Y-67280000D02*
X90226250Y-70700000D01*
X120950000Y-70700000D02*
X122290000Y-72040000D01*
X90226250Y-70700000D02*
X120950000Y-70700000D01*
%TO.N,/Button4*%
X87573440Y-54856560D02*
X86806250Y-55623750D01*
X87573440Y-52990000D02*
X87573440Y-54856560D01*
X86806250Y-55623750D02*
X86806250Y-59660000D01*
%TO.N,/Button5*%
X83462500Y-55577500D02*
X85033440Y-54006560D01*
X85033440Y-52990000D02*
X85033440Y-54006560D01*
X83462500Y-59660000D02*
X83462500Y-55577500D01*
%TO.N,Net-(R5-Pad1)*%
X115630000Y-78830000D02*
X122290000Y-78830000D01*
X87792500Y-71610000D02*
X108410000Y-71610000D01*
X83462500Y-67280000D02*
X87792500Y-71610000D01*
X108410000Y-71610000D02*
X115630000Y-78830000D01*
D30*
%TO.N,+3.3V*%
X110985000Y-82827143D02*
X117217143Y-82827143D01*
D26*
%TO.N,/SW1*%
X114160000Y-46880000D02*
X114180000Y-46860000D01*
X110610000Y-46880000D02*
X114160000Y-46880000D01*
D29*
%TO.N,/SW4*%
X102990000Y-48680000D02*
X102990000Y-46880000D01*
X101000000Y-50670000D02*
X102990000Y-48680000D01*
X74873440Y-52990000D02*
X74873440Y-52086560D01*
X76290000Y-50670000D02*
X101000000Y-50670000D01*
X74873440Y-52086560D02*
X76290000Y-50670000D01*
%TO.N,/SW5*%
X99310000Y-49550000D02*
X75440000Y-49550000D01*
X100450000Y-46880000D02*
X100450000Y-48410000D01*
X82493440Y-53836560D02*
X82493440Y-52990000D01*
X73600000Y-51390000D02*
X73600000Y-54160000D01*
X81220000Y-55110000D02*
X82493440Y-53836560D01*
X100450000Y-48410000D02*
X99310000Y-49550000D01*
X75440000Y-49550000D02*
X73600000Y-51390000D01*
X73600000Y-54160000D02*
X74550000Y-55110000D01*
X74550000Y-55110000D02*
X81220000Y-55110000D01*
%TO.N,Net-(JP1-A)*%
X105353440Y-82323440D02*
X108080000Y-85050000D01*
X105353440Y-78390000D02*
X105353440Y-82323440D01*
X108080000Y-85050000D02*
X114660000Y-85050000D01*
X115950000Y-86340000D02*
X120395000Y-86340000D01*
X114660000Y-85050000D02*
X115950000Y-86340000D01*
%TD*%
%TA.AperFunction,Conductor*%
%TO.N,GND*%
G36*
X77045019Y-51340185D02*
G01*
X77090774Y-51392989D01*
X77100718Y-51462147D01*
X77071693Y-51525703D01*
X77016299Y-51562431D01*
X76991183Y-51570591D01*
X76836915Y-51649195D01*
X76696837Y-51750967D01*
X76574407Y-51873397D01*
X76472635Y-52013475D01*
X76394031Y-52167742D01*
X76340525Y-52332415D01*
X76313440Y-52503428D01*
X76313440Y-52740000D01*
X77097754Y-52740000D01*
X77093360Y-52744394D01*
X77040699Y-52835606D01*
X77013440Y-52937339D01*
X77013440Y-53042661D01*
X77040699Y-53144394D01*
X77093360Y-53235606D01*
X77097754Y-53240000D01*
X76313440Y-53240000D01*
X76313440Y-53476571D01*
X76340525Y-53647584D01*
X76394031Y-53812257D01*
X76472635Y-53966524D01*
X76574407Y-54106602D01*
X76696839Y-54229034D01*
X76696844Y-54229038D01*
X76705300Y-54235182D01*
X76747966Y-54290512D01*
X76753945Y-54360125D01*
X76721339Y-54421920D01*
X76660501Y-54456277D01*
X76632415Y-54459500D01*
X75655314Y-54459500D01*
X75588275Y-54439815D01*
X75542520Y-54387011D01*
X75532576Y-54317853D01*
X75561601Y-54254297D01*
X75582429Y-54235182D01*
X75586013Y-54232578D01*
X75590368Y-54229414D01*
X75712854Y-54106928D01*
X75814672Y-53966788D01*
X75893313Y-53812445D01*
X75946842Y-53647701D01*
X75973940Y-53476611D01*
X75973940Y-52503389D01*
X75946842Y-52332299D01*
X75893313Y-52167555D01*
X75893311Y-52167552D01*
X75893311Y-52167550D01*
X75873145Y-52127973D01*
X75860248Y-52059304D01*
X75886524Y-51994563D01*
X75895939Y-51984006D01*
X76523127Y-51356819D01*
X76584450Y-51323334D01*
X76610808Y-51320500D01*
X76977980Y-51320500D01*
X77045019Y-51340185D01*
G37*
%TD.AperFunction*%
%TA.AperFunction,Conductor*%
G36*
X79583403Y-51340185D02*
G01*
X79629158Y-51392989D01*
X79639102Y-51462147D01*
X79610077Y-51525703D01*
X79554683Y-51562430D01*
X79530995Y-51570127D01*
X79530992Y-51570128D01*
X79376651Y-51648768D01*
X79325562Y-51685887D01*
X79236512Y-51750586D01*
X79236510Y-51750588D01*
X79236509Y-51750588D01*
X79114028Y-51873069D01*
X79114028Y-51873070D01*
X79114026Y-51873072D01*
X79082457Y-51916523D01*
X79012208Y-52013211D01*
X78933568Y-52167552D01*
X78880037Y-52332302D01*
X78852940Y-52503389D01*
X78852940Y-53476610D01*
X78880037Y-53647697D01*
X78880037Y-53647699D01*
X78880038Y-53647701D01*
X78933567Y-53812445D01*
X79012208Y-53966788D01*
X79114026Y-54106928D01*
X79236512Y-54229414D01*
X79240867Y-54232578D01*
X79244451Y-54235182D01*
X79287117Y-54290512D01*
X79293096Y-54360125D01*
X79260491Y-54421920D01*
X79199652Y-54456277D01*
X79171566Y-54459500D01*
X78194465Y-54459500D01*
X78127426Y-54439815D01*
X78081671Y-54387011D01*
X78071727Y-54317853D01*
X78100752Y-54254297D01*
X78121580Y-54235182D01*
X78130035Y-54229038D01*
X78130040Y-54229034D01*
X78252472Y-54106602D01*
X78354244Y-53966524D01*
X78432848Y-53812257D01*
X78486354Y-53647584D01*
X78513440Y-53476571D01*
X78513440Y-53240000D01*
X77729126Y-53240000D01*
X77733520Y-53235606D01*
X77786181Y-53144394D01*
X77813440Y-53042661D01*
X77813440Y-52937339D01*
X77786181Y-52835606D01*
X77733520Y-52744394D01*
X77729126Y-52740000D01*
X78513440Y-52740000D01*
X78513440Y-52503428D01*
X78486354Y-52332415D01*
X78432848Y-52167742D01*
X78354244Y-52013475D01*
X78252472Y-51873397D01*
X78130042Y-51750967D01*
X77989964Y-51649195D01*
X77835696Y-51570591D01*
X77810581Y-51562431D01*
X77752906Y-51522993D01*
X77725708Y-51458634D01*
X77737623Y-51389788D01*
X77784868Y-51338312D01*
X77848900Y-51320500D01*
X79516364Y-51320500D01*
X79583403Y-51340185D01*
G37*
%TD.AperFunction*%
%TA.AperFunction,Conductor*%
G36*
X72583532Y-43440185D02*
G01*
X72629287Y-43492989D01*
X72639231Y-43562147D01*
X72610206Y-43625703D01*
X72585384Y-43647602D01*
X72479711Y-43718210D01*
X72479707Y-43718213D01*
X72368213Y-43829707D01*
X72368210Y-43829711D01*
X72280609Y-43960814D01*
X72280602Y-43960827D01*
X72220264Y-44106498D01*
X72220261Y-44106510D01*
X72189500Y-44261153D01*
X72189500Y-44418846D01*
X72220261Y-44573489D01*
X72220264Y-44573501D01*
X72280602Y-44719172D01*
X72280609Y-44719185D01*
X72368210Y-44850288D01*
X72368213Y-44850292D01*
X72479707Y-44961786D01*
X72479711Y-44961789D01*
X72610814Y-45049390D01*
X72610827Y-45049397D01*
X72677405Y-45076974D01*
X72731809Y-45120814D01*
X72753874Y-45187108D01*
X72736595Y-45254808D01*
X72685458Y-45302419D01*
X72649353Y-45314008D01*
X72615329Y-45319397D01*
X72375815Y-45397219D01*
X72151413Y-45511559D01*
X72049301Y-45585747D01*
X72049300Y-45585748D01*
X72819765Y-46356212D01*
X72777708Y-46367482D01*
X72652292Y-46439890D01*
X72549890Y-46542292D01*
X72477482Y-46667708D01*
X72466212Y-46709765D01*
X71695748Y-45939300D01*
X71695747Y-45939301D01*
X71621559Y-46041413D01*
X71507219Y-46265815D01*
X71429397Y-46505330D01*
X71390000Y-46754071D01*
X71390000Y-47005928D01*
X71429397Y-47254669D01*
X71507219Y-47494184D01*
X71621557Y-47718583D01*
X71695748Y-47820697D01*
X71695748Y-47820698D01*
X72466212Y-47050234D01*
X72477482Y-47092292D01*
X72549890Y-47217708D01*
X72652292Y-47320110D01*
X72777708Y-47392518D01*
X72819764Y-47403787D01*
X72049300Y-48174250D01*
X72151416Y-48248442D01*
X72375815Y-48362780D01*
X72615330Y-48440602D01*
X72864072Y-48480000D01*
X73115928Y-48480000D01*
X73364669Y-48440602D01*
X73604184Y-48362780D01*
X73828587Y-48248440D01*
X73921583Y-48180874D01*
X73987389Y-48157393D01*
X74055443Y-48173218D01*
X74080834Y-48194895D01*
X74082181Y-48193549D01*
X74087288Y-48198656D01*
X74211344Y-48322712D01*
X74360665Y-48414814D01*
X74527202Y-48469999D01*
X74629990Y-48480500D01*
X74629995Y-48480500D01*
X76430005Y-48480500D01*
X76430010Y-48480500D01*
X76532798Y-48469999D01*
X76699335Y-48414814D01*
X76848656Y-48322712D01*
X76972712Y-48198656D01*
X77064814Y-48049335D01*
X77119999Y-47882798D01*
X77130500Y-47780010D01*
X77130500Y-45979990D01*
X77119999Y-45877202D01*
X77064814Y-45710665D01*
X76972712Y-45561344D01*
X76848656Y-45437288D01*
X76699335Y-45345186D01*
X76532798Y-45290001D01*
X76532796Y-45290000D01*
X76430017Y-45279500D01*
X76430010Y-45279500D01*
X75973575Y-45279500D01*
X75906536Y-45259815D01*
X75860781Y-45207011D01*
X75850837Y-45137853D01*
X75879862Y-45074297D01*
X75904684Y-45052398D01*
X75972259Y-45007245D01*
X76040289Y-44961789D01*
X76151789Y-44850289D01*
X76239394Y-44719179D01*
X76299737Y-44573497D01*
X76330500Y-44418842D01*
X76330500Y-44261158D01*
X76330500Y-44261155D01*
X76330499Y-44261153D01*
X76318522Y-44200941D01*
X76299737Y-44106503D01*
X76243878Y-43971646D01*
X76239397Y-43960827D01*
X76239390Y-43960814D01*
X76151789Y-43829711D01*
X76151786Y-43829707D01*
X76040292Y-43718213D01*
X76040288Y-43718210D01*
X75934616Y-43647602D01*
X75889811Y-43593990D01*
X75881104Y-43524665D01*
X75911258Y-43461637D01*
X75970702Y-43424918D01*
X76003507Y-43420500D01*
X121469604Y-43420500D01*
X121536643Y-43440185D01*
X121582398Y-43492989D01*
X121592342Y-43562147D01*
X121563317Y-43625703D01*
X121538495Y-43647602D01*
X121361432Y-43765911D01*
X121361418Y-43765921D01*
X121110741Y-43971646D01*
X120881446Y-44200941D01*
X120675721Y-44451618D01*
X120675711Y-44451632D01*
X120495557Y-44721251D01*
X120495546Y-44721269D01*
X120342688Y-45007245D01*
X120342686Y-45007250D01*
X120218586Y-45306852D01*
X120124448Y-45617186D01*
X120124445Y-45617197D01*
X120061187Y-45935225D01*
X120061184Y-45935242D01*
X120029400Y-46257960D01*
X120029400Y-46582239D01*
X120061184Y-46904957D01*
X120061187Y-46904974D01*
X120124445Y-47223002D01*
X120124448Y-47223013D01*
X120218586Y-47533347D01*
X120259290Y-47631614D01*
X120334764Y-47813825D01*
X120342686Y-47832949D01*
X120342688Y-47832954D01*
X120495546Y-48118930D01*
X120495557Y-48118948D01*
X120675711Y-48388567D01*
X120675721Y-48388581D01*
X120881446Y-48639258D01*
X121110741Y-48868553D01*
X121110746Y-48868557D01*
X121110747Y-48868558D01*
X121361424Y-49074283D01*
X121631058Y-49254447D01*
X121631067Y-49254452D01*
X121631069Y-49254453D01*
X121917045Y-49407311D01*
X121917047Y-49407311D01*
X121917053Y-49407315D01*
X122216654Y-49531414D01*
X122526977Y-49625549D01*
X122526983Y-49625550D01*
X122526986Y-49625551D01*
X122526997Y-49625554D01*
X122726428Y-49665222D01*
X122845032Y-49688814D01*
X123167757Y-49720600D01*
X123167760Y-49720600D01*
X123492040Y-49720600D01*
X123492043Y-49720600D01*
X123814768Y-49688814D01*
X123972195Y-49657499D01*
X124132802Y-49625554D01*
X124132813Y-49625551D01*
X124132813Y-49625550D01*
X124132823Y-49625549D01*
X124443146Y-49531414D01*
X124742747Y-49407315D01*
X125028742Y-49254447D01*
X125298376Y-49074283D01*
X125549053Y-48868558D01*
X125778358Y-48639253D01*
X125984083Y-48388576D01*
X126102398Y-48211504D01*
X126156010Y-48166700D01*
X126225335Y-48157993D01*
X126288362Y-48188147D01*
X126325082Y-48247590D01*
X126329500Y-48280396D01*
X126329500Y-97539603D01*
X126309815Y-97606642D01*
X126257011Y-97652397D01*
X126187853Y-97662341D01*
X126124297Y-97633316D01*
X126102398Y-97608494D01*
X125984088Y-97431432D01*
X125984083Y-97431424D01*
X125778358Y-97180747D01*
X125778357Y-97180746D01*
X125778353Y-97180741D01*
X125549058Y-96951446D01*
X125298381Y-96745721D01*
X125298380Y-96745720D01*
X125298376Y-96745717D01*
X125028742Y-96565553D01*
X125028737Y-96565550D01*
X125028730Y-96565546D01*
X124742754Y-96412688D01*
X124742749Y-96412686D01*
X124443147Y-96288586D01*
X124132813Y-96194448D01*
X124132802Y-96194445D01*
X123814774Y-96131187D01*
X123814757Y-96131184D01*
X123570712Y-96107148D01*
X123492043Y-96099400D01*
X123167757Y-96099400D01*
X123094999Y-96106566D01*
X122845042Y-96131184D01*
X122845025Y-96131187D01*
X122526997Y-96194445D01*
X122526986Y-96194448D01*
X122216652Y-96288586D01*
X121917050Y-96412686D01*
X121917045Y-96412688D01*
X121631069Y-96565546D01*
X121631051Y-96565557D01*
X121361432Y-96745711D01*
X121361418Y-96745721D01*
X121110741Y-96951446D01*
X120881446Y-97180741D01*
X120675721Y-97431418D01*
X120675711Y-97431432D01*
X120495557Y-97701051D01*
X120495546Y-97701069D01*
X120342688Y-97987045D01*
X120342686Y-97987050D01*
X120218586Y-98286652D01*
X120124448Y-98596986D01*
X120124445Y-98596997D01*
X120061187Y-98915025D01*
X120061184Y-98915042D01*
X120038085Y-99149581D01*
X120029400Y-99237757D01*
X120029400Y-99562043D01*
X120038954Y-99659052D01*
X120061184Y-99884757D01*
X120061187Y-99884774D01*
X120124445Y-100202802D01*
X120124448Y-100202813D01*
X120218586Y-100513147D01*
X120342686Y-100812749D01*
X120342688Y-100812754D01*
X120495546Y-101098730D01*
X120495557Y-101098748D01*
X120675711Y-101368367D01*
X120675721Y-101368381D01*
X120881446Y-101619058D01*
X121110741Y-101848353D01*
X121110746Y-101848357D01*
X121110747Y-101848358D01*
X121361424Y-102054083D01*
X121538495Y-102172398D01*
X121583300Y-102226010D01*
X121592007Y-102295335D01*
X121561853Y-102358362D01*
X121502410Y-102395082D01*
X121469604Y-102399500D01*
X103109892Y-102399500D01*
X103042853Y-102379815D01*
X102997098Y-102327011D01*
X102987154Y-102257853D01*
X102997878Y-102225145D01*
X102997063Y-102224808D01*
X103059735Y-102073501D01*
X103059737Y-102073497D01*
X103090500Y-101918842D01*
X103090500Y-101761158D01*
X103090500Y-101761155D01*
X103090499Y-101761153D01*
X103059738Y-101606510D01*
X103059737Y-101606503D01*
X103059735Y-101606498D01*
X102999397Y-101460827D01*
X102999390Y-101460814D01*
X102911789Y-101329711D01*
X102911786Y-101329707D01*
X102800292Y-101218213D01*
X102800288Y-101218210D01*
X102669185Y-101130609D01*
X102669173Y-101130602D01*
X102603476Y-101103391D01*
X102549072Y-101059551D01*
X102527007Y-100993257D01*
X102544286Y-100925557D01*
X102595423Y-100877947D01*
X102631531Y-100866357D01*
X102664785Y-100861090D01*
X102666287Y-100860602D01*
X102904379Y-100783241D01*
X103128845Y-100668870D01*
X103332656Y-100520793D01*
X103510793Y-100342656D01*
X103658870Y-100138845D01*
X103773241Y-99914379D01*
X103851090Y-99674785D01*
X103890500Y-99425962D01*
X103890500Y-99174038D01*
X103851090Y-98925215D01*
X103773241Y-98685621D01*
X103773239Y-98685618D01*
X103773239Y-98685616D01*
X103658869Y-98461154D01*
X103658865Y-98461148D01*
X103510798Y-98257350D01*
X103510794Y-98257345D01*
X103332654Y-98079205D01*
X103332649Y-98079201D01*
X103128846Y-97931130D01*
X103058204Y-97895135D01*
X103007408Y-97847160D01*
X102990500Y-97784651D01*
X102990500Y-91018771D01*
X103010185Y-90951732D01*
X103058207Y-90908286D01*
X103075405Y-90899524D01*
X103234646Y-90783828D01*
X103373828Y-90644646D01*
X103489524Y-90485405D01*
X103578884Y-90310025D01*
X103639709Y-90122826D01*
X103670500Y-89928422D01*
X103670500Y-89731577D01*
X103639709Y-89537173D01*
X103600894Y-89417715D01*
X103578884Y-89349975D01*
X103578882Y-89349972D01*
X103578882Y-89349970D01*
X103523829Y-89241923D01*
X103489524Y-89174595D01*
X103373828Y-89015354D01*
X103234646Y-88876172D01*
X103234645Y-88876171D01*
X103234643Y-88876169D01*
X103221612Y-88866701D01*
X103178948Y-88811370D01*
X103170500Y-88766385D01*
X103170500Y-88286079D01*
X103141659Y-88141092D01*
X103141658Y-88141091D01*
X103141658Y-88141087D01*
X103097994Y-88035672D01*
X103085086Y-88004509D01*
X103085084Y-88004505D01*
X103052186Y-87955270D01*
X103052185Y-87955268D01*
X103002956Y-87881589D01*
X103002952Y-87881584D01*
X100703421Y-85582052D01*
X100703414Y-85582046D01*
X100629729Y-85532812D01*
X100629729Y-85532813D01*
X100580491Y-85499913D01*
X100443917Y-85443343D01*
X100443907Y-85443340D01*
X100298920Y-85414500D01*
X100298918Y-85414500D01*
X96607230Y-85414500D01*
X96540191Y-85394815D01*
X96519549Y-85378181D01*
X96088313Y-84946945D01*
X96054828Y-84885622D01*
X96059812Y-84815930D01*
X96088313Y-84771583D01*
X96112413Y-84747483D01*
X96190104Y-84669792D01*
X96190106Y-84669788D01*
X96190109Y-84669786D01*
X96315048Y-84497820D01*
X96315050Y-84497817D01*
X96315051Y-84497816D01*
X96411557Y-84308412D01*
X96477246Y-84106243D01*
X96510500Y-83896287D01*
X96510500Y-83683713D01*
X96477246Y-83473757D01*
X96411557Y-83271588D01*
X96315051Y-83082184D01*
X96315049Y-83082181D01*
X96315048Y-83082179D01*
X96190109Y-82910213D01*
X96039790Y-82759894D01*
X96039785Y-82759890D01*
X95881401Y-82644818D01*
X95838735Y-82589489D01*
X95832756Y-82519875D01*
X95865361Y-82458080D01*
X95926200Y-82423723D01*
X95954286Y-82420500D01*
X101588996Y-82420500D01*
X101680040Y-82402389D01*
X101724328Y-82393580D01*
X101788069Y-82367177D01*
X101851807Y-82340777D01*
X101851808Y-82340776D01*
X101851811Y-82340775D01*
X101966543Y-82264114D01*
X103434114Y-80796543D01*
X103510775Y-80681811D01*
X103519559Y-80660606D01*
X103544554Y-80600261D01*
X103563580Y-80554328D01*
X103579077Y-80476420D01*
X103590500Y-80418996D01*
X103590500Y-80281005D01*
X103590499Y-80281004D01*
X103576323Y-80209733D01*
X103573940Y-80185541D01*
X103573940Y-79637204D01*
X103593625Y-79570165D01*
X103610259Y-79549523D01*
X103629282Y-79530500D01*
X103652854Y-79506928D01*
X103754672Y-79366788D01*
X103833313Y-79212445D01*
X103886842Y-79047701D01*
X103913940Y-78876611D01*
X103913940Y-77903389D01*
X104252940Y-77903389D01*
X104252940Y-78876610D01*
X104279454Y-79044017D01*
X104280038Y-79047701D01*
X104333567Y-79212445D01*
X104412208Y-79366788D01*
X104514026Y-79506928D01*
X104636512Y-79629414D01*
X104636515Y-79629416D01*
X104636516Y-79629417D01*
X104651822Y-79640537D01*
X104694490Y-79695866D01*
X104702940Y-79740857D01*
X104702940Y-82387509D01*
X104702940Y-82387511D01*
X104702939Y-82387511D01*
X104727937Y-82513178D01*
X104727939Y-82513184D01*
X104766163Y-82605466D01*
X104776975Y-82631567D01*
X104845009Y-82733388D01*
X104848166Y-82738113D01*
X104848167Y-82738114D01*
X106925985Y-84815930D01*
X107574724Y-85464669D01*
X107665331Y-85555276D01*
X107724204Y-85594614D01*
X107730194Y-85599836D01*
X107744888Y-85622855D01*
X107762400Y-85643809D01*
X107763413Y-85651875D01*
X107767789Y-85658730D01*
X107767705Y-85686045D01*
X107771108Y-85713134D01*
X107767599Y-85720466D01*
X107767575Y-85728599D01*
X107752738Y-85751529D01*
X107740954Y-85776162D01*
X107734036Y-85780435D01*
X107729620Y-85787261D01*
X107704746Y-85798528D01*
X107681512Y-85812881D01*
X107671884Y-85813414D01*
X107665976Y-85816091D01*
X107654362Y-85814385D01*
X107629308Y-85815773D01*
X107463423Y-85789500D01*
X107463417Y-85789500D01*
X107266583Y-85789500D01*
X107266578Y-85789500D01*
X107072173Y-85820290D01*
X106884970Y-85881117D01*
X106709594Y-85970476D01*
X106618741Y-86036485D01*
X106550354Y-86086172D01*
X106550352Y-86086174D01*
X106550351Y-86086174D01*
X106411174Y-86225351D01*
X106411174Y-86225352D01*
X106411172Y-86225354D01*
X106365376Y-86288386D01*
X106295476Y-86384594D01*
X106206117Y-86559970D01*
X106145290Y-86747173D01*
X106114500Y-86941577D01*
X106114500Y-87138422D01*
X106145290Y-87332826D01*
X106206117Y-87520029D01*
X106292280Y-87689132D01*
X106295476Y-87695405D01*
X106411172Y-87854646D01*
X106550354Y-87993828D01*
X106709595Y-88109524D01*
X106771551Y-88141092D01*
X106884970Y-88198882D01*
X106884972Y-88198882D01*
X106884975Y-88198884D01*
X106946618Y-88218913D01*
X107072173Y-88259709D01*
X107266578Y-88290500D01*
X107266583Y-88290500D01*
X107463422Y-88290500D01*
X107657826Y-88259709D01*
X107845025Y-88198884D01*
X108020405Y-88109524D01*
X108179646Y-87993828D01*
X108318828Y-87854646D01*
X108364624Y-87791613D01*
X108419953Y-87748949D01*
X108464941Y-87740500D01*
X112613481Y-87740500D01*
X112680520Y-87760185D01*
X112701162Y-87776819D01*
X113418181Y-88493838D01*
X113451666Y-88555161D01*
X113454500Y-88581519D01*
X113454500Y-89328255D01*
X113434815Y-89395294D01*
X113403385Y-89428573D01*
X113307787Y-89498028D01*
X113307782Y-89498032D01*
X113163028Y-89642786D01*
X113042715Y-89808386D01*
X112949781Y-89990776D01*
X112886522Y-90185465D01*
X112854500Y-90387648D01*
X112854500Y-90592351D01*
X112886522Y-90794534D01*
X112949781Y-90989223D01*
X113013691Y-91114653D01*
X113040531Y-91167328D01*
X113042715Y-91171613D01*
X113163028Y-91337213D01*
X113307786Y-91481971D01*
X113457864Y-91591007D01*
X113473390Y-91602287D01*
X113571666Y-91652361D01*
X113655776Y-91695218D01*
X113655778Y-91695218D01*
X113655781Y-91695220D01*
X113756498Y-91727945D01*
X113850465Y-91758477D01*
X113940353Y-91772714D01*
X114052648Y-91790500D01*
X114052649Y-91790500D01*
X114257350Y-91790500D01*
X114257352Y-91790500D01*
X114374068Y-91772013D01*
X114379494Y-91772714D01*
X114384621Y-91770802D01*
X114413771Y-91777143D01*
X114443362Y-91780967D01*
X114448967Y-91784799D01*
X114452894Y-91785654D01*
X114481148Y-91806805D01*
X114503181Y-91828838D01*
X114536666Y-91890161D01*
X114539500Y-91916519D01*
X114539500Y-97898213D01*
X114519815Y-97965252D01*
X114488385Y-97998531D01*
X114377347Y-98079204D01*
X114377341Y-98079209D01*
X114237681Y-98218870D01*
X114176358Y-98252355D01*
X114106666Y-98247371D01*
X114062319Y-98218870D01*
X113922654Y-98079205D01*
X113922649Y-98079201D01*
X113718846Y-97931130D01*
X113648204Y-97895135D01*
X113597408Y-97847160D01*
X113580500Y-97784651D01*
X113580500Y-94811004D01*
X113553581Y-94675677D01*
X113553580Y-94675676D01*
X113553580Y-94675672D01*
X113500775Y-94548189D01*
X113479632Y-94516546D01*
X113479629Y-94516541D01*
X113424115Y-94433458D01*
X113424109Y-94433451D01*
X112806819Y-93816161D01*
X112773334Y-93754838D01*
X112770500Y-93728480D01*
X112770500Y-91463149D01*
X112766466Y-91442873D01*
X112764005Y-91430500D01*
X112743580Y-91327815D01*
X112742582Y-91325405D01*
X112690777Y-91200335D01*
X112614112Y-91085597D01*
X112301805Y-90773290D01*
X112268320Y-90711967D01*
X112267013Y-90666210D01*
X112285500Y-90549495D01*
X112285500Y-90344791D01*
X112274987Y-90278415D01*
X112253477Y-90142608D01*
X112190218Y-89947919D01*
X112143052Y-89855352D01*
X112097287Y-89765533D01*
X112069261Y-89726958D01*
X111976971Y-89599929D01*
X111832213Y-89455171D01*
X111666613Y-89334858D01*
X111666612Y-89334857D01*
X111666610Y-89334856D01*
X111600392Y-89301116D01*
X111484223Y-89241924D01*
X111289534Y-89178665D01*
X111114995Y-89151021D01*
X111087352Y-89146643D01*
X110882648Y-89146643D01*
X110858329Y-89150494D01*
X110680465Y-89178665D01*
X110485776Y-89241924D01*
X110303386Y-89334858D01*
X110137786Y-89455171D01*
X109993030Y-89599927D01*
X109923575Y-89695527D01*
X109868245Y-89738194D01*
X109823256Y-89746643D01*
X108525600Y-89746643D01*
X108458561Y-89726958D01*
X108425282Y-89695529D01*
X108425281Y-89695527D01*
X108388828Y-89645354D01*
X108249646Y-89506172D01*
X108090405Y-89390476D01*
X107915029Y-89301117D01*
X107727826Y-89240290D01*
X107533422Y-89209500D01*
X107533417Y-89209500D01*
X107336583Y-89209500D01*
X107336578Y-89209500D01*
X107142173Y-89240290D01*
X106954970Y-89301117D01*
X106779594Y-89390476D01*
X106727159Y-89428573D01*
X106620354Y-89506172D01*
X106620352Y-89506174D01*
X106620351Y-89506174D01*
X106481174Y-89645351D01*
X106481174Y-89645352D01*
X106481172Y-89645354D01*
X106453976Y-89682786D01*
X106365476Y-89804594D01*
X106276117Y-89979970D01*
X106215290Y-90167173D01*
X106184500Y-90361577D01*
X106184500Y-90558422D01*
X106215290Y-90752826D01*
X106276117Y-90940029D01*
X106350288Y-91085597D01*
X106365476Y-91115405D01*
X106481172Y-91274646D01*
X106620354Y-91413828D01*
X106779595Y-91529524D01*
X106838289Y-91559430D01*
X106954970Y-91618882D01*
X106954972Y-91618882D01*
X106954975Y-91618884D01*
X107027002Y-91642287D01*
X107142173Y-91679709D01*
X107336578Y-91710500D01*
X107336583Y-91710500D01*
X107533422Y-91710500D01*
X107727826Y-91679709D01*
X107915025Y-91618884D01*
X108090405Y-91529524D01*
X108249646Y-91413828D01*
X108388828Y-91274646D01*
X108442819Y-91200335D01*
X108443966Y-91198757D01*
X108499296Y-91156091D01*
X108544283Y-91147643D01*
X109823256Y-91147643D01*
X109890295Y-91167328D01*
X109923573Y-91198757D01*
X109932914Y-91211613D01*
X109993030Y-91294358D01*
X110137786Y-91439114D01*
X110284915Y-91546007D01*
X110303390Y-91559430D01*
X110419607Y-91618646D01*
X110485776Y-91652361D01*
X110485778Y-91652361D01*
X110485781Y-91652363D01*
X110590137Y-91686270D01*
X110680465Y-91715620D01*
X110770353Y-91729857D01*
X110882648Y-91747643D01*
X110882649Y-91747643D01*
X111087350Y-91747643D01*
X111087352Y-91747643D01*
X111204068Y-91729156D01*
X111209494Y-91729857D01*
X111214621Y-91727945D01*
X111243771Y-91734286D01*
X111273362Y-91738110D01*
X111278967Y-91741942D01*
X111282894Y-91742797D01*
X111311148Y-91763948D01*
X111333181Y-91785981D01*
X111366666Y-91847304D01*
X111369500Y-91873662D01*
X111369500Y-92141007D01*
X111369500Y-94001006D01*
X111369500Y-94138994D01*
X111369500Y-94138996D01*
X111369499Y-94138996D01*
X111396418Y-94274322D01*
X111396421Y-94274332D01*
X111449222Y-94401807D01*
X111525887Y-94516545D01*
X111525888Y-94516546D01*
X112143181Y-95133838D01*
X112176666Y-95195161D01*
X112179500Y-95221519D01*
X112179500Y-97784651D01*
X112159815Y-97851690D01*
X112111796Y-97895135D01*
X112041153Y-97931130D01*
X111837350Y-98079201D01*
X111837345Y-98079205D01*
X111659205Y-98257345D01*
X111659201Y-98257350D01*
X111511131Y-98461152D01*
X111497948Y-98487023D01*
X111475147Y-98518404D01*
X110863787Y-99129764D01*
X110852518Y-99087708D01*
X110780110Y-98962292D01*
X110677708Y-98859890D01*
X110552292Y-98787482D01*
X110510233Y-98776212D01*
X111280698Y-98005748D01*
X111178583Y-97931557D01*
X110954184Y-97817219D01*
X110714669Y-97739397D01*
X110465928Y-97700000D01*
X110214072Y-97700000D01*
X109965330Y-97739397D01*
X109725815Y-97817219D01*
X109501413Y-97931559D01*
X109408415Y-97999126D01*
X109342609Y-98022606D01*
X109274555Y-98006780D01*
X109249204Y-97985065D01*
X109247819Y-97986451D01*
X109118657Y-97857289D01*
X109118656Y-97857288D01*
X108969335Y-97765186D01*
X108802798Y-97710001D01*
X108802796Y-97710000D01*
X108700017Y-97699500D01*
X108700010Y-97699500D01*
X106899990Y-97699500D01*
X106899982Y-97699500D01*
X106797203Y-97710000D01*
X106797202Y-97710001D01*
X106714669Y-97737349D01*
X106630667Y-97765185D01*
X106630662Y-97765187D01*
X106481342Y-97857289D01*
X106357289Y-97981342D01*
X106265187Y-98130662D01*
X106265186Y-98130665D01*
X106210001Y-98297202D01*
X106210001Y-98297203D01*
X106210000Y-98297203D01*
X106199500Y-98399982D01*
X106199500Y-100200017D01*
X106210000Y-100302796D01*
X106224862Y-100347645D01*
X106265186Y-100469335D01*
X106357288Y-100618656D01*
X106481344Y-100742712D01*
X106630665Y-100834814D01*
X106797202Y-100889999D01*
X106899990Y-100900500D01*
X106899995Y-100900500D01*
X108700005Y-100900500D01*
X108700010Y-100900500D01*
X108802798Y-100889999D01*
X108969335Y-100834814D01*
X109118656Y-100742712D01*
X109242712Y-100618656D01*
X109242712Y-100618655D01*
X109247819Y-100613549D01*
X109250328Y-100616058D01*
X109293722Y-100584452D01*
X109363473Y-100580380D01*
X109408416Y-100600873D01*
X109501416Y-100668442D01*
X109725815Y-100782780D01*
X109965330Y-100860602D01*
X110214072Y-100900000D01*
X110465928Y-100900000D01*
X110714669Y-100860602D01*
X110954184Y-100782780D01*
X111178575Y-100668446D01*
X111178581Y-100668442D01*
X111280697Y-100594250D01*
X111280698Y-100594250D01*
X110510234Y-99823787D01*
X110552292Y-99812518D01*
X110677708Y-99740110D01*
X110780110Y-99637708D01*
X110852518Y-99512292D01*
X110863787Y-99470234D01*
X111475147Y-100081594D01*
X111497950Y-100112979D01*
X111511130Y-100138846D01*
X111659201Y-100342649D01*
X111659205Y-100342654D01*
X111837345Y-100520794D01*
X111837350Y-100520798D01*
X112015117Y-100649952D01*
X112041155Y-100668870D01*
X112184184Y-100741747D01*
X112265616Y-100783239D01*
X112265618Y-100783239D01*
X112265621Y-100783241D01*
X112505215Y-100861090D01*
X112754038Y-100900500D01*
X112754039Y-100900500D01*
X113005961Y-100900500D01*
X113005962Y-100900500D01*
X113254785Y-100861090D01*
X113494379Y-100783241D01*
X113718845Y-100668870D01*
X113922656Y-100520793D01*
X114062319Y-100381130D01*
X114123642Y-100347645D01*
X114193334Y-100352629D01*
X114237681Y-100381130D01*
X114377345Y-100520794D01*
X114377350Y-100520798D01*
X114555117Y-100649952D01*
X114581155Y-100668870D01*
X114724184Y-100741747D01*
X114805616Y-100783239D01*
X114805618Y-100783239D01*
X114805621Y-100783241D01*
X115045215Y-100861090D01*
X115294038Y-100900500D01*
X115294039Y-100900500D01*
X115545961Y-100900500D01*
X115545962Y-100900500D01*
X115794785Y-100861090D01*
X116034379Y-100783241D01*
X116258845Y-100668870D01*
X116462656Y-100520793D01*
X116602319Y-100381130D01*
X116663642Y-100347645D01*
X116733334Y-100352629D01*
X116777681Y-100381130D01*
X116917345Y-100520794D01*
X116917350Y-100520798D01*
X117095117Y-100649952D01*
X117121155Y-100668870D01*
X117264184Y-100741747D01*
X117345616Y-100783239D01*
X117345618Y-100783239D01*
X117345621Y-100783241D01*
X117585215Y-100861090D01*
X117834038Y-100900500D01*
X117834039Y-100900500D01*
X118085961Y-100900500D01*
X118085962Y-100900500D01*
X118334785Y-100861090D01*
X118574379Y-100783241D01*
X118798845Y-100668870D01*
X119002656Y-100520793D01*
X119180793Y-100342656D01*
X119328870Y-100138845D01*
X119443241Y-99914379D01*
X119521090Y-99674785D01*
X119560500Y-99425962D01*
X119560500Y-99174038D01*
X119521090Y-98925215D01*
X119443241Y-98685621D01*
X119443239Y-98685618D01*
X119443239Y-98685616D01*
X119398075Y-98596977D01*
X119328870Y-98461155D01*
X119284425Y-98399982D01*
X119180798Y-98257350D01*
X119180794Y-98257345D01*
X119066819Y-98143370D01*
X119052115Y-98116442D01*
X119035523Y-98090624D01*
X119034631Y-98084423D01*
X119033334Y-98082047D01*
X119030500Y-98055689D01*
X119030500Y-98021784D01*
X119039939Y-97974331D01*
X119058580Y-97929328D01*
X119072910Y-97857288D01*
X119085500Y-97793996D01*
X119085500Y-91555667D01*
X119105185Y-91488628D01*
X119157989Y-91442873D01*
X119227147Y-91432929D01*
X119290703Y-91461954D01*
X119309815Y-91482779D01*
X119311172Y-91484646D01*
X119450354Y-91623828D01*
X119609595Y-91739524D01*
X119683427Y-91777143D01*
X119784970Y-91828882D01*
X119784972Y-91828882D01*
X119784975Y-91828884D01*
X119840130Y-91846805D01*
X119972173Y-91889709D01*
X120166578Y-91920500D01*
X120166583Y-91920500D01*
X120363422Y-91920500D01*
X120557826Y-91889709D01*
X120607213Y-91873662D01*
X120745025Y-91828884D01*
X120920405Y-91739524D01*
X121079646Y-91623828D01*
X121218828Y-91484646D01*
X121334524Y-91325405D01*
X121423884Y-91150025D01*
X121484709Y-90962826D01*
X121494735Y-90899524D01*
X121515500Y-90768422D01*
X121515500Y-90571577D01*
X121484709Y-90377173D01*
X121423882Y-90189970D01*
X121342771Y-90030781D01*
X121334524Y-90014595D01*
X121218828Y-89855354D01*
X121079646Y-89716172D01*
X121059566Y-89701583D01*
X121016613Y-89670375D01*
X120973948Y-89615045D01*
X120965500Y-89570058D01*
X120965500Y-88764499D01*
X120985185Y-88697460D01*
X121037989Y-88651705D01*
X121089500Y-88640499D01*
X121192871Y-88640499D01*
X121192872Y-88640499D01*
X121252483Y-88634091D01*
X121387331Y-88583796D01*
X121502546Y-88497546D01*
X121588796Y-88382331D01*
X121639091Y-88247483D01*
X121645500Y-88187873D01*
X121645499Y-87092128D01*
X121639091Y-87032517D01*
X121639090Y-87032515D01*
X121639090Y-87032512D01*
X121637308Y-87024969D01*
X121638773Y-87024622D01*
X121634409Y-86963651D01*
X121638819Y-86948633D01*
X121639089Y-86947488D01*
X121639091Y-86947483D01*
X121645500Y-86887873D01*
X121645499Y-85792128D01*
X121640299Y-85743757D01*
X121639091Y-85732516D01*
X121588797Y-85597671D01*
X121588793Y-85597664D01*
X121502547Y-85482455D01*
X121502544Y-85482452D01*
X121387335Y-85396206D01*
X121387328Y-85396202D01*
X121252482Y-85345908D01*
X121252483Y-85345908D01*
X121192883Y-85339501D01*
X121192881Y-85339500D01*
X121192873Y-85339500D01*
X121192864Y-85339500D01*
X119597129Y-85339500D01*
X119597123Y-85339501D01*
X119537516Y-85345908D01*
X119402671Y-85396202D01*
X119402664Y-85396206D01*
X119287455Y-85482452D01*
X119287452Y-85482455D01*
X119201206Y-85597664D01*
X119201204Y-85597668D01*
X119201204Y-85597669D01*
X119197039Y-85608834D01*
X119155171Y-85664766D01*
X119089707Y-85689184D01*
X119080859Y-85689500D01*
X116270808Y-85689500D01*
X116203769Y-85669815D01*
X116183127Y-85653181D01*
X115074674Y-84544727D01*
X115074673Y-84544726D01*
X115025181Y-84511657D01*
X114968127Y-84473535D01*
X114955324Y-84468232D01*
X114882963Y-84438259D01*
X114849744Y-84424499D01*
X114848886Y-84424328D01*
X114848885Y-84424328D01*
X114848874Y-84424326D01*
X114724071Y-84399500D01*
X114724069Y-84399500D01*
X114387068Y-84399500D01*
X114320029Y-84379815D01*
X114274274Y-84327011D01*
X114264330Y-84257853D01*
X114293355Y-84194297D01*
X114352133Y-84156523D01*
X114367670Y-84153027D01*
X114459534Y-84138477D01*
X114459537Y-84138476D01*
X114459538Y-84138476D01*
X114628084Y-84083712D01*
X114666402Y-84077643D01*
X116697262Y-84077643D01*
X116753557Y-84091158D01*
X116800776Y-84115218D01*
X116800778Y-84115218D01*
X116800781Y-84115220D01*
X116872356Y-84138476D01*
X116995465Y-84178477D01*
X117068843Y-84190099D01*
X117197648Y-84210500D01*
X117197649Y-84210500D01*
X117402351Y-84210500D01*
X117402352Y-84210500D01*
X117604534Y-84178477D01*
X117799219Y-84115220D01*
X117981610Y-84022287D01*
X118110914Y-83928343D01*
X118147213Y-83901971D01*
X118147215Y-83901968D01*
X118147219Y-83901966D01*
X118291966Y-83757219D01*
X118291968Y-83757215D01*
X118291971Y-83757213D01*
X118358484Y-83665664D01*
X118412287Y-83591610D01*
X118505220Y-83409219D01*
X118568477Y-83214534D01*
X118600500Y-83012352D01*
X118600500Y-82807648D01*
X118599467Y-82801125D01*
X118568477Y-82605465D01*
X118526667Y-82476788D01*
X118505220Y-82410781D01*
X118505218Y-82410778D01*
X118505218Y-82410776D01*
X118463002Y-82327924D01*
X118412287Y-82228390D01*
X118370227Y-82170499D01*
X118291971Y-82062786D01*
X118147213Y-81918028D01*
X117981613Y-81797715D01*
X117981612Y-81797714D01*
X117981610Y-81797713D01*
X117886357Y-81749179D01*
X117799223Y-81704781D01*
X117743171Y-81686569D01*
X117743171Y-81686568D01*
X117724666Y-81680556D01*
X117706689Y-81673110D01*
X117697172Y-81668260D01*
X117509969Y-81607433D01*
X117315565Y-81576643D01*
X117315560Y-81576643D01*
X114312207Y-81576643D01*
X114292809Y-81575116D01*
X114257352Y-81569500D01*
X114052648Y-81569500D01*
X114017191Y-81575116D01*
X113997793Y-81576643D01*
X111364502Y-81576643D01*
X111326184Y-81570574D01*
X111289535Y-81558666D01*
X111188443Y-81542654D01*
X111087352Y-81526643D01*
X110882648Y-81526643D01*
X110858329Y-81530494D01*
X110680465Y-81558665D01*
X110485776Y-81621924D01*
X110303386Y-81714858D01*
X110137786Y-81835171D01*
X109993028Y-81979929D01*
X109872715Y-82145529D01*
X109779781Y-82327919D01*
X109716522Y-82522608D01*
X109684500Y-82724791D01*
X109684500Y-82929494D01*
X109716522Y-83131677D01*
X109779781Y-83326366D01*
X109872715Y-83508756D01*
X109993028Y-83674356D01*
X110137786Y-83819114D01*
X110288130Y-83928343D01*
X110303390Y-83939430D01*
X110400115Y-83988714D01*
X110485776Y-84032361D01*
X110485778Y-84032361D01*
X110485781Y-84032363D01*
X110590137Y-84066270D01*
X110680465Y-84095620D01*
X110747536Y-84106243D01*
X110882648Y-84127643D01*
X110882649Y-84127643D01*
X111087351Y-84127643D01*
X111087352Y-84127643D01*
X111289534Y-84095620D01*
X111317714Y-84086463D01*
X111326184Y-84083712D01*
X111364502Y-84077643D01*
X113643598Y-84077643D01*
X113681916Y-84083712D01*
X113751260Y-84106243D01*
X113850466Y-84138477D01*
X113942330Y-84153027D01*
X114005465Y-84182956D01*
X114042396Y-84242268D01*
X114041398Y-84312130D01*
X114002788Y-84370363D01*
X113938825Y-84398477D01*
X113922932Y-84399500D01*
X108400807Y-84399500D01*
X108333768Y-84379815D01*
X108313126Y-84363181D01*
X106040259Y-82090313D01*
X106006774Y-82028990D01*
X106003940Y-82002632D01*
X106003940Y-79740857D01*
X106023625Y-79673818D01*
X106055058Y-79640537D01*
X106070368Y-79629414D01*
X106192854Y-79506928D01*
X106294672Y-79366788D01*
X106373313Y-79212445D01*
X106426842Y-79047701D01*
X106453940Y-78876611D01*
X106453940Y-77903389D01*
X106426842Y-77732299D01*
X106373313Y-77567555D01*
X106294672Y-77413212D01*
X106192854Y-77273072D01*
X106070368Y-77150586D01*
X105930228Y-77048768D01*
X105775885Y-76970127D01*
X105611141Y-76916598D01*
X105611139Y-76916597D01*
X105611138Y-76916597D01*
X105479711Y-76895781D01*
X105440051Y-76889500D01*
X105266829Y-76889500D01*
X105227168Y-76895781D01*
X105095742Y-76916597D01*
X104930992Y-76970128D01*
X104776651Y-77048768D01*
X104712941Y-77095057D01*
X104636512Y-77150586D01*
X104636510Y-77150588D01*
X104636509Y-77150588D01*
X104514028Y-77273069D01*
X104514028Y-77273070D01*
X104514026Y-77273072D01*
X104513790Y-77273397D01*
X104412208Y-77413211D01*
X104333568Y-77567552D01*
X104280037Y-77732302D01*
X104252940Y-77903389D01*
X103913940Y-77903389D01*
X103886842Y-77732299D01*
X103833313Y-77567555D01*
X103754672Y-77413212D01*
X103652854Y-77273072D01*
X103530368Y-77150586D01*
X103390228Y-77048768D01*
X103235885Y-76970127D01*
X103071141Y-76916598D01*
X103071139Y-76916597D01*
X103071138Y-76916597D01*
X102939711Y-76895781D01*
X102900051Y-76889500D01*
X102726829Y-76889500D01*
X102687168Y-76895781D01*
X102555742Y-76916597D01*
X102390992Y-76970128D01*
X102236651Y-77048768D01*
X102172941Y-77095057D01*
X102096512Y-77150586D01*
X102096510Y-77150588D01*
X102096509Y-77150588D01*
X101974028Y-77273069D01*
X101974028Y-77273070D01*
X101974026Y-77273072D01*
X101973790Y-77273397D01*
X101872208Y-77413211D01*
X101793568Y-77567552D01*
X101740037Y-77732302D01*
X101712940Y-77903389D01*
X101712940Y-78876610D01*
X101739454Y-79044017D01*
X101740038Y-79047701D01*
X101793567Y-79212445D01*
X101872208Y-79366788D01*
X101974026Y-79506928D01*
X101974028Y-79506930D01*
X102096513Y-79629415D01*
X102106024Y-79636325D01*
X102121823Y-79647804D01*
X102164490Y-79703132D01*
X102172940Y-79748123D01*
X102172940Y-80025041D01*
X102153255Y-80092080D01*
X102136621Y-80112722D01*
X101266162Y-80983181D01*
X101204839Y-81016666D01*
X101178481Y-81019500D01*
X98993959Y-81019500D01*
X98926920Y-80999815D01*
X98881165Y-80947011D01*
X98871221Y-80877853D01*
X98900246Y-80814297D01*
X98906278Y-80807819D01*
X99113836Y-80600261D01*
X99837440Y-79876655D01*
X99898761Y-79843172D01*
X99963434Y-79846406D01*
X100015739Y-79863402D01*
X100186829Y-79890500D01*
X100186830Y-79890500D01*
X100360050Y-79890500D01*
X100360051Y-79890500D01*
X100531141Y-79863402D01*
X100695885Y-79809873D01*
X100850228Y-79731232D01*
X100990368Y-79629414D01*
X101112854Y-79506928D01*
X101214672Y-79366788D01*
X101293313Y-79212445D01*
X101346842Y-79047701D01*
X101373940Y-78876611D01*
X101373940Y-77903389D01*
X101346842Y-77732299D01*
X101293313Y-77567555D01*
X101214672Y-77413212D01*
X101112854Y-77273072D01*
X100990368Y-77150586D01*
X100850228Y-77048768D01*
X100695885Y-76970127D01*
X100531141Y-76916598D01*
X100531139Y-76916597D01*
X100531138Y-76916597D01*
X100399711Y-76895781D01*
X100360051Y-76889500D01*
X100186829Y-76889500D01*
X100147168Y-76895781D01*
X100015742Y-76916597D01*
X99850992Y-76970128D01*
X99696651Y-77048768D01*
X99632941Y-77095057D01*
X99556512Y-77150586D01*
X99556510Y-77150588D01*
X99556509Y-77150588D01*
X99434028Y-77273069D01*
X99434028Y-77273070D01*
X99434026Y-77273072D01*
X99433790Y-77273397D01*
X99332208Y-77413211D01*
X99253568Y-77567552D01*
X99200037Y-77732302D01*
X99172940Y-77903389D01*
X99172940Y-78508480D01*
X99164295Y-78537920D01*
X99157772Y-78567907D01*
X99154017Y-78572922D01*
X99153255Y-78575519D01*
X99136621Y-78596161D01*
X99045621Y-78687161D01*
X98984298Y-78720646D01*
X98914606Y-78715662D01*
X98858673Y-78673790D01*
X98834256Y-78608326D01*
X98833940Y-78599480D01*
X98833940Y-77903389D01*
X98806842Y-77732302D01*
X98806842Y-77732301D01*
X98806842Y-77732299D01*
X98753313Y-77567555D01*
X98674672Y-77413212D01*
X98572854Y-77273072D01*
X98450368Y-77150586D01*
X98310228Y-77048768D01*
X98155885Y-76970127D01*
X97991141Y-76916598D01*
X97991139Y-76916597D01*
X97991138Y-76916597D01*
X97859711Y-76895781D01*
X97820051Y-76889500D01*
X97646829Y-76889500D01*
X97607168Y-76895781D01*
X97475742Y-76916597D01*
X97310992Y-76970128D01*
X97156651Y-77048768D01*
X97092941Y-77095057D01*
X97016512Y-77150586D01*
X97016510Y-77150588D01*
X97016509Y-77150588D01*
X96894028Y-77273069D01*
X96894028Y-77273070D01*
X96894026Y-77273072D01*
X96893790Y-77273397D01*
X96792208Y-77413211D01*
X96713568Y-77567552D01*
X96660037Y-77732302D01*
X96632940Y-77903389D01*
X96632940Y-78876610D01*
X96659454Y-79044017D01*
X96660038Y-79047701D01*
X96713567Y-79212445D01*
X96792208Y-79366788D01*
X96894026Y-79506928D01*
X97016512Y-79629414D01*
X97156652Y-79731232D01*
X97183703Y-79745015D01*
X97234499Y-79792989D01*
X97251294Y-79860810D01*
X97228757Y-79926945D01*
X97174042Y-79970397D01*
X97127408Y-79979500D01*
X95798369Y-79979500D01*
X95731330Y-79959815D01*
X95685575Y-79907011D01*
X95675631Y-79837853D01*
X95704656Y-79774297D01*
X95742074Y-79745015D01*
X95769964Y-79730804D01*
X95910042Y-79629032D01*
X96032472Y-79506602D01*
X96134244Y-79366524D01*
X96212848Y-79212257D01*
X96266354Y-79047584D01*
X96293440Y-78876571D01*
X96293440Y-78640000D01*
X95509126Y-78640000D01*
X95513520Y-78635606D01*
X95566181Y-78544394D01*
X95593440Y-78442661D01*
X95593440Y-78337339D01*
X95566181Y-78235606D01*
X95513520Y-78144394D01*
X95509126Y-78140000D01*
X96293440Y-78140000D01*
X96293440Y-77903428D01*
X96266354Y-77732415D01*
X96212848Y-77567742D01*
X96134243Y-77413474D01*
X96032472Y-77273397D01*
X95910042Y-77150967D01*
X95769964Y-77049195D01*
X95615697Y-76970591D01*
X95451029Y-76917087D01*
X95451021Y-76917085D01*
X95443440Y-76915884D01*
X95443440Y-78074314D01*
X95439046Y-78069920D01*
X95347834Y-78017259D01*
X95246101Y-77990000D01*
X95140779Y-77990000D01*
X95039046Y-78017259D01*
X94947834Y-78069920D01*
X94943440Y-78074314D01*
X94943440Y-76915884D01*
X94943439Y-76915884D01*
X94935858Y-76917085D01*
X94935850Y-76917087D01*
X94771182Y-76970591D01*
X94616915Y-77049195D01*
X94476837Y-77150967D01*
X94354407Y-77273397D01*
X94252637Y-77413474D01*
X94174031Y-77567742D01*
X94120525Y-77732415D01*
X94093440Y-77903428D01*
X94093440Y-78140000D01*
X94877754Y-78140000D01*
X94873360Y-78144394D01*
X94820699Y-78235606D01*
X94793440Y-78337339D01*
X94793440Y-78442661D01*
X94820699Y-78544394D01*
X94873360Y-78635606D01*
X94877754Y-78640000D01*
X94093440Y-78640000D01*
X94093440Y-78876571D01*
X94120525Y-79047584D01*
X94174031Y-79212257D01*
X94252635Y-79366524D01*
X94354407Y-79506602D01*
X94476837Y-79629032D01*
X94616915Y-79730804D01*
X94644806Y-79745015D01*
X94695602Y-79792989D01*
X94712397Y-79860810D01*
X94689860Y-79926945D01*
X94635145Y-79970397D01*
X94588511Y-79979500D01*
X93259472Y-79979500D01*
X93192433Y-79959815D01*
X93146678Y-79907011D01*
X93136734Y-79837853D01*
X93165759Y-79774297D01*
X93203177Y-79745015D01*
X93230228Y-79731232D01*
X93370368Y-79629414D01*
X93492854Y-79506928D01*
X93594672Y-79366788D01*
X93673313Y-79212445D01*
X93726842Y-79047701D01*
X93753940Y-78876611D01*
X93753940Y-77903389D01*
X93726842Y-77732299D01*
X93673313Y-77567555D01*
X93594672Y-77413212D01*
X93492854Y-77273072D01*
X93370368Y-77150586D01*
X93230228Y-77048768D01*
X93075885Y-76970127D01*
X92911141Y-76916598D01*
X92911139Y-76916597D01*
X92911138Y-76916597D01*
X92779711Y-76895781D01*
X92740051Y-76889500D01*
X92566829Y-76889500D01*
X92527168Y-76895781D01*
X92395742Y-76916597D01*
X92230992Y-76970128D01*
X92076651Y-77048768D01*
X92012941Y-77095057D01*
X91936512Y-77150586D01*
X91936510Y-77150588D01*
X91936509Y-77150588D01*
X91814028Y-77273069D01*
X91814028Y-77273070D01*
X91814026Y-77273072D01*
X91813790Y-77273397D01*
X91712208Y-77413211D01*
X91633568Y-77567552D01*
X91580037Y-77732302D01*
X91552940Y-77903389D01*
X91552940Y-78876610D01*
X91579454Y-79044017D01*
X91580038Y-79047701D01*
X91633567Y-79212445D01*
X91712208Y-79366788D01*
X91814026Y-79506928D01*
X91936512Y-79629414D01*
X92076652Y-79731232D01*
X92103703Y-79745015D01*
X92154499Y-79792989D01*
X92171294Y-79860810D01*
X92148757Y-79926945D01*
X92094042Y-79970397D01*
X92047408Y-79979500D01*
X90719472Y-79979500D01*
X90652433Y-79959815D01*
X90606678Y-79907011D01*
X90596734Y-79837853D01*
X90625759Y-79774297D01*
X90663177Y-79745015D01*
X90690228Y-79731232D01*
X90830368Y-79629414D01*
X90952854Y-79506928D01*
X91054672Y-79366788D01*
X91133313Y-79212445D01*
X91186842Y-79047701D01*
X91213940Y-78876611D01*
X91213940Y-77903389D01*
X91186842Y-77732299D01*
X91133313Y-77567555D01*
X91054672Y-77413212D01*
X90952854Y-77273072D01*
X90830368Y-77150586D01*
X90690228Y-77048768D01*
X90535885Y-76970127D01*
X90371141Y-76916598D01*
X90371139Y-76916597D01*
X90371138Y-76916597D01*
X90239711Y-76895781D01*
X90200051Y-76889500D01*
X90026829Y-76889500D01*
X89987168Y-76895781D01*
X89855742Y-76916597D01*
X89690992Y-76970128D01*
X89536651Y-77048768D01*
X89472941Y-77095057D01*
X89396512Y-77150586D01*
X89396510Y-77150588D01*
X89396509Y-77150588D01*
X89274028Y-77273069D01*
X89274028Y-77273070D01*
X89274026Y-77273072D01*
X89273790Y-77273397D01*
X89172208Y-77413211D01*
X89093568Y-77567552D01*
X89040037Y-77732302D01*
X89012940Y-77903389D01*
X89012940Y-78508481D01*
X89004295Y-78537921D01*
X88997772Y-78567908D01*
X88994017Y-78572923D01*
X88993255Y-78575520D01*
X88976622Y-78596161D01*
X88885621Y-78687162D01*
X88824298Y-78720647D01*
X88754606Y-78715663D01*
X88698673Y-78673791D01*
X88674256Y-78608327D01*
X88673940Y-78599481D01*
X88673940Y-77903389D01*
X88646842Y-77732302D01*
X88646842Y-77732301D01*
X88646842Y-77732299D01*
X88593313Y-77567555D01*
X88514672Y-77413212D01*
X88412854Y-77273072D01*
X88370259Y-77230477D01*
X88336774Y-77169154D01*
X88333940Y-77142796D01*
X88333940Y-76301004D01*
X88312059Y-76191007D01*
X88307020Y-76165672D01*
X88285763Y-76114354D01*
X88278530Y-76096892D01*
X88254215Y-76038189D01*
X88177554Y-75923457D01*
X88177553Y-75923456D01*
X88177552Y-75923454D01*
X85949985Y-73695887D01*
X85835247Y-73619222D01*
X85707772Y-73566421D01*
X85707762Y-73566418D01*
X85572436Y-73539500D01*
X85572434Y-73539500D01*
X85572433Y-73539500D01*
X75541007Y-73539500D01*
X75541003Y-73539500D01*
X75432590Y-73561065D01*
X75432589Y-73561065D01*
X75416379Y-73564289D01*
X75405669Y-73566420D01*
X75374093Y-73579500D01*
X75278188Y-73619225D01*
X75278188Y-73619226D01*
X75163456Y-73695886D01*
X75163453Y-73695889D01*
X73045888Y-75813453D01*
X73045882Y-75813461D01*
X72972386Y-75923456D01*
X72972387Y-75923457D01*
X72969225Y-75928188D01*
X72969221Y-75928196D01*
X72916421Y-76055667D01*
X72916418Y-76055677D01*
X72889500Y-76191004D01*
X72889500Y-76842870D01*
X72869815Y-76909909D01*
X72817011Y-76955664D01*
X72747853Y-76965608D01*
X72727184Y-76960801D01*
X72591141Y-76916598D01*
X72591139Y-76916597D01*
X72591138Y-76916597D01*
X72459711Y-76895781D01*
X72420051Y-76889500D01*
X72246829Y-76889500D01*
X72207168Y-76895781D01*
X72075742Y-76916597D01*
X71910987Y-76970129D01*
X71910982Y-76970131D01*
X71910780Y-76970235D01*
X71910694Y-76970250D01*
X71906486Y-76971994D01*
X71906119Y-76971109D01*
X71842109Y-76983122D01*
X71777372Y-76956837D01*
X71737123Y-76899726D01*
X71730500Y-76859743D01*
X71730500Y-74621518D01*
X71750185Y-74554479D01*
X71766819Y-74533837D01*
X73083837Y-73216819D01*
X73145160Y-73183334D01*
X73171518Y-73180500D01*
X85471007Y-73180500D01*
X86548481Y-73180500D01*
X86615520Y-73200185D01*
X86636162Y-73216819D01*
X88773453Y-75354111D01*
X88773454Y-75354112D01*
X88888192Y-75430777D01*
X89006995Y-75479986D01*
X89015672Y-75483580D01*
X89015676Y-75483580D01*
X89015677Y-75483581D01*
X89151003Y-75510500D01*
X89151006Y-75510500D01*
X89151007Y-75510500D01*
X104908481Y-75510500D01*
X104975520Y-75530185D01*
X104996162Y-75546819D01*
X106858242Y-77408899D01*
X106891727Y-77470222D01*
X106886743Y-77539914D01*
X106881049Y-77552869D01*
X106873565Y-77567557D01*
X106820037Y-77732301D01*
X106792940Y-77903389D01*
X106792940Y-78876610D01*
X106819454Y-79044017D01*
X106820038Y-79047701D01*
X106873567Y-79212445D01*
X106952208Y-79366788D01*
X107054026Y-79506928D01*
X107176512Y-79629414D01*
X107316652Y-79731232D01*
X107470995Y-79809873D01*
X107635739Y-79863402D01*
X107806829Y-79890500D01*
X107806830Y-79890500D01*
X107980050Y-79890500D01*
X107980051Y-79890500D01*
X108151141Y-79863402D01*
X108315885Y-79809873D01*
X108470228Y-79731232D01*
X108610368Y-79629414D01*
X108732854Y-79506928D01*
X108834672Y-79366788D01*
X108913313Y-79212445D01*
X108966842Y-79047701D01*
X108993940Y-78876611D01*
X108993940Y-77903428D01*
X109333440Y-77903428D01*
X109333440Y-78140000D01*
X110117754Y-78140000D01*
X110113360Y-78144394D01*
X110060699Y-78235606D01*
X110033440Y-78337339D01*
X110033440Y-78442661D01*
X110060699Y-78544394D01*
X110113360Y-78635606D01*
X110117754Y-78640000D01*
X109333440Y-78640000D01*
X109333440Y-78876571D01*
X109360525Y-79047584D01*
X109414031Y-79212257D01*
X109492635Y-79366524D01*
X109594407Y-79506602D01*
X109716837Y-79629032D01*
X109856915Y-79730804D01*
X110011184Y-79809408D01*
X110175855Y-79862914D01*
X110175854Y-79862914D01*
X110183439Y-79864115D01*
X110183440Y-79864114D01*
X110183440Y-78705686D01*
X110187834Y-78710080D01*
X110279046Y-78762741D01*
X110380779Y-78790000D01*
X110486101Y-78790000D01*
X110587834Y-78762741D01*
X110679046Y-78710080D01*
X110683440Y-78705686D01*
X110683440Y-79864115D01*
X110691024Y-79862914D01*
X110855695Y-79809408D01*
X111009964Y-79730804D01*
X111150042Y-79629032D01*
X111272472Y-79506602D01*
X111374244Y-79366524D01*
X111452848Y-79212257D01*
X111506354Y-79047584D01*
X111533440Y-78876571D01*
X111533440Y-78640000D01*
X110749126Y-78640000D01*
X110753520Y-78635606D01*
X110806181Y-78544394D01*
X110833440Y-78442661D01*
X110833440Y-78337339D01*
X110806181Y-78235606D01*
X110753520Y-78144394D01*
X110749126Y-78140000D01*
X111533440Y-78140000D01*
X111533440Y-77903428D01*
X111506354Y-77732415D01*
X111452848Y-77567742D01*
X111374243Y-77413474D01*
X111272472Y-77273397D01*
X111150042Y-77150967D01*
X111009964Y-77049195D01*
X110855697Y-76970591D01*
X110691029Y-76917087D01*
X110691021Y-76917085D01*
X110683440Y-76915884D01*
X110683440Y-78074314D01*
X110679046Y-78069920D01*
X110587834Y-78017259D01*
X110486101Y-77990000D01*
X110380779Y-77990000D01*
X110279046Y-78017259D01*
X110187834Y-78069920D01*
X110183440Y-78074314D01*
X110183440Y-76915884D01*
X110183439Y-76915884D01*
X110175858Y-76917085D01*
X110175850Y-76917087D01*
X110011182Y-76970591D01*
X109856915Y-77049195D01*
X109716837Y-77150967D01*
X109594407Y-77273397D01*
X109492637Y-77413474D01*
X109414031Y-77567742D01*
X109360525Y-77732415D01*
X109333440Y-77903428D01*
X108993940Y-77903428D01*
X108993940Y-77903389D01*
X108966842Y-77732299D01*
X108913313Y-77567555D01*
X108834672Y-77413212D01*
X108732854Y-77273072D01*
X108610368Y-77150586D01*
X108479012Y-77055150D01*
X108448798Y-77023725D01*
X108447715Y-77022104D01*
X108437554Y-77006897D01*
X108437552Y-77006895D01*
X108437549Y-77006891D01*
X105696545Y-74265887D01*
X105581807Y-74189222D01*
X105454332Y-74136421D01*
X105454322Y-74136418D01*
X105318996Y-74109500D01*
X105318994Y-74109500D01*
X105318993Y-74109500D01*
X89561519Y-74109500D01*
X89494480Y-74089815D01*
X89473838Y-74073181D01*
X87922838Y-72522181D01*
X87889353Y-72460858D01*
X87894337Y-72391166D01*
X87936209Y-72335233D01*
X88001673Y-72310816D01*
X88010519Y-72310500D01*
X108068481Y-72310500D01*
X108135520Y-72330185D01*
X108156162Y-72346819D01*
X115183453Y-79374111D01*
X115183454Y-79374112D01*
X115298192Y-79450777D01*
X115424870Y-79503248D01*
X115425672Y-79503580D01*
X115425676Y-79503580D01*
X115425677Y-79503581D01*
X115561003Y-79530500D01*
X115561006Y-79530500D01*
X115561007Y-79530500D01*
X120774652Y-79530500D01*
X120783821Y-79533192D01*
X120793292Y-79531909D01*
X120816802Y-79542876D01*
X120841691Y-79550185D01*
X120849635Y-79558193D01*
X120856611Y-79561448D01*
X120870081Y-79578804D01*
X120879507Y-79588307D01*
X120882550Y-79593128D01*
X120921130Y-79668845D01*
X120991438Y-79765616D01*
X120993599Y-79769039D01*
X121002106Y-79798907D01*
X121012542Y-79828153D01*
X121011596Y-79832220D01*
X121012740Y-79836236D01*
X121003749Y-79865961D01*
X120996716Y-79896207D01*
X120993203Y-79900829D01*
X120992513Y-79903114D01*
X120989548Y-79905641D01*
X120976426Y-79922913D01*
X120847680Y-80051659D01*
X120755645Y-80200869D01*
X120755640Y-80200880D01*
X120700494Y-80367302D01*
X120690000Y-80470013D01*
X120690000Y-81120000D01*
X121799252Y-81120000D01*
X121777482Y-81157708D01*
X121740000Y-81297591D01*
X121740000Y-81442409D01*
X121777482Y-81582292D01*
X121799252Y-81620000D01*
X120690001Y-81620000D01*
X120690001Y-82269986D01*
X120700494Y-82372696D01*
X120700494Y-82372698D01*
X120755640Y-82539119D01*
X120755645Y-82539130D01*
X120847680Y-82688340D01*
X120847683Y-82688344D01*
X120971655Y-82812316D01*
X120971659Y-82812319D01*
X121120869Y-82904354D01*
X121120880Y-82904359D01*
X121287302Y-82959505D01*
X121390019Y-82969999D01*
X122039999Y-82969999D01*
X122040000Y-82969998D01*
X122040000Y-81860747D01*
X122077708Y-81882518D01*
X122217591Y-81920000D01*
X122362409Y-81920000D01*
X122502292Y-81882518D01*
X122540000Y-81860747D01*
X122540000Y-82969999D01*
X123189972Y-82969999D01*
X123189986Y-82969998D01*
X123292696Y-82959505D01*
X123292698Y-82959505D01*
X123459119Y-82904359D01*
X123459130Y-82904354D01*
X123608340Y-82812319D01*
X123608344Y-82812316D01*
X123732316Y-82688344D01*
X123732319Y-82688340D01*
X123824354Y-82539130D01*
X123824359Y-82539119D01*
X123879505Y-82372697D01*
X123889999Y-82269986D01*
X123889999Y-81812781D01*
X123909683Y-81745742D01*
X123962487Y-81699987D01*
X124031646Y-81690043D01*
X124095202Y-81719068D01*
X124115917Y-81744985D01*
X124117221Y-81744114D01*
X124208210Y-81880288D01*
X124208213Y-81880292D01*
X124319707Y-81991786D01*
X124319711Y-81991789D01*
X124450814Y-82079390D01*
X124450827Y-82079397D01*
X124596498Y-82139735D01*
X124596503Y-82139737D01*
X124751153Y-82170499D01*
X124751156Y-82170500D01*
X124751158Y-82170500D01*
X124908844Y-82170500D01*
X124908845Y-82170499D01*
X125063497Y-82139737D01*
X125209179Y-82079394D01*
X125340289Y-81991789D01*
X125451789Y-81880289D01*
X125539394Y-81749179D01*
X125599737Y-81603497D01*
X125630500Y-81448842D01*
X125630500Y-81291158D01*
X125630500Y-81291155D01*
X125630499Y-81291153D01*
X125599738Y-81136510D01*
X125599737Y-81136503D01*
X125592901Y-81120000D01*
X125539397Y-80990827D01*
X125539390Y-80990814D01*
X125451789Y-80859711D01*
X125451786Y-80859707D01*
X125340292Y-80748213D01*
X125340288Y-80748210D01*
X125209185Y-80660609D01*
X125209172Y-80660602D01*
X125063501Y-80600264D01*
X125063489Y-80600261D01*
X124908845Y-80569500D01*
X124908842Y-80569500D01*
X124751158Y-80569500D01*
X124751155Y-80569500D01*
X124596510Y-80600261D01*
X124596498Y-80600264D01*
X124450827Y-80660602D01*
X124450814Y-80660609D01*
X124319711Y-80748210D01*
X124319707Y-80748213D01*
X124208213Y-80859707D01*
X124208210Y-80859711D01*
X124117221Y-80995886D01*
X124114886Y-80994326D01*
X124074294Y-81035573D01*
X124006141Y-81050970D01*
X123940484Y-81027077D01*
X123898167Y-80971479D01*
X123889999Y-80927219D01*
X123889999Y-80470028D01*
X123889998Y-80470012D01*
X123879505Y-80367303D01*
X123879505Y-80367301D01*
X123824359Y-80200880D01*
X123824354Y-80200869D01*
X123732319Y-80051659D01*
X123732316Y-80051655D01*
X123603574Y-79922913D01*
X123570089Y-79861590D01*
X123575073Y-79791898D01*
X123590934Y-79762349D01*
X123658870Y-79668845D01*
X123773241Y-79444379D01*
X123851090Y-79204785D01*
X123856357Y-79171531D01*
X123886286Y-79108396D01*
X123945597Y-79071464D01*
X124015460Y-79072462D01*
X124073692Y-79111071D01*
X124093391Y-79143476D01*
X124120602Y-79209173D01*
X124120609Y-79209185D01*
X124208210Y-79340288D01*
X124208213Y-79340292D01*
X124319707Y-79451786D01*
X124319711Y-79451789D01*
X124450814Y-79539390D01*
X124450827Y-79539397D01*
X124562957Y-79585842D01*
X124596503Y-79599737D01*
X124751153Y-79630499D01*
X124751156Y-79630500D01*
X124751158Y-79630500D01*
X124908844Y-79630500D01*
X124908845Y-79630499D01*
X125063497Y-79599737D01*
X125209179Y-79539394D01*
X125340289Y-79451789D01*
X125451789Y-79340289D01*
X125539394Y-79209179D01*
X125539566Y-79208765D01*
X125581139Y-79108396D01*
X125599737Y-79063497D01*
X125630500Y-78908842D01*
X125630500Y-78751158D01*
X125630500Y-78751155D01*
X125630499Y-78751153D01*
X125624431Y-78720646D01*
X125599737Y-78596503D01*
X125575472Y-78537921D01*
X125539397Y-78450827D01*
X125539390Y-78450814D01*
X125451789Y-78319711D01*
X125451786Y-78319707D01*
X125340292Y-78208213D01*
X125340288Y-78208210D01*
X125209185Y-78120609D01*
X125209172Y-78120602D01*
X125063501Y-78060264D01*
X125063489Y-78060261D01*
X124908845Y-78029500D01*
X124908842Y-78029500D01*
X124751158Y-78029500D01*
X124751155Y-78029500D01*
X124596510Y-78060261D01*
X124596498Y-78060264D01*
X124450827Y-78120602D01*
X124450814Y-78120609D01*
X124319711Y-78208210D01*
X124319707Y-78208213D01*
X124208213Y-78319707D01*
X124208210Y-78319711D01*
X124120609Y-78450814D01*
X124120602Y-78450827D01*
X124093391Y-78516523D01*
X124049550Y-78570927D01*
X123983256Y-78592992D01*
X123915557Y-78575713D01*
X123867946Y-78524576D01*
X123856357Y-78488469D01*
X123856103Y-78486866D01*
X123851090Y-78455215D01*
X123773241Y-78215621D01*
X123773239Y-78215618D01*
X123773239Y-78215616D01*
X123710855Y-78093181D01*
X123658870Y-77991155D01*
X123595133Y-77903428D01*
X123510798Y-77787350D01*
X123510794Y-77787345D01*
X123332654Y-77609205D01*
X123332649Y-77609201D01*
X123128848Y-77461132D01*
X123128847Y-77461131D01*
X123128845Y-77461130D01*
X123034799Y-77413211D01*
X122904383Y-77346760D01*
X122664785Y-77268910D01*
X122422130Y-77230477D01*
X122415962Y-77229500D01*
X122164038Y-77229500D01*
X122157870Y-77230477D01*
X121915214Y-77268910D01*
X121675616Y-77346760D01*
X121451151Y-77461132D01*
X121247350Y-77609201D01*
X121247345Y-77609205D01*
X121069205Y-77787345D01*
X121069201Y-77787350D01*
X120921132Y-77991151D01*
X120885137Y-78061795D01*
X120837162Y-78112591D01*
X120774652Y-78129500D01*
X115971519Y-78129500D01*
X115904480Y-78109815D01*
X115883838Y-78093181D01*
X109402838Y-71612181D01*
X109369353Y-71550858D01*
X109374337Y-71481166D01*
X109416209Y-71425233D01*
X109481673Y-71400816D01*
X109490519Y-71400500D01*
X120608481Y-71400500D01*
X120637921Y-71409144D01*
X120667908Y-71415668D01*
X120672923Y-71419422D01*
X120675520Y-71420185D01*
X120696162Y-71436819D01*
X120723158Y-71463815D01*
X120756643Y-71525138D01*
X120753408Y-71589813D01*
X120728910Y-71665211D01*
X120689500Y-71914038D01*
X120689500Y-72165961D01*
X120728910Y-72414785D01*
X120806760Y-72654383D01*
X120921132Y-72878848D01*
X120989062Y-72972347D01*
X121012542Y-73038153D01*
X120996716Y-73106207D01*
X120976426Y-73132913D01*
X120847680Y-73261659D01*
X120755645Y-73410869D01*
X120755640Y-73410880D01*
X120700494Y-73577302D01*
X120690000Y-73680013D01*
X120690000Y-74330000D01*
X121799252Y-74330000D01*
X121777482Y-74367708D01*
X121740000Y-74507591D01*
X121740000Y-74652409D01*
X121777482Y-74792292D01*
X121799252Y-74830000D01*
X120690001Y-74830000D01*
X120690001Y-75479986D01*
X120700494Y-75582696D01*
X120700494Y-75582698D01*
X120755640Y-75749119D01*
X120755645Y-75749130D01*
X120847680Y-75898340D01*
X120847683Y-75898344D01*
X120971655Y-76022316D01*
X120971659Y-76022319D01*
X121120869Y-76114354D01*
X121120880Y-76114359D01*
X121287302Y-76169505D01*
X121390019Y-76179999D01*
X122039999Y-76179999D01*
X122040000Y-76179998D01*
X122040000Y-75070747D01*
X122077708Y-75092518D01*
X122217591Y-75130000D01*
X122362409Y-75130000D01*
X122502292Y-75092518D01*
X122540000Y-75070747D01*
X122540000Y-76179999D01*
X123189972Y-76179999D01*
X123189986Y-76179998D01*
X123292696Y-76169505D01*
X123292698Y-76169505D01*
X123459119Y-76114359D01*
X123459130Y-76114354D01*
X123608340Y-76022319D01*
X123608344Y-76022316D01*
X123732316Y-75898344D01*
X123732319Y-75898340D01*
X123824354Y-75749130D01*
X123824359Y-75749119D01*
X123879505Y-75582697D01*
X123889999Y-75479986D01*
X123889999Y-75022781D01*
X123909683Y-74955742D01*
X123962487Y-74909987D01*
X124031646Y-74900043D01*
X124095202Y-74929068D01*
X124115917Y-74954985D01*
X124117221Y-74954114D01*
X124208210Y-75090288D01*
X124208213Y-75090292D01*
X124319707Y-75201786D01*
X124319711Y-75201789D01*
X124450814Y-75289390D01*
X124450827Y-75289397D01*
X124596498Y-75349735D01*
X124596503Y-75349737D01*
X124751153Y-75380499D01*
X124751156Y-75380500D01*
X124751158Y-75380500D01*
X124908844Y-75380500D01*
X124908845Y-75380499D01*
X125063497Y-75349737D01*
X125209179Y-75289394D01*
X125340289Y-75201789D01*
X125451789Y-75090289D01*
X125539394Y-74959179D01*
X125599737Y-74813497D01*
X125630500Y-74658842D01*
X125630500Y-74501158D01*
X125630500Y-74501155D01*
X125630499Y-74501153D01*
X125599738Y-74346510D01*
X125599737Y-74346503D01*
X125566345Y-74265886D01*
X125539397Y-74200827D01*
X125539390Y-74200814D01*
X125451789Y-74069711D01*
X125451786Y-74069707D01*
X125340292Y-73958213D01*
X125340288Y-73958210D01*
X125209185Y-73870609D01*
X125209172Y-73870602D01*
X125063501Y-73810264D01*
X125063489Y-73810261D01*
X124908845Y-73779500D01*
X124908842Y-73779500D01*
X124751158Y-73779500D01*
X124751155Y-73779500D01*
X124596510Y-73810261D01*
X124596498Y-73810264D01*
X124450827Y-73870602D01*
X124450814Y-73870609D01*
X124319711Y-73958210D01*
X124319707Y-73958213D01*
X124208213Y-74069707D01*
X124208210Y-74069711D01*
X124117221Y-74205886D01*
X124114886Y-74204326D01*
X124074294Y-74245573D01*
X124006141Y-74260970D01*
X123940484Y-74237077D01*
X123898167Y-74181479D01*
X123889999Y-74137219D01*
X123889999Y-73680028D01*
X123889998Y-73680012D01*
X123879505Y-73577303D01*
X123879505Y-73577301D01*
X123824359Y-73410880D01*
X123824354Y-73410869D01*
X123732319Y-73261659D01*
X123732316Y-73261655D01*
X123603574Y-73132913D01*
X123570089Y-73071590D01*
X123575073Y-73001898D01*
X123590934Y-72972349D01*
X123658870Y-72878845D01*
X123773241Y-72654379D01*
X123851090Y-72414785D01*
X123856357Y-72381531D01*
X123886286Y-72318396D01*
X123945597Y-72281464D01*
X124015460Y-72282462D01*
X124073692Y-72321071D01*
X124093391Y-72353476D01*
X124120602Y-72419173D01*
X124120609Y-72419185D01*
X124208210Y-72550288D01*
X124208213Y-72550292D01*
X124319707Y-72661786D01*
X124319711Y-72661789D01*
X124450814Y-72749390D01*
X124450827Y-72749397D01*
X124596498Y-72809735D01*
X124596503Y-72809737D01*
X124751153Y-72840499D01*
X124751156Y-72840500D01*
X124751158Y-72840500D01*
X124908844Y-72840500D01*
X124908845Y-72840499D01*
X125063497Y-72809737D01*
X125209179Y-72749394D01*
X125340289Y-72661789D01*
X125451789Y-72550289D01*
X125539394Y-72419179D01*
X125599737Y-72273497D01*
X125630500Y-72118842D01*
X125630500Y-71961158D01*
X125630500Y-71961155D01*
X125630499Y-71961153D01*
X125599738Y-71806510D01*
X125599737Y-71806503D01*
X125588421Y-71779184D01*
X125539397Y-71660827D01*
X125539390Y-71660814D01*
X125451789Y-71529711D01*
X125451786Y-71529707D01*
X125340292Y-71418213D01*
X125340288Y-71418210D01*
X125209185Y-71330609D01*
X125209172Y-71330602D01*
X125063501Y-71270264D01*
X125063489Y-71270261D01*
X124908845Y-71239500D01*
X124908842Y-71239500D01*
X124751158Y-71239500D01*
X124751155Y-71239500D01*
X124596510Y-71270261D01*
X124596498Y-71270264D01*
X124450827Y-71330602D01*
X124450814Y-71330609D01*
X124319711Y-71418210D01*
X124319707Y-71418213D01*
X124208213Y-71529707D01*
X124208210Y-71529711D01*
X124120609Y-71660814D01*
X124120602Y-71660827D01*
X124093391Y-71726523D01*
X124049550Y-71780927D01*
X123983256Y-71802992D01*
X123915557Y-71785713D01*
X123867946Y-71734576D01*
X123856357Y-71698469D01*
X123856103Y-71696866D01*
X123851090Y-71665215D01*
X123773241Y-71425621D01*
X123773239Y-71425618D01*
X123773239Y-71425616D01*
X123724826Y-71330602D01*
X123658870Y-71201155D01*
X123639952Y-71175117D01*
X123510798Y-70997350D01*
X123510794Y-70997345D01*
X123332654Y-70819205D01*
X123332649Y-70819201D01*
X123128848Y-70671132D01*
X123128847Y-70671131D01*
X123128845Y-70671130D01*
X123058747Y-70635413D01*
X122904383Y-70556760D01*
X122664785Y-70478910D01*
X122415962Y-70439500D01*
X122164038Y-70439500D01*
X122114273Y-70447382D01*
X121915211Y-70478910D01*
X121839813Y-70503408D01*
X121769972Y-70505403D01*
X121713815Y-70473158D01*
X121396546Y-70155888D01*
X121396545Y-70155887D01*
X121281807Y-70079222D01*
X121154332Y-70026421D01*
X121154322Y-70026418D01*
X121018996Y-69999500D01*
X121018994Y-69999500D01*
X121018993Y-69999500D01*
X104130519Y-69999500D01*
X104063480Y-69979815D01*
X104017725Y-69927011D01*
X104007781Y-69857853D01*
X104036806Y-69794297D01*
X104042838Y-69787819D01*
X107623838Y-66206819D01*
X107685161Y-66173334D01*
X107711519Y-66170500D01*
X120824652Y-66170500D01*
X120833821Y-66173192D01*
X120843292Y-66171909D01*
X120866802Y-66182876D01*
X120891691Y-66190185D01*
X120899635Y-66198193D01*
X120906611Y-66201448D01*
X120920081Y-66218804D01*
X120929507Y-66228307D01*
X120932550Y-66233128D01*
X120971130Y-66308845D01*
X121041438Y-66405616D01*
X121043599Y-66409039D01*
X121052106Y-66438907D01*
X121062542Y-66468153D01*
X121061596Y-66472220D01*
X121062740Y-66476236D01*
X121053749Y-66505961D01*
X121046716Y-66536207D01*
X121043203Y-66540829D01*
X121042513Y-66543114D01*
X121039548Y-66545641D01*
X121026426Y-66562913D01*
X120897680Y-66691659D01*
X120805645Y-66840869D01*
X120805640Y-66840880D01*
X120750494Y-67007302D01*
X120740000Y-67110013D01*
X120740000Y-67760000D01*
X121849252Y-67760000D01*
X121827482Y-67797708D01*
X121790000Y-67937591D01*
X121790000Y-68082409D01*
X121827482Y-68222292D01*
X121849252Y-68260000D01*
X120740001Y-68260000D01*
X120740001Y-68909986D01*
X120750494Y-69012696D01*
X120750494Y-69012698D01*
X120805640Y-69179119D01*
X120805645Y-69179130D01*
X120897680Y-69328340D01*
X120897683Y-69328344D01*
X121021655Y-69452316D01*
X121021659Y-69452319D01*
X121170869Y-69544354D01*
X121170880Y-69544359D01*
X121337302Y-69599505D01*
X121440019Y-69609999D01*
X122089999Y-69609999D01*
X122090000Y-69609998D01*
X122090000Y-68500747D01*
X122127708Y-68522518D01*
X122267591Y-68560000D01*
X122412409Y-68560000D01*
X122552292Y-68522518D01*
X122590000Y-68500747D01*
X122590000Y-69609999D01*
X123239972Y-69609999D01*
X123239986Y-69609998D01*
X123342696Y-69599505D01*
X123342698Y-69599505D01*
X123509119Y-69544359D01*
X123509130Y-69544354D01*
X123658340Y-69452319D01*
X123658344Y-69452316D01*
X123782316Y-69328344D01*
X123782319Y-69328340D01*
X123874354Y-69179130D01*
X123874359Y-69179119D01*
X123929505Y-69012697D01*
X123939999Y-68909986D01*
X123939999Y-68452781D01*
X123959683Y-68385742D01*
X124012487Y-68339987D01*
X124081646Y-68330043D01*
X124145202Y-68359068D01*
X124165917Y-68384985D01*
X124167221Y-68384114D01*
X124258210Y-68520288D01*
X124258213Y-68520292D01*
X124369707Y-68631786D01*
X124369711Y-68631789D01*
X124500814Y-68719390D01*
X124500827Y-68719397D01*
X124646498Y-68779735D01*
X124646503Y-68779737D01*
X124801153Y-68810499D01*
X124801156Y-68810500D01*
X124801158Y-68810500D01*
X124958844Y-68810500D01*
X124958845Y-68810499D01*
X125113497Y-68779737D01*
X125259179Y-68719394D01*
X125390289Y-68631789D01*
X125501789Y-68520289D01*
X125589394Y-68389179D01*
X125649737Y-68243497D01*
X125680500Y-68088842D01*
X125680500Y-67931158D01*
X125680500Y-67931155D01*
X125680499Y-67931153D01*
X125649738Y-67776510D01*
X125649737Y-67776503D01*
X125642901Y-67760000D01*
X125589397Y-67630827D01*
X125589390Y-67630814D01*
X125501789Y-67499711D01*
X125501786Y-67499707D01*
X125390292Y-67388213D01*
X125390288Y-67388210D01*
X125259185Y-67300609D01*
X125259172Y-67300602D01*
X125113501Y-67240264D01*
X125113489Y-67240261D01*
X124958845Y-67209500D01*
X124958842Y-67209500D01*
X124801158Y-67209500D01*
X124801155Y-67209500D01*
X124646510Y-67240261D01*
X124646498Y-67240264D01*
X124500827Y-67300602D01*
X124500814Y-67300609D01*
X124369711Y-67388210D01*
X124369707Y-67388213D01*
X124258213Y-67499707D01*
X124258210Y-67499711D01*
X124167221Y-67635886D01*
X124164886Y-67634326D01*
X124124294Y-67675573D01*
X124056141Y-67690970D01*
X123990484Y-67667077D01*
X123948167Y-67611479D01*
X123939999Y-67567219D01*
X123939999Y-67110028D01*
X123939998Y-67110012D01*
X123929505Y-67007303D01*
X123929505Y-67007301D01*
X123874359Y-66840880D01*
X123874354Y-66840869D01*
X123782319Y-66691659D01*
X123782316Y-66691655D01*
X123653574Y-66562913D01*
X123620089Y-66501590D01*
X123625073Y-66431898D01*
X123640934Y-66402349D01*
X123708870Y-66308845D01*
X123823241Y-66084379D01*
X123901090Y-65844785D01*
X123906357Y-65811531D01*
X123936286Y-65748396D01*
X123995597Y-65711464D01*
X124065460Y-65712462D01*
X124123692Y-65751071D01*
X124143391Y-65783476D01*
X124170602Y-65849173D01*
X124170609Y-65849185D01*
X124258210Y-65980288D01*
X124258213Y-65980292D01*
X124369707Y-66091786D01*
X124369711Y-66091789D01*
X124500814Y-66179390D01*
X124500827Y-66179397D01*
X124618908Y-66228307D01*
X124646503Y-66239737D01*
X124801153Y-66270499D01*
X124801156Y-66270500D01*
X124801158Y-66270500D01*
X124958844Y-66270500D01*
X124958845Y-66270499D01*
X125113497Y-66239737D01*
X125259179Y-66179394D01*
X125390289Y-66091789D01*
X125501789Y-65980289D01*
X125589394Y-65849179D01*
X125649737Y-65703497D01*
X125680500Y-65548842D01*
X125680500Y-65391158D01*
X125680500Y-65391155D01*
X125680499Y-65391153D01*
X125649738Y-65236510D01*
X125649737Y-65236503D01*
X125619944Y-65164576D01*
X125589397Y-65090827D01*
X125589390Y-65090814D01*
X125501789Y-64959711D01*
X125501786Y-64959707D01*
X125390292Y-64848213D01*
X125390288Y-64848210D01*
X125259185Y-64760609D01*
X125259172Y-64760602D01*
X125113501Y-64700264D01*
X125113489Y-64700261D01*
X124958845Y-64669500D01*
X124958842Y-64669500D01*
X124801158Y-64669500D01*
X124801155Y-64669500D01*
X124646510Y-64700261D01*
X124646498Y-64700264D01*
X124500827Y-64760602D01*
X124500814Y-64760609D01*
X124369711Y-64848210D01*
X124369707Y-64848213D01*
X124258213Y-64959707D01*
X124258210Y-64959711D01*
X124170609Y-65090814D01*
X124170602Y-65090827D01*
X124143391Y-65156523D01*
X124099550Y-65210927D01*
X124033256Y-65232992D01*
X123965557Y-65215713D01*
X123917946Y-65164576D01*
X123906357Y-65128469D01*
X123906103Y-65126866D01*
X123901090Y-65095215D01*
X123823241Y-64855621D01*
X123823239Y-64855618D01*
X123823239Y-64855616D01*
X123770745Y-64752591D01*
X123708870Y-64631155D01*
X123689952Y-64605117D01*
X123560798Y-64427350D01*
X123560794Y-64427345D01*
X123382654Y-64249205D01*
X123382649Y-64249201D01*
X123178848Y-64101132D01*
X123178847Y-64101131D01*
X123178845Y-64101130D01*
X123108747Y-64065413D01*
X122954383Y-63986760D01*
X122714785Y-63908910D01*
X122465962Y-63869500D01*
X122214038Y-63869500D01*
X122089626Y-63889205D01*
X121965214Y-63908910D01*
X121725616Y-63986760D01*
X121501151Y-64101132D01*
X121297350Y-64249201D01*
X121297345Y-64249205D01*
X121119205Y-64427345D01*
X121119201Y-64427350D01*
X120971132Y-64631151D01*
X120935137Y-64701795D01*
X120887162Y-64752591D01*
X120824652Y-64769500D01*
X107301003Y-64769500D01*
X107192590Y-64791065D01*
X107192589Y-64791065D01*
X107165671Y-64796420D01*
X107038190Y-64849224D01*
X106923454Y-64925887D01*
X106923453Y-64925888D01*
X102676162Y-69173181D01*
X102614839Y-69206666D01*
X102588481Y-69209500D01*
X99630519Y-69209500D01*
X99563480Y-69189815D01*
X99517725Y-69137011D01*
X99507781Y-69067853D01*
X99536806Y-69004297D01*
X99542838Y-68997819D01*
X104783838Y-63756819D01*
X104845161Y-63723334D01*
X104871519Y-63720500D01*
X113928996Y-63720500D01*
X114020040Y-63702389D01*
X114064328Y-63693580D01*
X114128069Y-63667177D01*
X114191807Y-63640777D01*
X114191808Y-63640776D01*
X114191811Y-63640775D01*
X114306543Y-63564114D01*
X118213838Y-59656819D01*
X118275161Y-59623334D01*
X118301519Y-59620500D01*
X120884652Y-59620500D01*
X120893821Y-59623192D01*
X120903292Y-59621909D01*
X120926802Y-59632876D01*
X120951691Y-59640185D01*
X120959635Y-59648193D01*
X120966611Y-59651448D01*
X120980081Y-59668804D01*
X120989507Y-59678307D01*
X120992550Y-59683128D01*
X121031130Y-59758845D01*
X121101438Y-59855616D01*
X121103599Y-59859039D01*
X121112106Y-59888907D01*
X121122542Y-59918153D01*
X121121596Y-59922220D01*
X121122740Y-59926236D01*
X121113749Y-59955961D01*
X121106716Y-59986207D01*
X121103203Y-59990829D01*
X121102513Y-59993114D01*
X121099548Y-59995641D01*
X121086426Y-60012913D01*
X120957680Y-60141659D01*
X120865645Y-60290869D01*
X120865640Y-60290880D01*
X120810494Y-60457302D01*
X120800000Y-60560013D01*
X120800000Y-61210000D01*
X121909252Y-61210000D01*
X121887482Y-61247708D01*
X121850000Y-61387591D01*
X121850000Y-61532409D01*
X121887482Y-61672292D01*
X121909252Y-61710000D01*
X120800001Y-61710000D01*
X120800001Y-62359986D01*
X120810494Y-62462696D01*
X120810494Y-62462698D01*
X120865640Y-62629119D01*
X120865645Y-62629130D01*
X120957680Y-62778340D01*
X120957683Y-62778344D01*
X121081655Y-62902316D01*
X121081659Y-62902319D01*
X121230869Y-62994354D01*
X121230880Y-62994359D01*
X121397302Y-63049505D01*
X121500019Y-63059999D01*
X122149999Y-63059999D01*
X122150000Y-63059998D01*
X122150000Y-61950747D01*
X122187708Y-61972518D01*
X122327591Y-62010000D01*
X122472409Y-62010000D01*
X122612292Y-61972518D01*
X122650000Y-61950747D01*
X122650000Y-63059999D01*
X123299972Y-63059999D01*
X123299986Y-63059998D01*
X123402696Y-63049505D01*
X123402698Y-63049505D01*
X123569119Y-62994359D01*
X123569130Y-62994354D01*
X123718340Y-62902319D01*
X123718344Y-62902316D01*
X123842316Y-62778344D01*
X123842319Y-62778340D01*
X123934354Y-62629130D01*
X123934359Y-62629119D01*
X123989505Y-62462697D01*
X123999999Y-62359986D01*
X123999999Y-61902781D01*
X124019683Y-61835742D01*
X124072487Y-61789987D01*
X124141646Y-61780043D01*
X124205202Y-61809068D01*
X124225917Y-61834985D01*
X124227221Y-61834114D01*
X124318210Y-61970288D01*
X124318213Y-61970292D01*
X124429707Y-62081786D01*
X124429711Y-62081789D01*
X124560814Y-62169390D01*
X124560827Y-62169397D01*
X124706498Y-62229735D01*
X124706503Y-62229737D01*
X124861153Y-62260499D01*
X124861156Y-62260500D01*
X124861158Y-62260500D01*
X125018844Y-62260500D01*
X125018845Y-62260499D01*
X125173497Y-62229737D01*
X125319179Y-62169394D01*
X125450289Y-62081789D01*
X125561789Y-61970289D01*
X125649394Y-61839179D01*
X125709737Y-61693497D01*
X125740500Y-61538842D01*
X125740500Y-61381158D01*
X125740500Y-61381155D01*
X125740499Y-61381153D01*
X125709738Y-61226510D01*
X125709737Y-61226503D01*
X125676731Y-61146819D01*
X125649397Y-61080827D01*
X125649390Y-61080814D01*
X125561789Y-60949711D01*
X125561786Y-60949707D01*
X125450292Y-60838213D01*
X125450288Y-60838210D01*
X125319185Y-60750609D01*
X125319172Y-60750602D01*
X125173501Y-60690264D01*
X125173489Y-60690261D01*
X125018845Y-60659500D01*
X125018842Y-60659500D01*
X124861158Y-60659500D01*
X124861155Y-60659500D01*
X124706510Y-60690261D01*
X124706498Y-60690264D01*
X124560827Y-60750602D01*
X124560814Y-60750609D01*
X124429711Y-60838210D01*
X124429707Y-60838213D01*
X124318213Y-60949707D01*
X124318210Y-60949711D01*
X124227221Y-61085886D01*
X124224886Y-61084326D01*
X124184294Y-61125573D01*
X124116141Y-61140970D01*
X124050484Y-61117077D01*
X124008167Y-61061479D01*
X123999999Y-61017219D01*
X123999999Y-60560028D01*
X123999998Y-60560012D01*
X123989505Y-60457303D01*
X123989505Y-60457301D01*
X123934359Y-60290880D01*
X123934354Y-60290869D01*
X123842319Y-60141659D01*
X123842316Y-60141655D01*
X123713574Y-60012913D01*
X123680089Y-59951590D01*
X123685073Y-59881898D01*
X123700934Y-59852349D01*
X123768870Y-59758845D01*
X123883241Y-59534379D01*
X123961090Y-59294785D01*
X123966357Y-59261531D01*
X123996286Y-59198396D01*
X124055597Y-59161464D01*
X124125460Y-59162462D01*
X124183692Y-59201071D01*
X124203391Y-59233476D01*
X124230602Y-59299173D01*
X124230609Y-59299185D01*
X124318210Y-59430288D01*
X124318213Y-59430292D01*
X124429707Y-59541786D01*
X124429711Y-59541789D01*
X124560814Y-59629390D01*
X124560827Y-59629397D01*
X124666533Y-59673181D01*
X124706503Y-59689737D01*
X124805858Y-59709500D01*
X124861153Y-59720499D01*
X124861156Y-59720500D01*
X124861158Y-59720500D01*
X125018844Y-59720500D01*
X125018845Y-59720499D01*
X125173497Y-59689737D01*
X125319179Y-59629394D01*
X125450289Y-59541789D01*
X125561789Y-59430289D01*
X125649394Y-59299179D01*
X125709737Y-59153497D01*
X125740500Y-58998842D01*
X125740500Y-58841158D01*
X125740500Y-58841155D01*
X125740499Y-58841153D01*
X125709738Y-58686510D01*
X125709737Y-58686503D01*
X125702086Y-58668032D01*
X125649397Y-58540827D01*
X125649390Y-58540814D01*
X125561789Y-58409711D01*
X125561786Y-58409707D01*
X125450292Y-58298213D01*
X125450288Y-58298210D01*
X125319185Y-58210609D01*
X125319172Y-58210602D01*
X125173501Y-58150264D01*
X125173489Y-58150261D01*
X125018845Y-58119500D01*
X125018842Y-58119500D01*
X124861158Y-58119500D01*
X124861155Y-58119500D01*
X124706510Y-58150261D01*
X124706498Y-58150264D01*
X124560827Y-58210602D01*
X124560814Y-58210609D01*
X124429711Y-58298210D01*
X124429707Y-58298213D01*
X124318213Y-58409707D01*
X124318210Y-58409711D01*
X124230609Y-58540814D01*
X124230602Y-58540827D01*
X124203391Y-58606523D01*
X124159550Y-58660927D01*
X124093256Y-58682992D01*
X124025557Y-58665713D01*
X123977946Y-58614576D01*
X123966357Y-58578469D01*
X123963659Y-58561437D01*
X123961090Y-58545215D01*
X123883241Y-58305621D01*
X123883239Y-58305618D01*
X123883239Y-58305616D01*
X123830745Y-58202591D01*
X123768870Y-58081155D01*
X123749952Y-58055117D01*
X123620798Y-57877350D01*
X123620794Y-57877345D01*
X123442654Y-57699205D01*
X123442649Y-57699201D01*
X123238848Y-57551132D01*
X123238847Y-57551131D01*
X123238845Y-57551130D01*
X123168747Y-57515413D01*
X123014383Y-57436760D01*
X122774785Y-57358910D01*
X122525962Y-57319500D01*
X122274038Y-57319500D01*
X122149626Y-57339205D01*
X122025214Y-57358910D01*
X121785616Y-57436760D01*
X121561151Y-57551132D01*
X121357350Y-57699201D01*
X121357345Y-57699205D01*
X121179205Y-57877345D01*
X121179201Y-57877350D01*
X121031132Y-58081151D01*
X120995137Y-58151795D01*
X120947162Y-58202591D01*
X120884652Y-58219500D01*
X117891004Y-58219500D01*
X117755677Y-58246418D01*
X117755667Y-58246421D01*
X117628192Y-58299222D01*
X117513454Y-58375887D01*
X117513453Y-58375888D01*
X113606162Y-62283181D01*
X113544839Y-62316666D01*
X113518481Y-62319500D01*
X104461004Y-62319500D01*
X104325677Y-62346418D01*
X104325667Y-62346421D01*
X104198192Y-62399222D01*
X104083454Y-62475887D01*
X104083453Y-62475888D01*
X98306162Y-68253181D01*
X98244839Y-68286666D01*
X98218481Y-68289500D01*
X97954926Y-68289500D01*
X97887887Y-68269815D01*
X97842132Y-68217011D01*
X97832188Y-68147853D01*
X97854608Y-68092615D01*
X97914630Y-68010000D01*
X97949787Y-67961610D01*
X98042720Y-67779219D01*
X98105977Y-67584534D01*
X98138000Y-67382352D01*
X98138000Y-67177648D01*
X98127290Y-67110028D01*
X98105977Y-66975465D01*
X98042718Y-66780776D01*
X97996869Y-66690793D01*
X97949787Y-66598390D01*
X97904609Y-66536207D01*
X97829471Y-66432786D01*
X97684717Y-66288032D01*
X97684712Y-66288028D01*
X97589115Y-66218573D01*
X97546449Y-66163243D01*
X97538000Y-66118255D01*
X97538000Y-65054019D01*
X97557685Y-64986980D01*
X97574319Y-64966338D01*
X101393838Y-61146819D01*
X101455161Y-61113334D01*
X101481519Y-61110500D01*
X111298996Y-61110500D01*
X111390040Y-61092389D01*
X111434328Y-61083580D01*
X111498069Y-61057177D01*
X111561807Y-61030777D01*
X111561808Y-61030776D01*
X111561811Y-61030775D01*
X111676543Y-60954114D01*
X119663838Y-52966819D01*
X119725161Y-52933334D01*
X119751519Y-52930500D01*
X120904652Y-52930500D01*
X120913821Y-52933192D01*
X120923292Y-52931909D01*
X120946802Y-52942876D01*
X120971691Y-52950185D01*
X120979635Y-52958193D01*
X120986611Y-52961448D01*
X121000081Y-52978804D01*
X121009507Y-52988307D01*
X121012550Y-52993128D01*
X121051130Y-53068845D01*
X121121438Y-53165616D01*
X121123599Y-53169039D01*
X121132106Y-53198907D01*
X121142542Y-53228153D01*
X121141596Y-53232220D01*
X121142740Y-53236236D01*
X121133749Y-53265961D01*
X121126716Y-53296207D01*
X121123203Y-53300829D01*
X121122513Y-53303114D01*
X121119548Y-53305641D01*
X121106426Y-53322913D01*
X120977680Y-53451659D01*
X120885645Y-53600869D01*
X120885640Y-53600880D01*
X120830494Y-53767302D01*
X120820000Y-53870013D01*
X120820000Y-54520000D01*
X121929252Y-54520000D01*
X121907482Y-54557708D01*
X121870000Y-54697591D01*
X121870000Y-54842409D01*
X121907482Y-54982292D01*
X121929252Y-55020000D01*
X120820001Y-55020000D01*
X120820001Y-55669986D01*
X120830494Y-55772696D01*
X120830494Y-55772698D01*
X120885640Y-55939119D01*
X120885645Y-55939130D01*
X120977680Y-56088340D01*
X120977683Y-56088344D01*
X121101655Y-56212316D01*
X121101659Y-56212319D01*
X121250869Y-56304354D01*
X121250880Y-56304359D01*
X121417302Y-56359505D01*
X121520019Y-56369999D01*
X122169999Y-56369999D01*
X122170000Y-56369998D01*
X122170000Y-55260747D01*
X122207708Y-55282518D01*
X122347591Y-55320000D01*
X122492409Y-55320000D01*
X122632292Y-55282518D01*
X122670000Y-55260747D01*
X122670000Y-56369999D01*
X123319972Y-56369999D01*
X123319986Y-56369998D01*
X123422696Y-56359505D01*
X123422698Y-56359505D01*
X123589119Y-56304359D01*
X123589130Y-56304354D01*
X123738340Y-56212319D01*
X123738344Y-56212316D01*
X123862316Y-56088344D01*
X123862319Y-56088340D01*
X123954354Y-55939130D01*
X123954359Y-55939119D01*
X124009505Y-55772697D01*
X124019999Y-55669986D01*
X124019999Y-55212781D01*
X124039683Y-55145742D01*
X124092487Y-55099987D01*
X124161646Y-55090043D01*
X124225202Y-55119068D01*
X124245917Y-55144985D01*
X124247221Y-55144114D01*
X124338210Y-55280288D01*
X124338213Y-55280292D01*
X124449707Y-55391786D01*
X124449711Y-55391789D01*
X124580814Y-55479390D01*
X124580827Y-55479397D01*
X124726498Y-55539735D01*
X124726503Y-55539737D01*
X124881153Y-55570499D01*
X124881156Y-55570500D01*
X124881158Y-55570500D01*
X125038844Y-55570500D01*
X125038845Y-55570499D01*
X125193497Y-55539737D01*
X125339179Y-55479394D01*
X125470289Y-55391789D01*
X125581789Y-55280289D01*
X125669394Y-55149179D01*
X125729737Y-55003497D01*
X125760500Y-54848842D01*
X125760500Y-54691158D01*
X125760500Y-54691155D01*
X125760499Y-54691153D01*
X125751120Y-54644000D01*
X125729737Y-54536503D01*
X125710681Y-54490498D01*
X125669397Y-54390827D01*
X125669390Y-54390814D01*
X125581789Y-54259711D01*
X125581786Y-54259707D01*
X125470292Y-54148213D01*
X125470288Y-54148210D01*
X125339185Y-54060609D01*
X125339172Y-54060602D01*
X125193501Y-54000264D01*
X125193489Y-54000261D01*
X125038845Y-53969500D01*
X125038842Y-53969500D01*
X124881158Y-53969500D01*
X124881155Y-53969500D01*
X124726510Y-54000261D01*
X124726498Y-54000264D01*
X124580827Y-54060602D01*
X124580814Y-54060609D01*
X124449711Y-54148210D01*
X124449707Y-54148213D01*
X124338213Y-54259707D01*
X124338210Y-54259711D01*
X124247221Y-54395886D01*
X124244886Y-54394326D01*
X124204294Y-54435573D01*
X124136141Y-54450970D01*
X124070484Y-54427077D01*
X124028167Y-54371479D01*
X124019999Y-54327219D01*
X124019999Y-53870028D01*
X124019998Y-53870012D01*
X124009505Y-53767303D01*
X124009505Y-53767301D01*
X123954359Y-53600880D01*
X123954354Y-53600869D01*
X123862319Y-53451659D01*
X123862316Y-53451655D01*
X123733574Y-53322913D01*
X123700089Y-53261590D01*
X123705073Y-53191898D01*
X123720934Y-53162349D01*
X123788870Y-53068845D01*
X123903241Y-52844379D01*
X123981090Y-52604785D01*
X123986357Y-52571531D01*
X124016286Y-52508396D01*
X124075597Y-52471464D01*
X124145460Y-52472462D01*
X124203692Y-52511071D01*
X124223391Y-52543476D01*
X124250602Y-52609173D01*
X124250609Y-52609185D01*
X124338210Y-52740288D01*
X124338213Y-52740292D01*
X124449707Y-52851786D01*
X124449711Y-52851789D01*
X124580814Y-52939390D01*
X124580827Y-52939397D01*
X124698908Y-52988307D01*
X124726503Y-52999737D01*
X124881153Y-53030499D01*
X124881156Y-53030500D01*
X124881158Y-53030500D01*
X125038844Y-53030500D01*
X125038845Y-53030499D01*
X125193497Y-52999737D01*
X125339179Y-52939394D01*
X125470289Y-52851789D01*
X125581789Y-52740289D01*
X125669394Y-52609179D01*
X125729737Y-52463497D01*
X125760500Y-52308842D01*
X125760500Y-52151158D01*
X125760500Y-52151155D01*
X125760499Y-52151153D01*
X125733113Y-52013475D01*
X125729737Y-51996503D01*
X125729735Y-51996498D01*
X125669397Y-51850827D01*
X125669390Y-51850814D01*
X125581789Y-51719711D01*
X125581786Y-51719707D01*
X125470292Y-51608213D01*
X125470288Y-51608210D01*
X125339185Y-51520609D01*
X125339172Y-51520602D01*
X125193501Y-51460264D01*
X125193489Y-51460261D01*
X125038845Y-51429500D01*
X125038842Y-51429500D01*
X124881158Y-51429500D01*
X124881155Y-51429500D01*
X124726510Y-51460261D01*
X124726498Y-51460264D01*
X124580827Y-51520602D01*
X124580814Y-51520609D01*
X124449711Y-51608210D01*
X124449707Y-51608213D01*
X124338213Y-51719707D01*
X124338210Y-51719711D01*
X124250609Y-51850814D01*
X124250602Y-51850827D01*
X124223391Y-51916523D01*
X124179550Y-51970927D01*
X124113256Y-51992992D01*
X124045557Y-51975713D01*
X123997946Y-51924576D01*
X123986357Y-51888469D01*
X123985414Y-51882516D01*
X123981090Y-51855215D01*
X123903241Y-51615621D01*
X123903239Y-51615618D01*
X123903239Y-51615616D01*
X123859360Y-51529500D01*
X123788870Y-51391155D01*
X123766710Y-51360654D01*
X123640798Y-51187350D01*
X123640794Y-51187345D01*
X123462654Y-51009205D01*
X123462649Y-51009201D01*
X123258848Y-50861132D01*
X123258847Y-50861131D01*
X123258845Y-50861130D01*
X123188747Y-50825413D01*
X123034383Y-50746760D01*
X122794785Y-50668910D01*
X122545962Y-50629500D01*
X122294038Y-50629500D01*
X122169626Y-50649205D01*
X122045214Y-50668910D01*
X121805616Y-50746760D01*
X121581151Y-50861132D01*
X121377350Y-51009201D01*
X121377345Y-51009205D01*
X121199205Y-51187345D01*
X121199201Y-51187350D01*
X121051132Y-51391151D01*
X121015137Y-51461795D01*
X120967162Y-51512591D01*
X120904652Y-51529500D01*
X119341004Y-51529500D01*
X119205677Y-51556418D01*
X119205667Y-51556421D01*
X119078192Y-51609222D01*
X118963454Y-51685887D01*
X118963453Y-51685888D01*
X110976162Y-59673181D01*
X110914839Y-59706666D01*
X110888481Y-59709500D01*
X101071004Y-59709500D01*
X100935677Y-59736418D01*
X100935667Y-59736421D01*
X100808192Y-59789222D01*
X100693454Y-59865887D01*
X96293387Y-64265954D01*
X96216722Y-64380692D01*
X96163921Y-64508167D01*
X96163918Y-64508177D01*
X96137000Y-64643504D01*
X96137000Y-66118255D01*
X96117315Y-66185294D01*
X96085885Y-66218573D01*
X95990287Y-66288028D01*
X95990282Y-66288032D01*
X95845528Y-66432786D01*
X95725215Y-66598386D01*
X95632281Y-66780776D01*
X95569022Y-66975465D01*
X95537000Y-67177648D01*
X95537000Y-67382351D01*
X95569022Y-67584534D01*
X95632281Y-67779223D01*
X95696191Y-67904653D01*
X95709695Y-67931155D01*
X95725215Y-67961613D01*
X95820392Y-68092615D01*
X95824623Y-68104474D01*
X95832868Y-68113989D01*
X95836141Y-68136756D01*
X95843872Y-68158422D01*
X95841020Y-68170685D01*
X95842812Y-68183147D01*
X95833255Y-68204071D01*
X95828046Y-68226475D01*
X95819017Y-68235248D01*
X95813787Y-68246703D01*
X95794434Y-68259139D01*
X95777940Y-68275170D01*
X95764194Y-68278573D01*
X95755009Y-68284477D01*
X95720074Y-68289500D01*
X95545269Y-68289500D01*
X95478230Y-68269815D01*
X95457588Y-68253181D01*
X94810555Y-67606148D01*
X94777070Y-67544825D01*
X94775763Y-67499068D01*
X94781951Y-67460000D01*
X94794250Y-67382352D01*
X94794250Y-67177648D01*
X94783540Y-67110028D01*
X94762227Y-66975465D01*
X94698968Y-66780776D01*
X94653119Y-66690793D01*
X94606037Y-66598390D01*
X94560859Y-66536207D01*
X94485721Y-66432786D01*
X94340963Y-66288028D01*
X94175363Y-66167715D01*
X94175362Y-66167714D01*
X94175360Y-66167713D01*
X94118403Y-66138691D01*
X93992973Y-66074781D01*
X93798284Y-66011522D01*
X93601083Y-65980289D01*
X93596102Y-65979500D01*
X93391398Y-65979500D01*
X93386417Y-65980289D01*
X93189215Y-66011522D01*
X92994526Y-66074781D01*
X92812136Y-66167715D01*
X92646536Y-66288028D01*
X92501778Y-66432786D01*
X92381465Y-66598386D01*
X92288531Y-66780776D01*
X92225272Y-66975465D01*
X92193250Y-67177648D01*
X92193250Y-67382351D01*
X92225272Y-67584534D01*
X92288531Y-67779223D01*
X92352441Y-67904653D01*
X92365945Y-67931155D01*
X92381465Y-67961613D01*
X92501778Y-68127213D01*
X92646536Y-68271971D01*
X92800891Y-68384114D01*
X92812140Y-68392287D01*
X92925624Y-68450110D01*
X92994526Y-68485218D01*
X92994528Y-68485218D01*
X92994531Y-68485220D01*
X93098887Y-68519127D01*
X93189215Y-68548477D01*
X93290307Y-68564488D01*
X93391398Y-68580500D01*
X93391399Y-68580500D01*
X93596100Y-68580500D01*
X93596102Y-68580500D01*
X93712818Y-68562013D01*
X93782112Y-68570967D01*
X93819898Y-68596805D01*
X94220912Y-68997819D01*
X94254397Y-69059142D01*
X94249413Y-69128834D01*
X94207541Y-69184767D01*
X94142077Y-69209184D01*
X94133231Y-69209500D01*
X93121519Y-69209500D01*
X93054480Y-69189815D01*
X93033838Y-69173181D01*
X91466805Y-67606148D01*
X91433320Y-67544825D01*
X91432013Y-67499068D01*
X91438201Y-67460000D01*
X91450500Y-67382352D01*
X91450500Y-67177648D01*
X91439790Y-67110028D01*
X91418477Y-66975465D01*
X91355218Y-66780776D01*
X91309369Y-66690793D01*
X91262287Y-66598390D01*
X91217109Y-66536207D01*
X91141971Y-66432786D01*
X90997213Y-66288028D01*
X90831613Y-66167715D01*
X90831612Y-66167714D01*
X90831610Y-66167713D01*
X90774653Y-66138691D01*
X90649223Y-66074781D01*
X90454534Y-66011522D01*
X90257333Y-65980289D01*
X90252352Y-65979500D01*
X90047648Y-65979500D01*
X90042667Y-65980289D01*
X89845465Y-66011522D01*
X89650776Y-66074781D01*
X89468386Y-66167715D01*
X89302786Y-66288028D01*
X89158028Y-66432786D01*
X89037715Y-66598386D01*
X88944781Y-66780776D01*
X88881522Y-66975465D01*
X88849500Y-67177648D01*
X88849500Y-67382351D01*
X88881522Y-67584534D01*
X88944781Y-67779223D01*
X89008691Y-67904653D01*
X89022195Y-67931155D01*
X89037715Y-67961613D01*
X89158028Y-68127213D01*
X89302786Y-68271971D01*
X89457141Y-68384114D01*
X89468390Y-68392287D01*
X89581874Y-68450110D01*
X89650776Y-68485218D01*
X89650778Y-68485218D01*
X89650781Y-68485220D01*
X89755137Y-68519127D01*
X89845465Y-68548477D01*
X89946557Y-68564488D01*
X90047648Y-68580500D01*
X90047649Y-68580500D01*
X90252350Y-68580500D01*
X90252352Y-68580500D01*
X90369068Y-68562013D01*
X90438362Y-68570967D01*
X90476148Y-68596805D01*
X91667162Y-69787819D01*
X91700647Y-69849142D01*
X91695663Y-69918834D01*
X91653791Y-69974767D01*
X91588327Y-69999184D01*
X91579481Y-69999500D01*
X90567768Y-69999500D01*
X90500729Y-69979815D01*
X90480087Y-69963181D01*
X88123055Y-67606148D01*
X88089570Y-67544825D01*
X88088263Y-67499068D01*
X88094451Y-67460000D01*
X88106750Y-67382352D01*
X88106750Y-67177648D01*
X88096040Y-67110028D01*
X88074727Y-66975465D01*
X88011468Y-66780776D01*
X87965619Y-66690793D01*
X87918537Y-66598390D01*
X87873359Y-66536207D01*
X87798221Y-66432786D01*
X87653463Y-66288028D01*
X87487863Y-66167715D01*
X87487862Y-66167714D01*
X87487860Y-66167713D01*
X87430903Y-66138691D01*
X87305473Y-66074781D01*
X87110784Y-66011522D01*
X86913583Y-65980289D01*
X86908602Y-65979500D01*
X86703898Y-65979500D01*
X86698917Y-65980289D01*
X86501715Y-66011522D01*
X86307026Y-66074781D01*
X86124636Y-66167715D01*
X85959036Y-66288028D01*
X85814278Y-66432786D01*
X85693965Y-66598386D01*
X85601031Y-66780776D01*
X85537772Y-66975465D01*
X85505750Y-67177648D01*
X85505750Y-67382351D01*
X85537772Y-67584534D01*
X85601031Y-67779223D01*
X85664941Y-67904653D01*
X85678445Y-67931155D01*
X85693965Y-67961613D01*
X85814278Y-68127213D01*
X85959036Y-68271971D01*
X86113391Y-68384114D01*
X86124640Y-68392287D01*
X86238124Y-68450110D01*
X86307026Y-68485218D01*
X86307028Y-68485218D01*
X86307031Y-68485220D01*
X86411387Y-68519127D01*
X86501715Y-68548477D01*
X86602807Y-68564488D01*
X86703898Y-68580500D01*
X86703899Y-68580500D01*
X86908600Y-68580500D01*
X86908602Y-68580500D01*
X87025318Y-68562013D01*
X87094612Y-68570967D01*
X87132398Y-68596805D01*
X89233413Y-70697819D01*
X89266898Y-70759142D01*
X89261914Y-70828834D01*
X89220042Y-70884767D01*
X89154578Y-70909184D01*
X89145732Y-70909500D01*
X88134019Y-70909500D01*
X88066980Y-70889815D01*
X88046338Y-70873181D01*
X84779305Y-67606148D01*
X84745820Y-67544825D01*
X84744513Y-67499068D01*
X84750701Y-67460000D01*
X84763000Y-67382352D01*
X84763000Y-67177648D01*
X84752290Y-67110028D01*
X84730977Y-66975465D01*
X84667718Y-66780776D01*
X84621869Y-66690793D01*
X84574787Y-66598390D01*
X84529609Y-66536207D01*
X84454471Y-66432786D01*
X84309713Y-66288028D01*
X84144113Y-66167715D01*
X84144112Y-66167714D01*
X84144110Y-66167713D01*
X84087153Y-66138691D01*
X83961723Y-66074781D01*
X83767034Y-66011522D01*
X83569833Y-65980289D01*
X83564852Y-65979500D01*
X83360148Y-65979500D01*
X83355167Y-65980289D01*
X83157965Y-66011522D01*
X82963276Y-66074781D01*
X82780886Y-66167715D01*
X82615286Y-66288028D01*
X82470528Y-66432786D01*
X82350215Y-66598386D01*
X82257281Y-66780776D01*
X82194022Y-66975465D01*
X82162000Y-67177648D01*
X82162000Y-67382351D01*
X82194022Y-67584534D01*
X82257281Y-67779223D01*
X82321191Y-67904653D01*
X82334695Y-67931155D01*
X82350215Y-67961613D01*
X82470528Y-68127213D01*
X82615286Y-68271971D01*
X82769641Y-68384114D01*
X82780890Y-68392287D01*
X82894374Y-68450110D01*
X82963276Y-68485218D01*
X82963278Y-68485218D01*
X82963281Y-68485220D01*
X83067637Y-68519127D01*
X83157965Y-68548477D01*
X83259057Y-68564488D01*
X83360148Y-68580500D01*
X83360149Y-68580500D01*
X83564850Y-68580500D01*
X83564852Y-68580500D01*
X83681568Y-68562013D01*
X83750862Y-68570967D01*
X83788648Y-68596805D01*
X86759662Y-71567819D01*
X86793147Y-71629142D01*
X86788163Y-71698834D01*
X86746291Y-71754767D01*
X86680827Y-71779184D01*
X86671981Y-71779500D01*
X72761003Y-71779500D01*
X72663760Y-71798843D01*
X72663758Y-71798843D01*
X72652591Y-71801065D01*
X72625671Y-71806420D01*
X72572866Y-71828292D01*
X72498189Y-71859225D01*
X72498188Y-71859226D01*
X72477199Y-71873249D01*
X72477192Y-71873253D01*
X72383457Y-71935886D01*
X72383453Y-71935889D01*
X70485888Y-73833453D01*
X70485887Y-73833454D01*
X70409222Y-73948192D01*
X70356421Y-74075667D01*
X70356418Y-74075679D01*
X70337457Y-74171005D01*
X70337457Y-74171008D01*
X70329500Y-74211006D01*
X70329500Y-76836371D01*
X70309815Y-76903410D01*
X70257011Y-76949165D01*
X70187853Y-76959109D01*
X70167182Y-76954302D01*
X70051138Y-76916597D01*
X69919711Y-76895781D01*
X69880051Y-76889500D01*
X69706829Y-76889500D01*
X69667168Y-76895781D01*
X69535742Y-76916597D01*
X69370992Y-76970128D01*
X69216651Y-77048768D01*
X69152941Y-77095057D01*
X69076512Y-77150586D01*
X69076510Y-77150588D01*
X69076509Y-77150588D01*
X68954028Y-77273069D01*
X68954028Y-77273070D01*
X68954026Y-77273072D01*
X68953790Y-77273397D01*
X68852208Y-77413211D01*
X68773568Y-77567552D01*
X68720037Y-77732302D01*
X68692940Y-77903389D01*
X68692940Y-78876610D01*
X68719454Y-79044017D01*
X68720038Y-79047701D01*
X68773567Y-79212445D01*
X68852208Y-79366788D01*
X68954026Y-79506928D01*
X69076512Y-79629414D01*
X69216652Y-79731232D01*
X69370995Y-79809873D01*
X69535739Y-79863402D01*
X69706829Y-79890500D01*
X69706830Y-79890500D01*
X69880050Y-79890500D01*
X69880051Y-79890500D01*
X70051141Y-79863402D01*
X70167184Y-79825696D01*
X70237022Y-79823702D01*
X70296855Y-79859782D01*
X70327684Y-79922483D01*
X70329500Y-79943628D01*
X70329500Y-83105950D01*
X70309815Y-83172989D01*
X70257011Y-83218744D01*
X70187853Y-83228688D01*
X70124297Y-83199663D01*
X70117819Y-83193631D01*
X69989464Y-83065276D01*
X69989459Y-83065272D01*
X69817557Y-82940379D01*
X69628215Y-82843903D01*
X69426124Y-82778241D01*
X69360000Y-82767768D01*
X69360000Y-83815854D01*
X69293343Y-83777370D01*
X69172535Y-83745000D01*
X69047465Y-83745000D01*
X68926657Y-83777370D01*
X68860000Y-83815854D01*
X68860000Y-82767768D01*
X68859999Y-82767768D01*
X68793875Y-82778241D01*
X68591784Y-82843903D01*
X68402442Y-82940379D01*
X68230541Y-83065271D01*
X68091668Y-83204144D01*
X68030345Y-83237628D01*
X67960653Y-83232644D01*
X67904720Y-83190772D01*
X67898448Y-83181558D01*
X67873889Y-83141742D01*
X67802712Y-83026344D01*
X67678656Y-82902288D01*
X67565539Y-82832517D01*
X67529336Y-82810187D01*
X67529331Y-82810185D01*
X67521675Y-82807648D01*
X67362797Y-82755001D01*
X67362795Y-82755000D01*
X67260010Y-82744500D01*
X65959998Y-82744500D01*
X65959981Y-82744501D01*
X65857203Y-82755000D01*
X65857200Y-82755001D01*
X65690668Y-82810185D01*
X65690663Y-82810187D01*
X65541342Y-82902289D01*
X65417289Y-83026342D01*
X65325187Y-83175663D01*
X65325185Y-83175668D01*
X65320180Y-83190772D01*
X65270001Y-83342203D01*
X65270001Y-83342204D01*
X65270000Y-83342204D01*
X65259500Y-83444983D01*
X65259500Y-84995001D01*
X65259501Y-84995018D01*
X65270000Y-85097796D01*
X65270001Y-85097799D01*
X65311830Y-85224028D01*
X65314232Y-85293856D01*
X65278500Y-85353898D01*
X65215980Y-85385091D01*
X65169934Y-85384650D01*
X65118015Y-85374323D01*
X65093767Y-85369500D01*
X64926233Y-85369500D01*
X64926228Y-85369500D01*
X64761925Y-85402182D01*
X64761917Y-85402184D01*
X64607139Y-85466295D01*
X64467837Y-85559373D01*
X64349373Y-85677837D01*
X64256295Y-85817139D01*
X64192184Y-85971917D01*
X64192182Y-85971925D01*
X64159500Y-86136228D01*
X64159500Y-86303771D01*
X64192182Y-86468074D01*
X64192184Y-86468082D01*
X64256295Y-86622860D01*
X64349373Y-86762162D01*
X64467837Y-86880626D01*
X64549491Y-86935185D01*
X64607137Y-86973703D01*
X64761918Y-87037816D01*
X64926228Y-87070499D01*
X64926232Y-87070500D01*
X64926233Y-87070500D01*
X65093768Y-87070500D01*
X65093769Y-87070499D01*
X65258082Y-87037816D01*
X65412863Y-86973703D01*
X65552162Y-86880626D01*
X65670626Y-86762162D01*
X65763703Y-86622863D01*
X65827816Y-86468082D01*
X65860500Y-86303767D01*
X65860500Y-86136233D01*
X65827816Y-85971918D01*
X65781916Y-85861108D01*
X65774448Y-85791641D01*
X65805723Y-85729162D01*
X65865811Y-85693509D01*
X65909081Y-85690299D01*
X65912300Y-85690627D01*
X65959991Y-85695500D01*
X67260008Y-85695499D01*
X67362797Y-85684999D01*
X67529334Y-85629814D01*
X67678656Y-85537712D01*
X67802712Y-85413656D01*
X67894814Y-85264334D01*
X67894814Y-85264331D01*
X67898448Y-85258441D01*
X67950395Y-85211716D01*
X68019358Y-85200493D01*
X68083440Y-85228336D01*
X68091668Y-85235856D01*
X68230535Y-85374723D01*
X68230540Y-85374727D01*
X68402442Y-85499620D01*
X68591782Y-85596095D01*
X68793871Y-85661757D01*
X68860000Y-85672231D01*
X68860000Y-84624145D01*
X68926657Y-84662630D01*
X69047465Y-84695000D01*
X69172535Y-84695000D01*
X69293343Y-84662630D01*
X69360000Y-84624145D01*
X69360000Y-85672230D01*
X69426126Y-85661757D01*
X69426129Y-85661757D01*
X69628217Y-85596095D01*
X69817557Y-85499620D01*
X69989459Y-85374727D01*
X69989464Y-85374723D01*
X70139721Y-85224466D01*
X70259371Y-85059781D01*
X70314701Y-85017115D01*
X70384314Y-85011136D01*
X70446110Y-85043741D01*
X70460008Y-85059781D01*
X70579890Y-85224785D01*
X70579894Y-85224790D01*
X70730213Y-85375109D01*
X70902179Y-85500048D01*
X70902181Y-85500049D01*
X70902184Y-85500051D01*
X71091588Y-85596557D01*
X71293757Y-85662246D01*
X71503713Y-85695500D01*
X71503714Y-85695500D01*
X71716286Y-85695500D01*
X71716287Y-85695500D01*
X71926243Y-85662246D01*
X72128412Y-85596557D01*
X72317816Y-85500051D01*
X72364276Y-85466296D01*
X72489786Y-85375109D01*
X72489788Y-85375106D01*
X72489792Y-85375104D01*
X72640104Y-85224792D01*
X72759683Y-85060204D01*
X72815011Y-85017540D01*
X72884624Y-85011561D01*
X72946420Y-85044166D01*
X72960313Y-85060199D01*
X73028405Y-85153920D01*
X73079896Y-85224792D01*
X73230213Y-85375109D01*
X73402179Y-85500048D01*
X73402181Y-85500049D01*
X73402184Y-85500051D01*
X73591588Y-85596557D01*
X73793757Y-85662246D01*
X74003713Y-85695500D01*
X74003714Y-85695500D01*
X74216286Y-85695500D01*
X74216287Y-85695500D01*
X74426243Y-85662246D01*
X74628412Y-85596557D01*
X74817816Y-85500051D01*
X74864276Y-85466296D01*
X74989786Y-85375109D01*
X74989788Y-85375106D01*
X74989792Y-85375104D01*
X75140104Y-85224792D01*
X75259683Y-85060204D01*
X75315011Y-85017540D01*
X75384624Y-85011561D01*
X75446420Y-85044166D01*
X75460313Y-85060199D01*
X75528405Y-85153920D01*
X75579896Y-85224792D01*
X75730213Y-85375109D01*
X75902179Y-85500048D01*
X75902181Y-85500049D01*
X75902184Y-85500051D01*
X76091588Y-85596557D01*
X76293757Y-85662246D01*
X76503713Y-85695500D01*
X76503714Y-85695500D01*
X76716286Y-85695500D01*
X76716287Y-85695500D01*
X76926243Y-85662246D01*
X77128412Y-85596557D01*
X77317816Y-85500051D01*
X77364276Y-85466296D01*
X77489786Y-85375109D01*
X77489788Y-85375106D01*
X77489792Y-85375104D01*
X77640104Y-85224792D01*
X77640106Y-85224788D01*
X77640109Y-85224786D01*
X77765048Y-85052820D01*
X77765047Y-85052820D01*
X77765051Y-85052816D01*
X77861557Y-84863412D01*
X77927246Y-84661243D01*
X77960500Y-84451287D01*
X77960500Y-83988713D01*
X77952806Y-83940136D01*
X77961760Y-83870844D01*
X77987598Y-83833058D01*
X79019532Y-82801125D01*
X79933838Y-81886819D01*
X79995161Y-81853334D01*
X80021519Y-81850500D01*
X87482436Y-81850500D01*
X87573480Y-81832389D01*
X87617768Y-81823580D01*
X87681509Y-81797177D01*
X87745247Y-81770777D01*
X87745248Y-81770776D01*
X87745251Y-81770775D01*
X87859983Y-81694114D01*
X89677439Y-79876655D01*
X89738760Y-79843172D01*
X89803431Y-79846405D01*
X89838347Y-79857751D01*
X89896019Y-79897185D01*
X89923219Y-79961543D01*
X89911305Y-80030390D01*
X89868918Y-80078782D01*
X89783457Y-80135885D01*
X89783453Y-80135888D01*
X87648459Y-82270883D01*
X87648458Y-82270885D01*
X87648457Y-82270886D01*
X87578568Y-82340775D01*
X87516131Y-82403212D01*
X87454808Y-82436696D01*
X87438196Y-82439146D01*
X87433722Y-82439498D01*
X87223760Y-82472753D01*
X87021585Y-82538444D01*
X86832179Y-82634951D01*
X86660213Y-82759890D01*
X86509890Y-82910213D01*
X86384949Y-83082182D01*
X86380202Y-83091499D01*
X86332227Y-83142293D01*
X86264405Y-83159087D01*
X86198271Y-83136548D01*
X86159234Y-83091495D01*
X86154626Y-83082452D01*
X86115270Y-83028282D01*
X86115269Y-83028282D01*
X85482962Y-83660590D01*
X85465925Y-83597007D01*
X85400099Y-83482993D01*
X85307007Y-83389901D01*
X85192993Y-83324075D01*
X85129409Y-83307037D01*
X85761716Y-82674728D01*
X85707550Y-82635375D01*
X85518217Y-82538904D01*
X85316129Y-82473242D01*
X85106246Y-82440000D01*
X84893754Y-82440000D01*
X84683872Y-82473242D01*
X84683869Y-82473242D01*
X84481782Y-82538904D01*
X84292439Y-82635380D01*
X84238282Y-82674727D01*
X84238282Y-82674728D01*
X84870591Y-83307037D01*
X84807007Y-83324075D01*
X84692993Y-83389901D01*
X84599901Y-83482993D01*
X84534075Y-83597007D01*
X84517037Y-83660591D01*
X83846818Y-82990372D01*
X83813333Y-82929049D01*
X83813330Y-82929036D01*
X83810499Y-82916015D01*
X83810499Y-82892128D01*
X83804091Y-82832517D01*
X83775647Y-82756254D01*
X83753798Y-82697673D01*
X83753793Y-82697664D01*
X83667547Y-82582455D01*
X83667544Y-82582452D01*
X83552335Y-82496206D01*
X83552328Y-82496202D01*
X83417482Y-82445908D01*
X83417483Y-82445908D01*
X83357883Y-82439501D01*
X83357881Y-82439500D01*
X83357873Y-82439500D01*
X83357864Y-82439500D01*
X81562129Y-82439500D01*
X81562123Y-82439501D01*
X81502516Y-82445908D01*
X81367671Y-82496202D01*
X81367664Y-82496206D01*
X81252455Y-82582452D01*
X81252452Y-82582455D01*
X81166206Y-82697664D01*
X81166202Y-82697671D01*
X81115908Y-82832517D01*
X81109501Y-82892116D01*
X81109500Y-82892135D01*
X81109500Y-84687870D01*
X81109501Y-84687876D01*
X81115908Y-84747483D01*
X81166202Y-84882328D01*
X81166206Y-84882335D01*
X81252452Y-84997544D01*
X81252455Y-84997547D01*
X81367664Y-85083793D01*
X81367671Y-85083797D01*
X81502517Y-85134091D01*
X81502516Y-85134091D01*
X81509444Y-85134835D01*
X81562127Y-85140500D01*
X83357872Y-85140499D01*
X83417483Y-85134091D01*
X83552331Y-85083796D01*
X83667546Y-84997546D01*
X83753796Y-84882331D01*
X83804091Y-84747483D01*
X83810500Y-84687873D01*
X83810499Y-84663979D01*
X83813330Y-84650963D01*
X83823940Y-84631525D01*
X83830179Y-84610275D01*
X83846803Y-84589643D01*
X83846808Y-84589636D01*
X83846811Y-84589634D01*
X83846818Y-84589626D01*
X84517037Y-83919408D01*
X84534075Y-83982993D01*
X84599901Y-84097007D01*
X84692993Y-84190099D01*
X84807007Y-84255925D01*
X84870590Y-84272962D01*
X84238282Y-84905269D01*
X84238282Y-84905270D01*
X84292449Y-84944624D01*
X84481782Y-85041095D01*
X84683870Y-85106757D01*
X84893754Y-85140000D01*
X85106246Y-85140000D01*
X85316127Y-85106757D01*
X85316130Y-85106757D01*
X85518217Y-85041095D01*
X85707554Y-84944622D01*
X85761716Y-84905270D01*
X85761717Y-84905270D01*
X85129408Y-84272962D01*
X85192993Y-84255925D01*
X85307007Y-84190099D01*
X85400099Y-84097007D01*
X85465925Y-83982993D01*
X85482962Y-83919408D01*
X86115270Y-84551717D01*
X86115270Y-84551716D01*
X86154622Y-84497555D01*
X86159232Y-84488507D01*
X86207205Y-84437709D01*
X86275025Y-84420912D01*
X86341161Y-84443447D01*
X86380204Y-84488504D01*
X86384949Y-84497817D01*
X86509890Y-84669786D01*
X86660213Y-84820109D01*
X86832179Y-84945048D01*
X86832181Y-84945049D01*
X86832184Y-84945051D01*
X87021588Y-85041557D01*
X87223757Y-85107246D01*
X87433713Y-85140500D01*
X87433714Y-85140500D01*
X87646286Y-85140500D01*
X87646287Y-85140500D01*
X87856243Y-85107246D01*
X88058412Y-85041557D01*
X88247816Y-84945051D01*
X88334138Y-84882335D01*
X88419786Y-84820109D01*
X88419788Y-84820106D01*
X88419792Y-84820104D01*
X88570104Y-84669792D01*
X88570106Y-84669788D01*
X88570109Y-84669786D01*
X88695048Y-84497820D01*
X88695050Y-84497817D01*
X88695051Y-84497816D01*
X88699514Y-84489054D01*
X88747488Y-84438259D01*
X88815308Y-84421463D01*
X88881444Y-84443999D01*
X88920486Y-84489056D01*
X88924951Y-84497820D01*
X89049890Y-84669786D01*
X89200213Y-84820109D01*
X89372179Y-84945048D01*
X89372181Y-84945049D01*
X89372184Y-84945051D01*
X89561588Y-85041557D01*
X89763757Y-85107246D01*
X89973713Y-85140500D01*
X89973714Y-85140500D01*
X90186286Y-85140500D01*
X90186287Y-85140500D01*
X90396243Y-85107246D01*
X90598412Y-85041557D01*
X90787816Y-84945051D01*
X90874138Y-84882335D01*
X90959786Y-84820109D01*
X90959788Y-84820106D01*
X90959792Y-84820104D01*
X91110104Y-84669792D01*
X91110106Y-84669788D01*
X91110109Y-84669786D01*
X91235048Y-84497820D01*
X91235050Y-84497817D01*
X91235051Y-84497816D01*
X91239514Y-84489054D01*
X91287488Y-84438259D01*
X91355308Y-84421463D01*
X91421444Y-84443999D01*
X91460486Y-84489056D01*
X91464951Y-84497820D01*
X91589890Y-84669786D01*
X91589896Y-84669792D01*
X91740208Y-84820104D01*
X91818384Y-84876902D01*
X91861051Y-84932231D01*
X91869500Y-84977220D01*
X91869500Y-87266082D01*
X91869500Y-88073918D01*
X91869500Y-88073920D01*
X91869499Y-88073920D01*
X91898340Y-88218907D01*
X91898343Y-88218917D01*
X91915240Y-88259709D01*
X91954916Y-88355495D01*
X91970700Y-88379118D01*
X91978488Y-88390774D01*
X92037049Y-88478418D01*
X92037052Y-88478421D01*
X93388133Y-89829500D01*
X93837048Y-90278415D01*
X93837049Y-90278416D01*
X93903424Y-90344791D01*
X93941585Y-90382952D01*
X94064498Y-90465080D01*
X94064511Y-90465087D01*
X94201082Y-90521656D01*
X94201087Y-90521658D01*
X94201091Y-90521658D01*
X94201092Y-90521659D01*
X94346079Y-90550500D01*
X94346082Y-90550500D01*
X98456386Y-90550500D01*
X98523425Y-90570185D01*
X98556703Y-90601613D01*
X98565816Y-90614157D01*
X98566172Y-90614646D01*
X98705354Y-90753828D01*
X98795518Y-90819336D01*
X98864596Y-90869525D01*
X98923222Y-90899395D01*
X98981795Y-90929240D01*
X99032590Y-90977213D01*
X99049500Y-91039724D01*
X99049500Y-97575500D01*
X99029815Y-97642539D01*
X98977011Y-97688294D01*
X98925500Y-97699500D01*
X98849982Y-97699500D01*
X98747203Y-97710000D01*
X98747202Y-97710001D01*
X98664669Y-97737349D01*
X98580667Y-97765185D01*
X98580662Y-97765187D01*
X98431342Y-97857289D01*
X98307289Y-97981342D01*
X98215187Y-98130662D01*
X98215186Y-98130665D01*
X98160001Y-98297202D01*
X98160001Y-98297203D01*
X98160000Y-98297203D01*
X98149500Y-98399982D01*
X98149500Y-100200017D01*
X98160000Y-100302796D01*
X98174862Y-100347645D01*
X98215186Y-100469335D01*
X98307288Y-100618656D01*
X98431344Y-100742712D01*
X98580665Y-100834814D01*
X98747202Y-100889999D01*
X98849990Y-100900500D01*
X98849995Y-100900500D01*
X99306425Y-100900500D01*
X99373464Y-100920185D01*
X99419219Y-100972989D01*
X99429163Y-101042147D01*
X99400138Y-101105703D01*
X99375316Y-101127602D01*
X99239711Y-101218210D01*
X99239707Y-101218213D01*
X99128213Y-101329707D01*
X99128210Y-101329711D01*
X99040609Y-101460814D01*
X99040602Y-101460827D01*
X98980264Y-101606498D01*
X98980261Y-101606510D01*
X98949500Y-101761153D01*
X98949500Y-101918846D01*
X98980261Y-102073489D01*
X98980264Y-102073501D01*
X99042937Y-102224808D01*
X99041228Y-102225515D01*
X99053709Y-102285444D01*
X99028711Y-102350689D01*
X98972408Y-102392062D01*
X98930108Y-102399500D01*
X65410396Y-102399500D01*
X65343357Y-102379815D01*
X65297602Y-102327011D01*
X65287658Y-102257853D01*
X65316683Y-102194297D01*
X65341505Y-102172398D01*
X65518576Y-102054083D01*
X65769253Y-101848358D01*
X65998558Y-101619053D01*
X66204283Y-101368376D01*
X66384447Y-101098742D01*
X66537315Y-100812747D01*
X66661414Y-100513146D01*
X66755549Y-100202823D01*
X66755551Y-100202813D01*
X66755554Y-100202802D01*
X66812923Y-99914383D01*
X66818814Y-99884768D01*
X66850600Y-99562043D01*
X66850600Y-99237757D01*
X66818814Y-98915032D01*
X66785987Y-98750000D01*
X66755554Y-98596997D01*
X66755551Y-98596986D01*
X66755550Y-98596983D01*
X66755549Y-98596977D01*
X66661414Y-98286654D01*
X66537315Y-97987053D01*
X66536252Y-97985065D01*
X66384453Y-97701069D01*
X66384452Y-97701067D01*
X66384447Y-97701058D01*
X66204283Y-97431424D01*
X65998558Y-97180747D01*
X65998557Y-97180746D01*
X65998553Y-97180741D01*
X65769258Y-96951446D01*
X65518581Y-96745721D01*
X65518580Y-96745720D01*
X65518576Y-96745717D01*
X65248942Y-96565553D01*
X65248937Y-96565550D01*
X65248930Y-96565546D01*
X64962954Y-96412688D01*
X64962949Y-96412686D01*
X64663347Y-96288586D01*
X64353013Y-96194448D01*
X64353002Y-96194445D01*
X64034974Y-96131187D01*
X64034957Y-96131184D01*
X63790912Y-96107148D01*
X63712243Y-96099400D01*
X63387957Y-96099400D01*
X63315199Y-96106566D01*
X63065242Y-96131184D01*
X63065225Y-96131187D01*
X62747197Y-96194445D01*
X62747186Y-96194448D01*
X62436852Y-96288586D01*
X62137250Y-96412686D01*
X62137245Y-96412688D01*
X61851269Y-96565546D01*
X61851251Y-96565557D01*
X61581632Y-96745711D01*
X61581618Y-96745721D01*
X61330941Y-96951446D01*
X61101646Y-97180741D01*
X60895921Y-97431418D01*
X60895911Y-97431432D01*
X60777602Y-97608494D01*
X60723990Y-97653299D01*
X60654665Y-97662006D01*
X60591637Y-97631851D01*
X60554918Y-97572408D01*
X60550500Y-97539603D01*
X60550500Y-77899709D01*
X63615660Y-77899709D01*
X63615660Y-78872931D01*
X63642758Y-79044021D01*
X63696287Y-79208765D01*
X63774928Y-79363108D01*
X63876746Y-79503248D01*
X63999232Y-79625734D01*
X64139372Y-79727552D01*
X64293715Y-79806193D01*
X64458459Y-79859722D01*
X64629549Y-79886820D01*
X64629550Y-79886820D01*
X64802770Y-79886820D01*
X64802771Y-79886820D01*
X64973861Y-79859722D01*
X65138605Y-79806193D01*
X65292948Y-79727552D01*
X65433088Y-79625734D01*
X65555574Y-79503248D01*
X65657392Y-79363108D01*
X65736033Y-79208765D01*
X65789562Y-79044021D01*
X65816660Y-78872931D01*
X65816660Y-77899709D01*
X66155660Y-77899709D01*
X66155660Y-78872931D01*
X66182758Y-79044021D01*
X66236287Y-79208765D01*
X66314928Y-79363108D01*
X66416746Y-79503248D01*
X66539232Y-79625734D01*
X66679372Y-79727552D01*
X66833715Y-79806193D01*
X66998459Y-79859722D01*
X67169549Y-79886820D01*
X67169550Y-79886820D01*
X67342770Y-79886820D01*
X67342771Y-79886820D01*
X67513861Y-79859722D01*
X67678605Y-79806193D01*
X67832948Y-79727552D01*
X67973088Y-79625734D01*
X68095574Y-79503248D01*
X68197392Y-79363108D01*
X68276033Y-79208765D01*
X68329562Y-79044021D01*
X68356660Y-78872931D01*
X68356660Y-77899709D01*
X68329562Y-77728619D01*
X68276033Y-77563875D01*
X68197392Y-77409532D01*
X68095574Y-77269392D01*
X67973088Y-77146906D01*
X67832948Y-77045088D01*
X67685829Y-76970128D01*
X67678607Y-76966448D01*
X67678606Y-76966447D01*
X67678605Y-76966447D01*
X67513861Y-76912918D01*
X67513859Y-76912917D01*
X67513858Y-76912917D01*
X67382431Y-76892101D01*
X67342771Y-76885820D01*
X67169549Y-76885820D01*
X67129888Y-76892101D01*
X66998462Y-76912917D01*
X66998459Y-76912918D01*
X66851092Y-76960801D01*
X66833712Y-76966448D01*
X66679371Y-77045088D01*
X66610596Y-77095057D01*
X66539232Y-77146906D01*
X66539230Y-77146908D01*
X66539229Y-77146908D01*
X66416748Y-77269389D01*
X66416748Y-77269390D01*
X66416746Y-77269392D01*
X66373019Y-77329576D01*
X66314928Y-77409531D01*
X66236288Y-77563872D01*
X66182757Y-77728622D01*
X66173456Y-77787350D01*
X66155660Y-77899709D01*
X65816660Y-77899709D01*
X65789562Y-77728619D01*
X65736033Y-77563875D01*
X65657392Y-77409532D01*
X65555574Y-77269392D01*
X65433088Y-77146906D01*
X65292948Y-77045088D01*
X65145829Y-76970128D01*
X65138607Y-76966448D01*
X65138606Y-76966447D01*
X65138605Y-76966447D01*
X64973861Y-76912918D01*
X64973859Y-76912917D01*
X64973858Y-76912917D01*
X64842431Y-76892101D01*
X64802771Y-76885820D01*
X64629549Y-76885820D01*
X64589888Y-76892101D01*
X64458462Y-76912917D01*
X64458459Y-76912918D01*
X64311092Y-76960801D01*
X64293712Y-76966448D01*
X64139371Y-77045088D01*
X64070596Y-77095057D01*
X63999232Y-77146906D01*
X63999230Y-77146908D01*
X63999229Y-77146908D01*
X63876748Y-77269389D01*
X63876748Y-77269390D01*
X63876746Y-77269392D01*
X63833019Y-77329576D01*
X63774928Y-77409531D01*
X63696288Y-77563872D01*
X63642757Y-77728622D01*
X63633456Y-77787350D01*
X63615660Y-77899709D01*
X60550500Y-77899709D01*
X60550500Y-52503389D01*
X63612940Y-52503389D01*
X63612940Y-53476610D01*
X63640037Y-53647697D01*
X63640037Y-53647699D01*
X63640038Y-53647701D01*
X63693567Y-53812445D01*
X63772208Y-53966788D01*
X63874026Y-54106928D01*
X63996512Y-54229414D01*
X64136652Y-54331232D01*
X64290995Y-54409873D01*
X64455739Y-54463402D01*
X64626829Y-54490500D01*
X64626830Y-54490500D01*
X64800050Y-54490500D01*
X64800051Y-54490500D01*
X64971141Y-54463402D01*
X65135885Y-54409873D01*
X65290228Y-54331232D01*
X65430368Y-54229414D01*
X65552854Y-54106928D01*
X65654672Y-53966788D01*
X65733313Y-53812445D01*
X65786842Y-53647701D01*
X65813940Y-53476611D01*
X65813940Y-52503389D01*
X66152940Y-52503389D01*
X66152940Y-53476610D01*
X66180037Y-53647697D01*
X66180037Y-53647699D01*
X66180038Y-53647701D01*
X66233567Y-53812445D01*
X66312208Y-53966788D01*
X66414026Y-54106928D01*
X66536512Y-54229414D01*
X66676652Y-54331232D01*
X66830995Y-54409873D01*
X66995739Y-54463402D01*
X67166829Y-54490500D01*
X67166830Y-54490500D01*
X67340050Y-54490500D01*
X67340051Y-54490500D01*
X67511141Y-54463402D01*
X67675885Y-54409873D01*
X67830228Y-54331232D01*
X67970368Y-54229414D01*
X68092854Y-54106928D01*
X68194672Y-53966788D01*
X68273313Y-53812445D01*
X68326842Y-53647701D01*
X68353940Y-53476611D01*
X68353940Y-52503389D01*
X68692940Y-52503389D01*
X68692940Y-53476610D01*
X68720037Y-53647697D01*
X68720037Y-53647699D01*
X68720038Y-53647701D01*
X68773567Y-53812445D01*
X68852208Y-53966788D01*
X68954026Y-54106928D01*
X69076512Y-54229414D01*
X69216652Y-54331232D01*
X69370995Y-54409873D01*
X69535739Y-54463402D01*
X69706829Y-54490500D01*
X69706830Y-54490500D01*
X69880050Y-54490500D01*
X69880051Y-54490500D01*
X70051141Y-54463402D01*
X70215885Y-54409873D01*
X70370228Y-54331232D01*
X70510368Y-54229414D01*
X70632854Y-54106928D01*
X70734672Y-53966788D01*
X70813313Y-53812445D01*
X70866842Y-53647701D01*
X70893940Y-53476611D01*
X70893940Y-52503389D01*
X71232940Y-52503389D01*
X71232940Y-53476610D01*
X71260037Y-53647697D01*
X71260037Y-53647699D01*
X71260038Y-53647701D01*
X71313567Y-53812445D01*
X71392208Y-53966788D01*
X71494026Y-54106928D01*
X71616512Y-54229414D01*
X71756652Y-54331232D01*
X71910995Y-54409873D01*
X72075739Y-54463402D01*
X72246829Y-54490500D01*
X72246830Y-54490500D01*
X72420050Y-54490500D01*
X72420051Y-54490500D01*
X72591141Y-54463402D01*
X72755885Y-54409873D01*
X72837444Y-54368316D01*
X72906113Y-54355420D01*
X72970853Y-54381696D01*
X73008300Y-54431347D01*
X73023534Y-54468126D01*
X73094726Y-54574673D01*
X74135326Y-55615273D01*
X74135329Y-55615275D01*
X74135331Y-55615277D01*
X74241873Y-55686465D01*
X74360256Y-55735501D01*
X74360260Y-55735501D01*
X74360261Y-55735502D01*
X74485928Y-55760500D01*
X74485931Y-55760500D01*
X81284071Y-55760500D01*
X81368615Y-55743682D01*
X81409744Y-55735501D01*
X81528127Y-55686465D01*
X81634669Y-55615277D01*
X82782534Y-54467410D01*
X82831892Y-54437163D01*
X82915885Y-54409873D01*
X83070228Y-54331232D01*
X83210368Y-54229414D01*
X83332854Y-54106928D01*
X83434672Y-53966788D01*
X83513313Y-53812445D01*
X83566842Y-53647701D01*
X83593940Y-53476611D01*
X83593940Y-52503389D01*
X83566842Y-52332299D01*
X83513313Y-52167555D01*
X83434672Y-52013212D01*
X83332854Y-51873072D01*
X83210368Y-51750586D01*
X83070228Y-51648768D01*
X82915885Y-51570127D01*
X82892196Y-51562430D01*
X82834523Y-51522994D01*
X82807324Y-51458635D01*
X82819239Y-51389789D01*
X82866483Y-51338313D01*
X82930516Y-51320500D01*
X84596364Y-51320500D01*
X84663403Y-51340185D01*
X84709158Y-51392989D01*
X84719102Y-51462147D01*
X84690077Y-51525703D01*
X84634683Y-51562430D01*
X84610995Y-51570127D01*
X84610992Y-51570128D01*
X84456651Y-51648768D01*
X84405562Y-51685887D01*
X84316512Y-51750586D01*
X84316510Y-51750588D01*
X84316509Y-51750588D01*
X84194028Y-51873069D01*
X84194028Y-51873070D01*
X84194026Y-51873072D01*
X84162457Y-51916523D01*
X84092208Y-52013211D01*
X84013568Y-52167552D01*
X83960037Y-52332302D01*
X83932940Y-52503389D01*
X83932940Y-53476610D01*
X83960037Y-53647697D01*
X83960037Y-53647699D01*
X83960038Y-53647701D01*
X83998899Y-53767301D01*
X84013566Y-53812442D01*
X84013570Y-53812452D01*
X84048049Y-53880121D01*
X84060945Y-53948790D01*
X84034668Y-54013530D01*
X84025245Y-54024096D01*
X82918387Y-55130954D01*
X82841722Y-55245692D01*
X82788921Y-55373167D01*
X82788918Y-55373179D01*
X82768201Y-55477333D01*
X82768201Y-55477335D01*
X82767791Y-55479397D01*
X82762000Y-55508506D01*
X82762000Y-58498255D01*
X82742315Y-58565294D01*
X82710885Y-58598573D01*
X82615287Y-58668028D01*
X82615282Y-58668032D01*
X82470528Y-58812786D01*
X82350215Y-58978386D01*
X82257281Y-59160776D01*
X82194022Y-59355465D01*
X82162000Y-59557648D01*
X82162000Y-59762351D01*
X82194022Y-59964534D01*
X82257281Y-60159223D01*
X82350215Y-60341613D01*
X82470528Y-60507213D01*
X82615286Y-60651971D01*
X82770249Y-60764556D01*
X82780890Y-60772287D01*
X82897107Y-60831503D01*
X82963276Y-60865218D01*
X82963278Y-60865218D01*
X82963281Y-60865220D01*
X83067637Y-60899127D01*
X83157965Y-60928477D01*
X83259057Y-60944488D01*
X83360148Y-60960500D01*
X83360149Y-60960500D01*
X83564851Y-60960500D01*
X83564852Y-60960500D01*
X83767034Y-60928477D01*
X83961719Y-60865220D01*
X84144110Y-60772287D01*
X84257006Y-60690264D01*
X84309713Y-60651971D01*
X84309715Y-60651968D01*
X84309719Y-60651966D01*
X84454466Y-60507219D01*
X84454468Y-60507215D01*
X84454471Y-60507213D01*
X84530010Y-60403241D01*
X84574787Y-60341610D01*
X84667720Y-60159219D01*
X84730977Y-59964534D01*
X84763000Y-59762352D01*
X84763000Y-59557648D01*
X84759315Y-59534383D01*
X84730977Y-59355465D01*
X84667718Y-59160776D01*
X84634003Y-59094607D01*
X84574787Y-58978390D01*
X84567056Y-58967749D01*
X84454471Y-58812786D01*
X84309717Y-58668032D01*
X84309712Y-58668028D01*
X84214115Y-58598573D01*
X84171449Y-58543243D01*
X84163000Y-58498255D01*
X84163000Y-55919019D01*
X84182685Y-55851980D01*
X84199319Y-55831338D01*
X85577552Y-54453105D01*
X85577554Y-54453103D01*
X85654215Y-54338371D01*
X85663998Y-54314749D01*
X85705676Y-54261884D01*
X85725975Y-54247135D01*
X85750368Y-54229414D01*
X85872854Y-54106928D01*
X85974672Y-53966788D01*
X86053313Y-53812445D01*
X86106842Y-53647701D01*
X86133940Y-53476611D01*
X86133940Y-52503389D01*
X86106842Y-52332299D01*
X86053313Y-52167555D01*
X85974672Y-52013212D01*
X85872854Y-51873072D01*
X85750368Y-51750586D01*
X85610228Y-51648768D01*
X85455885Y-51570127D01*
X85432196Y-51562430D01*
X85374523Y-51522994D01*
X85347324Y-51458635D01*
X85359239Y-51389789D01*
X85406483Y-51338313D01*
X85470516Y-51320500D01*
X87136364Y-51320500D01*
X87203403Y-51340185D01*
X87249158Y-51392989D01*
X87259102Y-51462147D01*
X87230077Y-51525703D01*
X87174683Y-51562430D01*
X87150995Y-51570127D01*
X87150992Y-51570128D01*
X86996651Y-51648768D01*
X86945562Y-51685887D01*
X86856512Y-51750586D01*
X86856510Y-51750588D01*
X86856509Y-51750588D01*
X86734028Y-51873069D01*
X86734028Y-51873070D01*
X86734026Y-51873072D01*
X86702457Y-51916523D01*
X86632208Y-52013211D01*
X86553568Y-52167552D01*
X86500037Y-52332302D01*
X86472940Y-52503389D01*
X86472940Y-53476610D01*
X86500037Y-53647697D01*
X86500037Y-53647699D01*
X86500038Y-53647701D01*
X86553567Y-53812445D01*
X86632208Y-53966788D01*
X86734026Y-54106928D01*
X86734028Y-54106930D01*
X86836621Y-54209523D01*
X86851324Y-54236450D01*
X86867917Y-54262269D01*
X86868808Y-54268469D01*
X86870106Y-54270846D01*
X86872940Y-54297204D01*
X86872940Y-54515040D01*
X86853255Y-54582079D01*
X86836621Y-54602721D01*
X86262138Y-55177203D01*
X86262137Y-55177204D01*
X86185472Y-55291942D01*
X86132671Y-55419417D01*
X86132668Y-55419429D01*
X86120740Y-55479397D01*
X86110647Y-55530140D01*
X86109543Y-55535689D01*
X86105750Y-55554755D01*
X86105750Y-58498255D01*
X86086065Y-58565294D01*
X86054635Y-58598573D01*
X85959037Y-58668028D01*
X85959032Y-58668032D01*
X85814278Y-58812786D01*
X85693965Y-58978386D01*
X85601031Y-59160776D01*
X85537772Y-59355465D01*
X85505750Y-59557648D01*
X85505750Y-59762351D01*
X85537772Y-59964534D01*
X85601031Y-60159223D01*
X85693965Y-60341613D01*
X85814278Y-60507213D01*
X85959036Y-60651971D01*
X86113999Y-60764556D01*
X86124640Y-60772287D01*
X86240857Y-60831503D01*
X86307026Y-60865218D01*
X86307028Y-60865218D01*
X86307031Y-60865220D01*
X86411387Y-60899127D01*
X86501715Y-60928477D01*
X86602807Y-60944488D01*
X86703898Y-60960500D01*
X86703899Y-60960500D01*
X86908601Y-60960500D01*
X86908602Y-60960500D01*
X87110784Y-60928477D01*
X87305469Y-60865220D01*
X87487860Y-60772287D01*
X87600756Y-60690264D01*
X87653463Y-60651971D01*
X87653465Y-60651968D01*
X87653469Y-60651966D01*
X87798216Y-60507219D01*
X87798218Y-60507215D01*
X87798221Y-60507213D01*
X87873760Y-60403241D01*
X87918537Y-60341610D01*
X88011470Y-60159219D01*
X88074727Y-59964534D01*
X88106750Y-59762352D01*
X88106750Y-59557648D01*
X88103065Y-59534383D01*
X88074727Y-59355465D01*
X88011468Y-59160776D01*
X87977753Y-59094607D01*
X87918537Y-58978390D01*
X87910806Y-58967749D01*
X87798221Y-58812786D01*
X87653467Y-58668032D01*
X87653462Y-58668028D01*
X87557865Y-58598573D01*
X87515199Y-58543243D01*
X87506750Y-58498255D01*
X87506750Y-55965269D01*
X87526435Y-55898230D01*
X87543069Y-55877588D01*
X88117552Y-55303105D01*
X88117554Y-55303103D01*
X88194215Y-55188371D01*
X88198840Y-55177207D01*
X88222921Y-55119068D01*
X88247020Y-55060888D01*
X88258436Y-55003497D01*
X88273940Y-54925555D01*
X88273940Y-54297204D01*
X88293625Y-54230165D01*
X88310259Y-54209523D01*
X88358083Y-54161699D01*
X88412854Y-54106928D01*
X88514672Y-53966788D01*
X88593313Y-53812445D01*
X88646842Y-53647701D01*
X88673940Y-53476611D01*
X88673940Y-52503389D01*
X88646842Y-52332299D01*
X88593313Y-52167555D01*
X88514672Y-52013212D01*
X88412854Y-51873072D01*
X88290368Y-51750586D01*
X88150228Y-51648768D01*
X87995885Y-51570127D01*
X87972196Y-51562430D01*
X87914523Y-51522994D01*
X87887324Y-51458635D01*
X87899239Y-51389789D01*
X87946483Y-51338313D01*
X88010516Y-51320500D01*
X89676364Y-51320500D01*
X89743403Y-51340185D01*
X89789158Y-51392989D01*
X89799102Y-51462147D01*
X89770077Y-51525703D01*
X89714683Y-51562430D01*
X89690995Y-51570127D01*
X89690992Y-51570128D01*
X89536651Y-51648768D01*
X89485562Y-51685887D01*
X89396512Y-51750586D01*
X89396510Y-51750588D01*
X89396509Y-51750588D01*
X89274028Y-51873069D01*
X89274028Y-51873070D01*
X89274026Y-51873072D01*
X89242457Y-51916523D01*
X89172208Y-52013211D01*
X89093568Y-52167552D01*
X89040037Y-52332302D01*
X89012940Y-52503389D01*
X89012940Y-53476610D01*
X89040037Y-53647697D01*
X89040037Y-53647699D01*
X89040038Y-53647701D01*
X89093567Y-53812445D01*
X89172208Y-53966788D01*
X89274026Y-54106928D01*
X89396512Y-54229414D01*
X89398378Y-54230769D01*
X89398915Y-54231466D01*
X89400217Y-54232578D01*
X89399983Y-54232851D01*
X89441047Y-54286093D01*
X89449500Y-54331092D01*
X89449500Y-58498255D01*
X89429815Y-58565294D01*
X89398385Y-58598573D01*
X89302787Y-58668028D01*
X89302782Y-58668032D01*
X89158028Y-58812786D01*
X89037715Y-58978386D01*
X88944781Y-59160776D01*
X88881522Y-59355465D01*
X88849500Y-59557648D01*
X88849500Y-59762351D01*
X88881522Y-59964534D01*
X88944781Y-60159223D01*
X89037715Y-60341613D01*
X89158028Y-60507213D01*
X89302786Y-60651971D01*
X89457749Y-60764556D01*
X89468390Y-60772287D01*
X89584607Y-60831503D01*
X89650776Y-60865218D01*
X89650778Y-60865218D01*
X89650781Y-60865220D01*
X89755137Y-60899127D01*
X89845465Y-60928477D01*
X89946557Y-60944488D01*
X90047648Y-60960500D01*
X90047649Y-60960500D01*
X90252351Y-60960500D01*
X90252352Y-60960500D01*
X90454534Y-60928477D01*
X90649219Y-60865220D01*
X90831610Y-60772287D01*
X90944506Y-60690264D01*
X90997213Y-60651971D01*
X90997215Y-60651968D01*
X90997219Y-60651966D01*
X91141966Y-60507219D01*
X91141968Y-60507215D01*
X91141971Y-60507213D01*
X91217510Y-60403241D01*
X91262287Y-60341610D01*
X91355220Y-60159219D01*
X91418477Y-59964534D01*
X91450500Y-59762352D01*
X91450500Y-59557648D01*
X91446815Y-59534383D01*
X91418477Y-59355465D01*
X91355218Y-59160776D01*
X91321503Y-59094607D01*
X91262287Y-58978390D01*
X91254556Y-58967749D01*
X91141971Y-58812786D01*
X90997217Y-58668032D01*
X90997212Y-58668028D01*
X90901615Y-58598573D01*
X90858949Y-58543243D01*
X90850500Y-58498255D01*
X90850500Y-54260644D01*
X90870185Y-54193605D01*
X90886819Y-54172963D01*
X90911572Y-54148210D01*
X90952854Y-54106928D01*
X91054672Y-53966788D01*
X91133313Y-53812445D01*
X91186842Y-53647701D01*
X91213940Y-53476611D01*
X91213940Y-52503389D01*
X91186842Y-52332299D01*
X91133313Y-52167555D01*
X91054672Y-52013212D01*
X90952854Y-51873072D01*
X90830368Y-51750586D01*
X90690228Y-51648768D01*
X90535885Y-51570127D01*
X90512196Y-51562430D01*
X90454523Y-51522994D01*
X90427324Y-51458635D01*
X90439239Y-51389789D01*
X90486483Y-51338313D01*
X90550516Y-51320500D01*
X92216364Y-51320500D01*
X92283403Y-51340185D01*
X92329158Y-51392989D01*
X92339102Y-51462147D01*
X92310077Y-51525703D01*
X92254683Y-51562430D01*
X92230995Y-51570127D01*
X92230992Y-51570128D01*
X92076651Y-51648768D01*
X92025562Y-51685887D01*
X91936512Y-51750586D01*
X91936510Y-51750588D01*
X91936509Y-51750588D01*
X91814028Y-51873069D01*
X91814028Y-51873070D01*
X91814026Y-51873072D01*
X91782457Y-51916523D01*
X91712208Y-52013211D01*
X91633568Y-52167552D01*
X91580037Y-52332302D01*
X91552940Y-52503389D01*
X91552940Y-53476610D01*
X91580037Y-53647697D01*
X91580037Y-53647699D01*
X91580038Y-53647701D01*
X91633567Y-53812445D01*
X91712208Y-53966788D01*
X91814026Y-54106928D01*
X91814028Y-54106930D01*
X91916621Y-54209523D01*
X91950106Y-54270846D01*
X91952940Y-54297204D01*
X91952940Y-54754446D01*
X91952940Y-54892434D01*
X91952940Y-54892436D01*
X91952939Y-54892436D01*
X91979858Y-55027762D01*
X91979861Y-55027772D01*
X92032662Y-55155247D01*
X92109327Y-55269985D01*
X92109328Y-55269986D01*
X92756931Y-55917588D01*
X92790416Y-55978911D01*
X92793250Y-56005269D01*
X92793250Y-58498255D01*
X92773565Y-58565294D01*
X92742135Y-58598573D01*
X92646537Y-58668028D01*
X92646532Y-58668032D01*
X92501778Y-58812786D01*
X92381465Y-58978386D01*
X92288531Y-59160776D01*
X92225272Y-59355465D01*
X92193250Y-59557648D01*
X92193250Y-59762351D01*
X92225272Y-59964534D01*
X92288531Y-60159223D01*
X92381465Y-60341613D01*
X92501778Y-60507213D01*
X92646536Y-60651971D01*
X92801499Y-60764556D01*
X92812140Y-60772287D01*
X92928357Y-60831503D01*
X92994526Y-60865218D01*
X92994528Y-60865218D01*
X92994531Y-60865220D01*
X93098887Y-60899127D01*
X93189215Y-60928477D01*
X93290307Y-60944488D01*
X93391398Y-60960500D01*
X93391399Y-60960500D01*
X93596101Y-60960500D01*
X93596102Y-60960500D01*
X93798284Y-60928477D01*
X93992969Y-60865220D01*
X94175360Y-60772287D01*
X94288256Y-60690264D01*
X94340963Y-60651971D01*
X94340965Y-60651968D01*
X94340969Y-60651966D01*
X94485716Y-60507219D01*
X94485718Y-60507215D01*
X94485721Y-60507213D01*
X94561260Y-60403241D01*
X94606037Y-60341610D01*
X94698970Y-60159219D01*
X94762227Y-59964534D01*
X94794250Y-59762352D01*
X94794250Y-59557648D01*
X94790565Y-59534383D01*
X94762227Y-59355465D01*
X94698968Y-59160776D01*
X94665253Y-59094607D01*
X94606037Y-58978390D01*
X94598306Y-58967749D01*
X94485721Y-58812786D01*
X94340967Y-58668032D01*
X94340962Y-58668028D01*
X94245365Y-58598573D01*
X94202699Y-58543243D01*
X94194250Y-58498255D01*
X94194250Y-55594756D01*
X94186293Y-55554758D01*
X94186293Y-55554755D01*
X94171303Y-55479397D01*
X94167330Y-55459422D01*
X94151398Y-55420959D01*
X94114527Y-55331942D01*
X94037862Y-55217204D01*
X93390259Y-54569601D01*
X93375555Y-54542673D01*
X93358963Y-54516855D01*
X93358071Y-54510654D01*
X93356774Y-54508278D01*
X93353940Y-54481920D01*
X93353940Y-54297204D01*
X93373625Y-54230165D01*
X93390259Y-54209523D01*
X93438083Y-54161699D01*
X93492854Y-54106928D01*
X93594672Y-53966788D01*
X93673313Y-53812445D01*
X93726842Y-53647701D01*
X93753940Y-53476611D01*
X93753940Y-52503389D01*
X93726842Y-52332299D01*
X93673313Y-52167555D01*
X93594672Y-52013212D01*
X93492854Y-51873072D01*
X93370368Y-51750586D01*
X93230228Y-51648768D01*
X93075885Y-51570127D01*
X93052196Y-51562430D01*
X92994523Y-51522994D01*
X92967324Y-51458635D01*
X92979239Y-51389789D01*
X93026483Y-51338313D01*
X93090516Y-51320500D01*
X94756364Y-51320500D01*
X94823403Y-51340185D01*
X94869158Y-51392989D01*
X94879102Y-51462147D01*
X94850077Y-51525703D01*
X94794683Y-51562430D01*
X94770995Y-51570127D01*
X94770992Y-51570128D01*
X94616651Y-51648768D01*
X94565562Y-51685887D01*
X94476512Y-51750586D01*
X94476510Y-51750588D01*
X94476509Y-51750588D01*
X94354028Y-51873069D01*
X94354028Y-51873070D01*
X94354026Y-51873072D01*
X94322457Y-51916523D01*
X94252208Y-52013211D01*
X94173568Y-52167552D01*
X94120037Y-52332302D01*
X94092940Y-52503389D01*
X94092940Y-53476610D01*
X94120037Y-53647697D01*
X94120037Y-53647699D01*
X94120038Y-53647701D01*
X94173567Y-53812445D01*
X94252208Y-53966788D01*
X94354026Y-54106928D01*
X94354028Y-54106930D01*
X94456621Y-54209523D01*
X94490106Y-54270846D01*
X94491781Y-54286429D01*
X94492343Y-54286374D01*
X94492939Y-54292436D01*
X94519858Y-54427762D01*
X94519861Y-54427772D01*
X94572662Y-54555247D01*
X94649327Y-54669985D01*
X94649328Y-54669986D01*
X96100681Y-56121338D01*
X96134166Y-56182661D01*
X96137000Y-56209019D01*
X96137000Y-58498255D01*
X96117315Y-58565294D01*
X96085885Y-58598573D01*
X95990287Y-58668028D01*
X95990282Y-58668032D01*
X95845528Y-58812786D01*
X95725215Y-58978386D01*
X95632281Y-59160776D01*
X95569022Y-59355465D01*
X95537000Y-59557648D01*
X95537000Y-59762351D01*
X95569022Y-59964534D01*
X95632281Y-60159223D01*
X95725215Y-60341613D01*
X95845528Y-60507213D01*
X95990286Y-60651971D01*
X96145249Y-60764556D01*
X96155890Y-60772287D01*
X96272107Y-60831503D01*
X96338276Y-60865218D01*
X96338278Y-60865218D01*
X96338281Y-60865220D01*
X96442637Y-60899127D01*
X96532965Y-60928477D01*
X96634057Y-60944488D01*
X96735148Y-60960500D01*
X96735149Y-60960500D01*
X96939851Y-60960500D01*
X96939852Y-60960500D01*
X97142034Y-60928477D01*
X97336719Y-60865220D01*
X97519110Y-60772287D01*
X97632006Y-60690264D01*
X97684713Y-60651971D01*
X97684715Y-60651968D01*
X97684719Y-60651966D01*
X97829466Y-60507219D01*
X97829468Y-60507215D01*
X97829471Y-60507213D01*
X97905010Y-60403241D01*
X97949787Y-60341610D01*
X98042720Y-60159219D01*
X98105977Y-59964534D01*
X98138000Y-59762352D01*
X98138000Y-59557648D01*
X98134315Y-59534383D01*
X98105977Y-59355465D01*
X98042718Y-59160776D01*
X98009003Y-59094607D01*
X97949787Y-58978390D01*
X97942056Y-58967749D01*
X97829471Y-58812786D01*
X97684717Y-58668032D01*
X97684712Y-58668028D01*
X97589115Y-58598573D01*
X97546449Y-58543243D01*
X97538000Y-58498255D01*
X97538000Y-55798504D01*
X97511081Y-55663177D01*
X97511080Y-55663176D01*
X97511080Y-55663172D01*
X97511078Y-55663167D01*
X97458278Y-55535695D01*
X97458276Y-55535691D01*
X97458275Y-55535689D01*
X97397154Y-55444215D01*
X97397152Y-55444212D01*
X97381616Y-55420959D01*
X96122356Y-54161699D01*
X96088871Y-54100376D01*
X96093855Y-54030684D01*
X96109720Y-54001132D01*
X96134669Y-53966792D01*
X96134668Y-53966792D01*
X96134672Y-53966788D01*
X96213313Y-53812445D01*
X96266842Y-53647701D01*
X96293940Y-53476611D01*
X96293940Y-52503389D01*
X96266842Y-52332299D01*
X96213313Y-52167555D01*
X96134672Y-52013212D01*
X96032854Y-51873072D01*
X95910368Y-51750586D01*
X95770228Y-51648768D01*
X95615885Y-51570127D01*
X95592196Y-51562430D01*
X95534523Y-51522994D01*
X95507324Y-51458635D01*
X95519239Y-51389789D01*
X95566483Y-51338313D01*
X95630516Y-51320500D01*
X97296364Y-51320500D01*
X97363403Y-51340185D01*
X97409158Y-51392989D01*
X97419102Y-51462147D01*
X97390077Y-51525703D01*
X97334683Y-51562430D01*
X97310995Y-51570127D01*
X97310992Y-51570128D01*
X97156651Y-51648768D01*
X97105562Y-51685887D01*
X97016512Y-51750586D01*
X97016510Y-51750588D01*
X97016509Y-51750588D01*
X96894028Y-51873069D01*
X96894028Y-51873070D01*
X96894026Y-51873072D01*
X96862457Y-51916523D01*
X96792208Y-52013211D01*
X96713568Y-52167552D01*
X96660037Y-52332302D01*
X96632940Y-52503389D01*
X96632940Y-53476610D01*
X96660037Y-53647697D01*
X96660037Y-53647699D01*
X96660038Y-53647701D01*
X96713567Y-53812445D01*
X96792208Y-53966788D01*
X96894026Y-54106928D01*
X97016512Y-54229414D01*
X97156652Y-54331232D01*
X97310995Y-54409873D01*
X97475739Y-54463402D01*
X97646829Y-54490500D01*
X97646830Y-54490500D01*
X97820050Y-54490500D01*
X97820051Y-54490500D01*
X97991141Y-54463402D01*
X98155885Y-54409873D01*
X98310228Y-54331232D01*
X98450368Y-54229414D01*
X98572854Y-54106928D01*
X98674672Y-53966788D01*
X98753313Y-53812445D01*
X98806842Y-53647701D01*
X98833940Y-53476611D01*
X98833940Y-52503389D01*
X98806842Y-52332299D01*
X98753313Y-52167555D01*
X98674672Y-52013212D01*
X98572854Y-51873072D01*
X98450368Y-51750586D01*
X98310228Y-51648768D01*
X98155885Y-51570127D01*
X98132196Y-51562430D01*
X98074523Y-51522994D01*
X98047324Y-51458635D01*
X98059239Y-51389789D01*
X98106483Y-51338313D01*
X98170516Y-51320500D01*
X99836364Y-51320500D01*
X99903403Y-51340185D01*
X99949158Y-51392989D01*
X99959102Y-51462147D01*
X99930077Y-51525703D01*
X99874683Y-51562430D01*
X99850995Y-51570127D01*
X99850992Y-51570128D01*
X99696651Y-51648768D01*
X99645562Y-51685887D01*
X99556512Y-51750586D01*
X99556510Y-51750588D01*
X99556509Y-51750588D01*
X99434028Y-51873069D01*
X99434028Y-51873070D01*
X99434026Y-51873072D01*
X99402457Y-51916523D01*
X99332208Y-52013211D01*
X99253568Y-52167552D01*
X99200037Y-52332302D01*
X99172940Y-52503389D01*
X99172940Y-53476610D01*
X99200037Y-53647697D01*
X99200037Y-53647699D01*
X99200038Y-53647701D01*
X99253567Y-53812445D01*
X99332208Y-53966788D01*
X99434026Y-54106928D01*
X99556512Y-54229414D01*
X99696652Y-54331232D01*
X99850995Y-54409873D01*
X100015739Y-54463402D01*
X100186829Y-54490500D01*
X100186830Y-54490500D01*
X100360050Y-54490500D01*
X100360051Y-54490500D01*
X100531141Y-54463402D01*
X100695885Y-54409873D01*
X100850228Y-54331232D01*
X100990368Y-54229414D01*
X101112854Y-54106928D01*
X101214672Y-53966788D01*
X101293313Y-53812445D01*
X101346842Y-53647701D01*
X101373940Y-53476611D01*
X101373940Y-52503389D01*
X101712940Y-52503389D01*
X101712940Y-53476610D01*
X101740037Y-53647697D01*
X101740037Y-53647699D01*
X101740038Y-53647701D01*
X101793567Y-53812445D01*
X101872208Y-53966788D01*
X101974026Y-54106928D01*
X102096512Y-54229414D01*
X102236652Y-54331232D01*
X102390995Y-54409873D01*
X102555739Y-54463402D01*
X102726829Y-54490500D01*
X102726830Y-54490500D01*
X102900050Y-54490500D01*
X102900051Y-54490500D01*
X103071141Y-54463402D01*
X103235885Y-54409873D01*
X103390228Y-54331232D01*
X103530368Y-54229414D01*
X103652854Y-54106928D01*
X103754672Y-53966788D01*
X103833313Y-53812445D01*
X103886842Y-53647701D01*
X103913940Y-53476611D01*
X103913940Y-52503389D01*
X104252940Y-52503389D01*
X104252940Y-53476610D01*
X104280037Y-53647697D01*
X104280037Y-53647699D01*
X104280038Y-53647701D01*
X104333567Y-53812445D01*
X104412208Y-53966788D01*
X104514026Y-54106928D01*
X104636512Y-54229414D01*
X104776652Y-54331232D01*
X104930995Y-54409873D01*
X105095739Y-54463402D01*
X105266829Y-54490500D01*
X105266830Y-54490500D01*
X105440050Y-54490500D01*
X105440051Y-54490500D01*
X105611141Y-54463402D01*
X105775885Y-54409873D01*
X105930228Y-54331232D01*
X106070368Y-54229414D01*
X106192854Y-54106928D01*
X106294672Y-53966788D01*
X106373313Y-53812445D01*
X106426842Y-53647701D01*
X106453940Y-53476611D01*
X106453940Y-52503389D01*
X106792940Y-52503389D01*
X106792940Y-53476610D01*
X106820037Y-53647697D01*
X106820037Y-53647699D01*
X106820038Y-53647701D01*
X106873567Y-53812445D01*
X106952208Y-53966788D01*
X107054026Y-54106928D01*
X107176512Y-54229414D01*
X107316652Y-54331232D01*
X107470995Y-54409873D01*
X107635739Y-54463402D01*
X107806829Y-54490500D01*
X107806830Y-54490500D01*
X107980050Y-54490500D01*
X107980051Y-54490500D01*
X108151141Y-54463402D01*
X108315885Y-54409873D01*
X108470228Y-54331232D01*
X108610368Y-54229414D01*
X108732854Y-54106928D01*
X108834672Y-53966788D01*
X108913313Y-53812445D01*
X108966842Y-53647701D01*
X108993940Y-53476611D01*
X108993940Y-52503389D01*
X108966842Y-52332299D01*
X108913313Y-52167555D01*
X108834672Y-52013212D01*
X108834670Y-52013209D01*
X108834669Y-52013207D01*
X108833570Y-52011693D01*
X108833568Y-52011692D01*
X108783031Y-51942135D01*
X109332940Y-51942135D01*
X109332940Y-54037870D01*
X109332941Y-54037876D01*
X109339348Y-54097483D01*
X109389642Y-54232328D01*
X109389646Y-54232335D01*
X109475892Y-54347544D01*
X109475895Y-54347547D01*
X109591104Y-54433793D01*
X109591111Y-54433797D01*
X109725957Y-54484091D01*
X109725956Y-54484091D01*
X109732884Y-54484835D01*
X109785567Y-54490500D01*
X111081312Y-54490499D01*
X111140923Y-54484091D01*
X111275771Y-54433796D01*
X111390986Y-54347546D01*
X111477236Y-54232331D01*
X111527531Y-54097483D01*
X111533940Y-54037873D01*
X111533939Y-51942128D01*
X111527531Y-51882517D01*
X111524129Y-51873397D01*
X111477237Y-51747671D01*
X111477233Y-51747664D01*
X111390987Y-51632455D01*
X111390984Y-51632452D01*
X111275775Y-51546206D01*
X111275768Y-51546202D01*
X111140922Y-51495908D01*
X111140923Y-51495908D01*
X111081323Y-51489501D01*
X111081321Y-51489500D01*
X111081313Y-51489500D01*
X111081304Y-51489500D01*
X109785569Y-51489500D01*
X109785563Y-51489501D01*
X109725956Y-51495908D01*
X109591111Y-51546202D01*
X109591104Y-51546206D01*
X109475895Y-51632452D01*
X109475892Y-51632455D01*
X109389646Y-51747664D01*
X109389642Y-51747671D01*
X109339348Y-51882517D01*
X109334827Y-51924576D01*
X109332941Y-51942123D01*
X109332940Y-51942135D01*
X108783031Y-51942135D01*
X108783026Y-51942128D01*
X108732854Y-51873072D01*
X108610368Y-51750586D01*
X108470228Y-51648768D01*
X108315885Y-51570127D01*
X108151141Y-51516598D01*
X108151139Y-51516597D01*
X108151138Y-51516597D01*
X108019711Y-51495781D01*
X107980051Y-51489500D01*
X107806829Y-51489500D01*
X107767168Y-51495781D01*
X107635742Y-51516597D01*
X107616057Y-51522993D01*
X107513181Y-51556420D01*
X107470992Y-51570128D01*
X107316651Y-51648768D01*
X107265562Y-51685887D01*
X107176512Y-51750586D01*
X107176510Y-51750588D01*
X107176509Y-51750588D01*
X107054028Y-51873069D01*
X107054028Y-51873070D01*
X107054026Y-51873072D01*
X107022457Y-51916523D01*
X106952208Y-52013211D01*
X106873568Y-52167552D01*
X106820037Y-52332302D01*
X106792940Y-52503389D01*
X106453940Y-52503389D01*
X106426842Y-52332299D01*
X106373313Y-52167555D01*
X106294672Y-52013212D01*
X106192854Y-51873072D01*
X106070368Y-51750586D01*
X105930228Y-51648768D01*
X105775885Y-51570127D01*
X105611141Y-51516598D01*
X105611139Y-51516597D01*
X105611138Y-51516597D01*
X105479711Y-51495781D01*
X105440051Y-51489500D01*
X105266829Y-51489500D01*
X105227168Y-51495781D01*
X105095742Y-51516597D01*
X105076057Y-51522993D01*
X104973181Y-51556420D01*
X104930992Y-51570128D01*
X104776651Y-51648768D01*
X104725562Y-51685887D01*
X104636512Y-51750586D01*
X104636510Y-51750588D01*
X104636509Y-51750588D01*
X104514028Y-51873069D01*
X104514028Y-51873070D01*
X104514026Y-51873072D01*
X104482457Y-51916523D01*
X104412208Y-52013211D01*
X104333568Y-52167552D01*
X104280037Y-52332302D01*
X104252940Y-52503389D01*
X103913940Y-52503389D01*
X103886842Y-52332299D01*
X103833313Y-52167555D01*
X103754672Y-52013212D01*
X103652854Y-51873072D01*
X103530368Y-51750586D01*
X103390228Y-51648768D01*
X103235885Y-51570127D01*
X103071141Y-51516598D01*
X103071139Y-51516597D01*
X103071138Y-51516597D01*
X102939711Y-51495781D01*
X102900051Y-51489500D01*
X102726829Y-51489500D01*
X102687168Y-51495781D01*
X102555742Y-51516597D01*
X102536057Y-51522993D01*
X102433181Y-51556420D01*
X102390992Y-51570128D01*
X102236651Y-51648768D01*
X102185562Y-51685887D01*
X102096512Y-51750586D01*
X102096510Y-51750588D01*
X102096509Y-51750588D01*
X101974028Y-51873069D01*
X101974028Y-51873070D01*
X101974026Y-51873072D01*
X101942457Y-51916523D01*
X101872208Y-52013211D01*
X101793568Y-52167552D01*
X101740037Y-52332302D01*
X101712940Y-52503389D01*
X101373940Y-52503389D01*
X101346842Y-52332299D01*
X101293313Y-52167555D01*
X101214672Y-52013212D01*
X101112854Y-51873072D01*
X100990368Y-51750586D01*
X100850228Y-51648768D01*
X100695885Y-51570127D01*
X100672196Y-51562430D01*
X100614523Y-51522994D01*
X100587324Y-51458635D01*
X100599239Y-51389789D01*
X100646483Y-51338313D01*
X100710516Y-51320500D01*
X101064071Y-51320500D01*
X101148615Y-51303682D01*
X101189744Y-51295501D01*
X101308127Y-51246465D01*
X101414669Y-51175277D01*
X103495277Y-49094669D01*
X103566465Y-48988127D01*
X103615501Y-48869744D01*
X103624467Y-48824669D01*
X103640500Y-48744069D01*
X103640500Y-48420823D01*
X103660185Y-48353784D01*
X103708205Y-48310338D01*
X103828845Y-48248870D01*
X104032656Y-48100793D01*
X104172319Y-47961130D01*
X104233642Y-47927645D01*
X104303334Y-47932629D01*
X104347681Y-47961130D01*
X104487345Y-48100794D01*
X104487350Y-48100798D01*
X104639726Y-48211505D01*
X104691155Y-48248870D01*
X104770965Y-48289535D01*
X104915616Y-48363239D01*
X104915618Y-48363239D01*
X104915621Y-48363241D01*
X105155215Y-48441090D01*
X105404038Y-48480500D01*
X105404039Y-48480500D01*
X105655961Y-48480500D01*
X105655962Y-48480500D01*
X105904785Y-48441090D01*
X106144379Y-48363241D01*
X106368845Y-48248870D01*
X106572656Y-48100793D01*
X106712319Y-47961130D01*
X106773642Y-47927645D01*
X106843334Y-47932629D01*
X106887681Y-47961130D01*
X107027345Y-48100794D01*
X107027350Y-48100798D01*
X107179726Y-48211505D01*
X107231155Y-48248870D01*
X107310965Y-48289535D01*
X107455616Y-48363239D01*
X107455618Y-48363239D01*
X107455621Y-48363241D01*
X107695215Y-48441090D01*
X107944038Y-48480500D01*
X107944039Y-48480500D01*
X108195961Y-48480500D01*
X108195962Y-48480500D01*
X108444785Y-48441090D01*
X108684379Y-48363241D01*
X108908845Y-48248870D01*
X109001936Y-48181234D01*
X109067742Y-48157754D01*
X109135796Y-48173579D01*
X109162503Y-48193871D01*
X109167288Y-48198656D01*
X109291344Y-48322712D01*
X109440665Y-48414814D01*
X109607202Y-48469999D01*
X109709990Y-48480500D01*
X109709995Y-48480500D01*
X111510005Y-48480500D01*
X111510010Y-48480500D01*
X111612798Y-48469999D01*
X111779335Y-48414814D01*
X111928656Y-48322712D01*
X112052712Y-48198656D01*
X112144814Y-48049335D01*
X112199999Y-47882798D01*
X112210500Y-47780010D01*
X112210500Y-47704500D01*
X112230185Y-47637461D01*
X112282989Y-47591706D01*
X112334500Y-47580500D01*
X113094590Y-47580500D01*
X113161629Y-47600185D01*
X113194906Y-47631612D01*
X113226172Y-47674646D01*
X113365354Y-47813828D01*
X113524595Y-47929524D01*
X113586626Y-47961130D01*
X113699970Y-48018882D01*
X113699972Y-48018882D01*
X113699975Y-48018884D01*
X113793684Y-48049332D01*
X113887173Y-48079709D01*
X114081578Y-48110500D01*
X114081583Y-48110500D01*
X114278422Y-48110500D01*
X114472826Y-48079709D01*
X114660025Y-48018884D01*
X114835405Y-47929524D01*
X114994646Y-47813828D01*
X115133828Y-47674646D01*
X115249524Y-47515405D01*
X115338884Y-47340025D01*
X115399709Y-47152826D01*
X115401035Y-47144457D01*
X115430500Y-46958422D01*
X115430500Y-46761577D01*
X115399709Y-46567173D01*
X115338882Y-46379970D01*
X115280618Y-46265621D01*
X115249524Y-46204595D01*
X115133828Y-46045354D01*
X114994646Y-45906172D01*
X114835405Y-45790476D01*
X114660029Y-45701117D01*
X114472826Y-45640290D01*
X114278422Y-45609500D01*
X114278417Y-45609500D01*
X114081583Y-45609500D01*
X114081578Y-45609500D01*
X113887173Y-45640290D01*
X113699970Y-45701117D01*
X113524594Y-45790476D01*
X113460079Y-45837350D01*
X113365354Y-45906172D01*
X113365352Y-45906174D01*
X113365351Y-45906174D01*
X113226174Y-46045351D01*
X113226174Y-46045352D01*
X113226172Y-46045354D01*
X113165846Y-46128386D01*
X113110516Y-46171051D01*
X113065528Y-46179500D01*
X112334500Y-46179500D01*
X112267461Y-46159815D01*
X112221706Y-46107011D01*
X112210500Y-46055500D01*
X112210500Y-45979995D01*
X112210499Y-45979982D01*
X112199999Y-45877203D01*
X112199999Y-45877202D01*
X112144814Y-45710665D01*
X112052712Y-45561344D01*
X111928656Y-45437288D01*
X111779335Y-45345186D01*
X111612798Y-45290001D01*
X111612796Y-45290000D01*
X111510017Y-45279500D01*
X111510010Y-45279500D01*
X109709990Y-45279500D01*
X109709982Y-45279500D01*
X109607203Y-45290000D01*
X109607202Y-45290001D01*
X109556343Y-45306854D01*
X109440667Y-45345185D01*
X109440662Y-45345187D01*
X109291345Y-45437287D01*
X109162503Y-45566128D01*
X109101179Y-45599612D01*
X109031488Y-45594627D01*
X109001937Y-45578764D01*
X108908848Y-45511132D01*
X108908847Y-45511131D01*
X108908845Y-45511130D01*
X108838747Y-45475413D01*
X108684383Y-45396760D01*
X108444785Y-45318910D01*
X108368654Y-45306852D01*
X108195962Y-45279500D01*
X107944038Y-45279500D01*
X107877738Y-45290001D01*
X107695214Y-45318910D01*
X107455616Y-45396760D01*
X107231151Y-45511132D01*
X107027350Y-45659201D01*
X107027345Y-45659205D01*
X106887681Y-45798870D01*
X106826358Y-45832355D01*
X106756666Y-45827371D01*
X106712319Y-45798870D01*
X106572654Y-45659205D01*
X106572649Y-45659201D01*
X106368848Y-45511132D01*
X106368847Y-45511131D01*
X106368845Y-45511130D01*
X106298747Y-45475413D01*
X106144383Y-45396760D01*
X105904785Y-45318910D01*
X105828654Y-45306852D01*
X105655962Y-45279500D01*
X105404038Y-45279500D01*
X105337738Y-45290001D01*
X105155214Y-45318910D01*
X104915616Y-45396760D01*
X104691151Y-45511132D01*
X104487350Y-45659201D01*
X104487345Y-45659205D01*
X104347681Y-45798870D01*
X104286358Y-45832355D01*
X104216666Y-45827371D01*
X104172319Y-45798870D01*
X104032654Y-45659205D01*
X104032649Y-45659201D01*
X103828848Y-45511132D01*
X103828847Y-45511131D01*
X103828845Y-45511130D01*
X103758747Y-45475413D01*
X103604383Y-45396760D01*
X103364785Y-45318910D01*
X103288654Y-45306852D01*
X103115962Y-45279500D01*
X102864038Y-45279500D01*
X102797738Y-45290001D01*
X102615214Y-45318910D01*
X102375616Y-45396760D01*
X102151151Y-45511132D01*
X101947350Y-45659201D01*
X101947345Y-45659205D01*
X101807681Y-45798870D01*
X101746358Y-45832355D01*
X101676666Y-45827371D01*
X101632319Y-45798870D01*
X101492654Y-45659205D01*
X101492649Y-45659201D01*
X101288848Y-45511132D01*
X101288847Y-45511131D01*
X101288845Y-45511130D01*
X101218747Y-45475413D01*
X101064383Y-45396760D01*
X100824785Y-45318910D01*
X100748654Y-45306852D01*
X100575962Y-45279500D01*
X100324038Y-45279500D01*
X100257738Y-45290001D01*
X100075214Y-45318910D01*
X99835616Y-45396760D01*
X99611151Y-45511132D01*
X99407350Y-45659201D01*
X99407345Y-45659205D01*
X99267681Y-45798870D01*
X99206358Y-45832355D01*
X99136666Y-45827371D01*
X99092319Y-45798870D01*
X98952654Y-45659205D01*
X98952649Y-45659201D01*
X98748848Y-45511132D01*
X98748847Y-45511131D01*
X98748845Y-45511130D01*
X98678747Y-45475413D01*
X98524383Y-45396760D01*
X98284785Y-45318910D01*
X98208654Y-45306852D01*
X98035962Y-45279500D01*
X97784038Y-45279500D01*
X97717738Y-45290001D01*
X97535214Y-45318910D01*
X97295616Y-45396760D01*
X97071151Y-45511132D01*
X96867350Y-45659201D01*
X96867345Y-45659205D01*
X96689205Y-45837345D01*
X96689201Y-45837350D01*
X96541131Y-46041152D01*
X96527948Y-46067023D01*
X96505147Y-46098404D01*
X95893787Y-46709764D01*
X95882518Y-46667708D01*
X95810110Y-46542292D01*
X95707708Y-46439890D01*
X95582292Y-46367482D01*
X95540232Y-46356212D01*
X96310698Y-45585748D01*
X96208583Y-45511557D01*
X95984184Y-45397219D01*
X95744669Y-45319397D01*
X95495928Y-45280000D01*
X95244072Y-45280000D01*
X94995330Y-45319397D01*
X94755815Y-45397219D01*
X94531413Y-45511559D01*
X94429301Y-45585747D01*
X94429300Y-45585748D01*
X95199765Y-46356212D01*
X95157708Y-46367482D01*
X95032292Y-46439890D01*
X94929890Y-46542292D01*
X94857482Y-46667708D01*
X94846212Y-46709765D01*
X94075748Y-45939300D01*
X94075747Y-45939301D01*
X94001559Y-46041413D01*
X93887219Y-46265815D01*
X93809397Y-46505330D01*
X93770000Y-46754071D01*
X93770000Y-47005928D01*
X93809397Y-47254669D01*
X93887219Y-47494184D01*
X94001557Y-47718583D01*
X94075748Y-47820697D01*
X94075748Y-47820698D01*
X94846212Y-47050234D01*
X94857482Y-47092292D01*
X94929890Y-47217708D01*
X95032292Y-47320110D01*
X95157708Y-47392518D01*
X95199765Y-47403787D01*
X94429300Y-48174250D01*
X94531416Y-48248442D01*
X94755815Y-48362780D01*
X94995330Y-48440602D01*
X95244072Y-48480000D01*
X95495928Y-48480000D01*
X95744669Y-48440602D01*
X95984184Y-48362780D01*
X96208575Y-48248446D01*
X96208581Y-48248442D01*
X96310697Y-48174250D01*
X96310698Y-48174250D01*
X95540234Y-47403787D01*
X95582292Y-47392518D01*
X95707708Y-47320110D01*
X95810110Y-47217708D01*
X95882518Y-47092292D01*
X95893787Y-47050234D01*
X96505147Y-47661594D01*
X96527950Y-47692979D01*
X96541130Y-47718846D01*
X96689201Y-47922649D01*
X96689205Y-47922654D01*
X96867345Y-48100794D01*
X96867350Y-48100798D01*
X97019726Y-48211505D01*
X97071155Y-48248870D01*
X97150965Y-48289535D01*
X97295616Y-48363239D01*
X97295618Y-48363239D01*
X97295621Y-48363241D01*
X97535215Y-48441090D01*
X97784038Y-48480500D01*
X97784039Y-48480500D01*
X98035961Y-48480500D01*
X98035962Y-48480500D01*
X98284785Y-48441090D01*
X98524379Y-48363241D01*
X98748845Y-48248870D01*
X98952656Y-48100793D01*
X99092319Y-47961130D01*
X99153642Y-47927645D01*
X99223334Y-47932629D01*
X99267681Y-47961130D01*
X99407345Y-48100794D01*
X99407350Y-48100798D01*
X99540049Y-48197209D01*
X99582715Y-48252538D01*
X99588694Y-48322152D01*
X99556089Y-48383947D01*
X99554845Y-48385208D01*
X99076873Y-48863181D01*
X99015550Y-48896666D01*
X98989192Y-48899500D01*
X75375929Y-48899500D01*
X75250261Y-48924497D01*
X75250255Y-48924499D01*
X75131874Y-48973534D01*
X75025326Y-49044726D01*
X73094726Y-50975326D01*
X73023534Y-51081874D01*
X72974499Y-51200255D01*
X72974497Y-51200261D01*
X72949500Y-51325928D01*
X72949500Y-51466428D01*
X72929815Y-51533467D01*
X72877011Y-51579222D01*
X72807853Y-51589166D01*
X72769209Y-51576915D01*
X72755888Y-51570128D01*
X72727838Y-51561014D01*
X72591141Y-51516598D01*
X72591139Y-51516597D01*
X72591138Y-51516597D01*
X72459711Y-51495781D01*
X72420051Y-51489500D01*
X72246829Y-51489500D01*
X72207168Y-51495781D01*
X72075742Y-51516597D01*
X72056057Y-51522993D01*
X71953181Y-51556420D01*
X71910992Y-51570128D01*
X71756651Y-51648768D01*
X71705562Y-51685887D01*
X71616512Y-51750586D01*
X71616510Y-51750588D01*
X71616509Y-51750588D01*
X71494028Y-51873069D01*
X71494028Y-51873070D01*
X71494026Y-51873072D01*
X71462457Y-51916523D01*
X71392208Y-52013211D01*
X71313568Y-52167552D01*
X71260037Y-52332302D01*
X71232940Y-52503389D01*
X70893940Y-52503389D01*
X70866842Y-52332299D01*
X70813313Y-52167555D01*
X70734672Y-52013212D01*
X70632854Y-51873072D01*
X70510368Y-51750586D01*
X70370228Y-51648768D01*
X70215885Y-51570127D01*
X70051141Y-51516598D01*
X70051139Y-51516597D01*
X70051138Y-51516597D01*
X69919711Y-51495781D01*
X69880051Y-51489500D01*
X69706829Y-51489500D01*
X69667168Y-51495781D01*
X69535742Y-51516597D01*
X69516057Y-51522993D01*
X69413181Y-51556420D01*
X69370992Y-51570128D01*
X69216651Y-51648768D01*
X69165562Y-51685887D01*
X69076512Y-51750586D01*
X69076510Y-51750588D01*
X69076509Y-51750588D01*
X68954028Y-51873069D01*
X68954028Y-51873070D01*
X68954026Y-51873072D01*
X68922457Y-51916523D01*
X68852208Y-52013211D01*
X68773568Y-52167552D01*
X68720037Y-52332302D01*
X68692940Y-52503389D01*
X68353940Y-52503389D01*
X68326842Y-52332299D01*
X68273313Y-52167555D01*
X68194672Y-52013212D01*
X68092854Y-51873072D01*
X67970368Y-51750586D01*
X67830228Y-51648768D01*
X67675885Y-51570127D01*
X67511141Y-51516598D01*
X67511139Y-51516597D01*
X67511138Y-51516597D01*
X67379711Y-51495781D01*
X67340051Y-51489500D01*
X67166829Y-51489500D01*
X67127168Y-51495781D01*
X66995742Y-51516597D01*
X66976057Y-51522993D01*
X66873181Y-51556420D01*
X66830992Y-51570128D01*
X66676651Y-51648768D01*
X66625562Y-51685887D01*
X66536512Y-51750586D01*
X66536510Y-51750588D01*
X66536509Y-51750588D01*
X66414028Y-51873069D01*
X66414028Y-51873070D01*
X66414026Y-51873072D01*
X66382457Y-51916523D01*
X66312208Y-52013211D01*
X66233568Y-52167552D01*
X66180037Y-52332302D01*
X66152940Y-52503389D01*
X65813940Y-52503389D01*
X65786842Y-52332299D01*
X65733313Y-52167555D01*
X65654672Y-52013212D01*
X65552854Y-51873072D01*
X65430368Y-51750586D01*
X65290228Y-51648768D01*
X65135885Y-51570127D01*
X64971141Y-51516598D01*
X64971139Y-51516597D01*
X64971138Y-51516597D01*
X64839711Y-51495781D01*
X64800051Y-51489500D01*
X64626829Y-51489500D01*
X64587168Y-51495781D01*
X64455742Y-51516597D01*
X64436057Y-51522993D01*
X64333181Y-51556420D01*
X64290992Y-51570128D01*
X64136651Y-51648768D01*
X64085562Y-51685887D01*
X63996512Y-51750586D01*
X63996510Y-51750588D01*
X63996509Y-51750588D01*
X63874028Y-51873069D01*
X63874028Y-51873070D01*
X63874026Y-51873072D01*
X63842457Y-51916523D01*
X63772208Y-52013211D01*
X63693568Y-52167552D01*
X63640037Y-52332302D01*
X63612940Y-52503389D01*
X60550500Y-52503389D01*
X60550500Y-48280396D01*
X60570185Y-48213357D01*
X60622989Y-48167602D01*
X60692147Y-48157658D01*
X60755703Y-48186683D01*
X60777600Y-48211503D01*
X60802285Y-48248446D01*
X60895911Y-48388567D01*
X60895921Y-48388581D01*
X61101646Y-48639258D01*
X61330941Y-48868553D01*
X61330946Y-48868557D01*
X61330947Y-48868558D01*
X61581624Y-49074283D01*
X61851258Y-49254447D01*
X61851267Y-49254452D01*
X61851269Y-49254453D01*
X62137245Y-49407311D01*
X62137247Y-49407311D01*
X62137253Y-49407315D01*
X62436854Y-49531414D01*
X62747177Y-49625549D01*
X62747183Y-49625550D01*
X62747186Y-49625551D01*
X62747197Y-49625554D01*
X62946628Y-49665222D01*
X63065232Y-49688814D01*
X63387957Y-49720600D01*
X63387960Y-49720600D01*
X63712240Y-49720600D01*
X63712243Y-49720600D01*
X64034968Y-49688814D01*
X64192395Y-49657499D01*
X64353002Y-49625554D01*
X64353013Y-49625551D01*
X64353013Y-49625550D01*
X64353023Y-49625549D01*
X64663346Y-49531414D01*
X64962947Y-49407315D01*
X65248942Y-49254447D01*
X65518576Y-49074283D01*
X65769253Y-48868558D01*
X65998558Y-48639253D01*
X66204283Y-48388576D01*
X66384447Y-48118942D01*
X66537315Y-47832947D01*
X66661414Y-47533346D01*
X66755549Y-47223023D01*
X66755551Y-47223013D01*
X66755554Y-47223002D01*
X66809377Y-46952409D01*
X66818814Y-46904968D01*
X66828405Y-46807591D01*
X66835353Y-46737051D01*
X66850600Y-46582239D01*
X66850600Y-46257960D01*
X66842872Y-46179500D01*
X66818814Y-45935232D01*
X66790020Y-45790476D01*
X66755554Y-45617197D01*
X66755551Y-45617186D01*
X66755550Y-45617183D01*
X66755549Y-45617177D01*
X66661414Y-45306854D01*
X66537315Y-45007253D01*
X66513012Y-44961786D01*
X66384453Y-44721269D01*
X66384452Y-44721267D01*
X66384447Y-44721258D01*
X66204283Y-44451624D01*
X65998558Y-44200947D01*
X65998557Y-44200946D01*
X65998553Y-44200941D01*
X65769258Y-43971646D01*
X65518581Y-43765921D01*
X65518580Y-43765920D01*
X65518576Y-43765917D01*
X65341504Y-43647601D01*
X65296700Y-43593990D01*
X65287993Y-43524665D01*
X65318147Y-43461638D01*
X65377590Y-43424918D01*
X65410396Y-43420500D01*
X72516493Y-43420500D01*
X72583532Y-43440185D01*
G37*
%TD.AperFunction*%
%TD*%
M02*
