%TF.GenerationSoftware,KiCad,Pcbnew,9.0.3*%
%TF.CreationDate,2026-02-04T08:11:38+02:00*%
%TF.ProjectId,Steering Wheel,53746565-7269-46e6-9720-576865656c2e,rev?*%
%TF.SameCoordinates,Original*%
%TF.FileFunction,Legend,Bot*%
%TF.FilePolarity,Positive*%
%FSLAX46Y46*%
G04 Gerber Fmt 4.6, Leading zero omitted, Abs format (unit mm)*
G04 Created by KiCad (PCBNEW 9.0.3) date 2026-02-04 08:11:38*
%MOMM*%
%LPD*%
G01*
G04 APERTURE LIST*
%ADD10C,0.127000*%
%ADD11C,0.228600*%
%ADD12C,0.000000*%
G04 APERTURE END LIST*
D10*
X119950141Y-58944980D02*
X119188141Y-58944980D01*
X119188141Y-58944980D02*
X119188141Y-59235266D01*
X119188141Y-59235266D02*
X119224427Y-59307837D01*
X119224427Y-59307837D02*
X119260713Y-59344123D01*
X119260713Y-59344123D02*
X119333284Y-59380409D01*
X119333284Y-59380409D02*
X119442141Y-59380409D01*
X119442141Y-59380409D02*
X119514713Y-59344123D01*
X119514713Y-59344123D02*
X119550998Y-59307837D01*
X119550998Y-59307837D02*
X119587284Y-59235266D01*
X119587284Y-59235266D02*
X119587284Y-58944980D01*
X119950141Y-59815837D02*
X119913856Y-59743266D01*
X119913856Y-59743266D02*
X119877570Y-59706980D01*
X119877570Y-59706980D02*
X119804998Y-59670694D01*
X119804998Y-59670694D02*
X119587284Y-59670694D01*
X119587284Y-59670694D02*
X119514713Y-59706980D01*
X119514713Y-59706980D02*
X119478427Y-59743266D01*
X119478427Y-59743266D02*
X119442141Y-59815837D01*
X119442141Y-59815837D02*
X119442141Y-59924694D01*
X119442141Y-59924694D02*
X119478427Y-59997266D01*
X119478427Y-59997266D02*
X119514713Y-60033552D01*
X119514713Y-60033552D02*
X119587284Y-60069837D01*
X119587284Y-60069837D02*
X119804998Y-60069837D01*
X119804998Y-60069837D02*
X119877570Y-60033552D01*
X119877570Y-60033552D02*
X119913856Y-59997266D01*
X119913856Y-59997266D02*
X119950141Y-59924694D01*
X119950141Y-59924694D02*
X119950141Y-59815837D01*
X119442141Y-60323838D02*
X119950141Y-60468981D01*
X119950141Y-60468981D02*
X119587284Y-60614123D01*
X119587284Y-60614123D02*
X119950141Y-60759266D01*
X119950141Y-60759266D02*
X119442141Y-60904409D01*
X119913856Y-61484981D02*
X119950141Y-61412409D01*
X119950141Y-61412409D02*
X119950141Y-61267267D01*
X119950141Y-61267267D02*
X119913856Y-61194695D01*
X119913856Y-61194695D02*
X119841284Y-61158409D01*
X119841284Y-61158409D02*
X119550998Y-61158409D01*
X119550998Y-61158409D02*
X119478427Y-61194695D01*
X119478427Y-61194695D02*
X119442141Y-61267267D01*
X119442141Y-61267267D02*
X119442141Y-61412409D01*
X119442141Y-61412409D02*
X119478427Y-61484981D01*
X119478427Y-61484981D02*
X119550998Y-61521267D01*
X119550998Y-61521267D02*
X119623570Y-61521267D01*
X119623570Y-61521267D02*
X119696141Y-61158409D01*
X119950141Y-61847838D02*
X119442141Y-61847838D01*
X119587284Y-61847838D02*
X119514713Y-61884124D01*
X119514713Y-61884124D02*
X119478427Y-61920410D01*
X119478427Y-61920410D02*
X119442141Y-61992981D01*
X119442141Y-61992981D02*
X119442141Y-62065552D01*
X119913856Y-62609838D02*
X119950141Y-62537266D01*
X119950141Y-62537266D02*
X119950141Y-62392124D01*
X119950141Y-62392124D02*
X119913856Y-62319552D01*
X119913856Y-62319552D02*
X119841284Y-62283266D01*
X119841284Y-62283266D02*
X119550998Y-62283266D01*
X119550998Y-62283266D02*
X119478427Y-62319552D01*
X119478427Y-62319552D02*
X119442141Y-62392124D01*
X119442141Y-62392124D02*
X119442141Y-62537266D01*
X119442141Y-62537266D02*
X119478427Y-62609838D01*
X119478427Y-62609838D02*
X119550998Y-62646124D01*
X119550998Y-62646124D02*
X119623570Y-62646124D01*
X119623570Y-62646124D02*
X119696141Y-62283266D01*
X119950141Y-63299267D02*
X119188141Y-63299267D01*
X119913856Y-63299267D02*
X119950141Y-63226695D01*
X119950141Y-63226695D02*
X119950141Y-63081552D01*
X119950141Y-63081552D02*
X119913856Y-63008981D01*
X119913856Y-63008981D02*
X119877570Y-62972695D01*
X119877570Y-62972695D02*
X119804998Y-62936409D01*
X119804998Y-62936409D02*
X119587284Y-62936409D01*
X119587284Y-62936409D02*
X119514713Y-62972695D01*
X119514713Y-62972695D02*
X119478427Y-63008981D01*
X119478427Y-63008981D02*
X119442141Y-63081552D01*
X119442141Y-63081552D02*
X119442141Y-63226695D01*
X119442141Y-63226695D02*
X119478427Y-63299267D01*
X119950141Y-64242695D02*
X119188141Y-64242695D01*
X119478427Y-64242695D02*
X119442141Y-64315267D01*
X119442141Y-64315267D02*
X119442141Y-64460409D01*
X119442141Y-64460409D02*
X119478427Y-64532981D01*
X119478427Y-64532981D02*
X119514713Y-64569267D01*
X119514713Y-64569267D02*
X119587284Y-64605552D01*
X119587284Y-64605552D02*
X119804998Y-64605552D01*
X119804998Y-64605552D02*
X119877570Y-64569267D01*
X119877570Y-64569267D02*
X119913856Y-64532981D01*
X119913856Y-64532981D02*
X119950141Y-64460409D01*
X119950141Y-64460409D02*
X119950141Y-64315267D01*
X119950141Y-64315267D02*
X119913856Y-64242695D01*
X119442141Y-64859553D02*
X119950141Y-65040981D01*
X119442141Y-65222410D02*
X119950141Y-65040981D01*
X119950141Y-65040981D02*
X120131570Y-64968410D01*
X120131570Y-64968410D02*
X120167856Y-64932124D01*
X120167856Y-64932124D02*
X120204141Y-64859553D01*
X119950141Y-66093266D02*
X119188141Y-66093266D01*
X119550998Y-66093266D02*
X119550998Y-66528695D01*
X119950141Y-66528695D02*
X119188141Y-66528695D01*
X119950141Y-67000409D02*
X119913856Y-66927838D01*
X119913856Y-66927838D02*
X119877570Y-66891552D01*
X119877570Y-66891552D02*
X119804998Y-66855266D01*
X119804998Y-66855266D02*
X119587284Y-66855266D01*
X119587284Y-66855266D02*
X119514713Y-66891552D01*
X119514713Y-66891552D02*
X119478427Y-66927838D01*
X119478427Y-66927838D02*
X119442141Y-67000409D01*
X119442141Y-67000409D02*
X119442141Y-67109266D01*
X119442141Y-67109266D02*
X119478427Y-67181838D01*
X119478427Y-67181838D02*
X119514713Y-67218124D01*
X119514713Y-67218124D02*
X119587284Y-67254409D01*
X119587284Y-67254409D02*
X119804998Y-67254409D01*
X119804998Y-67254409D02*
X119877570Y-67218124D01*
X119877570Y-67218124D02*
X119913856Y-67181838D01*
X119913856Y-67181838D02*
X119950141Y-67109266D01*
X119950141Y-67109266D02*
X119950141Y-67000409D01*
X119442141Y-67580981D02*
X120204141Y-67580981D01*
X119478427Y-67580981D02*
X119442141Y-67653553D01*
X119442141Y-67653553D02*
X119442141Y-67798695D01*
X119442141Y-67798695D02*
X119478427Y-67871267D01*
X119478427Y-67871267D02*
X119514713Y-67907553D01*
X119514713Y-67907553D02*
X119587284Y-67943838D01*
X119587284Y-67943838D02*
X119804998Y-67943838D01*
X119804998Y-67943838D02*
X119877570Y-67907553D01*
X119877570Y-67907553D02*
X119913856Y-67871267D01*
X119913856Y-67871267D02*
X119950141Y-67798695D01*
X119950141Y-67798695D02*
X119950141Y-67653553D01*
X119950141Y-67653553D02*
X119913856Y-67580981D01*
X119913856Y-68560696D02*
X119950141Y-68488124D01*
X119950141Y-68488124D02*
X119950141Y-68342982D01*
X119950141Y-68342982D02*
X119913856Y-68270410D01*
X119913856Y-68270410D02*
X119841284Y-68234124D01*
X119841284Y-68234124D02*
X119550998Y-68234124D01*
X119550998Y-68234124D02*
X119478427Y-68270410D01*
X119478427Y-68270410D02*
X119442141Y-68342982D01*
X119442141Y-68342982D02*
X119442141Y-68488124D01*
X119442141Y-68488124D02*
X119478427Y-68560696D01*
X119478427Y-68560696D02*
X119550998Y-68596982D01*
X119550998Y-68596982D02*
X119623570Y-68596982D01*
X119623570Y-68596982D02*
X119696141Y-68234124D01*
X119913856Y-68887267D02*
X119950141Y-68959839D01*
X119950141Y-68959839D02*
X119950141Y-69104982D01*
X119950141Y-69104982D02*
X119913856Y-69177553D01*
X119913856Y-69177553D02*
X119841284Y-69213839D01*
X119841284Y-69213839D02*
X119804998Y-69213839D01*
X119804998Y-69213839D02*
X119732427Y-69177553D01*
X119732427Y-69177553D02*
X119696141Y-69104982D01*
X119696141Y-69104982D02*
X119696141Y-68996125D01*
X119696141Y-68996125D02*
X119659856Y-68923553D01*
X119659856Y-68923553D02*
X119587284Y-68887267D01*
X119587284Y-68887267D02*
X119550998Y-68887267D01*
X119550998Y-68887267D02*
X119478427Y-68923553D01*
X119478427Y-68923553D02*
X119442141Y-68996125D01*
X119442141Y-68996125D02*
X119442141Y-69104982D01*
X119442141Y-69104982D02*
X119478427Y-69177553D01*
X119950141Y-70447553D02*
X119550998Y-70447553D01*
X119550998Y-70447553D02*
X119478427Y-70411267D01*
X119478427Y-70411267D02*
X119442141Y-70338695D01*
X119442141Y-70338695D02*
X119442141Y-70193553D01*
X119442141Y-70193553D02*
X119478427Y-70120981D01*
X119913856Y-70447553D02*
X119950141Y-70374981D01*
X119950141Y-70374981D02*
X119950141Y-70193553D01*
X119950141Y-70193553D02*
X119913856Y-70120981D01*
X119913856Y-70120981D02*
X119841284Y-70084695D01*
X119841284Y-70084695D02*
X119768713Y-70084695D01*
X119768713Y-70084695D02*
X119696141Y-70120981D01*
X119696141Y-70120981D02*
X119659856Y-70193553D01*
X119659856Y-70193553D02*
X119659856Y-70374981D01*
X119659856Y-70374981D02*
X119623570Y-70447553D01*
X119442141Y-70810410D02*
X119950141Y-70810410D01*
X119514713Y-70810410D02*
X119478427Y-70846696D01*
X119478427Y-70846696D02*
X119442141Y-70919267D01*
X119442141Y-70919267D02*
X119442141Y-71028124D01*
X119442141Y-71028124D02*
X119478427Y-71100696D01*
X119478427Y-71100696D02*
X119550998Y-71136982D01*
X119550998Y-71136982D02*
X119950141Y-71136982D01*
X119950141Y-71826411D02*
X119188141Y-71826411D01*
X119913856Y-71826411D02*
X119950141Y-71753839D01*
X119950141Y-71753839D02*
X119950141Y-71608696D01*
X119950141Y-71608696D02*
X119913856Y-71536125D01*
X119913856Y-71536125D02*
X119877570Y-71499839D01*
X119877570Y-71499839D02*
X119804998Y-71463553D01*
X119804998Y-71463553D02*
X119587284Y-71463553D01*
X119587284Y-71463553D02*
X119514713Y-71499839D01*
X119514713Y-71499839D02*
X119478427Y-71536125D01*
X119478427Y-71536125D02*
X119442141Y-71608696D01*
X119442141Y-71608696D02*
X119442141Y-71753839D01*
X119442141Y-71753839D02*
X119478427Y-71826411D01*
X119950141Y-72769839D02*
X119188141Y-72769839D01*
X119188141Y-72769839D02*
X119188141Y-72951268D01*
X119188141Y-72951268D02*
X119224427Y-73060125D01*
X119224427Y-73060125D02*
X119296998Y-73132696D01*
X119296998Y-73132696D02*
X119369570Y-73168982D01*
X119369570Y-73168982D02*
X119514713Y-73205268D01*
X119514713Y-73205268D02*
X119623570Y-73205268D01*
X119623570Y-73205268D02*
X119768713Y-73168982D01*
X119768713Y-73168982D02*
X119841284Y-73132696D01*
X119841284Y-73132696D02*
X119913856Y-73060125D01*
X119913856Y-73060125D02*
X119950141Y-72951268D01*
X119950141Y-72951268D02*
X119950141Y-72769839D01*
X119950141Y-73531839D02*
X119442141Y-73531839D01*
X119587284Y-73531839D02*
X119514713Y-73568125D01*
X119514713Y-73568125D02*
X119478427Y-73604411D01*
X119478427Y-73604411D02*
X119442141Y-73676982D01*
X119442141Y-73676982D02*
X119442141Y-73749553D01*
X119913856Y-74293839D02*
X119950141Y-74221267D01*
X119950141Y-74221267D02*
X119950141Y-74076125D01*
X119950141Y-74076125D02*
X119913856Y-74003553D01*
X119913856Y-74003553D02*
X119841284Y-73967267D01*
X119841284Y-73967267D02*
X119550998Y-73967267D01*
X119550998Y-73967267D02*
X119478427Y-74003553D01*
X119478427Y-74003553D02*
X119442141Y-74076125D01*
X119442141Y-74076125D02*
X119442141Y-74221267D01*
X119442141Y-74221267D02*
X119478427Y-74293839D01*
X119478427Y-74293839D02*
X119550998Y-74330125D01*
X119550998Y-74330125D02*
X119623570Y-74330125D01*
X119623570Y-74330125D02*
X119696141Y-73967267D01*
X119950141Y-74983268D02*
X119550998Y-74983268D01*
X119550998Y-74983268D02*
X119478427Y-74946982D01*
X119478427Y-74946982D02*
X119442141Y-74874410D01*
X119442141Y-74874410D02*
X119442141Y-74729268D01*
X119442141Y-74729268D02*
X119478427Y-74656696D01*
X119913856Y-74983268D02*
X119950141Y-74910696D01*
X119950141Y-74910696D02*
X119950141Y-74729268D01*
X119950141Y-74729268D02*
X119913856Y-74656696D01*
X119913856Y-74656696D02*
X119841284Y-74620410D01*
X119841284Y-74620410D02*
X119768713Y-74620410D01*
X119768713Y-74620410D02*
X119696141Y-74656696D01*
X119696141Y-74656696D02*
X119659856Y-74729268D01*
X119659856Y-74729268D02*
X119659856Y-74910696D01*
X119659856Y-74910696D02*
X119623570Y-74983268D01*
X119950141Y-75346125D02*
X119442141Y-75346125D01*
X119514713Y-75346125D02*
X119478427Y-75382411D01*
X119478427Y-75382411D02*
X119442141Y-75454982D01*
X119442141Y-75454982D02*
X119442141Y-75563839D01*
X119442141Y-75563839D02*
X119478427Y-75636411D01*
X119478427Y-75636411D02*
X119550998Y-75672697D01*
X119550998Y-75672697D02*
X119950141Y-75672697D01*
X119550998Y-75672697D02*
X119478427Y-75708982D01*
X119478427Y-75708982D02*
X119442141Y-75781554D01*
X119442141Y-75781554D02*
X119442141Y-75890411D01*
X119442141Y-75890411D02*
X119478427Y-75962982D01*
X119478427Y-75962982D02*
X119550998Y-75999268D01*
X119550998Y-75999268D02*
X119950141Y-75999268D01*
X119913856Y-76325839D02*
X119950141Y-76398411D01*
X119950141Y-76398411D02*
X119950141Y-76543554D01*
X119950141Y-76543554D02*
X119913856Y-76616125D01*
X119913856Y-76616125D02*
X119841284Y-76652411D01*
X119841284Y-76652411D02*
X119804998Y-76652411D01*
X119804998Y-76652411D02*
X119732427Y-76616125D01*
X119732427Y-76616125D02*
X119696141Y-76543554D01*
X119696141Y-76543554D02*
X119696141Y-76434697D01*
X119696141Y-76434697D02*
X119659856Y-76362125D01*
X119659856Y-76362125D02*
X119587284Y-76325839D01*
X119587284Y-76325839D02*
X119550998Y-76325839D01*
X119550998Y-76325839D02*
X119478427Y-76362125D01*
X119478427Y-76362125D02*
X119442141Y-76434697D01*
X119442141Y-76434697D02*
X119442141Y-76543554D01*
X119442141Y-76543554D02*
X119478427Y-76616125D01*
D11*
X62318230Y-57682536D02*
X61175230Y-57682536D01*
X61175230Y-57682536D02*
X61175230Y-58117965D01*
X61175230Y-58117965D02*
X61229659Y-58226822D01*
X61229659Y-58226822D02*
X61284087Y-58281251D01*
X61284087Y-58281251D02*
X61392944Y-58335679D01*
X61392944Y-58335679D02*
X61556230Y-58335679D01*
X61556230Y-58335679D02*
X61665087Y-58281251D01*
X61665087Y-58281251D02*
X61719516Y-58226822D01*
X61719516Y-58226822D02*
X61773944Y-58117965D01*
X61773944Y-58117965D02*
X61773944Y-57682536D01*
X62318230Y-58988822D02*
X62263802Y-58879965D01*
X62263802Y-58879965D02*
X62154944Y-58825536D01*
X62154944Y-58825536D02*
X61175230Y-58825536D01*
X61556230Y-59914108D02*
X62318230Y-59914108D01*
X61556230Y-59424250D02*
X62154944Y-59424250D01*
X62154944Y-59424250D02*
X62263802Y-59478679D01*
X62263802Y-59478679D02*
X62318230Y-59587536D01*
X62318230Y-59587536D02*
X62318230Y-59750822D01*
X62318230Y-59750822D02*
X62263802Y-59859679D01*
X62263802Y-59859679D02*
X62209373Y-59914108D01*
X61556230Y-60948251D02*
X62481516Y-60948251D01*
X62481516Y-60948251D02*
X62590373Y-60893822D01*
X62590373Y-60893822D02*
X62644802Y-60839393D01*
X62644802Y-60839393D02*
X62699230Y-60730536D01*
X62699230Y-60730536D02*
X62699230Y-60567251D01*
X62699230Y-60567251D02*
X62644802Y-60458393D01*
X62263802Y-60948251D02*
X62318230Y-60839393D01*
X62318230Y-60839393D02*
X62318230Y-60621679D01*
X62318230Y-60621679D02*
X62263802Y-60512822D01*
X62263802Y-60512822D02*
X62209373Y-60458393D01*
X62209373Y-60458393D02*
X62100516Y-60403965D01*
X62100516Y-60403965D02*
X61773944Y-60403965D01*
X61773944Y-60403965D02*
X61665087Y-60458393D01*
X61665087Y-60458393D02*
X61610659Y-60512822D01*
X61610659Y-60512822D02*
X61556230Y-60621679D01*
X61556230Y-60621679D02*
X61556230Y-60839393D01*
X61556230Y-60839393D02*
X61610659Y-60948251D01*
X62318230Y-62363393D02*
X61556230Y-62363393D01*
X61665087Y-62363393D02*
X61610659Y-62417822D01*
X61610659Y-62417822D02*
X61556230Y-62526679D01*
X61556230Y-62526679D02*
X61556230Y-62689965D01*
X61556230Y-62689965D02*
X61610659Y-62798822D01*
X61610659Y-62798822D02*
X61719516Y-62853251D01*
X61719516Y-62853251D02*
X62318230Y-62853251D01*
X61719516Y-62853251D02*
X61610659Y-62907679D01*
X61610659Y-62907679D02*
X61556230Y-63016536D01*
X61556230Y-63016536D02*
X61556230Y-63179822D01*
X61556230Y-63179822D02*
X61610659Y-63288679D01*
X61610659Y-63288679D02*
X61719516Y-63343108D01*
X61719516Y-63343108D02*
X62318230Y-63343108D01*
X62263802Y-64322822D02*
X62318230Y-64213965D01*
X62318230Y-64213965D02*
X62318230Y-63996251D01*
X62318230Y-63996251D02*
X62263802Y-63887393D01*
X62263802Y-63887393D02*
X62154944Y-63832965D01*
X62154944Y-63832965D02*
X61719516Y-63832965D01*
X61719516Y-63832965D02*
X61610659Y-63887393D01*
X61610659Y-63887393D02*
X61556230Y-63996251D01*
X61556230Y-63996251D02*
X61556230Y-64213965D01*
X61556230Y-64213965D02*
X61610659Y-64322822D01*
X61610659Y-64322822D02*
X61719516Y-64377251D01*
X61719516Y-64377251D02*
X61828373Y-64377251D01*
X61828373Y-64377251D02*
X61937230Y-63832965D01*
X61556230Y-66227822D02*
X62481516Y-66227822D01*
X62481516Y-66227822D02*
X62590373Y-66173393D01*
X62590373Y-66173393D02*
X62644802Y-66118964D01*
X62644802Y-66118964D02*
X62699230Y-66010107D01*
X62699230Y-66010107D02*
X62699230Y-65846822D01*
X62699230Y-65846822D02*
X62644802Y-65737964D01*
X62263802Y-66227822D02*
X62318230Y-66118964D01*
X62318230Y-66118964D02*
X62318230Y-65901250D01*
X62318230Y-65901250D02*
X62263802Y-65792393D01*
X62263802Y-65792393D02*
X62209373Y-65737964D01*
X62209373Y-65737964D02*
X62100516Y-65683536D01*
X62100516Y-65683536D02*
X61773944Y-65683536D01*
X61773944Y-65683536D02*
X61665087Y-65737964D01*
X61665087Y-65737964D02*
X61610659Y-65792393D01*
X61610659Y-65792393D02*
X61556230Y-65901250D01*
X61556230Y-65901250D02*
X61556230Y-66118964D01*
X61556230Y-66118964D02*
X61610659Y-66227822D01*
X62263802Y-67207536D02*
X62318230Y-67098679D01*
X62318230Y-67098679D02*
X62318230Y-66880965D01*
X62318230Y-66880965D02*
X62263802Y-66772107D01*
X62263802Y-66772107D02*
X62154944Y-66717679D01*
X62154944Y-66717679D02*
X61719516Y-66717679D01*
X61719516Y-66717679D02*
X61610659Y-66772107D01*
X61610659Y-66772107D02*
X61556230Y-66880965D01*
X61556230Y-66880965D02*
X61556230Y-67098679D01*
X61556230Y-67098679D02*
X61610659Y-67207536D01*
X61610659Y-67207536D02*
X61719516Y-67261965D01*
X61719516Y-67261965D02*
X61828373Y-67261965D01*
X61828373Y-67261965D02*
X61937230Y-66717679D01*
X61556230Y-67751821D02*
X62318230Y-67751821D01*
X61665087Y-67751821D02*
X61610659Y-67806250D01*
X61610659Y-67806250D02*
X61556230Y-67915107D01*
X61556230Y-67915107D02*
X61556230Y-68078393D01*
X61556230Y-68078393D02*
X61610659Y-68187250D01*
X61610659Y-68187250D02*
X61719516Y-68241679D01*
X61719516Y-68241679D02*
X62318230Y-68241679D01*
X61556230Y-68622679D02*
X61556230Y-69058107D01*
X61175230Y-68785964D02*
X62154944Y-68785964D01*
X62154944Y-68785964D02*
X62263802Y-68840393D01*
X62263802Y-68840393D02*
X62318230Y-68949250D01*
X62318230Y-68949250D02*
X62318230Y-69058107D01*
X62318230Y-69602393D02*
X62263802Y-69493536D01*
X62263802Y-69493536D02*
X62154944Y-69439107D01*
X62154944Y-69439107D02*
X61175230Y-69439107D01*
X61556230Y-69928964D02*
X62318230Y-70201107D01*
X61556230Y-70473250D02*
X62318230Y-70201107D01*
X62318230Y-70201107D02*
X62590373Y-70092250D01*
X62590373Y-70092250D02*
X62644802Y-70037821D01*
X62644802Y-70037821D02*
X62699230Y-69928964D01*
X61773944Y-71779535D02*
X61773944Y-72650393D01*
X61773944Y-72650393D02*
X62046087Y-72650393D01*
X62590373Y-73956678D02*
X62644802Y-73902250D01*
X62644802Y-73902250D02*
X62753659Y-73738964D01*
X62753659Y-73738964D02*
X62808087Y-73630107D01*
X62808087Y-73630107D02*
X62862516Y-73466821D01*
X62862516Y-73466821D02*
X62916944Y-73194678D01*
X62916944Y-73194678D02*
X62916944Y-72976964D01*
X62916944Y-72976964D02*
X62862516Y-72704821D01*
X62862516Y-72704821D02*
X62808087Y-72541536D01*
X62808087Y-72541536D02*
X62753659Y-72432678D01*
X62753659Y-72432678D02*
X62644802Y-72269393D01*
X62644802Y-72269393D02*
X62590373Y-72214964D01*
X61773944Y-73521249D02*
X61773944Y-74392107D01*
X61773944Y-74392107D02*
X62046087Y-74392107D01*
D12*
%TO.C,kibuzzard-697749A6*%
G36*
X75356155Y-96420727D02*
G01*
X75403005Y-96456268D01*
X75432084Y-96507964D01*
X75445816Y-96567738D01*
X75142100Y-96567738D01*
X75150178Y-96508772D01*
X75176026Y-96457884D01*
X75221260Y-96421535D01*
X75289111Y-96407803D01*
X75356155Y-96420727D01*
G37*
G36*
X82605751Y-96694556D02*
G01*
X82656640Y-96708288D01*
X82691373Y-96735751D01*
X82704297Y-96782601D01*
X82665525Y-96856107D01*
X82565363Y-96877916D01*
X82502359Y-96877108D01*
X82449047Y-96873069D01*
X82449047Y-96698595D01*
X82495897Y-96692940D01*
X82545977Y-96690517D01*
X82605751Y-96694556D01*
G37*
G36*
X86644523Y-96694556D02*
G01*
X86695412Y-96708288D01*
X86730145Y-96735751D01*
X86743069Y-96782601D01*
X86704297Y-96856107D01*
X86604136Y-96877916D01*
X86541131Y-96877108D01*
X86487819Y-96873069D01*
X86487819Y-96698595D01*
X86534669Y-96692940D01*
X86584750Y-96690517D01*
X86644523Y-96694556D01*
G37*
G36*
X77802843Y-96430016D02*
G01*
X77844847Y-96472423D01*
X77869079Y-96541486D01*
X77877157Y-96635590D01*
X77867666Y-96728078D01*
X77839192Y-96801987D01*
X77789717Y-96850452D01*
X77717221Y-96866607D01*
X77671987Y-96864992D01*
X77628368Y-96860145D01*
X77628368Y-96446575D01*
X77680065Y-96424766D01*
X77741454Y-96415880D01*
X77802843Y-96430016D01*
G37*
G36*
X81033861Y-96430016D02*
G01*
X81075864Y-96472423D01*
X81100097Y-96541486D01*
X81108174Y-96635590D01*
X81098683Y-96728078D01*
X81070210Y-96801987D01*
X81020735Y-96850452D01*
X80948239Y-96866607D01*
X80903005Y-96864992D01*
X80859386Y-96860145D01*
X80859386Y-96446575D01*
X80911082Y-96424766D01*
X80972472Y-96415880D01*
X81033861Y-96430016D01*
G37*
G36*
X84233376Y-96424766D02*
G01*
X84287496Y-96446575D01*
X84287496Y-96858530D01*
X84239838Y-96864992D01*
X84197027Y-96866607D01*
X84127561Y-96853481D01*
X84074249Y-96814103D01*
X84040323Y-96743223D01*
X84029015Y-96635590D01*
X84037698Y-96541486D01*
X84063748Y-96472423D01*
X84107569Y-96430016D01*
X84169564Y-96415880D01*
X84233376Y-96424766D01*
G37*
G36*
X87502359Y-96182439D02*
G01*
X87531438Y-96186478D01*
X87531438Y-96858530D01*
X87513667Y-96860145D01*
X87495897Y-96860145D01*
X87382003Y-96834297D01*
X87307690Y-96763215D01*
X87267302Y-96655784D01*
X87258215Y-96590557D01*
X87255186Y-96519273D01*
X87264879Y-96393263D01*
X87298805Y-96285024D01*
X87365040Y-96209903D01*
X87473279Y-96181632D01*
X87502359Y-96182439D01*
G37*
G36*
X78594645Y-96429814D02*
G01*
X78643716Y-96476462D01*
X78673401Y-96548554D01*
X78683296Y-96640436D01*
X78674208Y-96732520D01*
X78646947Y-96805218D01*
X78599491Y-96852472D01*
X78529822Y-96868223D01*
X78461769Y-96852472D01*
X78412698Y-96805218D01*
X78383013Y-96732520D01*
X78373118Y-96640436D01*
X78382205Y-96548554D01*
X78409467Y-96476462D01*
X78456922Y-96429814D01*
X78526591Y-96414265D01*
X78594645Y-96429814D01*
G37*
G36*
X83441171Y-96429814D02*
G01*
X83490242Y-96476462D01*
X83519927Y-96548554D01*
X83529822Y-96640436D01*
X83520735Y-96732520D01*
X83493473Y-96805218D01*
X83446018Y-96852472D01*
X83376349Y-96868223D01*
X83308296Y-96852472D01*
X83259225Y-96805218D01*
X83229540Y-96732520D01*
X83219645Y-96640436D01*
X83228732Y-96548554D01*
X83255994Y-96476462D01*
X83303449Y-96429814D01*
X83373118Y-96414265D01*
X83441171Y-96429814D01*
G37*
G36*
X88557447Y-97175708D02*
G01*
X88134023Y-97175708D01*
X87730145Y-97175708D01*
X87516898Y-97175708D01*
X86618675Y-97175708D01*
X85835153Y-97175708D01*
X85292342Y-97175708D01*
X84192181Y-97175708D01*
X83373118Y-97175708D01*
X82579903Y-97175708D01*
X81818998Y-97175708D01*
X80949855Y-97175708D01*
X78969241Y-97175708D01*
X78526591Y-97175708D01*
X77718837Y-97175708D01*
X76912698Y-97175708D01*
X75977318Y-97175708D01*
X75234184Y-97175708D01*
X74949855Y-97175708D01*
X74545977Y-97175708D01*
X74382488Y-96630743D01*
X74949855Y-96630743D01*
X74950662Y-96671131D01*
X74953086Y-96705057D01*
X75445816Y-96705057D01*
X75430468Y-96771494D01*
X75384426Y-96822181D01*
X75314152Y-96854289D01*
X75226107Y-96864992D01*
X75112213Y-96852068D01*
X75020937Y-96826220D01*
X74993473Y-96995848D01*
X75103328Y-97025735D01*
X75234184Y-97037851D01*
X75326066Y-97031591D01*
X75407851Y-97012811D01*
X75465085Y-96987771D01*
X75754378Y-96987771D01*
X75776187Y-96999079D01*
X75820614Y-97016042D01*
X75887658Y-97031389D01*
X75977318Y-97037851D01*
X76096058Y-97017456D01*
X76127022Y-96994233D01*
X76608982Y-96994233D01*
X76669766Y-97008772D01*
X76742262Y-97023312D01*
X76824047Y-97034216D01*
X76912698Y-97037851D01*
X76997916Y-97031389D01*
X77066171Y-97012003D01*
X77084864Y-96997464D01*
X77429661Y-96997464D01*
X77490646Y-97013619D01*
X77563748Y-97026543D01*
X77642100Y-97035024D01*
X77718837Y-97037851D01*
X77827704Y-97026184D01*
X77917365Y-96991181D01*
X77987819Y-96932843D01*
X78038528Y-96854222D01*
X78068954Y-96758368D01*
X78079095Y-96645283D01*
X78078617Y-96638821D01*
X78169564Y-96638821D01*
X78176026Y-96725048D01*
X78195412Y-96802795D01*
X78226511Y-96871252D01*
X78268110Y-96929612D01*
X78319604Y-96976866D01*
X78380388Y-97012003D01*
X78449653Y-97033813D01*
X78526591Y-97041082D01*
X78603530Y-97033813D01*
X78647141Y-97020081D01*
X78969241Y-97020081D01*
X79151793Y-97020081D01*
X79142100Y-96243021D01*
X79264879Y-96666284D01*
X79410275Y-96666284D01*
X79528207Y-96243021D01*
X79520129Y-97020081D01*
X79702682Y-97020081D01*
X79701770Y-96997464D01*
X80660679Y-96997464D01*
X80721664Y-97013619D01*
X80794766Y-97026543D01*
X80873118Y-97035024D01*
X80949855Y-97037851D01*
X81058722Y-97026184D01*
X81148383Y-96991181D01*
X81218837Y-96932843D01*
X81269546Y-96854222D01*
X81299971Y-96758368D01*
X81310113Y-96645283D01*
X81301587Y-96530133D01*
X81276008Y-96432395D01*
X81233376Y-96352068D01*
X81174051Y-96292384D01*
X81144849Y-96278562D01*
X81421583Y-96278562D01*
X81457124Y-96462730D01*
X81503166Y-96453037D01*
X81557286Y-96444152D01*
X81610598Y-96438498D01*
X81654216Y-96436882D01*
X81736607Y-96440921D01*
X81818998Y-96456268D01*
X81818998Y-97020081D01*
X82019321Y-97020081D01*
X82019321Y-96549968D01*
X82258417Y-96549968D01*
X82258417Y-97002310D01*
X82387658Y-97024927D01*
X82478530Y-97034620D01*
X82579903Y-97037851D01*
X82711567Y-97024927D01*
X82812536Y-96982116D01*
X82877157Y-96904572D01*
X82899774Y-96787447D01*
X82873926Y-96675977D01*
X82838421Y-96638821D01*
X83016090Y-96638821D01*
X83022553Y-96725048D01*
X83041939Y-96802795D01*
X83073037Y-96871252D01*
X83114637Y-96929612D01*
X83166131Y-96976866D01*
X83226914Y-97012003D01*
X83296179Y-97033813D01*
X83373118Y-97041082D01*
X83450057Y-97033813D01*
X83519321Y-97012003D01*
X83580307Y-96976866D01*
X83632407Y-96929612D01*
X83674612Y-96871252D01*
X83705913Y-96802795D01*
X83725299Y-96725048D01*
X83731640Y-96640436D01*
X83827076Y-96640436D01*
X83833134Y-96726664D01*
X83851309Y-96804410D01*
X83881195Y-96872464D01*
X83922391Y-96929612D01*
X83974491Y-96975452D01*
X84037092Y-97009580D01*
X84109790Y-97030784D01*
X84192181Y-97037851D01*
X84270533Y-97035024D01*
X84350501Y-97026543D01*
X84424814Y-97013619D01*
X84486204Y-96997464D01*
X84486204Y-96591971D01*
X84681680Y-96591971D01*
X84681680Y-97020081D01*
X84880388Y-97020081D01*
X84880388Y-96617819D01*
X84886446Y-96526139D01*
X84904620Y-96464346D01*
X84996704Y-96417496D01*
X85050824Y-96423958D01*
X85093635Y-96435267D01*
X85093635Y-97020081D01*
X85292342Y-97020081D01*
X85292342Y-96810065D01*
X85487819Y-96810065D01*
X85505590Y-96898918D01*
X85564556Y-96971616D01*
X85671987Y-97020081D01*
X85745897Y-97033409D01*
X85835153Y-97037851D01*
X85926430Y-97032197D01*
X86003166Y-97015234D01*
X86114637Y-96974847D01*
X86083942Y-96808449D01*
X85963586Y-96850452D01*
X85833538Y-96869838D01*
X85722068Y-96859338D01*
X85683296Y-96816527D01*
X85695412Y-96780985D01*
X85729338Y-96755945D01*
X85779418Y-96735751D01*
X85838384Y-96716365D01*
X85927237Y-96686478D01*
X86009628Y-96643667D01*
X86071018Y-96578239D01*
X86077913Y-96549968D01*
X86297189Y-96549968D01*
X86297189Y-97002310D01*
X86426430Y-97024927D01*
X86517302Y-97034620D01*
X86618675Y-97037851D01*
X86750339Y-97024927D01*
X86851309Y-96982116D01*
X86915929Y-96904572D01*
X86938546Y-96787447D01*
X86912698Y-96675977D01*
X86843231Y-96603279D01*
X86743069Y-96563700D01*
X86625137Y-96551583D01*
X86552036Y-96554814D01*
X86487819Y-96564507D01*
X86487819Y-96540275D01*
X86495717Y-96519273D01*
X87053247Y-96519273D01*
X87061931Y-96647908D01*
X87087981Y-96755945D01*
X87129378Y-96844596D01*
X87184103Y-96915073D01*
X87251349Y-96968183D01*
X87330307Y-97004733D01*
X87419362Y-97025937D01*
X87516898Y-97033005D01*
X87621099Y-97027351D01*
X87730145Y-97008772D01*
X87730145Y-96033005D01*
X87602520Y-96013619D01*
X87491050Y-96008772D01*
X87396745Y-96016042D01*
X87310921Y-96037851D01*
X87235598Y-96075210D01*
X87172795Y-96129128D01*
X87122512Y-96199806D01*
X87084750Y-96287447D01*
X87061123Y-96393465D01*
X87053247Y-96519273D01*
X86495717Y-96519273D01*
X86523360Y-96445767D01*
X86571826Y-96417294D01*
X86646139Y-96407803D01*
X86755186Y-96415880D01*
X86840000Y-96435267D01*
X86867464Y-96275331D01*
X86762456Y-96251906D01*
X86693393Y-96244031D01*
X86621906Y-96241405D01*
X86536082Y-96246858D01*
X86466010Y-96263215D01*
X86366656Y-96324604D01*
X86313344Y-96421535D01*
X86297189Y-96549968D01*
X86077913Y-96549968D01*
X86095250Y-96478885D01*
X86076672Y-96387609D01*
X86018514Y-96311680D01*
X85917544Y-96259984D01*
X85850097Y-96246050D01*
X85770533Y-96241405D01*
X85698845Y-96244233D01*
X85632407Y-96252714D01*
X85521745Y-96285024D01*
X85552439Y-96453037D01*
X85638061Y-96426381D01*
X85768918Y-96407803D01*
X85871502Y-96426381D01*
X85898158Y-96465961D01*
X85886042Y-96497464D01*
X85853732Y-96522504D01*
X85806882Y-96544313D01*
X85749532Y-96564507D01*
X85659063Y-96596817D01*
X85574249Y-96641244D01*
X85512052Y-96709095D01*
X85487819Y-96810065D01*
X85292342Y-96810065D01*
X85292342Y-95932843D01*
X85093635Y-95898918D01*
X85093635Y-96267254D01*
X85035477Y-96251906D01*
X84975703Y-96244637D01*
X84898562Y-96250897D01*
X84835153Y-96269677D01*
X84744685Y-96340759D01*
X84696220Y-96450614D01*
X84685315Y-96517859D01*
X84681680Y-96591971D01*
X84486204Y-96591971D01*
X84486204Y-95932843D01*
X84287496Y-95898918D01*
X84287496Y-96278562D01*
X84206721Y-96251906D01*
X84129176Y-96244637D01*
X84059305Y-96251704D01*
X83998320Y-96272908D01*
X83903813Y-96353683D01*
X83870493Y-96411236D01*
X83846462Y-96478885D01*
X83831922Y-96555622D01*
X83827076Y-96640436D01*
X83731640Y-96640436D01*
X83731761Y-96638821D01*
X83725097Y-96553805D01*
X83705105Y-96476462D01*
X83673199Y-96408207D01*
X83630792Y-96350452D01*
X83578489Y-96304006D01*
X83516898Y-96269677D01*
X83447835Y-96248473D01*
X83373118Y-96241405D01*
X83297391Y-96248473D01*
X83228530Y-96269677D01*
X83167544Y-96304006D01*
X83115444Y-96350452D01*
X83073239Y-96408207D01*
X83041939Y-96476462D01*
X83022553Y-96553805D01*
X83016090Y-96638821D01*
X82838421Y-96638821D01*
X82804459Y-96603279D01*
X82704297Y-96563700D01*
X82586365Y-96551583D01*
X82513263Y-96554814D01*
X82449047Y-96564507D01*
X82449047Y-96540275D01*
X82484588Y-96445767D01*
X82533053Y-96417294D01*
X82607367Y-96407803D01*
X82716414Y-96415880D01*
X82801228Y-96435267D01*
X82828691Y-96275331D01*
X82723683Y-96251906D01*
X82654620Y-96244031D01*
X82583134Y-96241405D01*
X82497310Y-96246858D01*
X82427237Y-96263215D01*
X82327884Y-96324604D01*
X82274572Y-96421535D01*
X82258417Y-96549968D01*
X82019321Y-96549968D01*
X82019321Y-96310872D01*
X81939152Y-96284620D01*
X81856963Y-96264023D01*
X81766696Y-96250695D01*
X81662294Y-96246252D01*
X81616252Y-96247868D01*
X81552439Y-96253522D01*
X81483780Y-96263215D01*
X81421583Y-96278562D01*
X81144849Y-96278562D01*
X81098392Y-96256573D01*
X81006397Y-96244637D01*
X80927237Y-96253522D01*
X80859386Y-96278562D01*
X80859386Y-95932843D01*
X80660679Y-95898918D01*
X80660679Y-96997464D01*
X79701770Y-96997464D01*
X79697633Y-96894879D01*
X79692181Y-96764830D01*
X79686325Y-96632763D01*
X79680065Y-96501502D01*
X79672997Y-96372666D01*
X79664717Y-96247868D01*
X79655226Y-96129532D01*
X79644523Y-96020081D01*
X79479742Y-96020081D01*
X79451470Y-96107318D01*
X79415121Y-96222019D01*
X79376349Y-96346414D01*
X79339192Y-96462730D01*
X79298805Y-96339144D01*
X79258417Y-96216365D01*
X79222876Y-96105703D01*
X79193796Y-96020081D01*
X79029015Y-96020081D01*
X79017908Y-96149321D01*
X79007205Y-96275331D01*
X78997512Y-96399120D01*
X78989435Y-96521696D01*
X78982771Y-96644071D01*
X78977318Y-96767254D01*
X78972876Y-96892254D01*
X78969241Y-97020081D01*
X78647141Y-97020081D01*
X78672795Y-97012003D01*
X78733780Y-96976866D01*
X78785880Y-96929612D01*
X78828086Y-96871252D01*
X78859386Y-96802795D01*
X78878772Y-96725048D01*
X78885234Y-96638821D01*
X78878570Y-96553805D01*
X78858578Y-96476462D01*
X78826672Y-96408207D01*
X78784265Y-96350452D01*
X78731963Y-96304006D01*
X78670372Y-96269677D01*
X78601309Y-96248473D01*
X78526591Y-96241405D01*
X78450864Y-96248473D01*
X78382003Y-96269677D01*
X78321018Y-96304006D01*
X78268918Y-96350452D01*
X78226712Y-96408207D01*
X78195412Y-96476462D01*
X78176026Y-96553805D01*
X78169564Y-96638821D01*
X78078617Y-96638821D01*
X78070569Y-96530133D01*
X78044990Y-96432395D01*
X78002359Y-96352068D01*
X77943034Y-96292384D01*
X77867374Y-96256573D01*
X77775380Y-96244637D01*
X77696220Y-96253522D01*
X77628368Y-96278562D01*
X77628368Y-95932843D01*
X77429661Y-95898918D01*
X77429661Y-96997464D01*
X77084864Y-96997464D01*
X77160679Y-96938498D01*
X77208336Y-96826220D01*
X77218029Y-96758368D01*
X77221260Y-96684055D01*
X77221260Y-96260792D01*
X77022553Y-96260792D01*
X77022553Y-96658207D01*
X77016292Y-96749685D01*
X76997512Y-96814103D01*
X76899774Y-96864992D01*
X76809305Y-96856914D01*
X76809305Y-96260792D01*
X76608982Y-96260792D01*
X76608982Y-96994233D01*
X76127022Y-96994233D01*
X76177641Y-96956268D01*
X76224895Y-96855905D01*
X76240646Y-96717981D01*
X76240646Y-96073393D01*
X76450662Y-96073393D01*
X76450662Y-95908611D01*
X76041939Y-95908611D01*
X76041939Y-96732520D01*
X76011244Y-96837528D01*
X75933700Y-96864992D01*
X75833538Y-96848837D01*
X75780226Y-96827835D01*
X75754378Y-96987771D01*
X75465085Y-96987771D01*
X75478934Y-96981712D01*
X75538708Y-96938498D01*
X75586567Y-96883368D01*
X75621906Y-96816527D01*
X75643716Y-96737771D01*
X75650985Y-96646898D01*
X75643312Y-96552795D01*
X75620291Y-96470808D01*
X75584750Y-96401139D01*
X75539515Y-96343990D01*
X75485800Y-96299362D01*
X75424814Y-96267254D01*
X75359386Y-96247868D01*
X75292342Y-96241405D01*
X75189309Y-96252445D01*
X75104225Y-96285563D01*
X75037092Y-96340759D01*
X74988627Y-96417137D01*
X74959548Y-96513798D01*
X74949855Y-96630743D01*
X74382488Y-96630743D01*
X74122553Y-95764292D01*
X74545977Y-95764292D01*
X74949855Y-95764292D01*
X87730145Y-95764292D01*
X88134023Y-95764292D01*
X88557447Y-97175708D01*
G37*
%TO.C,G\u002A\u002A\u002A*%
G36*
X74395939Y-92830166D02*
G01*
X74420667Y-93486333D01*
X74807852Y-92851333D01*
X74954320Y-92614842D01*
X75103768Y-92397618D01*
X75221735Y-92277848D01*
X75338711Y-92226948D01*
X75485185Y-92216333D01*
X75775333Y-92216333D01*
X75799154Y-93312522D01*
X75800367Y-93371251D01*
X75805233Y-93786620D01*
X75803201Y-94140268D01*
X75794822Y-94396349D01*
X75780645Y-94519022D01*
X75678249Y-94596219D01*
X75485082Y-94629333D01*
X75231848Y-94629333D01*
X75207258Y-93936206D01*
X75182667Y-93243080D01*
X74738378Y-93941851D01*
X74565453Y-94209284D01*
X74404618Y-94435613D01*
X74283984Y-94561565D01*
X74177983Y-94612508D01*
X74061044Y-94613810D01*
X73828000Y-94587000D01*
X73804509Y-93380500D01*
X73781018Y-92174000D01*
X74076114Y-92174000D01*
X74371211Y-92174000D01*
X74395939Y-92830166D01*
G37*
G36*
X80041551Y-89142754D02*
G01*
X80347333Y-89168333D01*
X80745421Y-90269000D01*
X80787652Y-90386297D01*
X80927769Y-90783687D01*
X81041653Y-91119250D01*
X81118520Y-91360638D01*
X81147587Y-91475500D01*
X81086130Y-91549186D01*
X80908034Y-91581333D01*
X80750810Y-91567583D01*
X80626529Y-91505002D01*
X80524507Y-91364618D01*
X80424119Y-91117487D01*
X80304741Y-90734666D01*
X80285502Y-90669863D01*
X80191920Y-90366628D01*
X80114599Y-90134398D01*
X80068681Y-90019076D01*
X80042477Y-90031330D01*
X79971609Y-90165935D01*
X79873254Y-90411745D01*
X79760275Y-90738743D01*
X79500667Y-91539000D01*
X79204333Y-91539000D01*
X79137883Y-91539628D01*
X79034426Y-91536161D01*
X78971440Y-91507631D01*
X78951353Y-91431526D01*
X78976591Y-91285333D01*
X79049581Y-91046537D01*
X79172747Y-90692627D01*
X79348517Y-90201087D01*
X79735769Y-89117175D01*
X80041551Y-89142754D01*
G37*
G36*
X75187117Y-89041337D02*
G01*
X75324354Y-89048364D01*
X75420313Y-89090181D01*
X75498450Y-89198334D01*
X75582220Y-89404369D01*
X75695079Y-89739833D01*
X75737342Y-89867232D01*
X75841981Y-90174253D01*
X75924520Y-90404714D01*
X75969986Y-90516326D01*
X75991235Y-90509930D01*
X76060482Y-90388364D01*
X76160040Y-90154550D01*
X76276121Y-89838992D01*
X76537333Y-89083666D01*
X76863770Y-89056856D01*
X76934096Y-89052773D01*
X77105965Y-89063144D01*
X77160104Y-89103029D01*
X77150898Y-89127146D01*
X77093081Y-89285624D01*
X76993925Y-89560934D01*
X76864336Y-89922738D01*
X76715217Y-90340698D01*
X76300435Y-91505384D01*
X76004801Y-91479858D01*
X75709168Y-91454333D01*
X75297751Y-90314309D01*
X75241141Y-90156813D01*
X75101434Y-89762211D01*
X74988832Y-89435614D01*
X74913683Y-89207365D01*
X74886333Y-89107809D01*
X74888188Y-89100286D01*
X74982564Y-89058414D01*
X75175714Y-89041333D01*
X75187117Y-89041337D01*
G37*
G36*
X84623000Y-93345222D02*
G01*
X84622619Y-93477279D01*
X84616162Y-93892030D01*
X84602953Y-94235265D01*
X84584590Y-94474380D01*
X84562669Y-94576775D01*
X84472445Y-94609795D01*
X84287502Y-94612053D01*
X84211037Y-94600565D01*
X84143016Y-94566491D01*
X84100079Y-94482752D01*
X84074921Y-94319444D01*
X84060239Y-94046661D01*
X84048727Y-93634500D01*
X84024788Y-92682000D01*
X83699261Y-92682000D01*
X83652497Y-92683112D01*
X83389661Y-92742971D01*
X83235786Y-92868223D01*
X83201113Y-93022843D01*
X83295886Y-93170806D01*
X83530346Y-93276089D01*
X83686713Y-93357031D01*
X83758290Y-93543894D01*
X83697717Y-93817910D01*
X83505274Y-94169115D01*
X83344699Y-94387777D01*
X83165711Y-94552027D01*
X82982853Y-94614785D01*
X82778565Y-94616977D01*
X82667097Y-94545510D01*
X82691855Y-94385368D01*
X82850346Y-94127390D01*
X83113245Y-93764467D01*
X82903968Y-93540733D01*
X82691699Y-93248872D01*
X82630224Y-92965202D01*
X82710172Y-92645342D01*
X82789679Y-92490686D01*
X82939128Y-92334133D01*
X83161462Y-92237169D01*
X83488279Y-92187792D01*
X83951179Y-92174000D01*
X84623000Y-92174000D01*
X84623000Y-93345222D01*
G37*
G36*
X77511000Y-92428000D02*
G01*
X77509253Y-92493567D01*
X77465614Y-92642084D01*
X77341667Y-92682000D01*
X77285078Y-92686627D01*
X77224066Y-92727334D01*
X77190132Y-92838002D01*
X77175485Y-93051743D01*
X77172333Y-93401666D01*
X77173422Y-93642171D01*
X77183000Y-93901470D01*
X77209040Y-94045689D01*
X77259332Y-94107940D01*
X77341667Y-94121333D01*
X77465227Y-94160264D01*
X77511000Y-94318888D01*
X77498438Y-94452136D01*
X77451088Y-94576356D01*
X77351945Y-94602316D01*
X77129845Y-94615732D01*
X76837255Y-94611634D01*
X76742689Y-94607281D01*
X76483517Y-94588307D01*
X76342817Y-94551642D01*
X76280516Y-94479517D01*
X76256543Y-94354166D01*
X76250711Y-94285737D01*
X76279786Y-94154595D01*
X76404710Y-94121333D01*
X76467706Y-94116257D01*
X76528806Y-94075258D01*
X76562448Y-93964646D01*
X76576709Y-93751192D01*
X76579667Y-93401666D01*
X76578578Y-93161162D01*
X76569000Y-92901863D01*
X76542960Y-92757643D01*
X76492668Y-92695392D01*
X76410333Y-92682000D01*
X76366622Y-92679379D01*
X76267611Y-92613920D01*
X76241000Y-92428000D01*
X76241000Y-92174000D01*
X76876000Y-92174000D01*
X77511000Y-92174000D01*
X77511000Y-92428000D01*
G37*
G36*
X78611667Y-89291624D02*
G01*
X78609626Y-89363470D01*
X78565583Y-89510116D01*
X78442333Y-89549333D01*
X78385744Y-89553960D01*
X78324733Y-89594667D01*
X78290799Y-89705336D01*
X78276151Y-89919076D01*
X78273000Y-90269000D01*
X78274089Y-90509504D01*
X78283667Y-90768803D01*
X78309707Y-90913023D01*
X78359999Y-90975274D01*
X78442333Y-90988666D01*
X78489541Y-90991771D01*
X78585899Y-91058801D01*
X78611667Y-91246375D01*
X78611667Y-91504085D01*
X77997833Y-91479209D01*
X77804061Y-91470732D01*
X77564656Y-91451221D01*
X77435642Y-91413341D01*
X77379124Y-91341849D01*
X77357210Y-91221500D01*
X77351378Y-91153071D01*
X77380453Y-91021928D01*
X77505376Y-90988666D01*
X77568372Y-90983591D01*
X77629473Y-90942591D01*
X77663115Y-90831980D01*
X77677375Y-90618526D01*
X77680333Y-90269000D01*
X77679100Y-90009873D01*
X77669132Y-89758541D01*
X77642242Y-89620161D01*
X77590349Y-89561501D01*
X77505376Y-89549333D01*
X77454270Y-89546616D01*
X77362488Y-89487842D01*
X77357210Y-89316500D01*
X77367317Y-89242960D01*
X77403696Y-89151529D01*
X77495647Y-89100519D01*
X77681062Y-89074687D01*
X77997833Y-89058790D01*
X78611667Y-89033914D01*
X78611667Y-89291624D01*
G37*
G36*
X82115033Y-93833666D02*
G01*
X82230816Y-94168293D01*
X82308338Y-94408964D01*
X82336685Y-94523500D01*
X82267055Y-94598409D01*
X82080905Y-94629333D01*
X82050976Y-94628905D01*
X81854310Y-94578673D01*
X81744333Y-94417666D01*
X81713999Y-94347553D01*
X81632760Y-94255405D01*
X81483670Y-94214974D01*
X81216173Y-94206000D01*
X81118694Y-94206769D01*
X80887544Y-94225434D01*
X80759690Y-94282675D01*
X80684910Y-94396500D01*
X80574276Y-94534495D01*
X80326167Y-94613531D01*
X80303517Y-94615496D01*
X80124439Y-94612217D01*
X80051000Y-94575510D01*
X80056647Y-94549879D01*
X80107557Y-94390970D01*
X80202890Y-94116252D01*
X80332239Y-93755381D01*
X80392056Y-93592166D01*
X80988775Y-93592166D01*
X81054173Y-93667819D01*
X81245392Y-93698000D01*
X81361179Y-93693696D01*
X81461571Y-93653489D01*
X81448399Y-93549833D01*
X81382736Y-93380376D01*
X81297721Y-93150655D01*
X81207095Y-92899645D01*
X81101156Y-93192989D01*
X81089236Y-93226546D01*
X81020333Y-93446015D01*
X80988775Y-93592166D01*
X80392056Y-93592166D01*
X80485199Y-93338016D01*
X80919398Y-92165073D01*
X81218969Y-92190703D01*
X81518540Y-92216333D01*
X81927455Y-93317000D01*
X81971903Y-93437261D01*
X82049976Y-93653489D01*
X82115033Y-93833666D01*
G37*
G36*
X79130340Y-92167194D02*
G01*
X79362169Y-92250221D01*
X79581427Y-92390908D01*
X79714087Y-92596527D01*
X79779496Y-92901071D01*
X79797000Y-93338530D01*
X79792933Y-93625248D01*
X79763812Y-93971567D01*
X79695815Y-94208239D01*
X79576320Y-94371442D01*
X79392705Y-94497354D01*
X79348578Y-94519513D01*
X78991769Y-94612706D01*
X78604202Y-94601328D01*
X78268485Y-94486198D01*
X78122994Y-94371258D01*
X77963691Y-94164979D01*
X77875431Y-93951704D01*
X77888842Y-93787776D01*
X77941267Y-93733888D01*
X78113824Y-93696823D01*
X78313616Y-93759821D01*
X78476881Y-93909666D01*
X78484288Y-93920640D01*
X78674513Y-94080321D01*
X78901381Y-94116995D01*
X79102733Y-94019733D01*
X79149624Y-93914824D01*
X79189515Y-93670387D01*
X79204333Y-93340584D01*
X79204320Y-93316384D01*
X79197996Y-93014801D01*
X79171152Y-92835936D01*
X79110656Y-92736068D01*
X79003377Y-92671474D01*
X78899106Y-92641515D01*
X78689348Y-92651821D01*
X78515088Y-92729923D01*
X78442333Y-92854312D01*
X78439778Y-92865024D01*
X78341878Y-92915480D01*
X78146000Y-92936000D01*
X78012537Y-92927450D01*
X77870755Y-92859920D01*
X77874288Y-92716740D01*
X78020324Y-92487880D01*
X78049971Y-92452185D01*
X78354137Y-92224164D01*
X78730405Y-92124503D01*
X79130340Y-92167194D01*
G37*
G36*
X89264919Y-91221500D02*
G01*
X89520929Y-91822585D01*
X89769538Y-92415457D01*
X89985880Y-92941028D01*
X90162893Y-93381707D01*
X90293517Y-93719898D01*
X90370691Y-93938009D01*
X90387356Y-94018446D01*
X90385778Y-94018831D01*
X90295761Y-93963526D01*
X90107733Y-93796299D01*
X89835616Y-93531065D01*
X89493335Y-93181733D01*
X89094811Y-92762218D01*
X88653969Y-92286431D01*
X88467240Y-92076402D01*
X88358618Y-91929312D01*
X88345408Y-91852685D01*
X88414356Y-91820764D01*
X88436255Y-91816713D01*
X88505825Y-91786676D01*
X88516494Y-91712024D01*
X88463377Y-91556788D01*
X88341588Y-91285000D01*
X88107304Y-90777000D01*
X88100819Y-92876725D01*
X88094333Y-94976450D01*
X87623450Y-94951058D01*
X87152567Y-94925666D01*
X85982097Y-92236534D01*
X85753207Y-91707093D01*
X85502392Y-91117872D01*
X85283597Y-90593865D01*
X85104106Y-90153007D01*
X84971202Y-89813233D01*
X84892168Y-89592478D01*
X84874288Y-89508676D01*
X84882157Y-89508313D01*
X84980386Y-89577169D01*
X85163284Y-89745802D01*
X85407944Y-89992192D01*
X85691463Y-90294318D01*
X85692001Y-90294907D01*
X86027914Y-90671048D01*
X86273859Y-90975364D01*
X86460979Y-91254271D01*
X86620418Y-91554182D01*
X86783322Y-91921510D01*
X87120667Y-92724333D01*
X87143287Y-90586500D01*
X87165908Y-88448666D01*
X87620679Y-88448666D01*
X88075450Y-88448666D01*
X89264919Y-91221500D01*
G37*
G36*
X72671216Y-92159867D02*
G01*
X72783534Y-92196639D01*
X73044839Y-92329881D01*
X73211647Y-92525252D01*
X73305832Y-92817659D01*
X73349264Y-93242012D01*
X73352584Y-93639815D01*
X73295792Y-94039602D01*
X73163347Y-94320020D01*
X72948478Y-94502363D01*
X72874547Y-94534552D01*
X72613052Y-94598816D01*
X72316700Y-94625943D01*
X72290628Y-94626085D01*
X72021558Y-94606785D01*
X71826367Y-94523704D01*
X71618200Y-94341466D01*
X71444307Y-94143800D01*
X71352705Y-93941478D01*
X71330333Y-93672658D01*
X71330333Y-93291717D01*
X71697305Y-93262025D01*
X71741818Y-93258526D01*
X72055529Y-93246656D01*
X72238969Y-93279558D01*
X72324963Y-93371031D01*
X72346333Y-93534874D01*
X72341772Y-93637484D01*
X72286290Y-93754979D01*
X72131688Y-93782666D01*
X72040412Y-93785846D01*
X71962755Y-93827770D01*
X72007667Y-93952000D01*
X72106351Y-94056887D01*
X72312184Y-94122337D01*
X72528678Y-94089433D01*
X72682021Y-93957566D01*
X72714680Y-93862562D01*
X72754231Y-93618517D01*
X72769667Y-93324517D01*
X72768694Y-93214761D01*
X72748437Y-92973051D01*
X72688064Y-92827612D01*
X72569428Y-92724035D01*
X72374429Y-92640546D01*
X72146095Y-92677654D01*
X71993296Y-92759437D01*
X71923000Y-92849237D01*
X71920438Y-92860630D01*
X71822526Y-92914210D01*
X71626667Y-92936000D01*
X71489251Y-92926873D01*
X71350449Y-92858414D01*
X71356374Y-92714187D01*
X71504209Y-92483789D01*
X71582456Y-92398306D01*
X71897469Y-92200928D01*
X72279387Y-92116175D01*
X72671216Y-92159867D01*
G37*
%TD*%
M02*
